<svg width="200" height="200" viewBox="0 0 200 200" fill="none" xmlns="http://www.w3.org/2000/svg">
<path d="M35 18V106.474H67.3692V18H35ZM65.7377 19.9645V33.0216H52.2763V19.9645H65.7377ZM50.2547 19.9645V33.0216H36.6315V19.9645H50.2547ZM36.6315 35.0955H50.2547V48.0527H36.6315V35.0955ZM65.7377 104.505H36.6315V50.2788H65.7377V104.505ZM52.2763 48.0527V35.0955H65.7377V48.0527H52.2763Z" stroke="#1F2723" stroke-opacity="0.12" stroke-width="0.8" stroke-linecap="round" stroke-linejoin="round"/>
<path d="M67.2407 18V106.474H99.6099V18H67.2407ZM97.9784 19.9645V33.0216H84.5075V19.9645H97.9784ZM82.4954 19.9645V33.0216H68.8723V19.9645H82.4954ZM68.8723 35.0955H82.4954V48.0527H68.8723V35.0955ZM97.9784 104.505H68.8723V50.2788H97.9784V104.505ZM84.5075 48.0527V35.0955H97.9784V48.0527H84.5075Z" stroke="#1F2723" stroke-opacity="0.12" stroke-width="0.8" stroke-linecap="round" stroke-linejoin="round"/>
<path d="M58.4933 64.9817L50.3689 73.9623" stroke="#1F2723" stroke-opacity="0.12" stroke-width="0.8" stroke-linecap="round" stroke-linejoin="round"/>
<path d="M60.5101 62.7556L59.2163 64.1826" stroke="#1F2723" stroke-opacity="0.12" stroke-width="0.8" stroke-linecap="round" stroke-linejoin="round"/>
<path d="M41.5309 80.5122L39.8661 82.2484" stroke="#1F2723" stroke-opacity="0.12" stroke-width="0.8" stroke-linecap="round" stroke-linejoin="round"/>
<path d="M52.3239 69.2533L42.7772 79.2138" stroke="#1F2723" stroke-opacity="0.12" stroke-width="0.8" stroke-linecap="round" stroke-linejoin="round"/>
<path d="M91.2336 67.7263L83.1091 76.7069" stroke="#1F2723" stroke-opacity="0.12" stroke-width="0.8" stroke-linecap="round" stroke-linejoin="round"/>
<path d="M93.2504 65.4956L91.9565 66.9226" stroke="#1F2723" stroke-opacity="0.12" stroke-width="0.8" stroke-linecap="round" stroke-linejoin="round"/>
<path d="M74.2759 83.2522L72.6111 84.9884" stroke="#1F2723" stroke-opacity="0.12" stroke-width="0.8" stroke-linecap="round" stroke-linejoin="round"/>
<path d="M85.0641 71.9931L75.5175 81.9536" stroke="#1F2723" stroke-opacity="0.12" stroke-width="0.8" stroke-linecap="round" stroke-linejoin="round"/>
<path d="M103.934 18V106.474H136.279V18H103.934ZM134.672 19.9645V33.0216H121.201V19.9645H134.672ZM119.189 19.9645V33.0216H105.551V19.9645H119.189ZM105.551 35.0955H119.174V48.0527H105.551V35.0955ZM134.657 104.505H105.551V50.2788H134.657V104.505ZM121.201 48.0527V35.0955H134.672V48.0527H121.201Z" stroke="#1F2723" stroke-opacity="0.12" stroke-width="0.8" stroke-linecap="round" stroke-linejoin="round"/>
<path d="M136.175 18V106.474H168.52V18H136.175ZM166.912 19.9645V33.0216H153.441V19.9645H166.912ZM151.429 19.9645V33.0216H137.806V19.9645H151.429ZM137.806 35.0955H151.429V48.0527H137.806V35.0955ZM166.912 104.505H137.806V50.2788H166.912V104.505ZM153.441 48.0527V35.0955H166.912V48.0527H153.441Z" stroke="#1F2723" stroke-opacity="0.12" stroke-width="0.8" stroke-linecap="round" stroke-linejoin="round"/>
<path d="M127.427 64.9817L119.303 73.9623" stroke="#1F2723" stroke-opacity="0.12" stroke-width="0.8" stroke-linecap="round" stroke-linejoin="round"/>
<path d="M129.444 62.7556L128.15 64.1826" stroke="#1F2723" stroke-opacity="0.12" stroke-width="0.8" stroke-linecap="round" stroke-linejoin="round"/>
<path d="M110.465 80.5122L108.8 82.2484" stroke="#1F2723" stroke-opacity="0.12" stroke-width="0.8" stroke-linecap="round" stroke-linejoin="round"/>
<path d="M121.258 69.2533L111.711 79.2138" stroke="#1F2723" stroke-opacity="0.12" stroke-width="0.8" stroke-linecap="round" stroke-linejoin="round"/>
<path d="M160.167 67.7263L152.043 76.7069" stroke="#1F2723" stroke-opacity="0.12" stroke-width="0.8" stroke-linecap="round" stroke-linejoin="round"/>
<path d="M162.184 65.4956L160.89 66.9226" stroke="#1F2723" stroke-opacity="0.12" stroke-width="0.8" stroke-linecap="round" stroke-linejoin="round"/>
<path d="M143.21 83.2522L141.545 84.9884" stroke="#1F2723" stroke-opacity="0.12" stroke-width="0.8" stroke-linecap="round" stroke-linejoin="round"/>
<path d="M153.998 71.9931L144.451 81.9536" stroke="#1F2723" stroke-opacity="0.12" stroke-width="0.8" stroke-linecap="round" stroke-linejoin="round"/>
<path d="M17.5139 119.985C17.5139 119.985 16.5552 115.539 11.315 115.539C6.07472 115.539 0 118.659 0 118.659C0 118.659 5.65748 120.323 8.56818 121.614C11.4789 122.906 15.9741 123.313 17.5139 119.985Z" fill="#17AB49"/>
<path d="M23.9065 122.175C23.8568 122.175 20.4643 120.03 21.3385 116.91C22.2127 113.791 26.3751 109.956 26.7079 107.592C26.7079 107.592 32.2611 121.117 23.9065 122.175Z" fill="#17AB49"/>
<path d="M32.2213 126.864C32.2213 126.864 30.7759 123.72 33.9399 121.316C37.1039 118.912 47.043 118.659 47.043 118.659C47.043 118.659 42.9253 121.569 41.5495 123.775C40.1736 125.98 35.0873 129.626 32.2213 126.864Z" fill="#17AB49"/>
<path d="M38.9368 111.337C38.9368 111.337 37.7695 107.974 42.4137 106.37C47.0579 104.766 52.3131 105.327 54.891 103.911C54.8661 103.892 45.384 118.033 38.9368 111.337Z" fill="#17AB49"/>
<path d="M17.0271 113.696C17.0271 113.696 18.696 104.795 8.93079 101.179C8.93079 101.179 10.5898 102.933 10.4209 106.569C10.252 110.205 10.257 114.134 17.0271 113.696Z" fill="#17AB49"/>
<path opacity="0.2" d="M17.5139 119.985C17.5139 119.985 16.5552 115.539 11.315 115.539C6.07472 115.539 0 118.659 0 118.659C0 118.659 5.65748 120.323 8.56818 121.614C11.4789 122.906 15.9741 123.313 17.5139 119.985Z" fill="#1F2723"/>
<path opacity="0.2" d="M23.9065 122.175C23.8568 122.175 20.4643 120.03 21.3385 116.91C22.2127 113.791 26.3751 109.956 26.7079 107.592C26.7079 107.592 32.2611 121.117 23.9065 122.175Z" fill="#1F2723"/>
<path opacity="0.2" d="M32.2213 126.864C32.2213 126.864 30.7759 123.72 33.9399 121.316C37.1039 118.912 47.043 118.659 47.043 118.659C47.043 118.659 42.9253 121.569 41.5495 123.775C40.1736 125.98 35.0873 129.626 32.2213 126.864Z" fill="#1F2723"/>
<path opacity="0.2" d="M38.9368 111.337C38.9368 111.337 37.7695 107.974 42.4137 106.37C47.0579 104.766 52.3131 105.327 54.891 103.911C54.8661 103.892 45.384 118.033 38.9368 111.337Z" fill="#1F2723"/>
<path opacity="0.2" d="M17.0271 113.696C17.0271 113.696 18.696 104.795 8.93079 101.179C8.93079 101.179 10.5898 102.933 10.4209 106.569C10.252 110.205 10.257 114.134 17.0271 113.696Z" fill="#1F2723"/>
<path d="M19.6349 132.894H33.6718L31.3572 143.633H22.3022L19.6349 132.894Z" fill="#1F2723"/>
<path d="M28.1732 133.346L32.6585 117.958L38.7282 106.35" stroke="#1F2723" stroke-width="0.8" stroke-linecap="round" stroke-linejoin="round"/>
<path d="M34.5062 125.608L29.6484 128.29" stroke="#1F2723" stroke-width="0.8" stroke-linecap="round" stroke-linejoin="round"/>
<path d="M15.9542 111.009L25.0092 133.346" stroke="#1F2723" stroke-width="0.8" stroke-linecap="round" stroke-linejoin="round"/>
<path d="M25.0092 118.659L22.4164 126.949" stroke="#1F2723" stroke-width="0.8" stroke-linecap="round" stroke-linejoin="round"/>
<path d="M14.8962 118.659L20.1315 121.316" stroke="#1F2723" stroke-width="0.8" stroke-linecap="round" stroke-linejoin="round"/>
<path d="M34.5061 114.422L42.8955 109.827" stroke="#1F2723" stroke-width="0.8" stroke-linecap="round" stroke-linejoin="round"/>
<path d="M115.961 187.413C119.744 187.099 123.509 186.591 127.241 185.893C138.099 183.836 149.593 180.111 157.396 171.911C166.575 162.289 168.498 146.961 163.555 134.831C159.726 125.444 151.451 117.844 141.606 115.395C134.791 113.697 127.445 114.377 120.883 111.869C110.721 107.984 104.735 97.4344 95.5513 91.5981C86.3672 85.7618 74.193 85.2154 64.1247 89.4275C54.0565 93.6396 46.1042 102.257 41.8425 112.306C37.5807 122.354 36.8406 133.719 38.8324 144.433C40.8938 155.564 45.4982 166.134 54.9207 172.919C62.9674 178.715 74.9678 184.959 84.3059 186.28C94.7826 187.834 105.4 188.214 115.961 187.413Z" fill="#17AB49"/>
<path opacity="0.1" d="M99.0581 132.328C99.0581 132.328 115.887 141.209 116.537 136.659C117.188 132.11 133.5 118.982 133.5 118.982C125.935 129.005 130.609 141.239 130.609 141.239C141.353 134.414 150.785 135.189 150.785 135.189C139.222 138.169 127.331 151.978 127.331 151.978L104.447 159.334C104.447 159.334 77.8189 157.119 75.0871 143.439C72.3552 129.76 56.1725 114.01 56.1725 114.01L68.9229 122.876C74.9778 117.809 68.1779 104.359 68.1779 104.359C79.6667 108.382 81.0922 121.212 81.0922 121.212L99.0581 132.328Z" fill="#1F2723"/>
<path d="M50.9373 112.067C50.9373 112.067 72.6632 117.467 79.1651 140.608" stroke="#1F2723" stroke-width="0.8" stroke-linecap="round" stroke-linejoin="round"/>
<path d="M65.0536 102.486C65.0536 102.486 80.3472 108.446 75.8718 132.328" stroke="#1F2723" stroke-width="0.8" stroke-linecap="round" stroke-linejoin="round"/>
<path d="M121.017 149.4C121.017 149.4 135.179 132.696 155.211 135.492" stroke="#1F2723" stroke-width="0.8" stroke-linecap="round" stroke-linejoin="round"/>
<path d="M121.519 143.355C121.519 143.355 123.65 120.228 139.336 116.319" stroke="#1F2723" stroke-width="0.8" stroke-linecap="round" stroke-linejoin="round"/>
<path d="M91.8857 137.633C91.8857 137.633 86.4219 137.797 78.4448 136.018C70.4677 134.24 63.9509 135.522 62.7141 142.476C61.4773 149.43 81.8075 156.513 95.9488 159.1C110.09 161.688 124.261 162.806 131.135 160.094C138.01 157.382 137.851 147.507 135.198 142.987C132.546 138.467 123.71 137.826 119.11 138.517C114.511 139.207 91.8857 137.633 91.8857 137.633Z" fill="#1F2723"/>
<path d="M119.681 161.892C111.55 161.892 102.113 160.466 95.899 159.329C81.6584 156.731 61.1792 149.564 62.4458 142.441C62.9425 139.774 64.2042 137.792 66.2406 136.565C69.0123 134.881 73.2591 134.628 78.5093 135.79C86.3324 137.533 91.821 137.399 91.8757 137.394C92.1041 137.394 114.53 138.845 119.041 138.209C123.153 137.628 132.561 138.005 135.407 142.848C137.061 145.669 137.891 150.731 136.286 154.953C135.867 156.149 135.198 157.243 134.323 158.161C133.449 159.079 132.389 159.8 131.215 160.278C128.299 161.45 124.186 161.892 119.681 161.892ZM72.5985 135.566C70.1398 135.566 68.0884 136.063 66.5337 136.972C64.6214 138.129 63.4243 139.997 62.9723 142.525C61.81 149.047 81.4101 156.205 96.0033 158.872C105.6 160.625 122.92 163.079 131.011 159.84C132.119 159.386 133.117 158.702 133.94 157.833C134.763 156.964 135.392 155.93 135.784 154.799C137.324 150.746 136.5 145.729 134.94 143.072C132.228 138.457 123.109 138.105 119.13 138.676C114.57 139.322 92.9485 137.946 91.8558 137.876C87.3098 137.834 82.7822 137.291 78.3553 136.257C76.4673 135.817 74.537 135.583 72.5985 135.561V135.566Z" fill="#1F2723"/>
<path d="M125.543 93.3216C125.324 91.9755 125.145 90.5748 124.961 89.2188C124.641 86.1564 124.088 83.1227 123.307 80.144C122.383 76.4783 120.888 72.7629 117.173 70.7463C114.965 69.5804 112.503 68.9806 110.006 69.0005C107.509 69.0205 105.057 69.6596 102.868 70.8606C100.433 72.2472 98.5155 74.3881 97.4041 76.9601C96.2518 79.687 97.1607 82.8858 97.2899 85.7419C97.4438 89.535 97.015 93.3292 96.0183 96.9923C101.239 99.8632 114.839 105.714 126.084 96.4956L125.543 93.3216Z" fill="#1F2723"/>
<path d="M108.371 97.6231C108.371 97.6231 99.6194 98.7109 95.5067 99.6794C91.394 100.648 89.9386 102.024 88.4584 104.582C86.9783 107.14 84.7779 116.652 82.6569 120.645C80.536 124.639 76.6964 125.697 76.016 129.929C75.3355 134.161 79.0657 135.616 81.8523 136.103C83.9152 136.424 85.9948 136.626 88.081 136.709C88.081 136.709 92.591 146.39 101.343 147.115C110.095 147.84 116.592 142.272 120.571 140.216C124.549 138.159 124.812 133.441 124.946 127.997C125.081 122.553 128.607 110.304 127.678 106.916C126.75 103.529 125.359 102.973 119.334 100.141C116.756 98.9443 112.082 97.3797 108.371 97.6231Z" fill="white"/>
<path d="M124.008 102.794C124.008 102.794 121.276 105.863 121.097 109.013C120.918 112.162 120.575 129.914 120.575 129.914C120.575 129.914 116.403 118.162 114.749 115.902C114.749 115.902 119.105 107.82 119.219 100.35C121.003 100.728 122.655 101.571 124.008 102.794Z" fill="#17AB49"/>
<path d="M102.918 147.413C102.387 147.423 101.856 147.403 101.328 147.353C93.1026 146.668 88.518 138.154 87.917 136.923C85.8725 136.837 83.8345 136.636 81.8125 136.322C79.2445 135.875 75.0523 134.444 75.7626 129.864C76.16 127.346 77.6451 125.891 79.2147 124.401C80.4943 123.286 81.5802 121.966 82.4284 120.497C83.551 118.381 84.7232 114.625 85.7663 111.302C86.6752 108.397 87.5395 105.625 88.2498 104.418C89.7101 101.88 91.23 100.41 95.4769 99.4064C99.5499 98.4378 108.277 97.355 108.366 97.345C112.007 97.1017 116.632 98.5769 119.473 99.9031L119.999 100.146C125.533 102.734 127.023 103.43 127.947 106.822C128.478 108.809 127.599 113.473 126.66 118.44C125.98 121.987 125.284 125.652 125.225 127.987C125.105 133.009 124.976 138.209 120.719 140.404C119.915 140.817 119.031 141.373 118.003 141.999C114.247 144.328 109.211 147.413 102.918 147.413ZM108.381 97.8566C108.063 97.8964 99.5499 98.9693 95.5613 99.908C91.4834 100.877 90.0975 102.213 88.667 104.671C87.9965 105.834 87.1471 108.566 86.2381 111.447C85.1752 114.779 84.0179 118.559 82.8705 120.715C81.9971 122.229 80.8812 123.59 79.5674 124.743C77.9729 126.268 76.6219 127.58 76.2543 129.944C75.6335 133.917 78.9664 135.338 81.8721 135.845C83.9234 136.164 85.9915 136.365 88.066 136.446C88.1143 136.447 88.1615 136.46 88.2025 136.486C88.2436 136.511 88.2771 136.547 88.2995 136.59C88.3442 136.689 92.8543 146.146 101.338 146.852C108.232 147.423 113.681 144.055 117.665 141.602C118.728 140.956 119.597 140.404 120.412 139.982C124.127 138.05 124.514 133.793 124.653 127.972C124.713 125.603 125.413 121.917 126.094 118.351C126.983 113.672 127.907 108.834 127.39 106.956C126.521 103.772 125.215 103.166 119.716 100.593L119.185 100.345C116.458 99.0686 111.943 97.6331 108.396 97.8616L108.381 97.8566Z" fill="#1F2723"/>
<path d="M90.2019 131.866C90.1695 131.876 90.1349 131.876 90.1025 131.866C90.0718 131.857 90.0434 131.841 90.0192 131.82C89.995 131.799 89.9754 131.773 89.9618 131.744C89.9482 131.715 89.9409 131.684 89.9403 131.652C89.9398 131.62 89.9459 131.588 89.9585 131.558C89.9883 131.499 92.6109 125.533 92.6109 123.904C92.6109 122.761 92.0397 121.604 91.3741 120.263C91.086 119.682 90.788 119.081 90.5049 118.425C89.5909 116.27 91.6721 112.892 91.9602 112.465C92.0894 111.586 93.5149 101.87 94.8908 100.047C94.9336 99.9948 94.9941 99.9599 95.0608 99.9489C95.1276 99.9379 95.196 99.9517 95.2534 99.9875C95.2812 100.004 95.3054 100.026 95.3242 100.053C95.343 100.079 95.3561 100.109 95.3626 100.141C95.3692 100.173 95.369 100.206 95.3622 100.237C95.3553 100.269 95.342 100.299 95.3229 100.325C93.9868 102.084 92.4867 112.47 92.4768 112.569C92.4687 112.602 92.4553 112.634 92.437 112.663C92.437 112.698 90.1323 116.22 91.0016 118.261C91.2698 118.902 91.5678 119.498 91.8559 120.079C92.5413 121.465 93.1374 122.672 93.1374 123.914C93.1374 125.632 90.5744 131.499 90.485 131.747C90.4568 131.794 90.414 131.832 90.3631 131.853C90.3121 131.875 90.2556 131.879 90.2019 131.866Z" fill="#1F2723"/>
<path d="M88.0809 133.56C88.0809 133.56 91.24 135.268 93.6043 135.75L88.0809 133.56Z" fill="white"/>
<path d="M91.2648 137.191C92.2731 137.534 93.325 137.733 94.3891 137.782L91.2648 137.191Z" fill="white"/>
<path d="M88.4833 134.792C90.1728 135.869 92.0393 136.639 93.9967 137.067L88.4833 134.792Z" fill="white"/>
<path d="M103.667 96.1828C103.667 96.1828 102.48 102.476 102.361 106.35C102.242 110.225 105.441 114.139 109.946 109.162C114.451 104.185 113.741 95.9642 113.741 95.9642C110.534 97.3211 106.93 97.3992 103.667 96.1828Z" fill="white"/>
<path d="M104.328 102.595L104.283 98.8799L103.25 98.2788L100.732 98.5471L100.305 100.032L104.328 102.595Z" fill="#17AB49"/>
<path d="M103.901 104.324H103.856C103.823 104.321 103.791 104.311 103.762 104.295C103.733 104.279 103.708 104.258 103.687 104.232C103.667 104.206 103.652 104.176 103.643 104.144C103.635 104.112 103.633 104.078 103.638 104.046C103.985 102.252 103.757 98.9444 103.757 98.9096C103.756 98.877 103.761 98.8445 103.772 98.8138C103.783 98.7832 103.801 98.7551 103.823 98.7311C103.845 98.7071 103.871 98.6877 103.901 98.674C103.931 98.6603 103.963 98.6526 103.995 98.6513C104.063 98.6469 104.129 98.6679 104.182 98.7103C104.234 98.7526 104.269 98.8131 104.279 98.8798C104.279 99.014 104.517 102.267 104.154 104.13C104.143 104.187 104.11 104.239 104.064 104.274C104.017 104.31 103.959 104.327 103.901 104.324Z" fill="#1F2723"/>
<path d="M77.3819 159.279C77.3819 159.279 74.7345 160.571 69.7823 160.73C64.8301 160.889 60.7671 158.47 63.0619 156.532C64.312 155.513 65.7563 154.759 67.307 154.316C68.8577 153.873 70.4823 153.75 72.082 153.954C75.261 154.451 80.0293 155.564 80.0293 155.564L77.3819 159.279Z" fill="white"/>
<path d="M69.3203 160.958C66.0073 160.958 62.9575 159.831 62.277 158.306C62.1291 157.956 62.1087 157.565 62.2195 157.202C62.3303 156.839 62.5651 156.526 62.883 156.319C64.1624 155.272 65.6423 154.497 67.2319 154.043C68.8215 153.588 70.4872 153.464 72.1267 153.676C75.3106 154.173 80.074 155.286 80.074 155.296C80.1128 155.305 80.149 155.322 80.18 155.347C80.2109 155.372 80.2359 155.404 80.2528 155.44C80.2699 155.476 80.2766 155.516 80.2722 155.555C80.2678 155.594 80.2525 155.632 80.228 155.663L77.5756 159.369C77.5516 159.404 77.5192 159.433 77.4812 159.453C77.367 159.503 74.7146 160.774 69.7624 160.943L69.3203 160.958ZM70.5621 154.059C67.8951 154.075 65.3138 155.002 63.2456 156.686C62.999 156.826 62.8122 157.051 62.7206 157.32C62.6291 157.588 62.6391 157.88 62.7489 158.142C63.2754 159.359 66.1315 160.625 69.7475 160.481C74.1781 160.337 76.766 159.269 77.1981 159.086L79.6071 155.698C78.4399 155.43 74.6699 154.575 72.0324 154.173C71.5459 154.098 71.0544 154.06 70.5621 154.059Z" fill="#1F2723"/>
<path d="M78.0971 155.221C78.3355 155.221 78.5938 155.261 78.8421 155.271C77.2179 154.903 74.2774 154.277 72.082 153.93C70.4823 153.727 68.8581 153.851 67.3076 154.294C65.7572 154.737 64.3128 155.49 63.0618 156.508C61.8945 157.476 62.3813 158.609 63.782 159.443C63.7104 158.739 63.8824 158.032 64.2693 157.44C64.6562 156.848 65.2347 156.407 65.9079 156.19C68.8981 154.923 75.087 154.923 78.0971 155.221Z" fill="white"/>
<path d="M63.7821 159.687C63.7334 159.684 63.6858 159.67 63.6431 159.647C62.7242 159.105 62.2076 158.47 62.1529 157.814C62.1427 157.524 62.2045 157.236 62.3328 156.976C62.4611 156.716 62.6519 156.492 62.8881 156.324C64.1674 155.277 65.6474 154.502 67.2369 154.048C68.8265 153.593 70.4923 153.469 72.1318 153.681C74.3272 154.014 77.3273 154.65 78.9118 155.023C78.9737 155.035 79.0288 155.069 79.0664 155.12C79.1041 155.17 79.1216 155.233 79.1155 155.296C79.0982 155.356 79.0616 155.409 79.0114 155.447C78.9612 155.484 78.9001 155.505 78.8373 155.504C78.5798 155.502 78.3227 155.483 78.0674 155.45C74.8835 155.112 68.8585 155.172 66.0124 156.418C65.388 156.616 64.8514 157.024 64.4945 157.573C64.1375 158.122 63.9823 158.778 64.0553 159.428C64.0595 159.476 64.0495 159.523 64.0265 159.565C64.0035 159.606 63.9685 159.64 63.9262 159.662C63.8807 159.681 63.8314 159.689 63.7821 159.687ZM70.5622 154.059C67.8952 154.075 65.3139 155.002 63.2457 156.686C63.0676 156.807 62.9222 156.97 62.8225 157.161C62.7228 157.352 62.6719 157.564 62.6745 157.779C62.7278 158.021 62.8291 158.25 62.9724 158.452C63.1157 158.655 63.2982 158.826 63.509 158.956C63.5451 158.289 63.7808 157.649 64.1856 157.117C64.5903 156.586 65.1455 156.188 65.7789 155.976C68.2376 154.918 72.5242 154.734 75.6087 154.824C74.3968 154.58 73.1252 154.327 72.0374 154.173C71.5493 154.098 71.0561 154.059 70.5622 154.059Z" fill="#1F2723"/>
<path d="M132.73 145.863C132.73 145.863 127.425 153.12 122.125 156.026C116.825 158.932 92.5959 159.279 87.6488 159.279H77.3818V155.892C77.3818 155.892 93.6539 153.771 102.669 149.112C111.684 144.453 116.458 139.272 123.531 137.191C130.604 135.11 136.788 138.646 136.614 147.358" fill="#1F2723"/>
<path d="M87.6439 159.498H77.3819C77.3486 159.499 77.3154 159.494 77.2842 159.482C77.2529 159.471 77.2243 159.453 77.1998 159.431C77.1754 159.408 77.1556 159.381 77.1417 159.351C77.1278 159.32 77.1199 159.288 77.1187 159.254V155.857C77.1209 155.796 77.1454 155.738 77.1875 155.694C77.2297 155.65 77.2865 155.623 77.3471 155.619C77.5111 155.619 93.6689 153.468 102.535 148.873C105.845 147.106 109.046 145.142 112.122 142.992C115.976 140.385 119.309 138.149 123.451 136.913C127.003 135.855 130.321 136.192 132.789 137.881C135.511 139.719 136.967 143.072 136.882 147.319C136.88 147.383 136.852 147.443 136.806 147.488C136.76 147.532 136.698 147.557 136.634 147.557C136.601 147.558 136.568 147.553 136.537 147.541C136.506 147.53 136.478 147.512 136.454 147.49C136.43 147.467 136.41 147.44 136.397 147.409C136.384 147.379 136.376 147.347 136.376 147.314C136.46 143.226 135.079 140.012 132.496 138.264C130.167 136.694 127.033 136.376 123.64 137.384C119.582 138.591 116.284 140.817 112.459 143.395C109.37 145.555 106.154 147.527 102.828 149.3C94.4438 153.657 79.6916 155.802 77.675 156.08V159.016H87.6687C87.9468 159.016 116.239 158.981 122.006 155.822C127.197 152.981 132.477 145.809 132.531 145.734C132.573 145.681 132.633 145.645 132.7 145.632C132.766 145.619 132.835 145.631 132.894 145.665C132.922 145.679 132.947 145.7 132.967 145.725C132.987 145.75 133.001 145.779 133.008 145.81C133.016 145.841 133.017 145.874 133.01 145.905C133.004 145.937 132.992 145.966 132.973 145.992C132.924 146.062 127.579 153.329 122.279 156.229C116.363 159.458 87.927 159.498 87.6439 159.498Z" fill="#1F2723"/>
<path d="M74.2525 138.969L73.6714 138.914L74.2525 138.969Z" fill="#1F2723"/>
<path d="M74.2526 139.222H74.2277L73.6515 139.173C73.6183 139.171 73.5856 139.163 73.5553 139.15C73.5251 139.136 73.4979 139.116 73.4753 139.091C73.4527 139.067 73.4351 139.038 73.4236 139.007C73.4121 138.976 73.4068 138.943 73.4082 138.909C73.4191 138.844 73.4542 138.784 73.5065 138.743C73.5589 138.702 73.6248 138.681 73.6913 138.686L74.2873 138.74C74.3199 138.743 74.3518 138.751 74.381 138.766C74.4103 138.781 74.4364 138.801 74.4578 138.825C74.4793 138.85 74.4957 138.879 74.5061 138.91C74.5164 138.941 74.5206 138.974 74.5183 139.006C74.516 139.039 74.5073 139.071 74.4927 139.1C74.4782 139.129 74.4579 139.155 74.4333 139.177C74.4086 139.198 74.3799 139.215 74.3489 139.225C74.3179 139.235 74.2852 139.239 74.2526 139.237V139.222Z" fill="#1F2723"/>
<path d="M124.062 159.895C126.719 159.039 129.44 158.393 132.198 157.963C135.909 157.466 138.914 157.963 139.972 160.064C141.03 162.165 140.329 164.738 136.614 165.389C132.899 166.04 126.183 164.738 125.478 164.738C124.865 164.67 124.268 164.502 123.71 164.241L124.062 159.895Z" fill="white"/>
<path d="M134.106 165.791C131.637 165.731 129.174 165.509 126.735 165.126C126.109 165.036 125.617 164.967 125.478 164.967C124.826 164.906 124.188 164.738 123.59 164.47C123.544 164.453 123.504 164.42 123.478 164.378C123.452 164.336 123.441 164.286 123.446 164.236L123.794 159.88C123.801 159.833 123.821 159.788 123.851 159.751C123.882 159.714 123.922 159.687 123.968 159.672C126.643 158.812 129.382 158.164 132.159 157.735C136.405 157.178 139.192 157.953 140.215 159.97C140.515 160.506 140.676 161.108 140.685 161.722C140.694 162.336 140.549 162.942 140.265 163.486C139.833 164.256 138.859 165.25 136.664 165.632C135.817 165.757 134.961 165.81 134.106 165.791ZM123.988 164.102C124.46 164.311 124.964 164.442 125.478 164.49C125.925 164.525 126.372 164.579 126.814 164.654C129.064 164.977 133.738 165.622 136.569 165.15C138.159 164.872 139.252 164.222 139.793 163.258C140.04 162.778 140.164 162.243 140.154 161.703C140.144 161.163 139.999 160.634 139.733 160.163C138.581 157.884 135.02 157.839 132.233 158.201C129.549 158.621 126.902 159.248 124.316 160.079L123.988 164.102Z" fill="#1F2723"/>
<path d="M135.69 157.844C136.823 158.241 138.953 159.334 138.561 161.842C138.03 165.23 133.594 165.23 130.614 165.23C130.393 165.235 130.173 165.265 129.958 165.319C132.183 165.558 134.781 165.716 136.624 165.399C140.339 164.748 141.045 162.17 139.982 160.074C139.266 158.678 137.732 158.003 135.69 157.844Z" fill="white"/>
<path d="M134.101 165.791C132.703 165.78 131.307 165.693 129.918 165.533C129.859 165.529 129.803 165.505 129.76 165.464C129.718 165.423 129.691 165.368 129.685 165.309C129.683 165.251 129.702 165.194 129.737 165.148C129.772 165.102 129.822 165.07 129.879 165.056C130.116 164.996 130.359 164.966 130.604 164.966C133.639 164.966 137.796 164.966 138.298 161.783C138.656 159.488 136.758 158.455 135.596 158.042C135.54 158.023 135.493 157.985 135.463 157.934C135.432 157.883 135.422 157.823 135.432 157.764C135.449 157.705 135.487 157.653 135.539 157.62C135.591 157.586 135.654 157.572 135.715 157.58C138 157.764 139.515 158.549 140.215 159.945C140.515 160.482 140.677 161.085 140.685 161.699C140.694 162.314 140.549 162.921 140.265 163.466C139.833 164.236 138.859 165.225 136.664 165.607C135.816 165.743 134.959 165.805 134.101 165.791ZM134.046 165.294C134.89 165.301 135.734 165.243 136.569 165.12C138.159 164.842 139.252 164.192 139.793 163.228C140.04 162.748 140.164 162.213 140.154 161.673C140.144 161.133 139.999 160.604 139.733 160.134C139.474 159.67 139.118 159.267 138.69 158.952C138.261 158.638 137.77 158.419 137.25 158.311C137.84 158.67 138.307 159.199 138.592 159.828C138.876 160.457 138.964 161.157 138.844 161.837C138.452 164.241 136.331 165.046 134.046 165.324V165.294Z" fill="#1F2723"/>
<path d="M72.2608 135.378C72.2608 135.378 66.2457 134.409 62.3564 137.146C58.4672 139.883 58.9987 142.799 62.7141 146.996C66.4294 151.193 75.9712 158.609 96.659 161.996C117.347 165.384 123.71 164.256 123.71 164.256L124.062 159.895C115.279 159.954 106.672 157.43 99.3114 152.638C87.7332 144.895 82.5724 139.803 74.2526 138.979" fill="#1F2723"/>
<path d="M120.138 164.683C116.304 164.683 109.067 164.271 96.6293 162.235C74.7296 158.649 65.4858 150.488 62.5255 147.145C60.1761 144.492 59.2323 142.52 59.4608 140.742C59.6346 139.381 60.5188 138.14 62.2126 136.957C66.1564 134.181 72.0722 135.095 72.3205 135.139C72.3523 135.141 72.3834 135.15 72.4119 135.164C72.4405 135.178 72.4659 135.197 72.4868 135.221C72.5076 135.245 72.5234 135.273 72.5332 135.304C72.5431 135.334 72.5467 135.366 72.544 135.398C72.5286 135.463 72.4885 135.52 72.4322 135.557C72.3758 135.594 72.3074 135.608 72.2411 135.596C72.1864 135.596 66.2806 134.677 62.5503 137.32C60.9907 138.423 60.1562 139.555 59.9972 140.797C59.7886 142.411 60.7274 144.328 62.9477 146.832C65.8683 150.135 75.0077 158.192 96.7237 161.758C115.152 164.773 122.249 164.177 123.481 164.043L123.794 160.144C115.057 160.109 106.513 157.572 99.1725 152.832C96.5499 151.079 94.2302 149.445 92.1838 147.989C85.2299 143.082 80.6056 139.833 74.2477 139.202C74.2142 139.201 74.1814 139.192 74.1513 139.177C74.1212 139.162 74.0944 139.141 74.0726 139.116C74.0507 139.09 74.0343 139.061 74.0243 139.029C74.0143 138.996 74.0109 138.963 74.0143 138.929C74.0253 138.862 74.0622 138.802 74.117 138.762C74.1719 138.722 74.2402 138.706 74.3073 138.716C80.8142 139.366 85.4435 142.64 92.5067 147.602C94.5531 149.057 96.8727 150.676 99.4605 152.445C106.784 157.18 115.326 159.686 124.048 159.657C124.084 159.654 124.12 159.659 124.154 159.671C124.188 159.683 124.22 159.702 124.246 159.726C124.272 159.75 124.292 159.78 124.305 159.812C124.317 159.845 124.323 159.88 124.321 159.915L123.973 164.271C123.964 164.326 123.938 164.377 123.899 164.416C123.86 164.455 123.809 164.481 123.754 164.49C122.556 164.65 121.347 164.715 120.138 164.683Z" fill="#1F2723"/>
<path d="M70.0505 139.491C69.9906 139.492 69.9318 139.474 69.8839 139.438C69.836 139.401 69.8019 139.35 69.7873 139.292C69.7816 139.26 69.7825 139.228 69.7897 139.196C69.797 139.165 69.8106 139.135 69.8296 139.109C69.8487 139.083 69.8728 139.061 69.9005 139.045C69.9282 139.029 69.959 139.018 69.9909 139.014C70.6299 138.903 71.2752 138.831 71.9231 138.8C71.9908 138.795 72.058 138.816 72.1101 138.86C72.1622 138.903 72.1949 138.966 72.2012 139.034C72.2013 139.067 72.1947 139.099 72.1819 139.13C72.1691 139.16 72.1504 139.188 72.1268 139.211C72.1032 139.234 72.0752 139.252 72.0445 139.265C72.0138 139.277 71.981 139.283 71.9479 139.282C71.3235 139.312 70.7015 139.38 70.0853 139.486L70.0505 139.491Z" fill="white"/>
<path d="M121.38 89.4574C118.127 91.027 117.67 87.8778 117.695 85.9804C117.726 85.963 117.751 85.9348 117.764 85.9009C117.998 85.0267 117.764 80.6806 115.022 78.9471C112.603 77.4122 109.4 76.091 106.409 76.086C105.399 76.1173 104.41 76.3853 103.523 76.8684C102.635 77.3516 101.873 78.0363 101.298 78.8676C99.9572 80.7203 100.071 82.871 99.9622 85.0069C99.8529 87.1427 99.6294 89.512 100.096 91.6528C100.722 94.5089 103.643 100.509 107.194 100.509C110.413 100.509 116.135 96.1132 118.092 93.5204C118.531 93.39 118.941 93.1758 119.299 92.8896C120.029 92.3134 121.489 91.3647 121.38 89.4574Z" fill="white"/>
<path d="M107.194 100.723C103.37 100.723 100.419 94.3399 99.838 91.6726C99.4208 89.7801 99.54 87.7734 99.6492 85.8263L99.6989 84.972L99.7287 84.1226C99.8032 82.2798 99.8728 80.3725 101.085 78.7036C101.679 77.8379 102.47 77.1242 103.391 76.6203C104.313 76.1164 105.34 75.8363 106.39 75.8028C109.037 75.8028 112.251 76.8657 115.151 78.7036C118.052 80.5414 118.256 84.9968 117.998 85.9207C117.988 85.9647 117.967 86.0057 117.938 86.0399C117.938 87.1078 118.102 88.886 119.095 89.4275C119.628 89.7155 120.335 89.641 121.216 89.2039C121.256 89.1842 121.301 89.1739 121.345 89.1739C121.39 89.1739 121.434 89.1842 121.475 89.2039C121.512 89.2225 121.543 89.2507 121.566 89.2857C121.589 89.3206 121.602 89.361 121.604 89.4026C121.713 91.2802 120.392 92.3083 119.617 92.8795L119.438 93.0087C119.08 93.3008 118.671 93.5232 118.231 93.6644C116.358 96.1727 110.666 100.723 107.194 100.723ZM106.38 76.2995C105.414 76.3323 104.47 76.5912 103.623 77.0553C102.776 77.5194 102.049 78.1758 101.502 78.9718C100.379 80.5265 100.315 82.2848 100.24 84.1425L100.206 84.9968L100.161 85.8512C100.047 87.7883 99.9324 89.7205 100.335 91.5832C101 94.6031 103.931 100.241 107.174 100.241C110.189 100.241 115.797 96.0783 117.854 93.3564C117.889 93.3124 117.938 93.2811 117.993 93.267C118.397 93.1474 118.774 92.9481 119.1 92.6809L119.279 92.5418C119.979 92.0103 121.013 91.2206 121.097 89.8248C120.745 90.0015 120.358 90.0968 119.964 90.1037C119.57 90.1106 119.18 90.0288 118.822 89.8646C117.645 89.2089 117.402 87.381 117.411 85.9604C117.412 85.9259 117.421 85.8919 117.436 85.861C117.452 85.8301 117.474 85.8029 117.501 85.7816C117.714 84.972 117.431 80.7599 114.848 79.1158C112.037 77.3326 108.948 76.3045 106.404 76.2995H106.38Z" fill="#1F2723"/>
<path d="M98.6359 86.8446C98.5963 86.8427 98.5574 86.833 98.5216 86.816C98.4857 86.7989 98.4537 86.7749 98.4273 86.7452C98.4066 86.7205 98.3913 86.6917 98.3825 86.6607C98.3738 86.6297 98.3716 86.5971 98.3763 86.5652C98.381 86.5333 98.3924 86.5028 98.4098 86.4756C98.4271 86.4484 98.45 86.4252 98.477 86.4075L99.7287 85.5482C99.7864 85.5105 99.8558 85.4948 99.9241 85.5039C99.9925 85.513 100.055 85.5464 100.101 85.5979C100.121 85.6232 100.135 85.6523 100.143 85.6834C100.151 85.7145 100.153 85.7469 100.148 85.7786C100.142 85.8103 100.131 85.8406 100.113 85.8677C100.096 85.8947 100.073 85.9178 100.047 85.9356L98.7799 86.8148C98.7353 86.837 98.6857 86.8473 98.6359 86.8446Z" fill="#1F2723"/>
<path d="M102.754 77.5265C102.754 77.5265 106.464 75.4651 107.76 77.4172C109.057 79.3693 115.002 92.3681 121.385 89.4574C127.768 86.5467 121.34 76.9851 115.141 73.9403C108.943 70.8955 103.747 73.5032 102.754 77.5265Z" fill="#1F2723"/>
<path d="M119.483 90.1228C114.58 90.1228 110.304 82.4586 108.347 78.9419C107.994 78.316 107.716 77.8144 107.532 77.5462C107.419 77.374 107.273 77.2261 107.103 77.111C106.932 76.9958 106.74 76.9158 106.539 76.8756C105.048 76.5478 102.932 77.725 102.913 77.7349C102.852 77.7679 102.782 77.778 102.714 77.7634C102.647 77.7488 102.587 77.7105 102.545 77.6554C102.528 77.6292 102.517 77.5999 102.512 77.5691C102.507 77.5384 102.508 77.5069 102.515 77.4766C102.77 76.4715 103.26 75.5415 103.946 74.764C104.632 73.9865 105.493 73.3839 106.459 73.0063C109.037 71.9234 112.171 72.1718 115.291 73.7066C119.607 75.8325 124.39 81.3609 124.311 85.5978C124.311 86.4766 124.045 87.3349 123.547 88.0593C123.05 88.7838 122.344 89.3405 121.524 89.6559C120.887 89.9608 120.189 90.1203 119.483 90.1228ZM105.952 76.3342C106.184 76.3325 106.416 76.3558 106.643 76.4037C106.913 76.4559 107.171 76.5613 107.4 76.714C107.63 76.8666 107.826 77.0634 107.979 77.2928C108.168 77.576 108.476 78.0826 108.813 78.7432C110.969 82.6175 116.021 91.6576 121.266 89.2585C121.999 88.978 122.63 88.4807 123.073 87.8329C123.517 87.1852 123.753 86.4177 123.749 85.6325C123.819 81.5645 119.19 76.2299 115.007 74.1686C112.027 72.7182 109.047 72.4698 106.648 73.4881C105.85 73.8074 105.128 74.2908 104.529 74.9069C103.931 75.5229 103.468 76.258 103.171 77.0643C104.041 76.6409 104.986 76.3929 105.952 76.3342Z" fill="#1F2723"/>
<path d="M116.661 126.363C112.587 126.298 108.702 124.627 105.853 121.713C105.835 121.686 105.823 121.654 105.818 121.621C105.813 121.589 105.815 121.555 105.824 121.523C105.833 121.491 105.848 121.461 105.87 121.436C105.891 121.411 105.917 121.39 105.947 121.376C105.998 121.347 106.056 121.334 106.114 121.34C106.171 121.345 106.226 121.368 106.27 121.405C109.009 124.207 112.744 125.814 116.661 125.876C116.727 125.876 116.79 125.902 116.837 125.949C116.884 125.995 116.91 126.058 116.91 126.124C116.91 126.19 116.884 126.253 116.837 126.3C116.79 126.346 116.727 126.372 116.661 126.372V126.363Z" fill="#1F2723"/>
<path d="M104.477 88.2751C103.594 88.2957 102.736 87.9796 102.078 87.3909C102.045 87.3629 102.018 87.328 101.999 87.2885C101.981 87.249 101.971 87.206 101.971 87.1624C101.971 87.1189 101.981 87.0758 101.999 87.0364C102.018 86.9969 102.045 86.9619 102.078 86.9339C102.146 86.8729 102.235 86.8391 102.326 86.8391C102.418 86.8391 102.507 86.8729 102.575 86.9339C104.03 88.2602 106.052 87.2916 106.141 87.2518C106.225 87.208 106.323 87.1969 106.414 87.2207C106.506 87.2446 106.586 87.3017 106.638 87.381C106.66 87.419 106.673 87.4611 106.678 87.5047C106.682 87.5483 106.678 87.5924 106.664 87.6341C106.651 87.6757 106.628 87.7141 106.599 87.7467C106.57 87.7792 106.534 87.8052 106.494 87.823C105.863 88.1199 105.174 88.2743 104.477 88.2751Z" fill="#1F2723"/>
<path d="M112.156 88.8612C111.37 88.8455 110.605 88.6003 109.956 88.1559C109.92 88.1315 109.889 88.0997 109.867 88.0626C109.844 88.0255 109.829 87.984 109.823 87.9408C109.818 87.8976 109.821 87.8537 109.834 87.812C109.847 87.7704 109.868 87.7318 109.896 87.6989C109.958 87.631 110.042 87.5876 110.134 87.5767C110.225 87.5657 110.317 87.588 110.393 87.6393C110.473 87.694 112.246 88.9159 113.656 87.6393C113.726 87.5811 113.814 87.5493 113.905 87.5493C113.996 87.5493 114.083 87.5811 114.153 87.6393C114.186 87.6682 114.212 87.7038 114.23 87.7436C114.248 87.7834 114.257 87.8266 114.257 87.8703C114.257 87.914 114.248 87.9572 114.23 87.997C114.212 88.0368 114.186 88.0724 114.153 88.1013C113.61 88.6016 112.895 88.8737 112.156 88.8612Z" fill="#1F2723"/>
<path d="M108.118 93.2273C107.475 93.215 106.862 92.949 106.414 92.4872C106.382 92.4579 106.357 92.4222 106.339 92.3825C106.322 92.3427 106.312 92.2997 106.312 92.2562C106.312 92.2128 106.322 92.1698 106.339 92.1301C106.357 92.0903 106.382 92.0546 106.414 92.0253C106.484 91.9671 106.572 91.9352 106.663 91.9352C106.753 91.9352 106.841 91.9671 106.911 92.0253C107.795 92.8746 108.57 92.4823 108.654 92.4326C108.736 92.3867 108.832 92.3726 108.924 92.3927C109.015 92.4128 109.096 92.4659 109.151 92.5419C109.176 92.5776 109.193 92.6182 109.201 92.661C109.208 92.7037 109.207 92.7477 109.197 92.7899C109.187 92.8321 109.167 92.8717 109.141 92.906C109.114 92.9403 109.08 92.9685 109.042 92.9889C108.758 93.1436 108.441 93.2255 108.118 93.2273Z" fill="#1F2723"/>
<path d="M78.8422 155.599C78.7602 155.601 78.6802 155.574 78.6158 155.523C78.5515 155.472 78.5068 155.401 78.4895 155.321C78.484 155.276 78.4874 155.232 78.4995 155.189C78.5115 155.146 78.5321 155.106 78.5599 155.071C78.5876 155.037 78.6221 155.008 78.6612 154.987C78.7003 154.965 78.7433 154.952 78.7875 154.948C78.9216 154.948 92.1142 153.066 99.1177 150.056C104.308 147.825 109.961 144.16 113.701 141.736C115.092 140.837 116.289 140.057 117.123 139.575C117.204 139.527 117.299 139.511 117.391 139.529C117.483 139.547 117.564 139.599 117.62 139.674C117.644 139.711 117.66 139.752 117.668 139.795C117.675 139.838 117.674 139.882 117.664 139.924C117.653 139.966 117.635 140.006 117.608 140.041C117.582 140.076 117.549 140.105 117.511 140.126C116.691 140.598 115.524 141.373 114.118 142.267C110.353 144.706 104.681 148.392 99.4257 150.647C92.3228 153.696 79.0309 155.574 78.8968 155.614L78.8422 155.599Z" fill="white"/>
<path d="M96.8428 151.387C96.7884 151.387 96.7345 151.377 96.6839 151.357C93.8924 150.085 91.692 148.118 89.5561 146.216C89.0097 145.719 88.4584 145.222 87.9021 144.756C84.1549 141.656 79.4061 140.03 74.5457 140.181C74.4556 140.184 74.3677 140.153 74.2996 140.094C74.2314 140.035 74.1881 139.952 74.1781 139.863C74.1807 139.772 74.2185 139.687 74.2834 139.623C74.3483 139.56 74.4353 139.525 74.5258 139.525C79.5716 139.373 84.5 141.065 88.3889 144.284C88.9551 144.78 89.5065 145.277 90.0578 145.749C92.1489 147.617 94.3146 149.549 97.0117 150.771C97.0523 150.787 97.0891 150.812 97.1195 150.843C97.15 150.875 97.1735 150.913 97.1885 150.954C97.2034 150.995 97.2096 151.039 97.2065 151.083C97.2035 151.126 97.1912 151.169 97.1706 151.208C97.1378 151.265 97.0898 151.312 97.0319 151.343C96.9741 151.375 96.9086 151.39 96.8428 151.387Z" fill="white"/>
<path d="M103.34 85.29C103.255 85.291 103.173 85.2615 103.108 85.2067C103.043 85.152 103 85.0757 102.987 84.992C102.984 84.9476 102.99 84.9031 103.005 84.8611C103.02 84.8191 103.042 84.7804 103.072 84.7472C103.101 84.7139 103.137 84.6869 103.177 84.6675C103.217 84.6481 103.261 84.6369 103.305 84.6343C104.4 84.5356 105.446 84.1331 106.325 83.4721C106.399 83.4182 106.49 83.3926 106.581 83.3999C106.672 83.4072 106.757 83.4469 106.822 83.5118C106.852 83.5433 106.875 83.581 106.889 83.6222C106.903 83.6634 106.908 83.7071 106.904 83.7505C106.9 83.7939 106.886 83.8359 106.864 83.8735C106.842 83.9112 106.813 83.9437 106.777 83.9688C105.787 84.7174 104.606 85.1734 103.37 85.285L103.34 85.29Z" fill="#1F2723"/>
<path d="M114.039 85.7071H113.974C113.632 85.6475 113.289 85.6177 112.926 85.5829C112.564 85.5482 112.191 85.5184 111.824 85.4538C111.033 85.3611 110.295 85.0122 109.722 84.4604C109.692 84.4287 109.669 84.391 109.654 84.3496C109.639 84.3082 109.634 84.2641 109.637 84.2204C109.641 84.1766 109.654 84.1342 109.676 84.0959C109.697 84.0577 109.727 84.0244 109.762 83.9984C109.836 83.945 109.926 83.9191 110.017 83.9255C110.108 83.9318 110.193 83.97 110.259 84.0332C110.726 84.4652 111.32 84.7337 111.953 84.7981C112.29 84.8578 112.628 84.8875 112.991 84.9174C113.353 84.9472 113.726 84.9869 114.098 85.0465C114.143 85.0519 114.186 85.0663 114.224 85.0886C114.263 85.111 114.297 85.1409 114.324 85.1766C114.351 85.2123 114.37 85.253 114.381 85.2964C114.392 85.3397 114.394 85.3848 114.387 85.429C114.369 85.5082 114.325 85.5792 114.262 85.6298C114.199 85.6805 114.12 85.7078 114.039 85.7071Z" fill="#1F2723"/>
<path d="M110.855 96.004H110.785C109.333 95.7408 107.847 95.7257 106.39 95.9593C106.3 95.9772 106.207 95.9598 106.13 95.9107C106.053 95.8616 105.999 95.7847 105.977 95.696C105.97 95.6522 105.972 95.6073 105.983 95.5643C105.994 95.5212 106.013 95.4808 106.04 95.4455C106.067 95.4102 106.101 95.3807 106.14 95.3589C106.178 95.3371 106.221 95.3233 106.265 95.3185C107.81 95.0701 109.385 95.0852 110.924 95.3632C110.969 95.3692 111.012 95.3841 111.05 95.4071C111.089 95.43 111.122 95.4605 111.148 95.4966C111.175 95.5328 111.194 95.574 111.204 95.6176C111.214 95.6613 111.215 95.7065 111.208 95.7506C111.185 95.8262 111.139 95.8921 111.075 95.938C111.011 95.9839 110.934 96.0071 110.855 96.004Z" fill="#1F2723"/>
<path d="M108.451 118.634C107.532 118.629 106.616 118.516 105.724 118.296C104.605 118.074 103.545 117.619 102.613 116.961C101.682 116.303 100.898 115.456 100.315 114.476C96.9173 108.665 100.573 98.9543 100.732 98.547C100.767 98.462 100.834 98.3937 100.918 98.3558C101.002 98.318 101.097 98.3135 101.184 98.3433C101.227 98.3546 101.267 98.3746 101.302 98.4021C101.337 98.4296 101.366 98.464 101.387 98.5032C101.408 98.5423 101.42 98.5854 101.424 98.6297C101.428 98.674 101.422 98.7185 101.408 98.7605C101.368 98.8599 97.6972 108.61 100.951 114.158C101.489 115.054 102.209 115.826 103.064 116.425C103.92 117.024 104.892 117.436 105.918 117.635C108.65 118.286 111.004 117.928 112.921 116.582C118.762 112.47 118.857 100.444 118.857 100.32C118.867 100.232 118.91 100.151 118.976 100.092C119.042 100.033 119.128 100 119.217 100C119.306 100 119.392 100.033 119.458 100.092C119.524 100.151 119.567 100.232 119.577 100.32C119.577 100.817 119.478 112.788 113.358 117.094C111.927 118.113 110.208 118.652 108.451 118.634Z" fill="#1F2723"/>
<path d="M120.516 132.045C120.516 132.045 118.206 110.781 98.621 98.9543C98.621 98.9543 99.078 93.5551 97.3494 93.0634C95.6209 92.5717 92.3824 97.6927 92.3824 97.6927C92.3824 97.6927 77.9183 104.036 71.6598 114.377C71.6598 114.377 68.9627 112.832 67.7954 114.755C66.4295 116.995 72.0125 119.424 72.0125 119.424C72.0125 119.424 73.9049 131.757 87.907 137.171" fill="white"/>
<path d="M87.902 137.479C87.8547 137.478 87.8077 137.469 87.763 137.454C74.6449 132.378 71.9975 121.152 71.6945 119.622C70.9345 119.27 67.9295 117.794 67.3285 116.081C67.2381 115.837 67.2051 115.576 67.2318 115.318C67.2585 115.059 67.3442 114.811 67.4824 114.591C67.6364 114.323 67.8444 114.09 68.0933 113.907C68.3421 113.724 68.6263 113.595 68.9278 113.528C69.8129 113.387 70.7198 113.528 71.5207 113.93C77.5606 104.234 90.8227 98.0355 92.1091 97.4344C92.7896 96.3814 95.5861 92.219 97.4537 92.7455C99.3213 93.272 99.0829 97.5139 98.9885 98.7855C118.36 110.582 120.844 131.792 120.868 132.005C120.872 132.05 120.866 132.094 120.852 132.137C120.838 132.179 120.815 132.218 120.785 132.251C120.756 132.285 120.72 132.312 120.679 132.331C120.639 132.35 120.595 132.361 120.551 132.363C120.46 132.374 120.368 132.35 120.295 132.296C120.222 132.241 120.173 132.16 120.158 132.07C120.158 131.861 117.635 110.826 98.4223 99.2226C98.37 99.1933 98.3273 99.1497 98.2991 99.0968C98.271 99.044 98.2585 98.9842 98.2633 98.9246C98.4421 96.7887 98.2633 93.6545 97.2401 93.3714C96.2169 93.0883 93.9668 95.8202 92.6754 97.8417C92.6374 97.8986 92.584 97.9434 92.5214 97.9709C92.3773 98.0354 78.0921 104.393 71.9727 114.521C71.9476 114.56 71.9149 114.594 71.8765 114.621C71.8381 114.647 71.7948 114.666 71.7491 114.675C71.6553 114.699 71.5561 114.686 71.471 114.64C71.471 114.64 70.1597 113.9 69.1017 114.144C68.8937 114.191 68.6978 114.281 68.5267 114.409C68.3556 114.536 68.2131 114.698 68.1083 114.884C68.0148 115.03 67.9575 115.196 67.9411 115.369C67.9247 115.542 67.9496 115.716 68.0139 115.877C68.5901 117.531 72.1316 119.086 72.1664 119.101C72.2176 119.123 72.2627 119.157 72.2981 119.2C72.3335 119.244 72.3582 119.295 72.37 119.349C72.37 119.473 74.9181 131.767 88.5577 137.042C88.7365 137.111 88.5577 137.216 88.4832 137.38C88.4087 137.543 88.0411 137.479 87.902 137.479Z" fill="#1F2723"/>
<path d="M120.834 116.12L120.57 129.914C120.57 129.914 112.747 133.888 108.371 135C105.948 135.658 103.455 136.024 100.946 136.088C100.548 136.088 98.8247 133.545 97.8958 132.7C96.967 131.856 96.2169 131.836 94.5232 131.061C92.1539 129.984 91.1307 129.795 91.2648 130.282C91.3989 130.768 91.528 131.245 92.7251 131.851C93.9222 132.457 94.7119 132.944 94.7119 132.944L94.9801 133.441C94.9801 133.441 92.0595 133.078 90.8674 132.835C89.6753 132.591 86.6255 130.659 86.6255 130.659C86.6255 130.659 85.3242 130.585 86.253 132.035C87.1819 133.485 88.0809 133.56 88.0809 133.56C88.2678 134.448 88.7323 135.253 89.4071 135.86C90.0001 136.339 90.6203 136.783 91.2648 137.191C91.2648 137.191 88.7465 136.585 89.0097 137.191C89.273 137.797 90.8674 138.04 92.8542 138.884C94.8411 139.729 99.3561 139.853 101.874 140.216C106.453 140.756 111.073 140.838 115.668 140.459C120.973 139.962 128.93 136.709 130.39 135.616C131.851 134.523 130.917 122.309 130.519 119.523C130.122 116.736 129.327 111.536 128.796 109.092C128.264 106.648 126.143 103.286 124.822 102.56C123.501 101.835 121.102 104.155 120.834 116.12Z" fill="white"/>
<path d="M120.56 116.15C120.734 108.337 121.892 103.32 123.744 102.392C123.928 102.289 124.135 102.235 124.345 102.235C124.556 102.235 124.763 102.289 124.946 102.392C126.372 103.171 128.523 106.673 129.044 109.082C129.566 111.491 130.385 116.791 130.778 119.513C130.952 120.75 132.303 134.519 130.549 135.825C129.024 136.962 120.953 140.241 115.698 140.722C113.805 140.896 111.908 140.941 110.095 140.941C107.334 140.955 104.574 140.789 101.835 140.444C101.075 140.335 100.111 140.246 99.0928 140.156C96.7881 139.943 94.1655 139.699 92.73 139.093C92.0098 138.79 91.3492 138.567 90.768 138.368C89.6803 137.996 88.965 137.752 88.7514 137.27C88.7149 137.203 88.7015 137.126 88.7131 137.051C88.7248 136.975 88.7609 136.906 88.816 136.853C89.0097 136.644 89.5313 136.639 90.1174 136.719C89.8541 136.525 89.5511 136.297 89.2183 136.029C88.5395 135.429 88.0625 134.635 87.8524 133.754C87.0706 133.458 86.4217 132.89 86.0245 132.154C85.6371 131.543 85.5526 131.091 85.7712 130.768C85.8769 130.644 86.0111 130.546 86.1623 130.484C86.3135 130.422 86.4775 130.397 86.6404 130.411C86.689 130.41 86.7364 130.425 86.7745 130.456C86.8043 130.456 89.7945 132.368 90.927 132.591C91.7962 132.77 93.6291 133.014 94.5132 133.133C94.3145 133.009 93.5943 132.586 92.6059 132.085C91.3095 131.434 91.1505 130.863 91.0164 130.361C90.9854 130.282 90.9818 130.195 91.0061 130.114C91.0304 130.033 91.0813 129.963 91.1505 129.914C91.3293 129.785 91.682 129.522 94.6275 130.878C95.2036 131.146 95.6904 131.32 96.0828 131.469C96.8159 131.686 97.4935 132.059 98.0696 132.562C98.6212 133.118 99.1356 133.711 99.6094 134.335C100.014 134.897 100.475 135.416 100.985 135.885C103.455 135.805 105.907 135.44 108.292 134.797C112.265 133.803 119.249 130.326 120.292 129.805M89.3077 137.171C89.8044 137.534 90.371 137.789 90.9717 137.921C91.5677 138.12 92.2333 138.348 92.9585 138.661C94.2947 139.232 96.8676 139.471 99.1326 139.679C100.156 139.779 101.119 139.863 101.904 139.977C106.46 140.514 111.057 140.593 115.628 140.216C120.804 139.719 128.716 136.54 130.202 135.428C131.448 134.499 130.733 123.124 130.241 119.533C129.854 116.821 129.059 111.586 128.523 109.142C127.986 106.698 125.87 103.425 124.668 102.774C124.565 102.715 124.449 102.684 124.33 102.684C124.212 102.684 124.096 102.715 123.993 102.774C123.377 103.087 121.34 104.97 121.092 116.121L120.824 129.914C120.824 129.958 120.812 130 120.788 130.036C120.764 130.073 120.73 130.101 120.69 130.118C120.615 130.162 112.792 134.141 108.431 135.224C105.985 135.887 103.469 136.257 100.936 136.327C100.623 136.327 100.3 135.974 99.1872 134.583C98.7259 133.981 98.2282 133.407 97.6971 132.865C97.1654 132.416 96.5439 132.085 95.8742 131.896C95.457 131.737 94.9851 131.563 94.3841 131.29C92.3972 130.371 91.7317 130.297 91.523 130.297C91.6472 130.749 91.7962 131.141 92.8343 131.667C94.0264 132.273 94.8212 132.765 94.846 132.77C94.8838 132.791 94.9148 132.822 94.9354 132.86L95.2036 133.356C95.2254 133.395 95.2368 133.439 95.2368 133.483C95.2368 133.527 95.2254 133.571 95.2036 133.61C95.173 133.647 95.133 133.676 95.0877 133.694C95.0424 133.711 94.9933 133.716 94.9453 133.709C94.8311 133.709 92.0098 133.341 90.8177 133.103C89.6256 132.865 87.0279 131.23 86.5709 130.927C86.5109 130.927 86.4514 130.939 86.396 130.962C86.3405 130.985 86.2902 131.019 86.248 131.061C86.2033 131.126 86.1387 131.355 86.5063 131.941C87.3408 133.242 88.1305 133.351 88.1355 133.351C88.1904 133.353 88.243 133.373 88.2852 133.408C88.3275 133.443 88.3569 133.491 88.369 133.545C88.5501 134.376 88.9838 135.131 89.6107 135.706C90.1946 136.179 90.8066 136.617 91.4436 137.017C91.4718 137.033 91.4964 137.055 91.5157 137.081C91.535 137.108 91.5486 137.138 91.5557 137.169C91.5627 137.201 91.563 137.234 91.5565 137.266C91.55 137.298 91.5369 137.328 91.5181 137.355C91.485 137.399 91.4393 137.432 91.387 137.45C91.3346 137.468 91.2782 137.469 91.225 137.454C90.5931 137.276 89.9395 137.185 89.2829 137.186L89.3077 137.171Z" fill="#1F2723"/>
<path d="M93.6042 135.989H93.5446C91.1704 135.492 88.0809 133.843 87.9517 133.773C87.9221 133.759 87.8958 133.739 87.8745 133.714C87.8531 133.69 87.8372 133.661 87.8279 133.629C87.8185 133.598 87.8158 133.565 87.8201 133.532C87.8243 133.5 87.8353 133.469 87.8524 133.441C87.8915 133.385 87.9494 133.346 88.0153 133.331C88.0811 133.315 88.1503 133.324 88.21 133.356C88.2398 133.356 91.3591 135.05 93.6738 135.517C93.7071 135.519 93.7397 135.527 93.7697 135.542C93.7997 135.556 93.8265 135.577 93.8487 135.601C93.8708 135.626 93.8878 135.655 93.8987 135.687C93.9096 135.718 93.9142 135.752 93.9122 135.785C93.9012 135.852 93.8643 135.912 93.8095 135.952C93.7546 135.992 93.6863 136.009 93.6191 135.999L93.6042 135.989Z" fill="#1F2723"/>
<path d="M94.3891 138.025C93.2924 137.977 92.2084 137.771 91.1704 137.414C91.1397 137.405 91.1112 137.389 91.0867 137.368C91.0622 137.347 91.0421 137.322 91.0277 137.293C91.0133 137.264 91.0049 137.233 91.003 137.201C91.0011 137.169 91.0056 137.136 91.0165 137.106C91.0449 137.043 91.096 136.994 91.1595 136.967C91.2231 136.94 91.2944 136.938 91.3592 136.962C92.337 137.296 93.3571 137.49 94.3891 137.538C94.455 137.538 94.5181 137.565 94.5647 137.611C94.6113 137.658 94.6374 137.721 94.6374 137.787C94.6374 137.853 94.6113 137.916 94.5647 137.962C94.5181 138.009 94.455 138.035 94.3891 138.035V138.025Z" fill="#1F2723"/>
<path d="M93.9967 137.31H93.9321C91.948 136.878 90.0572 136.094 88.3491 134.995C88.3215 134.978 88.298 134.955 88.2801 134.928C88.2623 134.901 88.2506 134.87 88.2459 134.838C88.2412 134.806 88.2435 134.773 88.2528 134.742C88.262 134.711 88.2779 134.682 88.2994 134.658C88.3454 134.606 88.4086 134.573 88.4772 134.565C88.5459 134.556 88.6151 134.574 88.672 134.613C90.3306 135.667 92.1614 136.422 94.0811 136.843C94.1131 136.848 94.1438 136.859 94.1714 136.876C94.1989 136.893 94.2227 136.916 94.2413 136.942C94.2599 136.968 94.2729 136.998 94.2795 137.03C94.2861 137.062 94.2862 137.095 94.2798 137.126C94.2608 137.185 94.2223 137.235 94.1708 137.268C94.1192 137.302 94.0578 137.316 93.9967 137.31Z" fill="#1F2723"/>
<path d="M85.0411 122.19H84.8722C85.4434 119.856 84.291 119.354 84.291 119.354L83.5857 117.67C82.18 120.397 78.1219 124.207 78.1219 124.207C78.3008 122.091 80.6055 120.233 78.5441 121.013C76.4828 121.793 72.5837 127.406 72.5837 127.406C70.9346 129.606 71.9777 132.502 75.6782 133.297C79.3786 134.091 83.2231 130.098 85.0212 127.048C86.8193 123.998 85.0411 122.19 85.0411 122.19Z" fill="white"/>
<path d="M76.6814 133.729C76.324 133.73 75.9675 133.691 75.6185 133.614C73.7012 133.202 72.3353 132.234 71.7591 130.883C71.5147 130.279 71.437 129.621 71.534 128.977C71.6309 128.333 71.8991 127.727 72.3104 127.222C72.4694 126.998 76.3139 121.52 78.4298 120.71C78.8967 120.536 79.3686 120.387 79.6368 120.65C79.9051 120.914 79.7163 121.296 79.3786 121.917C79.1583 122.294 78.9641 122.686 78.7974 123.089C80.059 121.808 82.3141 119.394 83.2678 117.531C83.3107 117.45 83.3839 117.389 83.4714 117.362C83.5608 117.327 83.6601 117.327 83.7496 117.362C83.9432 117.465 84.1139 117.606 84.2513 117.777C84.3888 117.948 84.4902 118.145 84.5493 118.356C84.8622 119.349 83.7049 121.679 82.5972 123.323C82.5415 123.398 82.4602 123.45 82.3686 123.469C82.2771 123.488 82.1817 123.473 82.1005 123.427C82.0613 123.408 82.0266 123.38 81.9989 123.346C81.9712 123.312 81.951 123.273 81.9398 123.23C81.9285 123.188 81.9263 123.144 81.9335 123.101C81.9407 123.058 81.957 123.016 81.9813 122.98C83.2082 121.137 84.0277 119.101 83.8688 118.549C83.8295 118.418 83.7691 118.294 83.69 118.182C82.1253 120.869 78.554 124.256 78.3951 124.406C78.3421 124.455 78.2757 124.488 78.2043 124.5C78.1328 124.513 78.0593 124.504 77.9927 124.475C77.927 124.452 77.8708 124.408 77.833 124.349C77.7952 124.291 77.778 124.222 77.7841 124.152C77.916 123.243 78.2375 122.371 78.7279 121.594C78.7974 121.465 78.8769 121.321 78.9365 121.197L78.6981 121.286C77.1086 121.887 73.9744 126.015 72.8965 127.55C72.5465 127.969 72.3156 128.475 72.2282 129.014C72.1408 129.553 72.2001 130.106 72.3998 130.614C72.8965 131.762 74.0737 132.601 75.7526 132.949C79.2295 133.704 83.0095 129.725 84.6933 126.864C86.3771 124.003 84.7579 122.394 84.743 122.394C84.7109 122.364 84.6859 122.327 84.6695 122.286C84.6532 122.245 84.6459 122.201 84.6483 122.157C84.6506 122.113 84.6626 122.07 84.6832 122.031C84.7038 121.992 84.7327 121.959 84.7678 121.932C84.8361 121.871 84.9245 121.837 85.0162 121.837C85.1078 121.837 85.1962 121.871 85.2645 121.932C85.349 122.011 87.2116 123.953 85.3142 127.167C83.9482 129.591 80.4663 133.729 76.6814 133.729Z" fill="#1F2723"/>
<path d="M83.6949 125.061C83.6502 125.057 83.6065 125.045 83.5658 125.026C83.525 125.009 83.4881 124.984 83.4577 124.952C83.4272 124.92 83.4037 124.882 83.3887 124.84C83.3738 124.799 83.3677 124.755 83.3708 124.71C83.3739 124.666 83.3862 124.623 83.4068 124.584C85.1801 121.356 84.3059 119.617 84.2959 119.617C84.2577 119.597 84.2241 119.569 84.1974 119.534C84.1706 119.5 84.1512 119.461 84.1405 119.419C84.1297 119.377 84.1279 119.333 84.135 119.29C84.142 119.247 84.158 119.207 84.1817 119.17C84.2344 119.091 84.3156 119.036 84.4081 119.016C84.5007 118.995 84.5975 119.012 84.6784 119.061C84.7579 119.106 86.1685 121.048 84.0625 124.897C84.0253 124.959 83.9701 125.007 83.9044 125.037C83.8387 125.066 83.7656 125.075 83.6949 125.061Z" fill="#1F2723"/>
<path d="M94.6274 131.205C94.567 131.206 94.5073 131.192 94.4535 131.164C94.3998 131.137 94.3538 131.096 94.3195 131.046C94.24 130.927 86.4069 118.827 91.672 106.132C91.7112 106.048 91.7804 105.982 91.8661 105.947C91.9517 105.912 92.0473 105.91 92.134 105.943C92.1764 105.954 92.216 105.975 92.2501 106.003C92.2841 106.031 92.3119 106.065 92.3316 106.105C92.3513 106.144 92.3624 106.187 92.3643 106.231C92.3662 106.275 92.3588 106.319 92.3426 106.36C87.2017 118.753 94.8559 130.594 94.9354 130.699C94.9588 130.736 94.9741 130.777 94.9805 130.82C94.9869 130.864 94.9842 130.908 94.9725 130.95C94.9608 130.992 94.9404 131.031 94.9126 131.065C94.8848 131.099 94.8503 131.126 94.8112 131.146C94.756 131.181 94.6927 131.201 94.6274 131.205Z" fill="#1F2723"/>
<path d="M100.936 117.114C100.86 117.115 100.785 117.092 100.722 117.049C100.685 117.026 100.653 116.995 100.629 116.959C100.605 116.922 100.588 116.881 100.581 116.838C100.574 116.794 100.577 116.75 100.588 116.708C100.599 116.666 100.62 116.626 100.648 116.592C101.801 115.202 103.189 114.025 104.75 113.115C104.831 113.067 104.926 113.051 105.018 113.069C105.11 113.088 105.191 113.14 105.247 113.215C105.272 113.251 105.289 113.292 105.297 113.335C105.305 113.378 105.303 113.422 105.293 113.465C105.283 113.508 105.264 113.548 105.237 113.582C105.21 113.617 105.176 113.646 105.138 113.667C103.644 114.537 102.319 115.667 101.224 117.005C101.186 117.042 101.141 117.071 101.091 117.089C101.042 117.108 100.989 117.117 100.936 117.114Z" fill="#1F2723"/>
<path d="M97.0613 132.199C96.9784 132.201 96.8973 132.174 96.8327 132.122C96.768 132.071 96.724 131.997 96.7087 131.916C96.6739 131.657 95.8394 125.553 98.5962 119.841C98.6388 119.759 98.7104 119.697 98.7968 119.666C98.8832 119.634 98.9782 119.637 99.0631 119.672C99.1047 119.687 99.1429 119.71 99.1752 119.74C99.2074 119.77 99.233 119.807 99.2503 119.847C99.2676 119.888 99.2762 119.932 99.2756 119.976C99.275 120.02 99.2652 120.064 99.2468 120.104C96.5746 125.642 97.409 131.767 97.419 131.831C97.4237 131.876 97.4195 131.92 97.4064 131.963C97.3933 132.005 97.3717 132.045 97.3429 132.079C97.3141 132.113 97.2787 132.14 97.2388 132.16C97.1989 132.18 97.1554 132.191 97.111 132.194L97.0613 132.199Z" fill="#1F2723"/>
<path d="M121.465 87.9573C119.717 87.9131 118.045 87.2311 116.766 86.04C115.315 84.7336 114.406 83.0895 113.532 81.3809L113.353 81.0232C112.655 79.4817 111.749 78.0428 110.661 76.7466C110.244 76.2583 109.725 75.8667 109.141 75.5992C108.866 75.4774 108.568 75.4145 108.267 75.4145C107.966 75.4145 107.668 75.4774 107.393 75.5992C107.31 75.6467 107.211 75.6598 107.118 75.6357C107.025 75.6116 106.946 75.5521 106.896 75.4701C106.873 75.4326 106.859 75.3907 106.853 75.3471C106.848 75.3035 106.852 75.2594 106.865 75.2175C106.879 75.1756 106.901 75.1371 106.93 75.1044C106.959 75.0717 106.995 75.0457 107.035 75.028C107.411 74.8605 107.818 74.774 108.23 74.774C108.641 74.774 109.048 74.8605 109.424 75.028C110.103 75.3337 110.707 75.7847 111.193 76.3492C112.321 77.6911 113.261 79.1799 113.989 80.7749L114.168 81.1276C115.012 82.7816 115.887 84.3711 117.252 85.5979C118.743 86.9241 120.665 87.5599 122.314 87.2519C122.404 87.2323 122.498 87.2481 122.577 87.2963C122.656 87.3444 122.713 87.421 122.736 87.5102C122.744 87.5541 122.743 87.599 122.732 87.6424C122.722 87.6857 122.703 87.7265 122.677 87.7623C122.65 87.7981 122.617 87.8281 122.578 87.8505C122.54 87.873 122.497 87.8873 122.453 87.8927C122.126 87.9433 121.795 87.9649 121.465 87.9573Z" fill="white"/>
<path d="M121.4 78.3161C119.999 78.2372 118.678 77.6385 117.694 76.6373C117.317 76.2945 116.969 75.922 116.627 75.5644C116.036 74.8951 115.369 74.2967 114.64 73.7812C112.623 72.46 109.638 72.3805 107.045 73.5875C106.96 73.6312 106.861 73.6407 106.768 73.6139C106.676 73.5871 106.597 73.5262 106.548 73.4434C106.528 73.4047 106.516 73.3621 106.512 73.3184C106.509 73.2746 106.516 73.2307 106.531 73.1895C106.546 73.1483 106.569 73.1107 106.599 73.0791C106.63 73.0476 106.667 73.0228 106.707 73.0063C109.539 71.6901 112.812 71.7894 115.042 73.2497C115.815 73.7951 116.522 74.4285 117.148 75.1372C117.481 75.4849 117.824 75.8475 118.181 76.1753C118.877 76.8111 120.267 77.8492 121.782 77.6357C121.873 77.6193 121.967 77.6386 122.043 77.6895C122.12 77.7404 122.174 77.819 122.195 77.9088C122.2 77.953 122.197 77.9978 122.185 78.0406C122.173 78.0834 122.152 78.1233 122.124 78.158C122.096 78.1928 122.062 78.2216 122.023 78.2427C121.984 78.2639 121.941 78.2771 121.897 78.2814C121.732 78.3045 121.566 78.3161 121.4 78.3161Z" fill="white"/>
<path d="M97.568 161.609C95.6332 161.638 93.6997 161.491 91.7913 161.172C91.7471 161.166 91.7047 161.151 91.6666 161.128C91.6285 161.105 91.5956 161.074 91.57 161.038C91.5443 161.001 91.5265 160.96 91.5175 160.916C91.5086 160.873 91.5088 160.828 91.5181 160.784C91.5426 160.696 91.6003 160.621 91.679 160.575C91.7578 160.529 91.8515 160.515 91.9403 160.536C92.1439 160.576 112.146 164.261 130.683 148.307C130.752 148.247 130.84 148.214 130.932 148.214C131.023 148.214 131.111 148.247 131.18 148.307C131.213 148.335 131.239 148.371 131.257 148.41C131.275 148.449 131.284 148.492 131.284 148.535C131.284 148.579 131.275 148.622 131.257 148.661C131.239 148.7 131.213 148.736 131.18 148.764C123.622 155.372 114.317 159.658 104.383 161.107C102.126 161.434 99.8485 161.602 97.568 161.609Z" fill="white"/>
<path d="M169.859 157.079C169.859 157.079 169.412 155.291 167.922 155.887C166.431 156.483 166.585 160.432 166.878 162.667C167.172 164.902 169.188 163.859 169.188 163.859V162.518C169.188 162.518 168.443 163.109 168.071 162.294C167.698 161.48 167.773 157.377 168.145 157.451C168.518 157.526 169.263 158.788 169.263 158.788C169.263 158.788 169.486 158.649 169.859 157.079Z" fill="#17AB49" stroke="#1F2723" stroke-width="0.8" stroke-linecap="round" stroke-linejoin="round"/>
<path d="M168.786 157.377V167.162C168.786 168.315 171.433 169.248 174.702 169.248C177.97 169.248 180.612 168.315 180.612 167.162V157.377H168.786Z" fill="#17AB49" stroke="#1F2723" stroke-width="0.8" stroke-linecap="round" stroke-linejoin="round"/>
<path d="M180.612 157.377C180.612 158.37 177.965 159.175 174.702 159.175C171.438 159.175 168.786 158.37 168.786 157.377C168.786 156.384 171.433 155.579 174.702 155.579C177.97 155.579 180.612 156.389 180.612 157.377Z" fill="white" stroke="#1F2723" stroke-width="0.8" stroke-linecap="round" stroke-linejoin="round"/>
<path d="M179.837 157.377C179.837 158.241 177.538 158.942 174.701 158.942C171.865 158.942 169.561 158.241 169.561 157.377C169.561 156.513 171.865 155.812 174.701 155.812C177.538 155.812 179.837 156.513 179.837 157.377Z" fill="white" stroke="#1F2723" stroke-width="0.8" stroke-linecap="round" stroke-linejoin="round"/>
<path d="M170.738 158.37C173.325 159.125 176.073 159.125 178.66 158.37C176.073 157.615 173.325 157.615 170.738 158.37Z" fill="#1F2723" stroke="#1F2723" stroke-width="0.8" stroke-linecap="round" stroke-linejoin="round"/>
<path d="M173.008 154.784C173.008 154.784 177.15 152.301 175.799 149.45C174.448 146.599 169.879 144.721 169.879 140.285C169.879 136.466 173.942 135.05 176.594 133.52" stroke="#1F2723" stroke-width="0.8" stroke-linecap="round" stroke-linejoin="round"/>
<path d="M176.832 154.705C176.832 154.705 179.142 153.17 179.142 150.731C179.142 149.097 177.394 148.024 175.084 145.392" stroke="#1F2723" stroke-width="0.8" stroke-linecap="round" stroke-linejoin="round"/>
</svg>
