<svg width="200" height="200" viewBox="0 0 200 200" fill="none" xmlns="http://www.w3.org/2000/svg">
<path d="M170.717 118.187H158.58C158.424 118.187 158.275 118.249 158.166 118.359C158.056 118.468 157.994 118.618 157.994 118.773V122.495C157.994 122.571 158.009 122.647 158.039 122.718C158.068 122.789 158.111 122.853 158.166 122.907C158.22 122.961 158.285 123.004 158.356 123.033C158.427 123.062 158.503 123.077 158.58 123.076H159.37C159.077 123.592 158.631 124.425 158.742 124.425C159.431 124.018 160.092 123.568 160.723 123.076H170.717C170.871 123.076 171.02 123.015 171.129 122.906C171.239 122.797 171.301 122.649 171.302 122.495V118.773C171.301 118.618 171.239 118.47 171.13 118.36C171.02 118.25 170.872 118.188 170.717 118.187Z" stroke="#1F2723" stroke-width="0.8" stroke-linecap="round" stroke-linejoin="round"/>
<path d="M167.593 125.267H179.73C179.807 125.266 179.884 125.281 179.955 125.31C180.026 125.34 180.091 125.383 180.146 125.437C180.2 125.492 180.243 125.557 180.272 125.628C180.302 125.7 180.316 125.776 180.316 125.853V129.575C180.316 129.652 180.302 129.728 180.272 129.8C180.243 129.871 180.2 129.936 180.146 129.991C180.091 130.045 180.026 130.088 179.955 130.117C179.884 130.147 179.807 130.161 179.73 130.161H178.94C179.228 130.677 179.679 131.51 179.567 131.51C178.879 131.103 178.218 130.652 177.587 130.161H167.593C167.438 130.161 167.289 130.099 167.179 129.989C167.069 129.879 167.007 129.73 167.007 129.575V125.853C167.007 125.698 167.069 125.549 167.179 125.439C167.289 125.329 167.438 125.267 167.593 125.267Z" stroke="#1F2723" stroke-width="0.8" stroke-linecap="round" stroke-linejoin="round"/>
<path d="M167.593 110.539H179.73C179.807 110.539 179.884 110.553 179.955 110.582C180.026 110.612 180.091 110.655 180.146 110.709C180.2 110.764 180.243 110.829 180.272 110.9C180.302 110.972 180.316 111.048 180.316 111.125V114.847C180.316 114.924 180.301 115 180.271 115.07C180.242 115.141 180.198 115.206 180.144 115.26C180.089 115.314 180.025 115.356 179.954 115.385C179.883 115.414 179.807 115.429 179.73 115.428H178.94C179.228 115.945 179.679 116.777 179.567 116.777C178.879 116.37 178.218 115.92 177.587 115.428H167.593C167.438 115.428 167.29 115.367 167.18 115.258C167.071 115.149 167.008 115.001 167.007 114.847V111.125C167.007 110.97 167.069 110.821 167.179 110.711C167.289 110.601 167.438 110.539 167.593 110.539Z" stroke="#1F2723" stroke-width="0.8" stroke-linecap="round" stroke-linejoin="round"/>
<path d="M22.7759 88.745C22.8617 88.3322 22.853 87.9052 22.7503 87.4962C22.6476 87.0872 22.4537 86.7068 22.1831 86.3836C21.9124 86.0604 21.5721 85.8027 21.1877 85.63C20.8033 85.4573 20.3848 85.374 19.9636 85.3863C18.2994 85.3863 16.8305 88.1775 16.8305 88.1775C16.8305 88.1775 14.8596 86.2004 13.1118 86.0283C11.364 85.8562 9.78814 87.7402 10.6016 90.215C11.773 93.7597 17.1745 96.095 17.1745 96.095C17.1745 96.095 22.1111 92.6898 22.7759 88.745Z" stroke="#1F2723" stroke-width="0.8" stroke-linecap="round" stroke-linejoin="round"/>
<path d="M11.0618 95.6624C11.0167 95.4433 10.923 95.2371 10.7876 95.0592C10.6522 94.8812 10.4786 94.7359 10.2795 94.6341C10.0805 94.5323 9.8612 94.4765 9.63775 94.4709C9.41431 94.4653 9.19246 94.51 8.98859 94.6017C8.17977 94.9506 8.02637 96.5974 8.02637 96.5974C8.02637 96.5974 6.63184 96.0392 5.77188 96.309C4.91192 96.5788 4.49821 97.8255 5.40466 98.8675C6.71086 100.37 9.82996 100.407 9.82996 100.407C9.82996 100.407 11.5452 97.7511 11.0618 95.6624Z" stroke="#1F2723" stroke-width="0.8" stroke-linecap="round" stroke-linejoin="round"/>
<path d="M14.0414 97.9651C9.39302 102.761 12.4331 109.441 17.3325 109.358C22.8781 109.269 22.4458 100.254 19.8194 104.403C17.1931 108.553 23.7474 115.568 27.1686 111.525" stroke="#1F2723" stroke-width="0.8" stroke-linecap="round" stroke-linejoin="round"/>
<path d="M121.764 54.3535C121.764 43.1006 109.65 33.9782 94.7102 33.9782C79.7702 33.9782 67.6517 43.1006 67.6517 54.3535C67.6517 64.9598 78.4175 73.6728 92.1676 74.6358L94.7102 81.274L97.2483 74.6358C110.98 73.6728 121.764 64.9598 121.764 54.3535Z" fill="white" stroke="#1F2723" stroke-width="0.8" stroke-linecap="round" stroke-linejoin="round"/>
<path d="M96.5975 51.2042V47.9479L94.8218 47.8037C94.6505 47.1247 94.3812 46.4743 94.0223 45.8731L95.1798 44.5194L92.8881 42.226L91.5493 43.403C90.9476 43.0457 90.298 42.7763 89.6202 42.6028L89.4808 40.8258H86.2269L86.0874 42.6028C85.4096 42.7763 84.76 43.0457 84.1583 43.403L82.8056 42.2446L80.514 44.538L81.6714 45.8917C81.3125 46.4929 81.0432 47.1433 80.8719 47.8223L79.0962 47.9665V51.2228L80.8719 51.3623C81.0432 52.0413 81.3125 52.6917 81.6714 53.2929L80.514 54.6512L82.8056 56.94L84.1583 55.7817C84.7581 56.1428 85.4083 56.4124 86.0874 56.5818L86.2269 58.3588H89.4808L89.6202 56.5818C90.2994 56.4124 90.9496 56.1428 91.5493 55.7817L92.902 56.94L95.1937 54.6512L94.0362 53.2929C94.3951 52.6917 94.6645 52.0413 94.8358 51.3623L96.5975 51.2042ZM87.8306 52.7021C87.2148 52.7012 86.6131 52.5176 86.1016 52.1746C85.59 51.8315 85.1915 51.3444 84.9565 50.7748C84.7215 50.2052 84.6605 49.5787 84.7812 48.9744C84.9019 48.3701 85.1989 47.8152 85.6346 47.3798C86.0704 46.9444 86.6253 46.648 87.2293 46.5281C87.8334 46.4082 88.4593 46.4702 89.0282 46.7063C89.597 46.9423 90.0831 47.3418 90.4251 47.8542C90.7671 48.3667 90.9497 48.9691 90.9497 49.5853C90.9497 49.995 90.869 50.4007 90.7122 50.7791C90.5554 51.1576 90.3255 51.5014 90.0358 51.7909C89.7461 52.0803 89.4023 52.3098 89.0239 52.4662C88.6455 52.6225 88.24 52.7027 87.8306 52.7021Z" fill="#17AB49" stroke="#1F2723" stroke-width="0.8" stroke-linecap="round" stroke-linejoin="round"/>
<path d="M110.273 55.1816V52.6742L108.902 52.5672C108.769 52.0422 108.56 51.5393 108.284 51.0739L109.176 50.0273L107.41 48.2549L106.359 49.1481C105.896 48.8709 105.395 48.6625 104.872 48.5294L104.76 47.157H102.241L102.134 48.5294C101.609 48.6626 101.107 48.871 100.642 49.1481L99.5957 48.2549L97.8247 50.0273L98.7172 51.0739C98.4403 51.5393 98.2321 52.0422 98.0989 52.5672L96.7044 52.6742V55.1816L98.0989 55.2886C98.2304 55.8141 98.4387 56.3173 98.7172 56.7818L97.8247 57.8331L99.5957 59.6009L100.642 58.7077C101.107 58.9848 101.609 59.1931 102.134 59.3264L102.241 60.6987H104.746L104.858 59.3264C105.381 59.1933 105.882 58.9849 106.345 58.7077L107.396 59.6009L109.162 57.8331L108.284 56.7818C108.561 56.3167 108.769 55.8137 108.902 55.2886L110.273 55.1816ZM103.51 56.3492C103.033 56.3492 102.568 56.2079 102.172 55.9431C101.776 55.6783 101.467 55.302 101.285 54.8617C101.103 54.4213 101.055 53.9368 101.148 53.4694C101.241 53.002 101.47 52.5726 101.807 52.2356C102.144 51.8986 102.573 51.6691 103.04 51.5761C103.507 51.4831 103.991 51.5309 104.431 51.7132C104.871 51.8956 105.247 52.2045 105.512 52.6008C105.776 52.997 105.918 53.4629 105.918 53.9395C105.918 54.2561 105.856 54.5697 105.736 54.8624C105.615 55.155 105.437 55.4209 105.214 55.6448C104.99 55.8687 104.724 56.0461 104.432 56.167C104.139 56.2879 103.826 56.3498 103.51 56.3492Z" fill="#17AB49"/>
<mask id="mask0_0_135" style="mask-type:luminance" maskUnits="userSpaceOnUse" x="96" y="47" width="15" height="14">
<path d="M110.273 55.1816V52.6742L108.902 52.5672C108.769 52.0422 108.56 51.5393 108.284 51.0739L109.176 50.0273L107.41 48.2549L106.359 49.1481C105.896 48.8709 105.395 48.6625 104.872 48.5294L104.76 47.157H102.241L102.134 48.5294C101.609 48.6626 101.107 48.871 100.642 49.1481L99.5957 48.2549L97.8247 50.0273L98.7172 51.0739C98.4403 51.5393 98.2321 52.0422 98.0989 52.5672L96.7044 52.6742V55.1816L98.0989 55.2886C98.2304 55.8141 98.4387 56.3173 98.7172 56.7818L97.8247 57.8331L99.5957 59.6009L100.642 58.7077C101.107 58.9848 101.609 59.1931 102.134 59.3264L102.241 60.6987H104.746L104.858 59.3264C105.381 59.1933 105.882 58.9849 106.345 58.7077L107.396 59.6009L109.162 57.8331L108.284 56.7818C108.561 56.3167 108.769 55.8137 108.902 55.2886L110.273 55.1816ZM103.51 56.3492C103.033 56.3492 102.568 56.2079 102.172 55.9431C101.776 55.6783 101.467 55.302 101.285 54.8617C101.103 54.4213 101.055 53.9368 101.148 53.4694C101.241 53.002 101.47 52.5726 101.807 52.2356C102.144 51.8986 102.573 51.6691 103.04 51.5761C103.507 51.4831 103.991 51.5309 104.431 51.7132C104.871 51.8956 105.247 52.2045 105.512 52.6008C105.776 52.997 105.918 53.4629 105.918 53.9395C105.918 54.2561 105.856 54.5697 105.736 54.8624C105.615 55.155 105.437 55.4209 105.214 55.6448C104.99 55.8687 104.724 56.0461 104.432 56.167C104.139 56.2879 103.826 56.3498 103.51 56.3492Z" fill="white"/>
</mask>
<g mask="url(#mask0_0_135)">
<path opacity="0.5" d="M110.273 55.1816V52.6742L108.902 52.5672C108.769 52.0422 108.56 51.5393 108.284 51.0739L109.176 50.0273L107.41 48.2549L106.359 49.1481C105.896 48.8709 105.395 48.6625 104.872 48.5294L104.76 47.157H102.241L102.134 48.5294C101.609 48.6626 101.107 48.871 100.642 49.1481L99.5957 48.2549L97.8247 50.0273L98.7172 51.0739C98.4403 51.5393 98.2321 52.0422 98.0989 52.5672L96.7044 52.6742V55.1816L98.0989 55.2886C98.2304 55.8141 98.4387 56.3173 98.7172 56.7818L97.8247 57.8331L99.5957 59.6009L100.642 58.7077C101.107 58.9848 101.609 59.1931 102.134 59.3264L102.241 60.6987H104.746L104.858 59.3264C105.381 59.1933 105.882 58.9849 106.345 58.7077L107.396 59.6009L109.162 57.8331L108.284 56.7818C108.561 56.3167 108.769 55.8137 108.902 55.2886L110.273 55.1816ZM103.51 56.3492C103.033 56.3492 102.568 56.2079 102.172 55.9431C101.776 55.6783 101.467 55.302 101.285 54.8617C101.103 54.4213 101.055 53.9368 101.148 53.4694C101.241 53.002 101.47 52.5726 101.807 52.2356C102.144 51.8986 102.573 51.6691 103.04 51.5761C103.507 51.4831 103.991 51.5309 104.431 51.7132C104.871 51.8956 105.247 52.2045 105.512 52.6008C105.776 52.997 105.918 53.4629 105.918 53.9395C105.918 54.2561 105.856 54.5697 105.736 54.8624C105.615 55.155 105.437 55.4209 105.214 55.6448C104.99 55.8687 104.724 56.0461 104.432 56.167C104.139 56.2879 103.826 56.3498 103.51 56.3492Z" fill="white"/>
</g>
<path d="M110.273 55.1816V52.6742L108.902 52.5672C108.769 52.0422 108.56 51.5393 108.284 51.0739L109.176 50.0273L107.41 48.2549L106.359 49.1481C105.896 48.8709 105.395 48.6625 104.872 48.5294L104.76 47.157H102.241L102.134 48.5294C101.609 48.6626 101.107 48.871 100.642 49.1481L99.5957 48.2549L97.8247 50.0273L98.7172 51.0739C98.4403 51.5393 98.2321 52.0422 98.0989 52.5672L96.7044 52.6742V55.1816L98.0989 55.2886C98.2304 55.8141 98.4387 56.3173 98.7172 56.7818L97.8247 57.8331L99.5957 59.6009L100.642 58.7077C101.107 58.9848 101.609 59.1931 102.134 59.3264L102.241 60.6987H104.746L104.858 59.3264C105.381 59.1933 105.882 58.9849 106.345 58.7077L107.396 59.6009L109.162 57.8331L108.284 56.7818C108.561 56.3167 108.769 55.8137 108.902 55.2886L110.273 55.1816ZM103.51 56.3492C103.033 56.3492 102.568 56.2079 102.172 55.9431C101.776 55.6783 101.467 55.302 101.285 54.8617C101.103 54.4213 101.055 53.9368 101.148 53.4694C101.241 53.002 101.47 52.5726 101.807 52.2356C102.144 51.8986 102.573 51.6691 103.04 51.5761C103.507 51.4831 103.991 51.5309 104.431 51.7132C104.871 51.8956 105.247 52.2045 105.512 52.6008C105.776 52.997 105.918 53.4629 105.918 53.9395C105.918 54.2561 105.856 54.5697 105.736 54.8624C105.615 55.155 105.437 55.4209 105.214 55.6448C104.99 55.8687 104.724 56.0461 104.432 56.167C104.139 56.2879 103.826 56.3498 103.51 56.3492Z" stroke="#1F2723" stroke-width="0.8" stroke-linecap="round" stroke-linejoin="round"/>
<path d="M98.4755 63.9085V62.1082L97.49 62.0292C97.3889 61.6514 97.2323 61.2908 97.0252 60.9592L97.6667 60.2056L96.3976 58.931L95.6446 59.573C95.3116 59.3655 94.9498 59.2088 94.5708 59.1078L94.4918 58.1169H92.7114L92.6324 59.1078C92.2534 59.2088 91.8916 59.3655 91.5586 59.573L90.8056 58.931L89.5366 60.2056L90.178 60.9592C89.971 61.2908 89.8143 61.6514 89.7132 62.0292L88.7277 62.1082V63.9085L89.7132 63.9876C89.8143 64.3668 89.971 64.7289 90.178 65.0622L89.5366 65.8158L90.8056 67.0904L91.5493 66.4438C91.8824 66.651 92.2442 66.8078 92.6231 66.909L92.7021 67.8952H94.5011L94.5801 66.909C94.959 66.8078 95.3209 66.651 95.6539 66.4438L96.4069 67.0904L97.6759 65.8158L97.0345 65.0622C97.2415 64.7289 97.3982 64.3668 97.4993 63.9876L98.4755 63.9085ZM93.6132 64.7226C93.2699 64.7235 92.934 64.6224 92.6482 64.4321C92.3624 64.2418 92.1394 63.9709 92.0076 63.6536C91.8758 63.3364 91.8411 62.9871 91.9078 62.6501C91.9746 62.3131 92.1398 62.0035 92.3826 61.7605C92.6253 61.5176 92.9347 61.3522 93.2715 61.2854C93.6082 61.2186 93.9572 61.2534 94.2742 61.3853C94.5913 61.5172 94.862 61.7403 95.0522 62.0263C95.2423 62.3124 95.3434 62.6485 95.3424 62.9921C95.3424 63.4511 95.1603 63.8912 94.836 64.2157C94.5117 64.5403 94.0718 64.7226 93.6132 64.7226Z" fill="#17AB49"/>
<mask id="mask1_0_135" style="mask-type:luminance" maskUnits="userSpaceOnUse" x="88" y="58" width="11" height="10">
<path d="M98.4755 63.9085V62.1082L97.49 62.0292C97.3889 61.6514 97.2323 61.2908 97.0252 60.9592L97.6667 60.2056L96.3976 58.931L95.6446 59.573C95.3116 59.3655 94.9498 59.2088 94.5708 59.1078L94.4918 58.1169H92.7114L92.6324 59.1078C92.2534 59.2088 91.8916 59.3655 91.5586 59.573L90.8056 58.931L89.5366 60.2056L90.178 60.9592C89.971 61.2908 89.8143 61.6514 89.7132 62.0292L88.7277 62.1082V63.9085L89.7132 63.9876C89.8143 64.3668 89.971 64.7289 90.178 65.0622L89.5366 65.8158L90.8056 67.0904L91.5493 66.4438C91.8824 66.651 92.2442 66.8078 92.6231 66.909L92.7021 67.8952H94.5011L94.5801 66.909C94.959 66.8078 95.3209 66.651 95.6539 66.4438L96.4069 67.0904L97.6759 65.8158L97.0345 65.0622C97.2415 64.7289 97.3982 64.3668 97.4993 63.9876L98.4755 63.9085ZM93.6132 64.7226C93.2699 64.7235 92.934 64.6224 92.6482 64.4321C92.3624 64.2418 92.1394 63.9709 92.0076 63.6536C91.8758 63.3364 91.8411 62.9871 91.9078 62.6501C91.9746 62.3131 92.1398 62.0035 92.3826 61.7605C92.6253 61.5176 92.9347 61.3522 93.2715 61.2854C93.6082 61.2186 93.9572 61.2534 94.2742 61.3853C94.5913 61.5172 94.862 61.7403 95.0522 62.0263C95.2423 62.3124 95.3434 62.6485 95.3424 62.9921C95.3424 63.4511 95.1603 63.8912 94.836 64.2157C94.5117 64.5403 94.0718 64.7226 93.6132 64.7226Z" fill="white"/>
</mask>
<g mask="url(#mask1_0_135)">
<path opacity="0.7" d="M98.4755 63.9085V62.1082L97.49 62.0292C97.3889 61.6514 97.2323 61.2908 97.0252 60.9592L97.6667 60.2056L96.3976 58.931L95.6446 59.573C95.3116 59.3655 94.9498 59.2088 94.5708 59.1078L94.4918 58.1169H92.7114L92.6324 59.1078C92.2534 59.2088 91.8916 59.3655 91.5586 59.573L90.8056 58.931L89.5366 60.2056L90.178 60.9592C89.971 61.2908 89.8143 61.6514 89.7132 62.0292L88.7277 62.1082V63.9085L89.7132 63.9876C89.8143 64.3668 89.971 64.7289 90.178 65.0622L89.5366 65.8158L90.8056 67.0904L91.5493 66.4438C91.8824 66.651 92.2442 66.8078 92.6231 66.909L92.7021 67.8952H94.5011L94.5801 66.909C94.959 66.8078 95.3209 66.651 95.6539 66.4438L96.4069 67.0904L97.6759 65.8158L97.0345 65.0622C97.2415 64.7289 97.3982 64.3668 97.4993 63.9876L98.4755 63.9085ZM93.6132 64.7226C93.2699 64.7235 92.934 64.6224 92.6482 64.4321C92.3624 64.2418 92.1394 63.9709 92.0076 63.6536C91.8758 63.3364 91.8411 62.9871 91.9078 62.6501C91.9746 62.3131 92.1398 62.0035 92.3826 61.7605C92.6253 61.5176 92.9347 61.3522 93.2715 61.2854C93.6082 61.2186 93.9572 61.2534 94.2742 61.3853C94.5913 61.5172 94.862 61.7403 95.0522 62.0263C95.2423 62.3124 95.3434 62.6485 95.3424 62.9921C95.3424 63.4511 95.1603 63.8912 94.836 64.2157C94.5117 64.5403 94.0718 64.7226 93.6132 64.7226Z" fill="white"/>
</g>
<path d="M98.4755 63.9085V62.1082L97.49 62.0292C97.3889 61.6514 97.2323 61.2908 97.0252 60.9592L97.6667 60.2056L96.3976 58.931L95.6446 59.573C95.3116 59.3655 94.9498 59.2088 94.5708 59.1078L94.4918 58.1169H92.7114L92.6324 59.1078C92.2534 59.2088 91.8916 59.3655 91.5586 59.573L90.8056 58.931L89.5366 60.2056L90.178 60.9592C89.971 61.2908 89.8143 61.6514 89.7132 62.0292L88.7277 62.1082V63.9085L89.7132 63.9876C89.8143 64.3668 89.971 64.7289 90.178 65.0622L89.5366 65.8158L90.8056 67.0904L91.5493 66.4438C91.8824 66.651 92.2442 66.8078 92.6231 66.909L92.7021 67.8952H94.5011L94.5801 66.909C94.959 66.8078 95.3209 66.651 95.6539 66.4438L96.4069 67.0904L97.6759 65.8158L97.0345 65.0622C97.2415 64.7289 97.3982 64.3668 97.4993 63.9876L98.4755 63.9085ZM93.6132 64.7226C93.2699 64.7235 92.934 64.6224 92.6482 64.4321C92.3624 64.2418 92.1394 63.9709 92.0076 63.6536C91.8758 63.3364 91.8411 62.9871 91.9078 62.6501C91.9746 62.3131 92.1398 62.0035 92.3826 61.7605C92.6253 61.5176 92.9347 61.3522 93.2715 61.2854C93.6082 61.2186 93.9572 61.2534 94.2742 61.3853C94.5913 61.5172 94.862 61.7403 95.0522 62.0263C95.2423 62.3124 95.3434 62.6485 95.3424 62.9921C95.3424 63.4511 95.1603 63.8912 94.836 64.2157C94.5117 64.5403 94.0718 64.7226 93.6132 64.7226Z" stroke="#1F2723" stroke-width="0.8" stroke-linecap="round" stroke-linejoin="round"/>
<path d="M137.815 122.215L134.515 124.732C129.374 122.75 129.704 122.304 124.786 121.592C122.238 121.225 116.962 121.378 112.528 121.592C108.521 121.797 105.197 122.057 105.197 122.057C105.197 122.057 115.001 112.288 117.697 110.86C120.393 109.432 132.232 104.347 132.604 104.18C132.604 104.18 141.534 114.149 137.815 122.215Z" fill="#17AB49"/>
<path opacity="0.2" d="M137.815 122.215L134.515 124.732C129.374 122.75 129.704 122.304 124.786 121.592C122.238 121.225 116.962 121.378 112.528 121.592C118.045 117.773 132.981 120.904 132.981 120.904C132.981 120.904 130.657 117.959 130.489 111.991C130.313 106.245 132.456 104.329 132.618 104.189C132.618 104.189 141.534 114.149 137.815 122.215Z" fill="#1F2723"/>
<path d="M105.197 122.085C105.197 122.085 115.001 112.316 117.697 110.888C120.393 109.46 132.614 104.203 132.614 104.203C132.614 104.203 141.534 114.149 137.815 122.215L134.515 124.732" stroke="#1F2723" stroke-width="0.8" stroke-linecap="round" stroke-linejoin="round"/>
<path d="M152.314 106.887L137.336 120.494C130.308 114.507 132.572 105.492 132.572 105.492L137.955 101.71L144.462 97.1417C146.63 98.1717 148.637 99.5132 150.417 101.124C152.104 102.78 153.266 104.799 152.314 106.887Z" fill="white"/>
<mask id="mask2_0_135" style="mask-type:luminance" maskUnits="userSpaceOnUse" x="132" y="97" width="21" height="24">
<path d="M152.314 106.887L137.336 120.494C130.308 114.507 132.572 105.492 132.572 105.492L137.955 101.71L144.462 97.1417C146.63 98.1717 148.637 99.5132 150.417 101.124C152.104 102.78 153.266 104.799 152.314 106.887Z" fill="white"/>
</mask>
<g mask="url(#mask2_0_135)">
<path opacity="0.2" d="M150.408 101.124C150.107 101.955 149.568 102.68 148.86 103.208C144.016 107.222 140.056 104.185 137.955 101.71L144.462 97.1417C146.627 98.1725 148.63 99.514 150.408 101.124Z" fill="#17AB49"/>
</g>
<path d="M152.314 106.887L137.336 120.494C130.308 114.507 132.572 105.492 132.572 105.492L137.955 101.71L144.462 97.1417C146.63 98.1717 148.637 99.5132 150.417 101.124C152.104 102.78 153.266 104.799 152.314 106.887Z" stroke="#1F2723" stroke-width="0.8" stroke-linecap="round" stroke-linejoin="round"/>
<path d="M146.271 105.371C146.271 105.371 143.807 104.813 142.003 101.324C140.2 97.8348 140.409 81.4043 140.813 78.148C141.218 74.8917 147.451 73.1007 147.744 76.3756C147.791 76.8734 147.981 77.8503 148.265 79.1668C148.637 80.8554 149.157 83.1023 149.715 85.5864C151.574 93.9086 153.899 104.929 152.314 106.887" fill="white"/>
<mask id="mask3_0_135" style="mask-type:luminance" maskUnits="userSpaceOnUse" x="140" y="74" width="13" height="33">
<path d="M146.271 105.371C146.271 105.371 143.807 104.813 142.003 101.324C140.2 97.8348 140.409 81.4043 140.813 78.148C141.218 74.8917 147.451 73.1007 147.744 76.3756C147.791 76.8734 147.981 77.8503 148.265 79.1668C148.637 80.8554 149.157 83.1023 149.715 85.5864C151.574 93.9086 153.899 104.929 152.314 106.887" fill="white"/>
</mask>
<g mask="url(#mask3_0_135)">
<path opacity="0.2" d="M149.715 85.5864C146.959 83.5442 145.006 79.7017 145.006 79.7017L148.26 79.1668C148.637 80.8554 149.157 83.1023 149.715 85.5864Z" fill="#17AB49"/>
</g>
<path d="M146.271 105.371C146.271 105.371 143.807 104.813 142.003 101.324C140.2 97.8348 140.409 81.4043 140.813 78.148C141.218 74.8917 147.451 73.1007 147.744 76.3756C147.791 76.8734 147.981 77.8503 148.265 79.1668C148.637 80.8554 149.157 83.1023 149.715 85.5864C151.574 93.9086 153.899 104.929 152.314 106.887" stroke="#1F2723" stroke-width="0.8" stroke-linecap="round" stroke-linejoin="round"/>
<path d="M165.631 56.3492C165.631 56.3492 165.631 56.3864 165.631 56.4376C165.39 59.0752 162.164 58.5775 157.91 59.3125C154.656 59.8707 150.436 62.4944 147.326 64.7087C144.876 66.4485 143.142 67.9324 143.142 67.9324C143.142 67.9324 139.572 65.5553 136.346 58.945C136.346 58.945 148.023 51.6089 149.385 42.5331C150.459 35.4157 160.764 42.3889 164.641 52.1206C165.385 54.0233 165.696 55.3909 165.631 56.3492Z" fill="white"/>
<mask id="mask4_0_135" style="mask-type:luminance" maskUnits="userSpaceOnUse" x="136" y="39" width="30" height="29">
<path d="M165.631 56.3492C165.631 56.3492 165.631 56.3864 165.631 56.4376C165.39 59.0752 162.164 58.5775 157.91 59.3125C154.656 59.8707 150.436 62.4944 147.326 64.7087C144.876 66.4485 143.142 67.9324 143.142 67.9324C143.142 67.9324 139.572 65.5553 136.346 58.945C136.346 58.945 148.023 51.6089 149.385 42.5331C150.459 35.4157 160.764 42.3889 164.641 52.1206C165.385 54.0233 165.696 55.3909 165.631 56.3492Z" fill="white"/>
</mask>
<g mask="url(#mask4_0_135)">
<path opacity="0.15" d="M165.617 56.4283C165.376 59.0659 162.15 58.5682 157.896 59.3032C154.642 59.8614 150.422 62.4851 147.312 64.6994C145.917 63.862 145.113 63.0526 145.452 62.3734C146.889 59.1869 152.29 58.1634 152.29 58.1634C152.29 58.1634 151.825 56.0747 152.671 55.0653C153.517 54.0558 156.609 56.0747 161.039 57.6471C164.967 59.038 165.543 56.8888 165.617 56.4283Z" fill="#1F2723"/>
</g>
<path d="M165.631 56.3492C165.631 56.3492 165.631 56.3864 165.631 56.4376C165.39 59.0752 162.164 58.5775 157.91 59.3125C154.656 59.8707 150.436 62.4944 147.326 64.7087C144.876 66.4485 143.142 67.9324 143.142 67.9324C143.142 67.9324 139.572 65.5553 136.346 58.945C136.346 58.945 148.023 51.6089 149.385 42.5331C150.459 35.4157 160.764 42.3889 164.641 52.1206C165.385 54.0233 165.696 55.3909 165.631 56.3492Z" stroke="#1F2723" stroke-width="0.8" stroke-linecap="round" stroke-linejoin="round"/>
<path d="M153.466 48.441C156.325 47.3617 157.427 45.4172 157.975 45.8545C158.524 46.2918 160.513 47.7153 160.193 48.5805C159.872 49.4458 157.301 52.4044 157.046 52.9394" stroke="#1F2723" stroke-width="0.8" stroke-linecap="round" stroke-linejoin="round"/>
<path d="M152.137 40.8305C150.598 40.9747 150.803 45.0172 154.573 50.0087C158.343 55.0002 162.066 57.2656 163.716 56.6981C165.366 56.1306 164.223 53.9581 164.223 53.9581" stroke="#1F2723" stroke-width="0.8" stroke-linecap="round" stroke-linejoin="round"/>
<path d="M148.474 64.7226C148.474 64.7226 141.301 70.1421 139.781 70.0909C138.261 70.0397 136.174 70.0025 134.171 67.3277C132.623 65.2576 132.851 63.4713 133.297 62.2106C133.413 61.8812 133.546 61.5582 133.697 61.243C134.008 60.5638 139.939 54.5862 139.939 54.5862L141.413 54.9769C141.413 54.9769 142.371 60.3405 148.209 64.0621L148.474 64.7226Z" fill="#17AB49"/>
<mask id="mask5_0_135" style="mask-type:luminance" maskUnits="userSpaceOnUse" x="132" y="54" width="17" height="17">
<path d="M148.474 64.7226C148.474 64.7226 141.301 70.1421 139.781 70.0909C138.261 70.0397 136.174 70.0025 134.171 67.3277C132.623 65.2576 132.851 63.4713 133.297 62.2106C133.413 61.8812 133.546 61.5582 133.697 61.243C134.008 60.5638 139.939 54.5862 139.939 54.5862L141.413 54.9769C141.413 54.9769 142.371 60.3405 148.209 64.0621L148.474 64.7226Z" fill="white"/>
</mask>
<g mask="url(#mask5_0_135)">
<path opacity="0.2" d="M148.474 64.7226C148.474 64.7226 141.301 70.1421 139.781 70.0909C138.261 70.0397 136.174 70.0025 134.171 67.3277C132.623 65.2576 132.851 63.4713 133.297 62.2106C133.669 63.6666 134.385 65.7553 135.533 66.5834C137.369 67.9138 145.006 63.6387 145.006 63.6387C145.006 63.6387 140.767 58.4147 141.413 54.9769C141.413 54.9769 142.371 60.3405 148.209 64.0621L148.474 64.7226Z" fill="#1F2723"/>
</g>
<path d="M148.474 64.7226C148.474 64.7226 141.301 70.1421 139.781 70.0909C138.261 70.0397 136.174 70.0025 134.171 67.3277C132.623 65.2576 132.851 63.4713 133.297 62.2106C133.413 61.8812 133.546 61.5582 133.697 61.243C134.008 60.5638 139.939 54.5862 139.939 54.5862L141.413 54.9769C141.413 54.9769 142.371 60.3405 148.209 64.0621L148.474 64.7226Z" stroke="#1F2723" stroke-width="0.8" stroke-linecap="round" stroke-linejoin="round"/>
<path opacity="0.15" d="M152.137 40.8305C150.598 40.9747 150.803 45.0172 154.573 50.0087C158.343 55.0002 162.066 57.2656 163.716 56.6981C165.366 56.1306 164.223 53.9581 164.223 53.9581C163.329 50.8946 161.722 48.087 159.533 45.7661C155.233 41.1747 152.137 40.8305 152.137 40.8305Z" fill="#1F2723"/>
<path d="M154.238 73.124C154.071 75.1894 148.562 82.7115 145.006 81.0834L154.238 73.124Z" fill="white"/>
<path d="M154.238 73.124C154.071 75.1894 148.562 82.7115 145.006 81.0834" stroke="#1F2723" stroke-width="0.8" stroke-linecap="round" stroke-linejoin="round"/>
<path d="M140.878 69.4908C140.878 69.4908 143.714 77.399 145.759 78.8318C147.805 80.2646 153.094 75.8779 152.62 75.1103C152.146 74.3427 147.042 69.6118 146.224 65.746C146.224 65.7693 143.816 66.1182 140.878 69.4908Z" fill="#17AB49"/>
<mask id="mask6_0_135" style="mask-type:luminance" maskUnits="userSpaceOnUse" x="140" y="65" width="13" height="15">
<path d="M140.878 69.4908C140.878 69.4908 143.714 77.399 145.759 78.8318C147.805 80.2646 153.094 75.8779 152.62 75.1103C152.146 74.3427 147.042 69.6118 146.224 65.746C146.224 65.7693 143.816 66.1182 140.878 69.4908Z" fill="white"/>
</mask>
<g mask="url(#mask6_0_135)">
<path opacity="0.2" d="M140.878 69.4908C140.878 69.4908 143.714 77.399 145.759 78.8318C147.805 80.2646 153.094 75.8779 152.62 75.1103C152.146 74.3427 147.042 69.6118 146.224 65.746C146.224 65.7693 143.816 66.1182 140.878 69.4908Z" fill="#1F2723"/>
</g>
<path d="M140.878 69.4908C140.878 69.4908 143.714 77.399 145.759 78.8318C147.805 80.2646 153.094 75.8779 152.62 75.1103C152.146 74.3427 147.042 69.6118 146.224 65.746C146.224 65.7693 143.816 66.1182 140.878 69.4908Z" stroke="#1F2723" stroke-width="0.8" stroke-linecap="round" stroke-linejoin="round"/>
<path d="M154.122 73.7845C154.587 72.1563 153.425 72.5936 153.615 71.0678C153.806 69.542 152.82 69.542 152.509 67.9603C152.197 66.3787 151.226 66.5369 150.649 65.2343C150.073 63.9318 148.66 64.4528 147.284 65.0901C145.908 65.7274 144.058 68.7465 144.058 68.7465C143.788 70.6956 145.415 70.2909 145.415 70.2909C144.332 72.2866 146.136 72.7285 146.136 72.7285C146.038 74.8777 147.335 74.5893 147.335 74.5893C147.316 74.8651 147.4 75.1383 147.572 75.3545C147.745 75.5708 147.992 75.7144 148.265 75.7569C148.883 75.8872 153.638 75.422 154.122 73.7845Z" fill="white" stroke="#1F2723" stroke-width="0.8" stroke-linecap="round" stroke-linejoin="round"/>
<path d="M145.429 70.3049C145.429 70.3049 148.056 67.5138 148.86 67.2114" stroke="#1F2723" stroke-width="0.8" stroke-linecap="round" stroke-linejoin="round"/>
<path d="M146.15 72.7285C147.327 71.521 148.771 70.6065 150.366 70.0583" stroke="#1F2723" stroke-width="0.8" stroke-linecap="round" stroke-linejoin="round"/>
<path d="M147.33 74.6079C147.33 74.6079 150.817 72.8913 151.333 72.7471" stroke="#1F2723" stroke-width="0.8" stroke-linecap="round" stroke-linejoin="round"/>
<path d="M142.738 80.7159C142.738 80.7159 140.181 78.348 139.716 77.3386C139.251 76.3291 138.359 72.0075 138.996 70.8259C139.633 69.6443 141.515 67.7278 141.808 66.7974C142.101 65.867 143.728 67.9045 141.869 71.626C141.869 71.626 144.091 74.3148 143.728 77.2641" fill="white"/>
<path d="M142.738 80.7159C142.738 80.7159 140.181 78.348 139.716 77.3386C139.251 76.3291 138.359 72.0075 138.996 70.8259C139.633 69.6443 141.515 67.7278 141.808 66.7974C142.101 65.867 143.728 67.9045 141.869 71.626C141.869 71.626 144.091 74.3148 143.728 77.2641" stroke="#1F2723" stroke-width="0.8" stroke-linecap="round" stroke-linejoin="round"/>
<path opacity="0.15" d="M165.631 56.3492C165.631 56.3492 165.631 56.3864 165.631 56.4376C165.634 56.4082 165.634 56.3786 165.631 56.3492Z" fill="#1F2723"/>
<path d="M141.218 149.573C141.218 149.573 140.195 149.987 138.722 148.145C135.933 144.638 131.726 136.213 128.96 132.175C127.779 130.445 124.516 128.742 120.988 127.314C117.214 125.839 113.359 124.582 109.441 123.551C109.441 123.551 124.288 122.62 128.058 123.769C131.312 124.746 142.877 131.361 146.187 133.264L147.07 133.775C147.07 133.775 147.563 140.781 141.218 149.573Z" fill="#17AB49"/>
<path opacity="0.2" d="M141.218 149.573C141.218 149.573 140.195 149.987 138.722 148.145C135.933 144.638 131.726 136.213 128.96 132.175C127.779 130.445 124.516 128.742 120.988 127.314C134.468 130.393 139.228 143.921 139.228 143.921C139.228 143.921 139.944 136.241 146.173 133.264L147.056 133.775C147.056 133.775 147.563 140.781 141.218 149.573Z" fill="#1F2723"/>
<path d="M109.45 123.551C109.45 123.551 124.298 122.62 128.067 123.769C131.837 124.918 147.066 133.775 147.066 133.775C147.066 133.775 147.563 140.781 141.218 149.592" stroke="#1F2723" stroke-width="0.8" stroke-linecap="round" stroke-linejoin="round"/>
<path d="M165.98 155.611C165.213 156.132 163.744 156.128 161.88 155.784C159.883 155.374 157.917 154.821 156 154.127C150.803 152.228 145.711 150.054 140.744 147.615C140.744 147.615 140.767 138.069 146.373 134.371C146.373 134.371 153.643 139.353 158.324 140.586C162.247 141.642 165.98 155.611 165.98 155.611Z" fill="white"/>
<mask id="mask7_0_135" style="mask-type:luminance" maskUnits="userSpaceOnUse" x="140" y="134" width="26" height="23">
<path d="M165.98 155.611C165.213 156.132 163.744 156.128 161.88 155.784C159.883 155.374 157.917 154.821 156 154.127C150.803 152.228 145.711 150.054 140.744 147.615C140.744 147.615 140.767 138.069 146.373 134.371C146.373 134.371 153.643 139.353 158.324 140.586C162.247 141.642 165.98 155.611 165.98 155.611Z" fill="white"/>
</mask>
<g mask="url(#mask7_0_135)">
<path opacity="0.2" d="M161.88 155.784C159.883 155.374 157.917 154.821 156 154.127C154.954 149.294 157.994 143.921 157.994 143.921C158.127 148.166 159.476 152.284 161.88 155.784Z" fill="#17AB49"/>
</g>
<path d="M165.98 155.611C165.213 156.132 163.744 156.128 161.88 155.784C159.883 155.374 157.917 154.821 156 154.127C150.803 152.228 145.711 150.054 140.744 147.615C140.744 147.615 140.767 138.069 146.373 134.371C146.373 134.371 153.643 139.353 158.324 140.586C162.247 141.642 165.98 155.611 165.98 155.611Z" stroke="#1F2723" stroke-width="0.8" stroke-linecap="round" stroke-linejoin="round"/>
<path d="M159.286 152.857C158.81 151.648 158.487 150.384 158.324 149.094L159.286 152.857Z" fill="white"/>
<path d="M159.286 152.857C158.81 151.648 158.487 150.384 158.324 149.094" stroke="#1F2723" stroke-width="0.8" stroke-linecap="round" stroke-linejoin="round"/>
<path d="M159.291 136.734C161.355 137.06 163.251 141.507 164.53 143.089C164.53 143.089 168.169 144.786 168.792 146.391C169.415 147.996 171.893 154.407 166.97 155.723C164.139 156.481 162.024 156.351 160.555 154.848" fill="white"/>
<path d="M159.291 136.734C161.355 137.06 163.251 141.507 164.53 143.089C164.53 143.089 168.169 144.786 168.792 146.391C169.415 147.996 171.893 154.407 166.97 155.723C164.139 156.481 162.024 156.351 160.555 154.848" stroke="#1F2723" stroke-width="0.8" stroke-linecap="round" stroke-linejoin="round"/>
<path d="M159.756 130.412V130.561C159.732 131.929 159.347 134.641 158.477 139.446C157.664 143.94 157.511 144.289 156.967 144.517C156.302 144.791 151.537 145.852 149.506 146.289L149.064 146.382C148.771 146.447 148 146.042 148.051 145.749C148.293 144.265 149.948 130.863 150.612 130.398C151.621 129.738 158.143 129.114 158.868 129.314C159.089 129.418 159.284 129.571 159.438 129.761C159.591 129.951 159.7 130.174 159.756 130.412Z" fill="#999999"/>
<mask id="mask8_0_135" style="mask-type:luminance" maskUnits="userSpaceOnUse" x="148" y="129" width="12" height="18">
<path d="M159.756 130.412V130.561C159.732 131.929 159.347 134.641 158.477 139.446C157.664 143.94 157.511 144.289 156.967 144.517C156.302 144.791 151.537 145.852 149.506 146.289L149.064 146.382C148.771 146.447 148 146.042 148.051 145.749C148.293 144.265 149.948 130.863 150.612 130.398C151.621 129.738 158.143 129.114 158.868 129.314C159.089 129.418 159.284 129.571 159.438 129.761C159.591 129.951 159.7 130.174 159.756 130.412Z" fill="white"/>
</mask>
<g mask="url(#mask8_0_135)">
<path opacity="0.2" d="M159.756 130.561C159.732 131.929 159.347 134.641 158.477 139.446C157.664 143.94 157.511 144.289 156.967 144.517C156.302 144.791 151.537 145.852 149.506 146.289C149.752 144.349 150.496 138.93 152.03 131.505L159.756 130.561Z" fill="#1F2723"/>
</g>
<path d="M159.756 130.412V130.561C159.732 131.929 159.347 134.641 158.477 139.446C157.664 143.94 157.511 144.289 156.967 144.517C156.302 144.791 151.537 145.852 149.506 146.289L149.064 146.382C148.771 146.447 148 146.042 148.051 145.749C148.293 144.265 149.948 130.863 150.612 130.398C151.621 129.738 158.143 129.114 158.868 129.314C159.089 129.418 159.284 129.571 159.438 129.761C159.591 129.951 159.7 130.174 159.756 130.412Z" stroke="#1F2723" stroke-width="0.8" stroke-linecap="round" stroke-linejoin="round"/>
<path d="M149.413 145.335C149.413 145.335 151.579 132.701 151.774 131.924C151.97 131.147 152.165 131.459 158.673 130.607" stroke="#1F2723" stroke-width="0.8" stroke-linecap="round" stroke-linejoin="round"/>
<path d="M158.324 149.094C158.324 149.094 154.954 150.299 155.186 148.243C154.963 148.081 154.778 147.872 154.644 147.631C154.509 147.39 154.43 147.122 154.41 146.847C154.455 146.22 154.641 145.611 154.954 145.066C154.954 145.066 153.676 147.275 152.588 145.996C152.304 145.661 153.462 143.261 153.462 143.261C153.327 143.349 153.173 143.406 153.013 143.425C152.852 143.444 152.69 143.426 152.538 143.372C152.385 143.318 152.248 143.229 152.136 143.113C152.023 142.997 151.939 142.856 151.891 142.702C151.737 142.335 153.513 139.032 153.903 138.785C155.205 137.967 158.594 136.218 159.756 136.883C160.918 137.548 161.304 139.637 162.001 140.414C162.698 141.191 162.312 143.823 162.001 145.684" fill="white"/>
<path d="M158.324 149.094C158.324 149.094 154.954 150.299 155.186 148.243C154.963 148.081 154.778 147.872 154.644 147.631C154.509 147.39 154.43 147.122 154.41 146.847C154.455 146.22 154.641 145.611 154.954 145.066C154.954 145.066 153.676 147.275 152.588 145.996C152.304 145.661 153.462 143.261 153.462 143.261C153.327 143.349 153.173 143.406 153.013 143.425C152.852 143.444 152.69 143.426 152.538 143.372C152.385 143.318 152.248 143.229 152.136 143.113C152.023 142.997 151.939 142.856 151.891 142.702C151.737 142.335 153.513 139.032 153.903 138.785C155.205 137.967 158.594 136.218 159.756 136.883C160.918 137.548 161.304 139.637 162.001 140.414C162.698 141.191 162.312 143.823 162.001 145.684" stroke="#1F2723" stroke-width="0.8" stroke-linecap="round" stroke-linejoin="round"/>
<path d="M153.462 143.261C153.462 143.261 154.68 141.149 155.028 140.879C155.377 140.609 158.324 139.753 158.324 139.753" fill="white"/>
<path d="M153.462 143.261C153.462 143.261 154.68 141.149 155.028 140.879C155.377 140.609 158.324 139.753 158.324 139.753" stroke="#1F2723" stroke-width="0.8" stroke-linecap="round" stroke-linejoin="round"/>
<path d="M154.954 145.066C155.688 144.251 156.116 143.312 156.423 143.261C156.73 143.209 159.096 142.856 159.291 142.795" fill="white"/>
<path d="M154.954 145.066C155.688 144.251 156.116 143.312 156.423 143.261C156.73 143.209 159.096 142.856 159.291 142.795" stroke="#1F2723" stroke-width="0.8" stroke-linecap="round" stroke-linejoin="round"/>
<path d="M155.061 148.145C155.884 147.215 157.162 146.229 157.431 146.229C157.701 146.229 159.212 146.033 159.291 145.996" fill="white"/>
<path d="M155.061 148.145C155.884 147.215 157.162 146.229 157.431 146.229C157.701 146.229 159.212 146.033 159.291 145.996" stroke="#1F2723" stroke-width="0.8" stroke-linecap="round" stroke-linejoin="round"/>
<path d="M158.868 148.634C158.623 148.824 158.341 148.961 158.04 149.034C157.738 149.107 157.425 149.115 157.12 149.057" fill="white"/>
<path d="M158.868 148.634C158.623 148.824 158.341 148.961 158.04 149.034C157.738 149.107 157.425 149.115 157.12 149.057" stroke="#1F2723" stroke-width="0.8" stroke-linecap="round" stroke-linejoin="round"/>
<path d="M158.324 149.094C158.324 149.094 161.392 151.657 162.786 148.629L158.324 149.094Z" fill="white"/>
<path d="M158.324 149.094C158.324 149.094 161.392 151.657 162.786 148.629" stroke="#1F2723" stroke-width="0.8" stroke-linecap="round" stroke-linejoin="round"/>
<path d="M83.1821 121.871L79.8585 121.783C75.3309 121.671 67.5634 121.504 65.7226 121.62C63.402 121.843 61.134 122.448 59.0103 123.411L51.5124 113.177C52.6559 98.9932 61.6925 97.4394 61.6925 97.4394C61.6925 97.4394 68.0747 104.729 70.399 106.715C72.7232 108.702 83.1821 121.871 83.1821 121.871Z" fill="#17AB49"/>
<path opacity="0.2" d="M79.8585 121.783C75.3309 121.671 67.5634 121.504 65.7226 121.62C63.402 121.843 61.134 122.448 59.0103 123.411L51.5124 113.177C52.6559 98.9932 61.6925 97.4394 61.6925 97.4394C61.6925 97.4394 62.2224 106.125 55.2916 112.042C55.2916 112.042 57.4298 118.052 62.0969 119.243C66.7639 120.434 75.8934 119.457 79.8585 121.783Z" fill="#1F2723"/>
<path d="M83.1821 121.871C83.1821 121.871 72.7232 108.702 70.399 106.715C68.0747 104.729 61.6925 97.4394 61.6925 97.4394C61.6925 97.4394 52.6559 98.9932 51.5124 113.177L59.0103 123.411" stroke="#1F2723" stroke-width="0.8" stroke-linecap="round" stroke-linejoin="round"/>
<path d="M61.0975 99.1467C61.0975 99.1467 60.9348 106.757 52.6559 110.851L38.3248 90.5546C37.3161 85.0654 48.3189 83.0186 48.3189 83.0186L53.5066 89.5638L61.0975 99.1467Z" fill="white"/>
<mask id="mask9_0_135" style="mask-type:luminance" maskUnits="userSpaceOnUse" x="38" y="83" width="24" height="28">
<path d="M61.0975 99.1467C61.0975 99.1467 60.9348 106.757 52.6559 110.851L38.3248 90.5546C37.3161 85.0654 48.3189 83.0186 48.3189 83.0186L53.5066 89.5638L61.0975 99.1467Z" fill="white"/>
</mask>
<g mask="url(#mask9_0_135)">
<path opacity="0.2" d="M53.5112 89.5731C48.6722 93.4016 43.2847 89.2707 43.2847 89.2707L48.3189 83.0279L53.5112 89.5731Z" fill="#17AB49"/>
</g>
<path d="M61.0975 99.1467C61.0975 99.1467 60.9348 106.757 52.6559 110.851L38.3248 90.5546C37.3161 85.0654 48.3189 83.0186 48.3189 83.0186L53.5066 89.5638L61.0975 99.1467Z" stroke="#1F2723" stroke-width="0.8" stroke-linecap="round" stroke-linejoin="round"/>
<path d="M38.3248 90.5546C37.7391 89.2986 38.3248 86.2516 39.3661 82.7208C40.5607 78.669 42.3504 73.9706 43.6659 70.6259C44.391 68.7651 44.9721 67.3091 45.2184 66.5973C46.3062 63.4945 51.9122 66.7508 51.5124 70.0072C51.1126 73.2635 52.2794 84.7397 49.6809 87.6844C47.0824 90.629 44.5676 90.5686 44.5676 90.5686" fill="white"/>
<mask id="mask10_0_135" style="mask-type:luminance" maskUnits="userSpaceOnUse" x="38" y="65" width="14" height="26">
<path d="M38.3248 90.5546C37.7391 89.2986 38.3248 86.2516 39.3661 82.7208C40.5607 78.669 42.3504 73.9706 43.6659 70.6259C44.391 68.7651 44.9721 67.3091 45.2184 66.5973C46.3062 63.4945 51.9122 66.7508 51.5124 70.0072C51.1126 73.2635 52.2794 84.7397 49.6809 87.6844C47.0824 90.629 44.5676 90.5686 44.5676 90.5686" fill="white"/>
</mask>
<g mask="url(#mask10_0_135)">
<path opacity="0.2" d="M47.4218 68.7419C47.4218 68.7419 45.3207 81.302 43.3033 82.0323C42.0173 82.3934 40.6982 82.624 39.3661 82.7208C40.5607 78.669 42.3504 73.9706 43.6659 70.6259L47.4218 68.7419Z" fill="#17AB49"/>
</g>
<path d="M38.3248 90.5546C37.7391 89.2986 38.3248 86.2516 39.3661 82.7208C40.5607 78.669 42.3504 73.9706 43.6659 70.6259C44.391 68.7651 44.9721 67.3091 45.2184 66.5973C46.3062 63.4945 51.9122 66.7508 51.5124 70.0072C51.1126 73.2635 52.2794 84.7397 49.6809 87.6844C47.0825 90.629 44.5676 90.5686 44.5676 90.5686" stroke="#1F2723" stroke-width="0.8" stroke-linecap="round" stroke-linejoin="round"/>
<path d="M42.8384 75.9616C42.7383 76.101 42.6117 76.2192 42.4657 76.3094C42.3198 76.3996 42.1575 76.46 41.9882 76.4873C41.8189 76.5145 41.6458 76.508 41.479 76.4681C41.3122 76.4281 41.155 76.3556 41.0162 76.2547L21.4324 62.0943C21.2933 61.9946 21.1753 61.8682 21.0853 61.7226C20.9952 61.577 20.9348 61.415 20.9076 61.2459C20.8803 61.0768 20.8868 60.904 20.9266 60.7375C20.9665 60.5709 21.0388 60.4139 21.1396 60.2754L40.2957 33.7596C40.4987 33.4792 40.8046 33.2908 41.1463 33.2359C41.4879 33.181 41.8373 33.2639 42.1179 33.4665L61.7018 47.6269C61.9827 47.8294 62.1718 48.1351 62.2276 48.4771C62.2834 48.819 62.2013 49.1691 61.9992 49.4505L42.8384 75.9616Z" fill="#BFBFBF" stroke="#1F2723" stroke-width="0.8" stroke-miterlimit="10"/>
<path d="M47.094 36.4659L45.3925 38.8225L55.573 46.184L57.2746 43.8274L47.094 36.4659Z" fill="#17AB49" stroke="#1F2723" stroke-width="0.8" stroke-linecap="round" stroke-linejoin="round"/>
<path d="M41.4234 35.0876L22.7748 60.9162L41.708 74.6066L60.3566 48.7779L41.4234 35.0876Z" fill="#17AB49"/>
<mask id="mask11_0_135" style="mask-type:luminance" maskUnits="userSpaceOnUse" x="22" y="35" width="39" height="40">
<path d="M41.4234 35.0876L22.7748 60.9162L41.708 74.6066L60.3566 48.7779L41.4234 35.0876Z" fill="white"/>
</mask>
<g mask="url(#mask11_0_135)">
<path opacity="0.7" d="M41.4234 35.0876L22.7748 60.9162L41.708 74.6066L60.3566 48.7779L41.4234 35.0876Z" fill="white"/>
</g>
<path d="M41.4234 35.0876L22.7748 60.9162L41.708 74.6066L60.3566 48.7779L41.4234 35.0876Z" stroke="#1F2723" stroke-width="0.8" stroke-linecap="round" stroke-linejoin="round"/>
<path d="M55.1847 43.9519L54.1527 45.3847C54.0756 45.4901 53.9598 45.5605 53.8308 45.5806C53.7019 45.6006 53.5702 45.5687 53.4647 45.4917L50.8849 43.6309C50.961 43.4217 50.9669 43.1933 50.9016 42.9804C50.8364 42.7675 50.7035 42.5818 50.5232 42.4513C50.3428 42.3208 50.1249 42.2528 49.9025 42.2574C49.68 42.2621 49.4651 42.3393 49.2904 42.4772L46.7059 40.6165C46.6533 40.5787 46.6087 40.5307 46.5747 40.4755C46.5408 40.4202 46.5182 40.3588 46.5082 40.2947C46.4983 40.2306 46.5012 40.1652 46.5168 40.1022C46.5324 40.0392 46.5603 39.98 46.599 39.928L47.631 38.4999C47.7081 38.3948 47.8235 38.3242 47.9521 38.3033C48.0808 38.2824 48.2125 38.3129 48.3189 38.3882L55.0731 43.2727C55.1765 43.349 55.246 43.4627 55.2669 43.5896C55.2877 43.7165 55.2582 43.8465 55.1847 43.9519Z" stroke="#1F2723" stroke-width="0.8" stroke-linecap="round" stroke-linejoin="round"/>
<path d="M49.7135 71.7517C49.7135 71.7517 52.6699 69.8909 53.316 69.0117C53.9621 68.1325 55.6402 64.0295 55.2451 62.7642C54.85 61.4989 53.3578 59.2474 53.2463 58.2798C53.1347 57.3122 51.1498 59.0055 52.2747 63.0061C52.2747 63.0061 49.5879 65.2343 49.3881 68.1976" fill="white"/>
<path d="M49.7135 71.7517C49.7135 71.7517 52.6699 69.8909 53.316 69.0117C53.9621 68.1325 55.6402 64.0295 55.2451 62.7642C54.85 61.4989 53.3578 59.2474 53.2463 58.2798C53.1347 57.3122 51.1498 59.0055 52.2747 63.0061C52.2747 63.0061 49.5879 65.2343 49.3881 68.1976" stroke="#1F2723" stroke-width="0.8" stroke-linecap="round" stroke-linejoin="round"/>
<path d="M48.1377 54.6001C48.1377 55.8587 47.7647 57.0891 47.066 58.1356C46.3672 59.1821 45.3741 59.9978 44.2121 60.4795C43.0502 60.9611 41.7716 61.0872 40.538 60.8416C39.3045 60.5961 38.1714 59.99 37.2821 59.1C36.3928 58.21 35.7871 57.0761 35.5417 55.8416C35.2964 54.6072 35.4223 53.3276 35.9036 52.1648C36.3849 51.0019 37.2 50.0081 38.2457 49.3088C39.2915 48.6095 40.5209 48.2363 41.7786 48.2363C42.6139 48.2357 43.441 48.3999 44.2128 48.7195C44.9846 49.0391 45.6859 49.5078 46.2765 50.0988C46.8671 50.6899 47.3355 51.3917 47.6549 52.1641C47.9742 52.9364 48.1383 53.7642 48.1377 54.6001Z" fill="white" stroke="#1F2723" stroke-width="0.8" stroke-linecap="round" stroke-linejoin="round"/>
<path d="M38.6177 52.316L39.394 56.7818L46.5014 54.8513" fill="white"/>
<path d="M38.6177 52.316L39.394 56.7818L46.5014 54.8513" stroke="#1F2723" stroke-width="0.8" stroke-linecap="round" stroke-linejoin="round"/>
<path d="M80.9277 124.016C80.9277 124.016 71.8028 125.472 64.9371 129.189C63.5698 129.91 62.2828 130.773 61.0975 131.766C57.904 134.506 55.1149 140.181 52.7303 144.679C50.6943 148.513 49.1557 150.038 49.1557 150.038C42.8152 141.246 43.3079 134.222 43.3079 134.222L43.3684 134.189C44.4003 133.585 58.6338 125.318 62.3061 124.216C66.0806 123.099 80.9277 124.016 80.9277 124.016Z" fill="#17AB49"/>
<path opacity="0.2" d="M64.9371 129.189C63.5698 129.91 62.2828 130.773 61.0975 131.766C57.904 134.506 55.1149 140.181 52.7303 144.679C50.6943 148.513 49.1557 150.038 49.1557 150.038C42.8152 141.246 43.3079 134.222 43.3079 134.222L43.3684 134.189C43.8332 133.971 47.1429 132.878 51.5078 141.26C51.5124 141.279 54.5292 131.422 64.9371 129.189Z" fill="#1F2723"/>
<path d="M34.2853 113.958C34.2853 113.958 30.2969 112.926 31.4962 116.666C32.6955 120.406 36.9674 120.285 36.9674 120.285" fill="white"/>
<path d="M34.2853 113.958C34.2853 113.958 30.2969 112.926 31.4962 116.666C32.6955 120.406 36.9674 120.285 36.9674 120.285" stroke="#1F2723" stroke-width="0.8" stroke-linecap="round" stroke-linejoin="round"/>
<path d="M80.9277 124.016C80.9277 124.016 66.0806 123.085 62.3107 124.234C58.5408 125.383 43.3126 134.241 43.3126 134.241C43.3126 134.241 42.8198 141.246 49.1603 150.057" stroke="#1F2723" stroke-width="0.8" stroke-linecap="round" stroke-linejoin="round"/>
<path d="M49.6391 148.099C49.6391 148.099 27.5544 156.104 23.9472 151.755C24.9753 148.935 26.2671 146.219 27.8054 143.642C29 141.753 30.3713 140.176 31.7473 139.814C33.7828 139.225 35.7807 138.514 37.7298 137.683C41.0767 136.287 44.0098 134.855 44.0098 134.855C49.6112 138.553 49.6391 148.099 49.6391 148.099Z" fill="white"/>
<mask id="mask12_0_135" style="mask-type:luminance" maskUnits="userSpaceOnUse" x="23" y="134" width="27" height="20">
<path d="M49.6391 148.099C49.6391 148.099 27.5544 156.104 23.9472 151.755C24.9753 148.935 26.2671 146.219 27.8054 143.642C29 141.753 30.3713 140.176 31.7473 139.814C33.7828 139.225 35.7807 138.514 37.7298 137.683C41.0767 136.287 44.0098 134.855 44.0098 134.855C49.6112 138.553 49.6391 148.099 49.6391 148.099Z" fill="white"/>
</mask>
<g mask="url(#mask12_0_135)">
<path opacity="0.2" d="M37.7298 137.683C37.0976 140.674 35.3219 146.252 30.8641 145.889C29.1349 145.749 28.2238 144.856 27.8054 143.642C29.0001 141.753 30.3714 140.176 31.7473 139.814C33.7828 139.225 35.7807 138.514 37.7298 137.683Z" fill="#17AB49"/>
</g>
<path d="M49.6391 148.099C49.6391 148.099 27.5544 156.104 23.9472 151.755C24.9753 148.935 26.2671 146.219 27.8054 143.642C29 141.753 30.3713 140.176 31.7473 139.814C33.7828 139.225 35.7807 138.514 37.7298 137.683C41.0767 136.287 44.0098 134.855 44.0098 134.855C49.6112 138.553 49.6391 148.099 49.6391 148.099Z" stroke="#1F2723" stroke-width="0.8" stroke-linecap="round" stroke-linejoin="round"/>
<path d="M25.6439 152.713C20.4469 152.946 20.1169 140.702 22.7293 122.518C22.7293 122.518 26.7363 114.558 28.5863 114.451C29.0837 114.423 29.7717 114.41 30.5061 114.41C32.5003 114.41 34.8617 114.451 34.8617 114.451C34.8617 114.451 35.9309 119.061 35.9401 120.629C35.9401 122.978 34.9221 123.243 34.9221 123.243C34.9779 125.458 33.1883 125.681 31.2685 125.379C31.2348 125.477 31.1896 125.571 31.1337 125.658C30.878 126.086 30.204 126.881 28.512 127.095C28.4841 134.189 35.3684 144.931 31.724 147.275" fill="white"/>
<mask id="mask13_0_135" style="mask-type:luminance" maskUnits="userSpaceOnUse" x="21" y="114" width="15" height="39">
<path d="M25.6439 152.713C20.4469 152.946 20.1169 140.702 22.7293 122.518C22.7293 122.518 26.7363 114.558 28.5863 114.451C29.0837 114.423 29.7717 114.41 30.5061 114.41C32.5003 114.41 34.8617 114.451 34.8617 114.451C34.8617 114.451 35.9309 119.061 35.9401 120.629C35.9401 122.978 34.9221 123.243 34.9221 123.243C34.9779 125.458 33.1883 125.681 31.2685 125.379C31.2348 125.477 31.1896 125.571 31.1337 125.658C30.878 126.086 30.204 126.881 28.512 127.095C28.4841 134.189 35.3684 144.931 31.724 147.275" fill="white"/>
</mask>
<g mask="url(#mask13_0_135)">
<path opacity="0.2" d="M35.9401 120.629C35.9401 122.978 34.9221 123.243 34.9221 123.243C34.9779 125.458 33.1883 125.681 31.2685 125.379C31.2348 125.477 31.1896 125.571 31.1337 125.658L31.724 123.876C32.0354 124.015 32.3847 124.042 32.7141 123.955C33.8762 123.383 33.2673 121.378 33.2673 121.378C33.4946 121.291 33.6936 121.142 33.8427 120.95C33.9919 120.757 34.0854 120.527 34.1133 120.285C34.2946 119.355 32.2539 118.75 32.2539 118.75C32.8908 117.684 31.473 116.666 31.473 116.666C31.9797 115.903 31.3196 115.065 30.4922 114.41C32.4864 114.41 34.8478 114.451 34.8478 114.451C34.8478 114.451 35.9309 119.061 35.9401 120.629Z" fill="#17AB49"/>
</g>
<path d="M25.6439 152.713C20.4469 152.946 20.1169 140.702 22.7293 122.518C22.7293 122.518 26.7363 114.558 28.5863 114.451C29.0837 114.423 29.7717 114.41 30.5061 114.41C32.5003 114.41 34.8617 114.451 34.8617 114.451C34.8617 114.451 35.9308 119.061 35.9401 120.629C35.9401 122.978 34.9221 123.243 34.9221 123.243C34.9779 125.458 33.1883 125.681 31.2685 125.379C31.2348 125.477 31.1896 125.571 31.1337 125.658C30.878 126.086 30.204 126.881 28.512 127.095C28.4841 134.189 35.3684 144.931 31.724 147.275" stroke="#1F2723" stroke-width="0.8" stroke-linecap="round" stroke-linejoin="round"/>
<path d="M34.885 119.95C34.2435 118.768 33.6253 119.452 30.5387 118.703C31.7137 118.812 32.8982 118.756 34.0576 118.536" stroke="#1F2723" stroke-width="0.8" stroke-linecap="round" stroke-linejoin="round"/>
<path d="M30.1901 116.41C30.6084 116.596 32.426 116.461 33.2766 116.41" stroke="#1F2723" stroke-width="0.8" stroke-linecap="round" stroke-linejoin="round"/>
<path d="M31.2685 121.397C31.2685 121.308 33.867 121.527 34.29 121.834C34.713 122.141 34.9779 123.295 34.9779 123.295" stroke="#1F2723" stroke-width="0.8" stroke-linecap="round" stroke-linejoin="round"/>
<path d="M33.2673 123.876C33.0721 124.053 31.7241 123.876 31.7241 123.876C31.6654 124.402 31.5076 124.912 31.2592 125.379" stroke="#1F2723" stroke-width="0.8" stroke-linecap="round" stroke-linejoin="round"/>
<path d="M47.4218 112.479C47.4218 116.294 45.8646 119.615 43.5682 121.359H36.2005C33.8763 119.615 32.3423 116.294 32.3423 112.479C32.3423 112.321 32.3423 112.167 32.3423 112.014H47.3893C47.4125 112.172 47.4218 112.321 47.4218 112.479Z" fill="#757575"/>
<mask id="mask14_0_135" style="mask-type:luminance" maskUnits="userSpaceOnUse" x="32" y="112" width="16" height="10">
<path d="M47.4218 112.479C47.4218 116.294 45.8646 119.615 43.5682 121.359H36.2005C33.8763 119.615 32.3423 116.294 32.3423 112.479C32.3423 112.321 32.3423 112.167 32.3423 112.014H47.3893C47.4125 112.172 47.4218 112.321 47.4218 112.479Z" fill="white"/>
</mask>
<g mask="url(#mask14_0_135)">
<path opacity="0.2" d="M41.7786 120.922L41.7461 121.359H36.2005C33.8763 119.615 32.3423 116.294 32.3423 112.479C32.3423 112.321 32.3423 112.167 32.3423 112.014H33.9785C35.1267 114.791 37.6275 119.555 41.7786 120.922Z" fill="#1F2723"/>
</g>
<path d="M47.4218 112.479C47.4218 116.294 45.8646 119.615 43.5682 121.359H36.2005C33.8763 119.615 32.3423 116.294 32.3423 112.479C32.3423 112.321 32.3423 112.167 32.3423 112.014H47.3893C47.4125 112.172 47.4218 112.321 47.4218 112.479Z" stroke="#1F2723" stroke-width="0.8" stroke-linecap="round" stroke-linejoin="round"/>
<path d="M44.154 120.922H35.6148L35.215 122.067H44.5537L44.154 120.922Z" fill="#757575" stroke="#1F2723" stroke-width="0.8" stroke-linecap="round" stroke-linejoin="round"/>
<path opacity="0.2" d="M44.5537 122.067L44.154 120.922H35.6148L35.215 122.067" fill="#1F2723"/>
<path d="M37.4648 102.733C36.1679 104.962 39.6449 107.06 37.9297 110.116" stroke="#1F2723" stroke-width="0.8" stroke-linecap="round" stroke-linejoin="round"/>
<path d="M39.6914 102.733C38.3945 104.966 41.8715 107.06 40.1563 110.116" stroke="#1F2723" stroke-width="0.8" stroke-linecap="round" stroke-linejoin="round"/>
<path d="M42.0761 102.733C40.7792 104.966 44.2562 107.06 42.5409 110.116" stroke="#1F2723" stroke-width="0.8" stroke-linecap="round" stroke-linejoin="round"/>
<path d="M129.341 135.487C126.036 129.845 112.365 124.937 97.1785 124.323H97.0577L95.5655 124.281H94.0502L92.558 124.323H92.4278C77.2461 124.927 63.5797 129.84 60.2747 135.487C56.7465 141.512 51.5217 151.206 51.5217 151.206C54.4502 155.951 65.6994 156.588 65.6994 156.588L66.299 169.353H123.317L123.916 156.588C123.916 156.588 135.166 155.951 138.094 151.206C138.094 151.206 132.869 141.512 129.341 135.487Z" fill="#17AB49" stroke="#1F2723" stroke-width="0.8" stroke-linecap="round" stroke-linejoin="round"/>
<path d="M78.041 164.738C78.041 164.738 51.7541 169.153 49.8622 165.548C49.6612 165.145 49.5322 164.711 49.481 164.264C48.8628 159.914 52.6327 151.336 52.6327 151.336C55.5565 151.057 58.6245 151.802 61.0789 152.732C62.7953 153.333 64.4399 154.123 65.983 155.086L65.7877 155.514L65.7227 155.649L71.8632 155.844L77.3577 156.021H77.4832L78.041 164.738Z" fill="white"/>
<mask id="mask15_0_135" style="mask-type:luminance" maskUnits="userSpaceOnUse" x="49" y="151" width="30" height="16">
<path d="M78.041 164.738C78.041 164.738 51.7541 169.153 49.8622 165.548C49.6612 165.145 49.5322 164.711 49.481 164.264C48.8628 159.914 52.6327 151.336 52.6327 151.336C55.5565 151.057 58.6245 151.802 61.0789 152.732C62.7953 153.333 64.4399 154.123 65.983 155.086L65.7877 155.514L65.7227 155.649L71.8632 155.844L77.3577 156.021H77.4832L78.041 164.738Z" fill="white"/>
</mask>
<g mask="url(#mask15_0_135)">
<path opacity="0.2" d="M65.7877 155.514C59.7726 155.63 57.4902 156.444 57.4902 156.444C58.4457 154.992 59.6626 153.73 61.0788 152.723C62.7956 153.327 64.4403 154.119 65.9829 155.086L65.7877 155.514Z" fill="#17AB49"/>
<path opacity="0.2" d="M78.041 164.738C78.041 164.738 51.7541 169.153 49.8622 165.548C49.6612 165.145 49.5322 164.711 49.481 164.264C50.1283 164.529 50.8145 164.686 51.5124 164.729C54.9522 164.85 72.3002 162.706 72.3002 162.706L71.8632 155.849V155.625C73.5273 155.709 75.3588 155.835 77.3716 156.025H77.4971L78.041 164.738Z" fill="#17AB49"/>
</g>
<path d="M78.041 164.738C78.041 164.738 51.7541 169.153 49.8622 165.548C49.6612 165.145 49.5322 164.711 49.481 164.264C48.8628 159.914 52.6327 151.336 52.6327 151.336C55.5565 151.057 58.6245 151.802 61.0789 152.732C62.7953 153.333 64.4399 154.123 65.983 155.086L65.7877 155.514L65.7227 155.649L71.8632 155.844L77.3577 156.021H77.4832L78.041 164.738Z" stroke="#1F2723" stroke-width="0.8" stroke-linecap="round" stroke-linejoin="round"/>
<path d="M65.7226 155.649C65.7226 155.649 59.5123 155.481 56.8674 156.695" stroke="#1F2723" stroke-width="0.8" stroke-linecap="round" stroke-linejoin="round"/>
<path d="M121.601 153.886C121.601 153.886 119.166 142.619 123.884 137.167" stroke="#1F2723" stroke-width="0.8" stroke-linecap="round" stroke-linejoin="round"/>
<path d="M125.734 142.777C125.734 142.777 122.54 145.103 121.959 148.866" stroke="#1F2723" stroke-width="0.8" stroke-linecap="round" stroke-linejoin="round"/>
<path d="M65.7227 135.855C68.3569 141.703 68.9956 148.257 67.5402 154.504" stroke="#1F2723" stroke-width="0.8" stroke-linecap="round" stroke-linejoin="round"/>
<path d="M62.5942 139.753C62.5942 139.753 66.0015 141.828 67.5402 145.066" stroke="#1F2723" stroke-width="0.8" stroke-linecap="round" stroke-linejoin="round"/>
<path d="M105.197 125.662C105.197 125.662 100.158 138.534 85.1624 131.556" stroke="#1F2723" stroke-width="0.8" stroke-linecap="round" stroke-linejoin="round"/>
<path d="M128.56 134.389C126.366 135.845 124.71 137.981 123.847 140.469" stroke="#1F2723" stroke-width="0.8" stroke-linecap="round" stroke-linejoin="round"/>
<path d="M61.0463 134.389C62.829 135.475 64.2332 137.085 65.0672 138.999" stroke="#1F2723" stroke-width="0.8" stroke-linecap="round" stroke-linejoin="round"/>
<path d="M83.1821 125.244C83.1821 125.244 84.8509 132.096 94.436 132.254" stroke="#1F2723" stroke-width="0.8" stroke-linecap="round" stroke-linejoin="round"/>
<path d="M114.406 132.254C114.406 132.254 96.5836 149.671 83.9584 150.304" stroke="#1F2723" stroke-width="0.8" stroke-linecap="round" stroke-linejoin="round"/>
<path d="M73.9643 135.199C73.9643 135.199 76.4326 140.744 80.9369 142.777" stroke="#1F2723" stroke-width="0.8" stroke-linecap="round" stroke-linejoin="round"/>
<path d="M111.7 164.738C111.7 164.738 137.987 169.153 139.879 165.548C140.08 165.145 140.209 164.711 140.26 164.264C140.878 159.914 137.109 151.336 137.109 151.336C134.185 151.057 131.117 151.802 128.662 152.732C126.947 153.335 125.304 154.126 123.763 155.09L123.958 155.518L124.023 155.653L117.883 155.849L112.388 156.025H112.263L111.7 164.738Z" fill="white"/>
<mask id="mask16_0_135" style="mask-type:luminance" maskUnits="userSpaceOnUse" x="111" y="151" width="30" height="16">
<path d="M111.7 164.738C111.7 164.738 137.987 169.153 139.879 165.548C140.08 165.145 140.209 164.711 140.26 164.264C140.878 159.914 137.109 151.336 137.109 151.336C134.185 151.057 131.117 151.802 128.662 152.732C126.947 153.335 125.304 154.126 123.763 155.09L123.958 155.518L124.023 155.653L117.883 155.849L112.388 156.025H112.263L111.7 164.738Z" fill="white"/>
</mask>
<g mask="url(#mask16_0_135)">
<path opacity="0.2" d="M123.954 155.514C129.969 155.63 132.251 156.444 132.251 156.444C131.295 154.992 130.079 153.73 128.662 152.723C126.947 153.326 125.304 154.117 123.763 155.081L123.954 155.514Z" fill="#17AB49"/>
<path opacity="0.2" d="M111.7 164.738C111.7 164.738 137.987 169.153 139.879 165.548C140.08 165.145 140.209 164.711 140.26 164.264C139.613 164.529 138.927 164.686 138.229 164.729C134.789 164.85 117.441 162.706 117.441 162.706L117.878 155.849V155.625C116.214 155.709 114.382 155.835 112.37 156.025H112.244L111.7 164.738Z" fill="#17AB49"/>
</g>
<path d="M111.7 164.738C111.7 164.738 137.987 169.153 139.879 165.548C140.08 165.145 140.209 164.711 140.26 164.264C140.878 159.914 137.109 151.336 137.109 151.336C134.185 151.057 131.117 151.802 128.662 152.732C126.947 153.335 125.304 154.126 123.763 155.09L123.958 155.518L124.023 155.653L117.883 155.849L112.388 156.025H112.263L111.7 164.738Z" stroke="#1F2723" stroke-width="0.8" stroke-linecap="round" stroke-linejoin="round"/>
<path d="M124.019 155.649C124.019 155.649 130.229 155.481 132.851 156.695" stroke="#1F2723" stroke-width="0.8" stroke-linecap="round" stroke-linejoin="round"/>
<path d="M103.71 125.69C102.713 127.268 101.31 128.547 99.6469 129.392C97.9843 130.237 96.1245 130.617 94.264 130.491C88.8579 130.221 85.1624 126.118 85.1624 126.118C87.1054 124.541 87.3936 120.727 87.2588 118.21C87.2588 118.15 87.2588 118.098 87.2588 118.043C87.2588 117.88 87.2356 117.717 87.2263 117.577C87.1406 116.51 86.9744 115.451 86.7289 114.41L102.91 115.219C102.316 116.787 101.959 118.435 101.85 120.108C101.809 120.841 101.851 121.576 101.976 122.299V122.369C102.427 124.774 103.71 125.69 103.71 125.69Z" fill="white" stroke="#1F2723" stroke-width="0.8" stroke-miterlimit="10"/>
<path d="M67.5402 162.566V164.296C67.5402 164.558 67.644 164.809 67.8288 164.994C68.0136 165.179 68.2643 165.283 68.5256 165.283H120.616C120.877 165.283 121.128 165.179 121.313 164.994C121.498 164.809 121.601 164.558 121.601 164.296V162.566H67.5402Z" fill="#757575" stroke="#1F2723" stroke-width="0.8" stroke-linecap="round" stroke-linejoin="round"/>
<path d="M127.998 137.106L121.299 162.189C121.22 162.446 121.085 162.682 120.903 162.88C120.721 163.078 120.498 163.233 120.249 163.334C120.077 163.403 119.894 163.44 119.709 163.441H69.446C69.2611 163.44 69.078 163.403 68.9068 163.334C68.6578 163.233 68.4343 163.078 68.2525 162.88C68.0708 162.682 67.9354 162.446 67.8563 162.189L61.1439 137.106C61.0902 136.961 61.0736 136.805 61.0956 136.651C61.1176 136.498 61.1775 136.353 61.2698 136.228C61.3621 136.104 61.484 136.005 61.6244 135.94C61.7647 135.874 61.9192 135.845 62.0736 135.855H127.082C127.235 135.848 127.388 135.879 127.526 135.945C127.665 136.011 127.785 136.111 127.875 136.234C127.966 136.358 128.025 136.503 128.046 136.655C128.067 136.807 128.051 136.962 127.998 137.106Z" fill="#BFBFBF" stroke="#1F2723" stroke-width="0.8" stroke-miterlimit="10"/>
<path d="M126.901 138.418L120.235 163.343C120.064 163.413 119.88 163.449 119.696 163.45H69.446C69.2611 163.449 69.0781 163.413 68.9068 163.343L62.2363 138.427C62.1826 138.282 62.166 138.126 62.188 137.972C62.21 137.819 62.2699 137.674 62.3622 137.549C62.4545 137.425 62.5764 137.326 62.7168 137.261C62.8571 137.195 63.0116 137.166 63.166 137.176H125.99C126.141 137.17 126.292 137.202 126.429 137.268C126.566 137.334 126.684 137.433 126.774 137.555C126.864 137.678 126.923 137.82 126.945 137.971C126.967 138.121 126.952 138.275 126.901 138.418Z" fill="#999999" stroke="#1F2723" stroke-width="0.8" stroke-linecap="round" stroke-linejoin="round"/>
<path d="M97.9734 152.439C96.4859 152.439 95.282 151.546 95.282 150.448C95.2836 150.198 95.3458 149.952 95.4633 149.731C95.1689 149.677 94.8702 149.649 94.5708 149.648C92.4883 149.648 90.7963 150.899 90.7963 152.439C90.7963 153.979 92.4883 155.23 94.5708 155.23C96.6533 155.23 98.3453 153.983 98.3453 152.439C98.2244 152.429 98.0989 152.439 97.9734 152.439Z" fill="#BFBFBF" stroke="#1F2723" stroke-width="0.8" stroke-miterlimit="10"/>
<path d="M102.901 115.214C102.307 116.782 101.95 118.43 101.841 120.103C100.084 121.867 97.9316 123.174 95.5563 122.802C92.1211 122.262 89.2623 119.722 87.217 117.573C87.1314 116.506 86.9651 115.447 86.7196 114.405L102.901 115.214Z" fill="#1F2723"/>
<path d="M106.197 103.426C106.197 103.426 107.503 102.008 108.144 102.473C108.577 102.828 108.904 103.295 109.089 103.823C109.275 104.352 109.311 104.921 109.195 105.469C108.846 106.673 107.335 108.771 107.21 109.995C107.084 111.218 106.308 112.609 105.448 111.8C104.588 110.99 106.197 103.426 106.197 103.426Z" fill="white" stroke="#1F2723" stroke-width="0.8" stroke-miterlimit="10"/>
<path d="M82.9451 103.426C82.9451 103.426 81.6389 102.008 80.9974 102.473C80.5645 102.828 80.2375 103.295 80.0522 103.823C79.8669 104.352 79.8304 104.921 79.9469 105.469C80.3001 106.673 81.8062 108.771 81.9317 109.995C82.0572 111.218 82.8335 112.609 83.6935 111.8C84.5535 110.99 82.9451 103.426 82.9451 103.426Z" fill="white" stroke="#1F2723" stroke-width="0.8" stroke-miterlimit="10"/>
<path d="M94.2965 87.0238C110.705 87.0238 106.805 108.888 103.784 115.917C102.724 118.387 97.2297 121.62 94.5708 121.62C92.0978 121.62 86.4453 117.754 85.4413 115.438C82.3873 108.381 78.6546 87.0238 94.2965 87.0238Z" fill="white" stroke="#1F2723" stroke-width="0.8" stroke-miterlimit="10"/>
<path d="M97.0763 104.473C97.0763 104.473 101.26 103.701 102.654 105.352" stroke="#1F2723" stroke-width="0.8" stroke-linecap="round" stroke-linejoin="round"/>
<path d="M100.242 107.627C100.242 108.134 99.9862 108.557 99.6702 108.557C99.3541 108.557 99.0984 108.148 99.0984 107.627C99.0984 107.106 99.3541 106.697 99.6702 106.697C99.9862 106.697 100.242 107.125 100.242 107.627Z" fill="#1F2723"/>
<path d="M92.0653 104.473C92.0653 104.473 88.2071 104.129 86.4872 105.352" stroke="#1F2723" stroke-width="0.8" stroke-linecap="round" stroke-linejoin="round"/>
<path d="M88.8997 107.627C88.8997 108.134 89.1554 108.557 89.4715 108.557C89.7876 108.557 90.0432 108.148 90.0432 107.627C90.0432 107.106 89.7876 106.697 89.4715 106.697C89.1554 106.697 88.8997 107.125 88.8997 107.627Z" fill="#1F2723"/>
<path d="M101.088 92.634C96.976 93.9509 92.556 93.9509 88.4442 92.634C88.4442 92.634 86.2269 92.5084 85.353 93.6202C84.4791 94.732 85.353 98.1744 85.5854 99.5746C85.8178 100.975 83.6656 101.947 83.9538 105.487L83.1217 106.706C83.1217 106.706 80.7975 101.012 81.3878 96.1136C81.9782 91.2152 85.0601 89.3125 85.0601 89.3125C85.0601 89.3125 86.4546 85.0793 94.7288 85.1258C103.626 85.1631 104.528 89.9824 104.528 89.9824C104.528 89.9824 110.571 94.0063 106.099 107.129L105.127 105.501C105.358 103.761 104.959 101.995 104.002 100.524C103.226 99.3885 104.467 95.9741 104.174 94.2249C103.882 92.4758 101.088 92.634 101.088 92.634Z" fill="#1F2723"/>
<path d="M95.547 106.715C95.547 106.715 95.7934 110.437 96.5185 111.87C97.2437 113.302 94.7103 113.53 93.6272 112.688" stroke="#1F2723" stroke-width="0.8" stroke-linecap="round" stroke-linejoin="round"/>
<path d="M91.4145 115.684C91.4145 116.252 93.2739 116.968 95.1332 116.968C96.9926 116.968 98.3592 116.196 98.085 115.912" stroke="#1F2723" stroke-width="0.8" stroke-linecap="round" stroke-linejoin="round"/>
<path d="M106.001 95.0111C106.001 95.0111 103.593 98.2675 98.1269 100.552V98.9885C98.1269 98.9885 93.1856 101.845 88.7324 101.407L89.7411 99.3793C89.7411 99.3793 85.9852 103.357 82.8103 103.203C79.6354 103.05 78.715 85.0933 94.7289 85.0933C107.744 85.0933 106.001 95.0111 106.001 95.0111Z" fill="#1F2723"/>
<path d="M103.305 96.095C103.305 96.095 102.45 100.845 106.926 104.324C106.926 104.324 109.576 101.468 108.553 96.095C107.531 90.7221 105.197 90.5546 105.197 90.5546L103.305 96.095Z" fill="#1F2723"/>
<path opacity="0.2" d="M101.311 88.6799C101.311 88.6799 99.6423 95.774 93.5063 99.3793" stroke="white" stroke-width="0.8" stroke-miterlimit="10"/>
<path opacity="0.2" d="M97.4063 88.6799C97.4063 88.6799 94.687 95.6577 84.5767 96.8207" stroke="white" stroke-width="0.8" stroke-miterlimit="10"/>
<path opacity="0.2" d="M103.71 91.2896C103.71 91.2896 103.751 94.96 101.311 96.8207" stroke="white" stroke-width="0.8" stroke-miterlimit="10"/>
<path d="M162.391 36.467L167.007 27.5074" stroke="#1F2723" stroke-width="0.8" stroke-linecap="round" stroke-linejoin="round"/>
<path d="M167.007 41.3283L177.392 35.0901" stroke="#1F2723" stroke-width="0.8" stroke-linecap="round" stroke-linejoin="round"/>
<path d="M171.302 48.8085L180.316 48.2363" stroke="#1F2723" stroke-width="0.8" stroke-linecap="round" stroke-linejoin="round"/>
<path d="M23.4499 172.493H16.2448V166.311C16.2448 166.038 16.353 165.777 16.5457 165.584C16.7384 165.391 16.9997 165.283 17.2721 165.283H171.856C172.128 165.283 172.389 165.391 172.582 165.584C172.775 165.777 172.883 166.038 172.883 166.311V172.493" fill="white"/>
<path d="M23.4499 172.493H16.2448V166.311C16.2448 166.038 16.353 165.777 16.5457 165.584C16.7384 165.391 16.9997 165.283 17.2721 165.283H171.856C172.128 165.283 172.389 165.391 172.582 165.584C172.775 165.777 172.883 166.038 172.883 166.311V172.493" stroke="#1F2723" stroke-width="0.8" stroke-miterlimit="10"/>
<path d="M164.53 172.493H100.242" stroke="#1F2723" stroke-width="0.8" stroke-miterlimit="10"/>
<path d="M95.6354 172.493H91.0195" stroke="#1F2723" stroke-width="0.8" stroke-miterlimit="10"/>
<path d="M61.0975 172.493H27.1686" stroke="#1F2723" stroke-width="0.8" stroke-miterlimit="10"/>
</svg>
