<svg width="200" height="200" viewBox="0 0 200 200" fill="none" xmlns="http://www.w3.org/2000/svg">
<path d="M28.6448 92.9663V14.2055H35.3018" stroke="#1F2723" stroke-opacity="0.12" stroke-width="0.8" stroke-linecap="round" stroke-linejoin="round"/>
<path d="M28.6448 105.843V102.971" stroke="#1F2723" stroke-opacity="0.12" stroke-width="0.8" stroke-linecap="round" stroke-linejoin="round"/>
<path d="M52.4269 14.2055H121.138V115.924H28.6448" stroke="#1F2723" stroke-opacity="0.12" stroke-width="0.8" stroke-linecap="round" stroke-linejoin="round"/>
<path d="M44.0057 14.2054H50.0433" stroke="#1F2723" stroke-opacity="0.12" stroke-width="0.8" stroke-linecap="round" stroke-linejoin="round"/>
<path d="M117.659 17.6998H32.1237V112.434H117.659V17.6998Z" stroke="#1F2723" stroke-opacity="0.12" stroke-width="0.8" stroke-linecap="round" stroke-linejoin="round"/>
<path d="M113.682 24.3457V61.1956H36.1008V57.832" stroke="#1F2723" stroke-opacity="0.12" stroke-width="0.8" stroke-linecap="round" stroke-linejoin="round"/>
<path d="M36.1008 49.9492V21.3569H113.682" stroke="#1F2723" stroke-opacity="0.12" stroke-width="0.8" stroke-linecap="round" stroke-linejoin="round"/>
<path d="M36.1008 55.2452V51.9764" stroke="#1F2723" stroke-opacity="0.12" stroke-width="0.8" stroke-linecap="round" stroke-linejoin="round"/>
<path d="M100.579 65.0649H117.659" stroke="#1F2723" stroke-opacity="0.12" stroke-width="0.8" stroke-linecap="round" stroke-linejoin="round"/>
<path d="M94.5056 65.0649H96.9251" stroke="#1F2723" stroke-opacity="0.12" stroke-width="0.8" stroke-linecap="round" stroke-linejoin="round"/>
<path d="M32.1237 65.0649H91.6193" stroke="#1F2723" stroke-opacity="0.12" stroke-width="0.8" stroke-linecap="round" stroke-linejoin="round"/>
<path d="M70.5934 61.1956V59.4168H77.7442V60.4281H74.8892V61.1956" stroke="#1F2723" stroke-opacity="0.12" stroke-width="0.8" stroke-linecap="round" stroke-linejoin="round"/>
<path d="M32.2717 96.8173C32.2717 96.8173 33.4568 97.7203 34.2917 103.183C34.2917 103.183 35.7282 94.4561 37.4699 94.3206C39.2115 94.1852 38.8524 100 38.8524 100C38.8524 100 39.1442 97.1334 40.5088 97.2643C41.8734 97.3952 40.5088 103.183 40.5088 103.183C40.5088 103.183 42.1428 98.6684 43.6959 98.7497C45.2491 98.8309 42.677 106.949 42.677 106.949C42.677 106.949 46.6541 104.05 48.2656 105.468C49.8771 106.885 47.3678 110.461 47.3678 110.461C47.3678 110.461 53.0687 109.215 53.9575 112.579" stroke="#1F2723" stroke-opacity="0.12" stroke-width="0.8" stroke-linecap="round" stroke-linejoin="round"/>
<path d="M53.9486 109.296C53.9486 109.296 56.4354 107.658 58.3881 108.421C58.3881 108.421 57.1447 106.515 58.3881 105.35C59.6315 104.186 61.2296 108.421 61.2296 108.421C61.2296 108.421 61.4091 101.328 63.8915 101.684C66.3738 102.041 63.8915 108.421 63.8915 108.421C63.8915 108.421 68.331 104.466 69.3993 105.843C70.4677 107.22 68.7125 109.296 68.7125 109.296C68.7125 109.296 71.3744 108.439 73.3271 110.439C73.3271 110.439 76.3032 107.382 79.6115 106.944C79.6115 106.944 77.412 100.524 78.4758 99.2284C79.5397 97.9326 81.4789 104.831 81.4789 104.831C81.4789 104.831 82.3228 100.344 85.1014 100C85.1014 100 82.7897 98.7318 83.4765 96.8175C84.1633 94.9032 87.3548 97.269 87.3548 97.269C87.3548 97.269 86.0441 93.8964 88.1224 92.9709C90.2008 92.0453 91.0672 95.7926 91.0672 95.7926C91.0672 95.7926 91.6417 91.8648 94.0882 92.0815C96.5346 92.2982 95.7356 96.822 95.7356 96.822C95.7356 96.822 98.0429 93.2102 99.2728 93.5939C101.742 94.3253 100.992 100.005 100.992 100.005C100.992 100.005 104.431 97.5986 105.319 98.7047C106.275 99.9011 101.728 102.976 101.728 102.976C101.728 102.976 105.14 103.355 107.263 105.355" stroke="#1F2723" stroke-opacity="0.12" stroke-width="0.8" stroke-linecap="round" stroke-linejoin="round"/>
<path d="M117.641 98.1132C117.641 98.1132 117.246 94.5013 113.664 94.3207C110.082 94.1401 114.647 102.222 114.647 102.222C114.647 102.222 111.694 99.7611 110.63 100.52C109.566 101.278 113.664 105.445 113.664 105.445C113.664 105.445 111.698 103.639 109.624 104.186C107.55 104.732 110.805 110.551 110.805 110.551C107.733 109.928 104.543 110.302 101.697 111.621" stroke="#1F2723" stroke-opacity="0.12" stroke-width="0.8" stroke-linecap="round" stroke-linejoin="round"/>
<path d="M41.9185 170.107C41.9185 170.107 40.6077 158.639 36.2535 148.693C31.8993 138.747 35.8046 136.625 38.1523 139.108C40.5 141.591 43.0407 150.923 43.0407 150.923C43.0407 150.923 41.8871 141.158 42.3539 135.957C43.0407 128.336 44.2213 122.38 47.7136 123.315C51.7536 124.403 46.0168 139.117 47.5341 154.535C47.5341 154.535 52.8534 146.034 54.7163 138.765C56.5792 131.496 61.3913 134.647 59.7214 141.149C58.0515 147.65 51.5875 151.284 49.0827 158.336C49.0827 158.336 57.4096 150.589 60.067 153.641C61.5663 155.361 57.7777 156.598 56.1303 157.393C48.158 161.23 46.1156 170.833 46.1156 170.833L41.9185 170.107Z" fill="#17AB49" stroke="#1F2723" stroke-width="0.8" stroke-linecap="round" stroke-linejoin="round"/>
<path opacity="0.2" d="M41.9185 170.107C41.9185 170.107 40.6077 158.639 36.2535 148.693C31.8993 138.747 35.8046 136.625 38.1523 139.108C40.5 141.591 43.0407 150.923 43.0407 150.923C43.0407 150.923 41.8871 141.158 42.3539 135.957C43.0407 128.336 44.2213 122.38 47.7136 123.315C51.7536 124.403 46.0168 139.117 47.5341 154.535C47.5341 154.535 52.8534 146.034 54.7163 138.765C56.5792 131.496 61.3913 134.647 59.7214 141.149C58.0515 147.65 51.5875 151.284 49.0827 158.336C49.0827 158.336 57.4096 150.589 60.067 153.641C61.5663 155.361 57.7777 156.598 56.1303 157.393C48.158 161.23 46.1156 170.833 46.1156 170.833L41.9185 170.107Z" fill="#1F2723" fill-opacity="0.7" stroke="#1F2723" stroke-width="0.8" stroke-miterlimit="10"/>
<path d="M46.7619 167.628C46.7619 167.628 46.102 155.632 50.4562 145.686C54.8104 135.74 50.9051 134.968 48.5933 137.455C46.2816 139.943 44.486 152.806 44.486 152.806C44.486 152.806 42.4391 141.275 43.3683 133.302C44.2975 125.329 44.2391 120.841 40.9712 120.836C36.8011 120.836 37.7751 140.358 41.1508 152.056C41.1508 152.056 35.8315 143.555 33.9686 136.286C32.1057 129.017 27.2891 132.168 28.959 138.67C30.6289 145.171 37.0973 148.806 39.5976 155.858C39.5976 155.858 31.2708 148.11 28.6133 151.162C27.1141 152.882 30.9072 154.119 32.5501 154.914C40.5223 158.752 42.5648 168.355 42.5648 168.355L46.7619 167.628Z" fill="#17AB49" stroke="#1F2723" stroke-width="0.8" stroke-linecap="round" stroke-linejoin="round"/>
<path d="M48.2521 145.189C44.5578 153.578 44.3468 165.817 44.3468 165.817C44.3468 165.817 39.4809 141.501 40.7063 131.257" stroke="#1F2723" stroke-width="0.8" stroke-linecap="round" stroke-linejoin="round"/>
<path d="M32.2719 140.358C32.2719 140.358 37.6989 151.88 42.6636 156.296" stroke="#1F2723" stroke-width="0.8" stroke-linecap="round" stroke-linejoin="round"/>
<path d="M32.2719 152.779C32.2719 152.779 41.4471 158.716 43.696 162.355" stroke="#1F2723" stroke-width="0.8" stroke-linecap="round" stroke-linejoin="round"/>
<path d="M31.6748 162.923H57.221L55.2459 190.116H33.6499L31.6748 162.923Z" fill="#1F2723"/>
<path d="M13.1896 190.188H187.708" stroke="#1F2723" stroke-width="0.8" stroke-linecap="round" stroke-linejoin="round"/>
<path d="M101.652 168.625C101.921 169.669 101.941 170.761 101.71 171.813C101.71 171.813 92.6742 172.499 86.5873 170.409C80.5004 168.318 80.3029 166.007 80.3029 166.007L82.664 163.014" fill="#1F2723"/>
<path d="M94.6447 155.429C94.6447 155.429 94.6223 160.133 92.5664 160.846C90.5105 161.56 85.1148 158.81 82.6549 163.032C80.195 167.253 99.0797 171.61 102.554 169.479C102.554 169.479 103.394 165.641 102.743 162.743C102.092 159.844 102.743 156.246 102.743 156.246L94.6447 155.429Z" fill="white" stroke="#1F2723" stroke-width="0.8" stroke-linecap="round" stroke-linejoin="round"/>
<path d="M129.173 107.536C129.173 107.536 120.133 105.689 117.327 108.294C117.327 108.294 104.983 101.264 88.1089 109.197C71.2352 117.13 90.7304 156.007 90.7304 156.007C90.7304 156.007 99.9775 161.004 106.392 158.923L105.629 153.659L103.955 152.711C103.955 152.711 109.198 150.151 109.97 139.5C109.97 139.5 130.803 143.261 131.965 143.473C133.128 143.686 129.173 107.536 129.173 107.536Z" fill="#757575"/>
<mask id="mask0_0_893" style="mask-type:luminance" maskUnits="userSpaceOnUse" x="81" y="105" width="52" height="55">
<path d="M129.173 107.536C129.173 107.536 120.133 105.689 117.327 108.294C117.327 108.294 104.983 101.264 88.1089 109.197C71.2352 117.13 90.7304 156.007 90.7304 156.007C90.7304 156.007 99.9775 161.004 106.392 158.923L105.629 153.659L103.955 152.711C103.955 152.711 109.198 150.151 109.97 139.5C109.97 139.5 130.803 143.261 131.965 143.473C133.128 143.686 129.173 107.536 129.173 107.536Z" fill="white"/>
</mask>
<g mask="url(#mask0_0_893)">
<path opacity="0.2" d="M131.947 143.469C130.803 143.257 109.952 139.496 109.952 139.496C109.18 150.146 103.937 152.706 103.937 152.706L105.611 153.654L106.374 158.919C102.868 160.056 98.5141 159.077 95.2911 157.957C94.4527 156.846 93.8423 155.578 93.4955 154.228L94.5774 151.492C88.6565 145.808 92.2072 131.216 95.7265 121.22C99.2009 111.342 115.374 108.998 115.742 108.949C115.648 109.256 111.878 121.062 113.404 127.392C114.948 133.807 122.911 135.067 122.911 135.067C121.062 122.574 126.053 108.43 126.053 108.43L130.488 120.331C131.503 130.697 132.63 143.595 131.947 143.469Z" fill="#1F2723" fill-opacity="0.7"/>
<path d="M109.97 139.496C109.97 139.496 106.774 132.272 108.785 128.042" stroke="#1F2723" stroke-width="0.8" stroke-linecap="round" stroke-linejoin="round"/>
<path d="M124.532 120.493C124.532 120.493 122.498 138.471 129.622 142.521" stroke="#1F2723" stroke-width="0.8" stroke-linecap="round" stroke-linejoin="round"/>
<path d="M112.6 112.764C112.6 112.764 101.378 126.096 103.654 134.435" stroke="#1F2723" stroke-width="0.8" stroke-linecap="round" stroke-linejoin="round"/>
<path d="M103.955 152.706C103.955 152.706 93.0647 153.383 89.0875 148.548" stroke="#1F2723" stroke-width="0.8" stroke-linecap="round" stroke-linejoin="round"/>
</g>
<path d="M129.173 107.536C129.173 107.536 120.133 105.689 117.327 108.294C117.327 108.294 104.983 101.264 88.1089 109.197C71.2352 117.13 90.7304 156.007 90.7304 156.007C90.7304 156.007 99.9775 161.004 106.392 158.923L105.629 153.659L103.955 152.711C103.955 152.711 109.198 150.151 109.97 139.5C109.97 139.5 130.803 143.261 131.965 143.473C133.128 143.686 129.173 107.536 129.173 107.536Z" stroke="#1F2723" stroke-width="0.8" stroke-linecap="round" stroke-linejoin="round"/>
<path d="M143.996 72.0763C143.996 72.0763 137.11 76.4105 135.117 79.6431C133.123 82.8757 129.698 89.3409 129.698 89.3409L119.63 85.2008L112.021 90.9166C112.021 90.9166 116.568 105.644 123.221 106.872C129.874 108.1 150.127 89.7473 150.127 89.7473L143.996 72.0763Z" fill="#17AB49"/>
<mask id="mask1_0_893" style="mask-type:luminance" maskUnits="userSpaceOnUse" x="112" y="72" width="39" height="35">
<path d="M143.996 72.0763C143.996 72.0763 137.11 76.4105 135.117 79.6431C133.123 82.8757 129.698 89.3409 129.698 89.3409L119.63 85.2008L112.021 90.9166C112.021 90.9166 116.568 105.644 123.221 106.872C129.874 108.1 150.127 89.7473 150.127 89.7473L143.996 72.0763Z" fill="white"/>
</mask>
<g mask="url(#mask1_0_893)">
<path opacity="0.2" d="M143.996 72.0763C143.996 72.0763 137.11 76.4105 135.117 79.6431C133.123 82.8757 129.698 89.3409 129.698 89.3409L119.63 85.2008L112.021 90.9166C112.021 90.9166 116.568 105.644 123.221 106.872C129.874 108.1 150.127 89.7473 150.127 89.7473L143.996 72.0763Z" fill="#1F2723" fill-opacity="0.7"/>
</g>
<path d="M143.996 72.0763C143.996 72.0763 137.11 76.4105 135.117 79.6431C133.123 82.8757 129.698 89.3409 129.698 89.3409L119.63 85.2008L112.021 90.9166C112.021 90.9166 116.568 105.644 123.221 106.872C129.874 108.1 150.127 89.7473 150.127 89.7473L143.996 72.0763Z" stroke="#1F2723" stroke-width="0.8" stroke-linecap="round" stroke-linejoin="round"/>
<path d="M111.236 83.8961C111.236 83.8961 113.206 76.0132 118.355 61.1911L119.513 61.5117C119.513 61.5117 114.023 78.3564 111.236 83.8961Z" fill="#757575" stroke="#1F2723" stroke-width="0.8" stroke-linecap="round" stroke-linejoin="round"/>
<path d="M107.254 73.1147C107.254 73.1147 115.033 70.907 130.376 68.022L130.681 69.1914C130.681 69.1914 113.417 72.7852 107.254 73.1147Z" fill="#999999" stroke="#1F2723" stroke-width="0.8" stroke-linecap="round" stroke-linejoin="round"/>
<path d="M122.615 72.6632C122.615 72.6632 119.715 69.5028 118.808 69.25C117.902 68.9972 116.564 70.4871 116.564 70.4871C116.564 70.4871 112.717 70.3787 111.626 70.6135C110.535 70.8483 106.931 76.8033 105.791 83.9999C104.651 91.1965 103.12 95.2869 99.2684 97.2644C90.7036 101.716 83.8042 111.563 86.1474 121.437C88.4906 131.311 83.4002 142.62 83.454 144.76C83.5079 146.9 94.3486 148.372 96.6424 147.216C98.9362 146.06 103.798 147.189 104.969 147.171C106.141 147.153 110.194 132.561 109.458 122.886C108.722 113.211 117.363 109.445 118.701 104.14C120.038 98.8356 124.752 75.0064 122.615 72.6632Z" fill="#BFBFBF" stroke="#1F2723" stroke-width="0.8" stroke-miterlimit="10"/>
<path d="M125.56 76.564C125.336 74.9611 125.009 73.3746 124.581 71.8144C124.096 70.4193 121.888 68.5773 121.376 68.9836C120.993 69.3726 120.688 69.8325 120.478 70.3381C120.478 70.3381 118.66 70.5593 118.714 71.6925C118.714 71.6925 116.919 72.3968 116.887 73.5571C116.887 73.5571 115.347 73.5346 115.859 76.0267C116.1 77.4197 116.743 78.7106 117.709 79.7379L125.56 76.564Z" fill="white" stroke="#1F2723" stroke-width="0.8" stroke-linecap="round" stroke-linejoin="round"/>
<path d="M142.604 65.5299C142.604 65.5299 149.158 66.9836 150.585 71.7874L158.18 63.4485C158.18 63.4485 155.038 62.1708 155.684 57.34C156.331 52.5092 142.604 65.5299 142.604 65.5299Z" fill="white" stroke="#1F2723" stroke-width="0.8" stroke-linecap="round" stroke-linejoin="round"/>
<path d="M157.336 58.5861C157.336 58.5861 159.994 55.7914 159.94 53.516C159.644 41.4976 156.291 33.6057 140.458 38.2875C133.061 40.4772 134.775 53.4437 134.775 53.4437C134.775 53.4437 132.769 56.4912 133.276 57.4258C133.491 57.8276 135.072 57.8141 135.072 57.8141C135.378 58.8352 135.832 59.8057 136.418 60.6945L135.619 61.0602C136.198 63.5027 137.159 65.9227 138.761 66.5502C140.467 67.2049 142.393 67.3764 146.841 65.9272" fill="white"/>
<path d="M157.336 58.5861C157.336 58.5861 159.994 55.7914 159.94 53.516C159.644 41.4976 156.291 33.6057 140.458 38.2875C133.061 40.4772 134.775 53.4437 134.775 53.4437C134.775 53.4437 132.769 56.4912 133.276 57.4258C133.491 57.8276 135.072 57.8141 135.072 57.8141C135.378 58.8352 135.832 59.8057 136.418 60.6945L135.619 61.0602C136.198 63.5027 137.159 65.9227 138.761 66.5502C140.467 67.2049 142.393 67.3764 146.841 65.9272" stroke="#1F2723" stroke-width="0.8" stroke-linecap="round" stroke-linejoin="round"/>
<path d="M135.386 46.5767C135.386 46.5767 137.716 45.8001 139.327 48.9108" stroke="#1F2723" stroke-width="0.8" stroke-linecap="round" stroke-linejoin="round"/>
<path d="M137.154 50.9109C137.338 51.4301 137.208 51.9538 136.863 52.0757C136.517 52.1976 136.091 51.8816 135.907 51.3624C135.722 50.8432 135.853 50.324 136.194 50.1975C136.535 50.0711 136.97 50.3962 137.154 50.9109Z" fill="#1F2723"/>
<path d="M136.405 60.6944C136.405 60.6944 138.743 59.9088 138.91 59.0465" stroke="#1F2723" stroke-width="0.8" stroke-linecap="round" stroke-linejoin="round"/>
<path d="M135.489 54.6265C135.489 54.6265 134.533 57.3941 140.032 59.0194" stroke="#1F2723" stroke-width="0.8" stroke-linecap="round" stroke-linejoin="round"/>
<path d="M137.392 53.1367C137.877 54.4911 137.621 55.8456 136.822 56.121C136.023 56.3964 134.986 55.5386 134.502 54.1796C134.017 52.8206 134.273 51.4707 135.072 51.1953C135.871 50.9199 136.89 51.7777 137.392 53.1367Z" fill="#BFBFBF" stroke="#1F2723" stroke-width="0.8" stroke-miterlimit="10"/>
<path d="M137.581 51.1095C137.581 51.1095 138.811 51.0282 139.309 50.5406" stroke="#1F2723" stroke-width="0.8" stroke-linecap="round" stroke-linejoin="round"/>
<path d="M137.603 52.1073C137.748 52.0512 137.905 52.0338 138.058 52.0568C138.212 52.0797 138.356 52.1422 138.479 52.2382" stroke="#1F2723" stroke-width="0.8" stroke-linecap="round" stroke-linejoin="round"/>
<path d="M135.274 49.0146C135.264 49.3757 135.34 49.7339 135.496 50.0591C135.652 50.3843 135.884 50.6671 136.171 50.8837" stroke="#1F2723" stroke-width="0.8" stroke-linecap="round" stroke-linejoin="round"/>
<path d="M135.673 43.2899C135.673 43.2899 133.379 38.3236 140.898 35.3845C148.417 32.4454 156.609 33.3619 160.371 39.958C164.133 46.5541 162.817 56.0714 156.928 59.4123C151.039 62.7533 149.898 57.9811 149.898 57.9811C149.898 57.9811 152.892 54.8208 150.855 51.7462C148.817 48.6716 146.505 52.9155 146.505 52.9155C146.505 52.9155 142.056 51.227 141.567 45.4886C141.572 45.4661 139.004 41.9355 135.673 43.2899Z" fill="#BFBFBF" stroke="#1F2723" stroke-width="0.8" stroke-miterlimit="10"/>
<path d="M154.158 34.6711C154.158 34.6711 152.857 29.145 157.574 26.883C162.292 24.6211 167.706 29.461 166.278 33.9577C164.851 38.4545 159.801 39.0324 159.801 39.0324C159.801 39.0324 157.144 35.9488 154.158 34.6711Z" fill="#BFBFBF" stroke="#1F2723" stroke-width="0.8" stroke-miterlimit="10"/>
<path d="M145.769 36.0255C146.611 35.8104 147.47 35.6684 148.336 35.6011" stroke="white" stroke-width="0.8" stroke-linecap="round" stroke-linejoin="round"/>
<path d="M139.309 41.484C139.892 39.7932 141.039 38.3575 142.555 37.4207" stroke="white" stroke-width="0.8" stroke-linecap="round" stroke-linejoin="round"/>
<path d="M142.604 44.0573C142.604 44.0573 145.369 38.2784 155.402 38.5448" stroke="white" stroke-width="0.8" stroke-linecap="round" stroke-linejoin="round"/>
<path d="M150.603 46.6714C153.696 45.1093 156.542 42.8293 158.18 39.7096" stroke="white" stroke-width="0.8" stroke-linecap="round" stroke-linejoin="round"/>
<path d="M144.66 48.7978C145.751 48.5626 146.824 48.2472 147.869 47.8542" stroke="white" stroke-width="0.8" stroke-linecap="round" stroke-linejoin="round"/>
<path d="M159.837 45.7098C159.958 44.7866 159.994 43.8541 159.945 42.9242" stroke="white" stroke-width="0.8" stroke-linecap="round" stroke-linejoin="round"/>
<path d="M152.915 56.2067C155.837 55.1999 158.194 51.2404 159.145 48.5315" stroke="white" stroke-width="0.8" stroke-linecap="round" stroke-linejoin="round"/>
<path d="M152.915 59.0466C154.302 58.8102 155.627 58.292 156.809 57.5235C157.99 56.755 159.004 55.7524 159.787 54.5769" stroke="white" stroke-width="0.8" stroke-linecap="round" stroke-linejoin="round"/>
<path d="M156.03 33.7726C156.03 33.7726 156.03 27.2171 160.254 27.6505" stroke="white" stroke-width="0.8" stroke-linecap="round" stroke-linejoin="round"/>
<path d="M162.481 28.3909C162.481 28.3909 165.232 32.5852 158.145 35.1631" stroke="white" stroke-width="0.8" stroke-linecap="round" stroke-linejoin="round"/>
<path d="M159.962 37.4207C159.962 37.4207 164.748 36.5177 165.524 33.7592" stroke="white" stroke-width="0.8" stroke-linecap="round" stroke-linejoin="round"/>
<path d="M135.714 51.6738L135.067 54.3331C135.177 54.6977 135.405 55.0154 135.714 55.236L136.405 52.3691C136.405 52.3691 136.378 52.1524 135.714 51.6738Z" fill="white"/>
<path d="M136.71 52.9922L136.162 55.3805C136.162 55.3805 136.611 55.6243 136.89 54.8658C137.168 54.1073 136.71 52.9922 136.71 52.9922Z" fill="white"/>
<path d="M158.18 63.4485C158.18 63.4485 157.884 60.4868 157.112 60.4281C156.34 60.3694 148.489 68.1484 144.489 69.4126C140.49 70.6767 142.671 75.8733 142.671 75.8733C142.671 75.8733 136.468 81.1827 137.626 88.5464C138.784 95.91 144.22 94.1312 144.22 94.1312L158.18 63.4485Z" fill="#17AB49"/>
<mask id="mask2_0_893" style="mask-type:luminance" maskUnits="userSpaceOnUse" x="137" y="60" width="22" height="35">
<path d="M158.18 63.4485C158.18 63.4485 157.884 60.4868 157.112 60.4281C156.34 60.3694 148.489 68.1484 144.489 69.4126C140.49 70.6767 142.671 75.8733 142.671 75.8733C142.671 75.8733 136.468 81.1827 137.626 88.5464C138.784 95.91 144.22 94.1312 144.22 94.1312L158.18 63.4485Z" fill="white"/>
</mask>
<g mask="url(#mask2_0_893)">
<path opacity="0.6" d="M158.18 63.4486L145.612 91.1109L144.238 94.1313C144.238 94.1313 139.969 95.5309 138.191 90.7181C137.936 90.0147 137.753 89.2871 137.644 88.5465C137.32 86.4236 137.56 84.2524 138.34 82.2528C139.288 79.821 140.775 77.6391 142.689 75.8734C142.689 75.8734 140.503 70.6723 144.507 69.4127C148.511 68.1531 156.362 60.3831 157.13 60.4282C157.458 60.4282 157.696 60.9971 157.866 61.6156C158.015 62.2182 158.12 62.8308 158.18 63.4486Z" fill="white"/>
<path opacity="0.2" d="M158.18 63.4486L145.612 91.1108C144.112 91.1559 140.247 90.876 138.191 90.718C137.936 90.0146 137.753 89.287 137.644 88.5464C137.32 86.4235 137.56 84.2523 138.34 82.2527C141.078 80.6139 142.923 77.3722 142.923 77.3722C142.923 77.3722 143.372 75.6069 146.155 71.2005C148.202 67.9679 154.607 63.6698 157.866 61.6155C158.015 62.2181 158.12 62.8307 158.18 63.4486Z" fill="#1F2723" fill-opacity="0.7"/>
</g>
<path d="M158.18 63.4485C158.18 63.4485 157.884 60.4868 157.112 60.4281C156.34 60.3694 148.489 68.1484 144.489 69.4126C140.49 70.6767 142.671 75.8733 142.671 75.8733C142.671 75.8733 136.468 81.1827 137.626 88.5464C138.784 95.91 144.22 94.1312 144.22 94.1312L158.18 63.4485Z" stroke="#1F2723" stroke-width="0.8" stroke-linecap="round" stroke-linejoin="round"/>
<path d="M169.641 77.8732C173.703 94.9618 156.035 142.399 148.763 146.255L130.682 144.336C130.682 144.336 113.839 102.799 133.846 95.8828C133.846 95.8828 139.183 76.3382 159.756 64.4462C159.756 64.4462 167.1 67.1867 169.641 77.8732Z" fill="#17AB49"/>
<mask id="mask3_0_893" style="mask-type:luminance" maskUnits="userSpaceOnUse" x="124" y="64" width="47" height="83">
<path d="M169.641 77.8732C173.703 94.9618 156.035 142.399 148.763 146.255L130.682 144.336C130.682 144.336 113.839 102.799 133.846 95.8828C133.846 95.8828 139.183 76.3382 159.756 64.4462C159.756 64.4462 167.1 67.1867 169.641 77.8732Z" fill="white"/>
</mask>
<g mask="url(#mask3_0_893)">
<path opacity="0.2" d="M140.871 109.066C140.871 109.066 145.36 116.858 153.288 116.059C153.288 116.059 146.532 123.834 140.032 122.046C133.532 120.258 129.86 110.854 129.86 110.854C129.86 110.854 129.178 119.802 124.846 123.251C123.028 111.856 123.683 99.4042 133.846 95.8827C133.846 95.8827 136.54 85.9501 145.585 75.9227C151.169 71.3086 157.31 66.9247 160.425 64.7576C161.771 65.4528 164.914 67.4665 167.342 71.8232C160.559 72.0625 152.915 80.1305 152.915 80.1305C148.911 76.9701 144.889 80.9296 142.842 83.5843C145.939 82.74 148.637 82.4511 150.127 82.9884C154.719 84.6588 158.18 95.4944 158.18 95.4944C158.18 95.4944 152.569 110.596 140.871 109.066Z" fill="#1F2723" fill-opacity="0.7"/>
<path opacity="0.2" d="M148.763 146.254L130.682 144.336C130.682 144.336 129.384 141.139 127.939 136.376C129.012 136.454 130.069 136.679 131.081 137.044C137.029 139.062 148.453 128.714 152.919 121.093C157.386 113.472 165.735 93.35 165.735 93.35C165.735 93.35 162.185 88.4694 165.143 85.9682C167.14 84.2842 168.541 79.3947 169.246 76.3788C169.389 76.8574 169.524 77.3585 169.645 77.8732C173.703 94.9617 156.035 142.399 148.763 146.254Z" fill="#1F2723" fill-opacity="0.7"/>
<path d="M160.735 99.2146C161.43 98.9932 162.043 98.567 162.494 97.9911" stroke="#1F2723" stroke-width="0.8" stroke-linecap="round" stroke-linejoin="round"/>
<path d="M150.41 99.0657C152.845 99.6078 155.339 99.8294 157.83 99.7248" stroke="#1F2723" stroke-width="0.8" stroke-linecap="round" stroke-linejoin="round"/>
<path d="M148.911 100.492C148.911 100.492 152.776 105.007 156.353 104.556" stroke="#1F2723" stroke-width="0.8" stroke-linecap="round" stroke-linejoin="round"/>
<path d="M164.357 68.0219C164.357 68.0219 163.217 71.3583 159.146 73.8911" stroke="#1F2723" stroke-width="0.8" stroke-linecap="round" stroke-linejoin="round"/>
<path d="M145.962 116.592C148.379 117.38 151.008 117.189 153.288 116.059" stroke="#1F2723" stroke-width="0.8" stroke-linecap="round" stroke-linejoin="round"/>
<path d="M133.734 104.352C135.943 108.592 139.175 112.836 143.282 115.337" stroke="#1F2723" stroke-width="0.8" stroke-linecap="round" stroke-linejoin="round"/>
<path d="M132.926 130.258C133.333 130.873 133.814 131.434 134.358 131.929" stroke="#1F2723" stroke-width="0.8" stroke-linecap="round" stroke-linejoin="round"/>
<path d="M130.682 106.949C129.312 113.721 129.761 120.493 131.521 127.455" stroke="#1F2723" stroke-width="0.8" stroke-linecap="round" stroke-linejoin="round"/>
</g>
<path d="M169.641 77.8732C173.703 94.9618 156.035 142.399 148.763 146.255L130.682 144.336C130.682 144.336 113.839 102.799 133.846 95.8828C133.846 95.8828 139.183 76.3382 159.756 64.4462C159.756 64.4462 167.1 67.1867 169.641 77.8732Z" stroke="#1F2723" stroke-width="0.8" stroke-linecap="round" stroke-linejoin="round"/>
<path d="M139.588 83.8193C139.588 83.8193 144.382 70.6992 157.723 62.2972C157.723 62.2972 159.603 62.1392 160.416 62.7983C160.983 63.3588 161.41 64.0455 161.664 64.8029L164.357 67.0603C164.357 67.0603 164.012 68.952 151.64 78.713C151.64 78.7311 146.954 74.442 139.588 83.8193Z" fill="#17AB49" stroke="#1F2723" stroke-width="0.8" stroke-linecap="round" stroke-linejoin="round"/>
<path d="M159.787 95.8107C157.992 100.967 135.547 108.804 129.873 108.095C124.2 107.387 114.45 93.4043 116.2 83.4176C116.2 83.4176 114.611 83.7787 114.557 83.3724C114.167 80.3339 113.395 81.5665 114.297 79.9231C117.287 74.5053 125.564 73.503 126.484 74.0222C127.405 74.5414 127.288 78.6815 127.288 78.6815C127.288 78.6815 132.706 84.6456 135.179 89.1152C135.179 89.1152 135.722 87.5757 138.322 88.6638C138.322 88.6638 145.293 79.0562 149.544 78.8034" fill="#17AB49"/>
<mask id="mask4_0_893" style="mask-type:luminance" maskUnits="userSpaceOnUse" x="113" y="73" width="47" height="36">
<path d="M159.787 95.8107C157.992 100.967 135.547 108.804 129.873 108.095C124.2 107.387 114.45 93.4043 116.2 83.4176C116.2 83.4176 114.611 83.7787 114.557 83.3724C114.167 80.3339 113.395 81.5665 114.297 79.9231C117.287 74.5053 125.564 73.503 126.484 74.0222C127.405 74.5414 127.288 78.6815 127.288 78.6815C127.288 78.6815 132.706 84.6456 135.179 89.1152C135.179 89.1152 135.722 87.5757 138.322 88.6638C138.322 88.6638 145.293 79.0562 149.544 78.8034" fill="white"/>
</mask>
<g mask="url(#mask4_0_893)">
<path opacity="0.2" d="M152.951 101.21C145.351 105.102 133.738 108.579 129.873 108.095C124.195 107.4 114.45 93.4043 116.2 83.4175C116.2 83.4175 114.611 83.7787 114.557 83.3724C114.505 82.9466 114.427 82.5244 114.324 82.1082C117.165 80.5777 121.309 78.6679 123.818 78.9478C123.818 78.9478 117.354 80.8531 118.279 87.6388C119.203 94.4246 127.019 107.165 129.977 106.931C132.841 106.696 145.98 104.691 152.951 101.21Z" fill="#1F2723" fill-opacity="0.7"/>
</g>
<path d="M159.787 95.8107C157.992 100.967 135.547 108.804 129.873 108.095C124.2 107.387 114.45 93.4043 116.2 83.4176C116.2 83.4176 114.611 83.7787 114.557 83.3724C114.167 80.3339 113.395 81.5665 114.297 79.9231C117.287 74.5053 125.564 73.503 126.484 74.0222C127.405 74.5414 127.288 78.6815 127.288 78.6815C127.288 78.6815 132.706 84.6456 135.179 89.1152C135.179 89.1152 135.722 87.5757 138.322 88.6638C138.322 88.6638 145.293 79.0562 149.544 78.8034" stroke="#1F2723" stroke-width="0.8" stroke-linecap="round" stroke-linejoin="round"/>
<path d="M93.2038 170.228C94.7031 161.88 90.0391 159.772 90.0391 159.772C81.2275 159.158 81.2724 163.646 81.2724 163.646C81.2724 163.646 78.1795 167.257 90.7619 170.228" fill="#1F2723"/>
<path d="M116.2 83.4175C116.2 83.4175 119.042 79.0607 125.892 78.9433" stroke="#1F2723" stroke-width="0.8" stroke-linecap="round" stroke-linejoin="round"/>
<path d="M135.179 89.1152C135.179 89.1152 136.135 93.946 135.426 95.8513C134.717 97.7565 138.232 96.7542 136.831 93.7067" fill="#17AB49"/>
<path d="M135.179 89.1152C135.179 89.1152 136.135 93.946 135.426 95.8513C134.717 97.7565 138.232 96.7542 136.831 93.7067" stroke="#1F2723" stroke-width="0.8" stroke-linecap="round" stroke-linejoin="round"/>
<path d="M148.79 90.9842C149.317 90.6643 149.775 90.2405 150.136 89.7382" stroke="#1F2723" stroke-width="0.8" stroke-linecap="round" stroke-linejoin="round"/>
<path d="M138.339 88.6773C139.301 89.6974 140.464 90.5051 141.753 91.0492C143.042 91.5932 144.429 91.8617 145.827 91.8377" stroke="#1F2723" stroke-width="0.8" stroke-linecap="round" stroke-linejoin="round"/>
<path d="M157.143 70.4374C156.589 70.9293 156.001 71.3819 155.384 71.7918" stroke="#1F2723" stroke-width="0.8" stroke-linecap="round" stroke-linejoin="round"/>
<path d="M161.655 64.803C161 65.9956 160.23 67.1207 159.357 68.1621" stroke="#1F2723" stroke-width="0.8" stroke-linecap="round" stroke-linejoin="round"/>
<path d="M108.215 94.3072C105.611 96.1763 102.406 96.9935 99.2369 97.2554" stroke="#1F2723" stroke-width="0.8" stroke-miterlimit="10"/>
<path d="M112.6 87.7516C112.296 89.343 111.597 90.831 110.567 92.0768" stroke="#1F2723" stroke-width="0.8" stroke-miterlimit="10"/>
<path d="M100.97 131.329C101.692 132.101 102.653 132.186 103.308 131.27" stroke="#1F2723" stroke-width="0.8" stroke-miterlimit="10"/>
<path d="M89.0875 122.412C90.515 121.197 93.2981 119.215 95.152 120.583C96.1126 121.292 96.5884 122.841 97.0553 123.888C97.7107 125.36 98.3256 126.845 99.0394 128.29" stroke="#1F2723" stroke-width="0.8" stroke-miterlimit="10"/>
<path d="M112.6 143.672L112.551 143.758L109.472 149.225C109.227 149.659 108.894 150.037 108.495 150.333C108.096 150.63 107.64 150.838 107.155 150.946L105.315 154.219C105.575 154.475 105.744 154.81 105.795 155.173C105.846 155.535 105.777 155.905 105.598 156.223L105.248 156.846C105.176 156.973 105.088 157.09 104.987 157.194C104.696 157.47 104.496 157.83 104.416 158.224C104.336 158.619 104.378 159.028 104.538 159.397C104.142 159.444 103.771 159.616 103.479 159.889C103.186 160.166 102.979 160.522 102.882 160.914C102.849 161.057 102.795 161.194 102.72 161.321L102.37 161.944C102.19 162.262 101.91 162.512 101.574 162.655C101.238 162.797 100.864 162.823 100.512 162.729L98.6713 165.998C98.8268 166.471 98.8823 166.972 98.8344 167.468C98.7865 167.964 98.6361 168.444 98.393 168.878L95.2508 174.432L89.0696 170.91L92.2118 165.357C92.4557 164.922 92.7881 164.544 93.1873 164.248C93.5864 163.952 94.0433 163.743 94.5281 163.637L96.3685 160.363C96.1412 160.141 95.9829 159.857 95.9128 159.546C95.8427 159.236 95.8638 158.911 95.9735 158.612C96.0005 158.523 96.0382 158.438 96.0857 158.359L96.4358 157.736C96.5061 157.608 96.5937 157.491 96.6962 157.388C96.9858 157.111 97.184 156.751 97.2643 156.357C97.3445 155.963 97.3029 155.554 97.1451 155.185C97.5418 155.133 97.9129 154.959 98.2084 154.688C98.5038 154.417 98.7093 154.061 98.797 153.668C98.8336 153.526 98.8879 153.39 98.9586 153.262L99.3132 152.639C99.4939 152.32 99.7739 152.071 100.11 151.929C100.446 151.787 100.819 151.76 101.172 151.853L103.012 148.584C102.854 148.111 102.798 147.611 102.846 147.114C102.894 146.618 103.045 146.137 103.29 145.704L105.207 142.304L106.419 140.151L112.6 143.672Z" fill="white"/>
<mask id="mask5_0_893" style="mask-type:luminance" maskUnits="userSpaceOnUse" x="89" y="140" width="24" height="35">
<path d="M112.6 143.672L112.551 143.758L109.472 149.225C109.227 149.659 108.894 150.037 108.495 150.333C108.096 150.63 107.64 150.838 107.155 150.946L105.315 154.219C105.575 154.475 105.744 154.81 105.795 155.173C105.846 155.535 105.777 155.905 105.598 156.223L105.248 156.846C105.176 156.973 105.088 157.09 104.987 157.194C104.696 157.47 104.496 157.83 104.416 158.224C104.336 158.619 104.378 159.028 104.538 159.397C104.142 159.444 103.771 159.616 103.479 159.889C103.186 160.166 102.979 160.522 102.882 160.914C102.849 161.057 102.795 161.194 102.72 161.321L102.37 161.944C102.19 162.262 101.91 162.512 101.574 162.655C101.238 162.797 100.864 162.823 100.512 162.729L98.6713 165.998C98.8268 166.471 98.8823 166.972 98.8344 167.468C98.7865 167.964 98.6361 168.444 98.393 168.878L95.2508 174.432L89.0696 170.91L92.2118 165.357C92.4557 164.922 92.7881 164.544 93.1873 164.248C93.5864 163.952 94.0433 163.743 94.5281 163.637L96.3685 160.363C96.1412 160.141 95.9829 159.857 95.9128 159.546C95.8427 159.236 95.8638 158.911 95.9735 158.612C96.0005 158.523 96.0382 158.438 96.0857 158.359L96.4358 157.736C96.5061 157.608 96.5937 157.491 96.6962 157.388C96.9858 157.111 97.184 156.751 97.2643 156.357C97.3445 155.963 97.3029 155.554 97.1451 155.185C97.5418 155.133 97.9129 154.959 98.2084 154.688C98.5038 154.417 98.7093 154.061 98.797 153.668C98.8336 153.526 98.8879 153.39 98.9586 153.262L99.3132 152.639C99.4939 152.32 99.7739 152.071 100.11 151.929C100.446 151.787 100.819 151.76 101.172 151.853L103.012 148.584C102.854 148.111 102.798 147.611 102.846 147.114C102.894 146.618 103.045 146.137 103.29 145.704L105.207 142.304L106.419 140.151L112.6 143.672Z" fill="white"/>
</mask>
<g mask="url(#mask5_0_893)">
<path opacity="0.4" d="M105.207 142.304L112.551 143.758L109.472 149.225C109.227 149.659 108.894 150.037 108.495 150.333C108.096 150.63 107.64 150.838 107.155 150.945L105.315 154.219C105.575 154.475 105.744 154.81 105.795 155.173C105.846 155.535 105.777 155.905 105.598 156.223L105.248 156.846C105.176 156.973 105.088 157.09 104.987 157.194C104.696 157.47 104.497 157.83 104.416 158.224C104.336 158.619 104.379 159.028 104.538 159.397C104.142 159.444 103.771 159.616 103.479 159.889C103.186 160.166 102.979 160.522 102.882 160.914C102.849 161.057 102.795 161.194 102.72 161.321L102.37 161.944C102.257 162.144 102.105 162.32 101.921 162.458C99.9252 161.284 97.9442 160.002 95.978 158.612C96.0051 158.523 96.0428 158.438 96.0902 158.359L96.4404 157.736C96.5106 157.608 96.5982 157.491 96.7007 157.388C96.9903 157.111 97.1886 156.751 97.2688 156.357C97.3491 155.963 97.3075 155.554 97.1496 155.185C97.5463 155.133 97.9175 154.959 98.2129 154.688C98.5084 154.417 98.7139 154.061 98.8015 153.668C98.8382 153.526 98.8925 153.39 98.9631 153.262L99.3177 152.639C99.4984 152.32 99.7785 152.071 100.114 151.929C100.45 151.787 100.824 151.76 101.176 151.853L103.017 148.584C102.859 148.111 102.802 147.61 102.85 147.114C102.898 146.618 103.05 146.137 103.295 145.704L105.207 142.304Z" fill="#17AB49"/>
</g>
<path d="M112.6 143.672L112.551 143.758L109.472 149.225C109.227 149.659 108.894 150.037 108.495 150.333C108.096 150.63 107.64 150.838 107.155 150.946L105.315 154.219C105.575 154.475 105.744 154.81 105.795 155.173C105.846 155.535 105.777 155.905 105.598 156.223L105.248 156.846C105.176 156.973 105.088 157.09 104.987 157.194C104.696 157.47 104.496 157.83 104.416 158.224C104.336 158.619 104.378 159.028 104.538 159.397C104.142 159.444 103.771 159.616 103.479 159.889C103.186 160.166 102.979 160.522 102.882 160.914C102.849 161.057 102.795 161.194 102.72 161.321L102.37 161.944C102.19 162.262 101.91 162.512 101.574 162.655C101.238 162.797 100.864 162.823 100.512 162.729L98.6713 165.998C98.8268 166.471 98.8823 166.972 98.8344 167.468C98.7865 167.964 98.6361 168.444 98.393 168.878L95.2508 174.432L89.0696 170.91L92.2118 165.357C92.4557 164.922 92.7881 164.544 93.1873 164.248C93.5864 163.952 94.0433 163.743 94.5281 163.637L96.3685 160.363C96.1412 160.141 95.9829 159.857 95.9128 159.546C95.8427 159.236 95.8638 158.911 95.9735 158.612C96.0005 158.523 96.0382 158.438 96.0857 158.359L96.4358 157.736C96.5061 157.608 96.5937 157.491 96.6962 157.388C96.9858 157.111 97.184 156.751 97.2643 156.357C97.3445 155.963 97.3029 155.554 97.1451 155.185C97.5418 155.133 97.9129 154.959 98.2084 154.688C98.5038 154.417 98.7093 154.061 98.797 153.668C98.8336 153.526 98.8879 153.39 98.9586 153.262L99.3132 152.639C99.4939 152.32 99.7739 152.071 100.11 151.929C100.446 151.787 100.819 151.76 101.172 151.853L103.012 148.584C102.854 148.111 102.798 147.611 102.846 147.114C102.894 146.618 103.045 146.137 103.29 145.704L105.207 142.304L106.419 140.151L112.6 143.672Z" stroke="#1F2723" stroke-width="0.8" stroke-linecap="round" stroke-linejoin="round"/>
<path d="M106.082 150.291L103.03 148.548" stroke="#1F2723" stroke-width="0.8" stroke-linecap="round" stroke-linejoin="round"/>
<path d="M102.002 152.341L105.306 154.228" stroke="#1F2723" stroke-width="0.8" stroke-linecap="round" stroke-linejoin="round"/>
<path d="M104.543 159.397L102.393 158.174" stroke="#1F2723" stroke-width="0.8" stroke-linecap="round" stroke-linejoin="round"/>
<path d="M100.844 157.289L97.145 155.185" stroke="#1F2723" stroke-width="0.8" stroke-linecap="round" stroke-linejoin="round"/>
<path d="M96.3729 160.363L99.4254 162.106" stroke="#1F2723" stroke-width="0.8" stroke-linecap="round" stroke-linejoin="round"/>
<path d="M98.6758 165.998L95.7311 164.318" stroke="#1F2723" stroke-width="0.8" stroke-linecap="round" stroke-linejoin="round"/>
<path d="M155.523 183.285L148.498 184.346L147.555 178.025C147.481 177.534 147.509 177.033 147.639 176.554C147.769 176.075 147.997 175.629 148.309 175.244L147.762 171.51C147.4 171.471 147.061 171.312 146.798 171.059C146.535 170.806 146.363 170.473 146.307 170.111L146.204 169.402C146.183 169.252 146.183 169.1 146.204 168.951C146.209 168.865 146.209 168.779 146.204 168.693C146.213 168.335 146.122 167.981 145.942 167.672C145.762 167.362 145.5 167.109 145.185 166.941C145.466 166.654 145.653 166.287 145.719 165.89C145.786 165.493 145.73 165.084 145.558 164.72C145.498 164.588 145.457 164.448 145.436 164.305L145.333 163.596C145.278 163.234 145.344 162.863 145.521 162.543C145.699 162.222 145.977 161.97 146.312 161.826L145.755 158.106C145.342 157.831 144.99 157.472 144.724 157.052C144.457 156.632 144.281 156.161 144.206 155.668L143.336 149.799L143.268 149.347L150.293 148.286L150.742 151.28L151.236 154.598C151.311 155.091 151.281 155.595 151.148 156.075C151.016 156.556 150.784 157.004 150.468 157.388L151.025 161.104C151.387 161.143 151.726 161.301 151.99 161.554C152.253 161.807 152.425 162.141 152.479 162.503L152.587 163.212C152.606 163.362 152.606 163.514 152.587 163.664C152.53 164.061 152.595 164.467 152.774 164.826C152.953 165.186 153.237 165.481 153.588 165.673C153.308 165.961 153.123 166.328 153.057 166.725C152.991 167.122 153.048 167.53 153.22 167.894C153.276 168.027 153.315 168.167 153.337 168.309L153.445 169.018C153.497 169.38 153.43 169.75 153.253 170.07C153.076 170.39 152.8 170.642 152.466 170.788L153.018 174.508C153.327 174.714 153.603 174.967 153.835 175.258C154.224 175.745 154.477 176.328 154.567 176.946L155.523 183.285Z" fill="white"/>
<mask id="mask6_0_893" style="mask-type:luminance" maskUnits="userSpaceOnUse" x="143" y="148" width="13" height="37">
<path d="M155.523 183.285L148.498 184.346L147.555 178.025C147.481 177.534 147.509 177.033 147.639 176.554C147.769 176.075 147.997 175.629 148.309 175.244L147.762 171.51C147.4 171.471 147.061 171.312 146.798 171.059C146.535 170.806 146.363 170.473 146.307 170.111L146.204 169.402C146.183 169.252 146.183 169.1 146.204 168.951C146.209 168.865 146.209 168.779 146.204 168.693C146.213 168.335 146.122 167.981 145.942 167.672C145.762 167.362 145.5 167.109 145.185 166.941C145.466 166.654 145.653 166.287 145.719 165.89C145.786 165.493 145.73 165.084 145.558 164.72C145.498 164.588 145.457 164.448 145.436 164.305L145.333 163.596C145.278 163.234 145.344 162.863 145.521 162.543C145.699 162.222 145.977 161.97 146.312 161.826L145.755 158.106C145.342 157.831 144.99 157.472 144.724 157.052C144.457 156.632 144.281 156.161 144.206 155.668L143.336 149.799L143.268 149.347L150.293 148.286L150.742 151.28L151.236 154.598C151.311 155.091 151.281 155.595 151.148 156.075C151.016 156.556 150.784 157.004 150.468 157.388L151.025 161.104C151.387 161.143 151.726 161.301 151.99 161.554C152.253 161.807 152.425 162.141 152.479 162.503L152.587 163.212C152.606 163.362 152.606 163.514 152.587 163.664C152.53 164.061 152.595 164.467 152.774 164.826C152.953 165.186 153.237 165.481 153.588 165.673C153.308 165.961 153.123 166.328 153.057 166.725C152.991 167.122 153.048 167.53 153.22 167.894C153.276 168.027 153.315 168.167 153.337 168.309L153.445 169.018C153.497 169.38 153.43 169.75 153.253 170.07C153.076 170.39 152.8 170.642 152.466 170.788L153.018 174.508C153.327 174.714 153.603 174.967 153.835 175.258C154.224 175.745 154.477 176.328 154.567 176.946L155.523 183.285Z" fill="white"/>
</mask>
<g mask="url(#mask6_0_893)">
<path opacity="0.4" d="M153.844 175.285C152.206 175.317 150.347 175.321 148.309 175.258L147.762 171.511C147.4 171.471 147.061 171.312 146.798 171.059C146.535 170.806 146.363 170.473 146.307 170.111L146.204 169.402C146.183 169.252 146.183 169.1 146.204 168.951C146.209 168.865 146.209 168.779 146.204 168.693C146.213 168.335 146.122 167.981 145.942 167.672C145.762 167.362 145.5 167.109 145.185 166.942C145.466 166.654 145.653 166.287 145.72 165.89C145.786 165.493 145.73 165.084 145.558 164.72C145.498 164.588 145.457 164.448 145.436 164.305L145.333 163.596C145.278 163.234 145.344 162.863 145.521 162.543C145.699 162.222 145.977 161.97 146.312 161.826L145.755 158.106C145.342 157.831 144.99 157.472 144.724 157.052C144.457 156.632 144.281 156.161 144.207 155.668L143.336 149.799L150.738 151.266L151.232 154.585C151.306 155.078 151.276 155.581 151.144 156.062C151.012 156.543 150.78 156.99 150.464 157.375L151.021 161.09C151.383 161.129 151.722 161.288 151.985 161.541C152.248 161.794 152.421 162.128 152.475 162.49L152.583 163.199C152.602 163.349 152.602 163.5 152.583 163.65C152.525 164.048 152.59 164.454 152.769 164.813C152.948 165.172 153.233 165.468 153.584 165.659C153.304 165.947 153.119 166.315 153.053 166.712C152.987 167.109 153.044 167.517 153.216 167.881C153.271 168.014 153.311 168.153 153.332 168.296L153.44 169.005C153.493 169.367 153.426 169.737 153.249 170.056C153.072 170.376 152.795 170.629 152.462 170.775L153.014 174.495C153.331 174.712 153.611 174.979 153.844 175.285Z" fill="#17AB49"/>
</g>
<path d="M155.523 183.285L148.498 184.346L147.555 178.025C147.481 177.534 147.509 177.033 147.639 176.554C147.769 176.075 147.997 175.629 148.309 175.244L147.762 171.51C147.4 171.471 147.061 171.312 146.798 171.059C146.535 170.806 146.363 170.473 146.307 170.111L146.204 169.402C146.183 169.252 146.183 169.1 146.204 168.951C146.209 168.865 146.209 168.779 146.204 168.693C146.213 168.335 146.122 167.981 145.942 167.672C145.762 167.362 145.5 167.109 145.185 166.941C145.466 166.654 145.653 166.287 145.719 165.89C145.786 165.493 145.73 165.084 145.558 164.72C145.498 164.588 145.457 164.448 145.436 164.305L145.333 163.596C145.278 163.234 145.344 162.863 145.521 162.543C145.699 162.222 145.977 161.97 146.312 161.826L145.755 158.106C145.342 157.831 144.99 157.472 144.724 157.052C144.457 156.632 144.281 156.161 144.206 155.668L143.336 149.799L143.268 149.347L150.293 148.286L150.742 151.28L151.236 154.598C151.311 155.091 151.281 155.595 151.148 156.075C151.016 156.556 150.784 157.004 150.468 157.388L151.025 161.104C151.387 161.143 151.726 161.301 151.99 161.554C152.253 161.807 152.425 162.141 152.479 162.503L152.587 163.212C152.606 163.362 152.606 163.514 152.587 163.664C152.53 164.061 152.595 164.467 152.774 164.826C152.953 165.186 153.237 165.481 153.588 165.673C153.308 165.961 153.123 166.328 153.057 166.725C152.991 167.122 153.048 167.53 153.22 167.894C153.276 168.027 153.315 168.167 153.337 168.309L153.445 169.018C153.497 169.38 153.43 169.75 153.253 170.07C153.076 170.39 152.8 170.642 152.466 170.788L153.018 174.508C153.327 174.714 153.603 174.967 153.835 175.258C154.224 175.745 154.477 176.328 154.567 176.946L155.523 183.285Z" stroke="#1F2723" stroke-width="0.8" stroke-linecap="round" stroke-linejoin="round"/>
<path d="M146.994 157.912L150.464 157.388" stroke="#1F2723" stroke-width="0.8" stroke-linecap="round" stroke-linejoin="round"/>
<path d="M150.073 161.298L146.316 161.867" stroke="#1F2723" stroke-width="0.8" stroke-linecap="round" stroke-linejoin="round"/>
<path d="M145.19 166.973L147.636 166.603" stroke="#1F2723" stroke-width="0.8" stroke-linecap="round" stroke-linejoin="round"/>
<path d="M149.396 166.336L153.597 165.7" stroke="#1F2723" stroke-width="0.8" stroke-linecap="round" stroke-linejoin="round"/>
<path d="M152.475 170.815L149.005 171.343" stroke="#1F2723" stroke-width="0.8" stroke-linecap="round" stroke-linejoin="round"/>
<path d="M148.318 175.244L151.667 174.739" stroke="#1F2723" stroke-width="0.8" stroke-linecap="round" stroke-linejoin="round"/>
<path d="M170.642 180.657C155.308 189.376 137.412 192.386 120.093 189.159C102.773 185.932 87.1366 176.674 75.9262 163.009C75.7712 162.821 75.6553 162.603 75.5853 162.369C75.5152 162.134 75.4925 161.888 75.5185 161.645C75.5444 161.402 75.6184 161.167 75.7363 160.953C75.8541 160.739 76.0133 160.551 76.2045 160.399C76.8285 159.907 77.4524 159.42 78.0764 158.923L79.1537 158.074C79.5241 157.778 79.9961 157.64 80.467 157.692C80.9378 157.743 81.3693 157.98 81.6675 158.35C91.7759 170.635 105.855 178.957 121.445 181.861C137.035 184.765 153.144 182.067 166.956 174.237C167.29 174.047 167.675 173.97 168.056 174.016C168.332 174.047 168.598 174.141 168.831 174.292C169.065 174.444 169.26 174.647 169.403 174.888L171.328 178.125C171.452 178.335 171.532 178.569 171.564 178.812C171.596 179.054 171.58 179.301 171.516 179.537C171.452 179.773 171.342 179.994 171.191 180.186C171.041 180.378 170.854 180.539 170.642 180.657Z" fill="white"/>
<mask id="mask7_0_893" style="mask-type:luminance" maskUnits="userSpaceOnUse" x="75" y="157" width="97" height="34">
<path d="M170.642 180.657C155.308 189.376 137.412 192.386 120.093 189.159C102.773 185.932 87.1366 176.674 75.9262 163.009C75.7712 162.821 75.6553 162.603 75.5853 162.369C75.5152 162.134 75.4925 161.888 75.5185 161.645C75.5444 161.402 75.6184 161.167 75.7363 160.953C75.8541 160.739 76.0133 160.551 76.2045 160.399C76.8285 159.907 77.4524 159.42 78.0764 158.923L79.1537 158.074C79.5241 157.778 79.9961 157.64 80.467 157.692C80.9378 157.743 81.3693 157.98 81.6675 158.35C91.7759 170.635 105.855 178.957 121.445 181.861C137.035 184.765 153.144 182.067 166.956 174.237C167.29 174.047 167.675 173.97 168.056 174.016C168.332 174.047 168.598 174.141 168.831 174.292C169.065 174.444 169.26 174.647 169.403 174.888L171.328 178.125C171.452 178.335 171.532 178.569 171.564 178.812C171.596 179.054 171.58 179.301 171.516 179.537C171.452 179.773 171.342 179.994 171.191 180.186C171.041 180.378 170.854 180.539 170.642 180.657Z" fill="white"/>
</mask>
<g mask="url(#mask7_0_893)">
<path opacity="0.4" d="M170.642 180.657C155.308 189.376 137.412 192.386 120.093 189.159C102.773 185.932 87.1366 176.674 75.9262 163.009C75.7712 162.821 75.6553 162.603 75.5853 162.369C75.5152 162.134 75.4925 161.888 75.5185 161.645C75.5444 161.402 75.6184 161.167 75.7363 160.953C75.8541 160.739 76.0133 160.551 76.2045 160.399C76.8285 159.907 77.4524 159.42 78.0764 158.923C88.6683 172.722 103.878 182.186 120.882 185.56C150.657 191.43 167.665 181.777 168.056 174.034C168.332 174.065 168.598 174.159 168.831 174.31C169.065 174.462 169.26 174.665 169.403 174.906L171.328 178.143C171.449 178.353 171.527 178.585 171.557 178.825C171.588 179.066 171.571 179.31 171.507 179.544C171.443 179.778 171.334 179.997 171.185 180.188C171.037 180.379 170.852 180.539 170.642 180.657Z" fill="#17AB49"/>
</g>
<path d="M170.642 180.657C155.308 189.376 137.412 192.386 120.093 189.159C102.773 185.932 87.1366 176.674 75.9262 163.009C75.7712 162.821 75.6553 162.603 75.5853 162.369C75.5152 162.134 75.4925 161.888 75.5185 161.645C75.5444 161.402 75.6184 161.167 75.7363 160.953C75.8541 160.739 76.0133 160.551 76.2045 160.399C76.8285 159.907 77.4524 159.42 78.0764 158.923L79.1537 158.074C79.5241 157.778 79.9961 157.64 80.467 157.692C80.9378 157.743 81.3693 157.98 81.6675 158.35C91.7759 170.635 105.855 178.957 121.445 181.861C137.035 184.765 153.144 182.067 166.956 174.237C167.29 174.047 167.675 173.97 168.056 174.016C168.332 174.047 168.598 174.141 168.831 174.292C169.065 174.444 169.26 174.647 169.403 174.888L171.328 178.125C171.452 178.335 171.532 178.569 171.564 178.812C171.596 179.054 171.58 179.301 171.516 179.537C171.452 179.773 171.342 179.994 171.191 180.186C171.041 180.378 170.854 180.539 170.642 180.657Z" stroke="#1F2723" stroke-width="0.8" stroke-linecap="round" stroke-linejoin="round"/>
<path d="M144.453 115.396C144.412 115.614 144.297 115.812 144.128 115.955C143.959 116.098 143.745 116.178 143.524 116.181L143.075 118.647C142.239 119.429 141.676 120.461 141.468 121.59C141.26 122.72 141.419 123.886 141.922 124.918L141.509 127.139C141.716 127.221 141.888 127.373 141.996 127.569C142.104 127.765 142.141 127.992 142.1 128.212C142.06 128.432 141.945 128.632 141.775 128.776C141.605 128.92 141.39 129.001 141.168 129.004L140.88 130.566L140.853 130.71C140.018 131.492 139.454 132.523 139.246 133.652C139.039 134.78 139.198 135.946 139.7 136.977L139.049 140.498C139.228 140.57 139.382 140.695 139.49 140.856C139.599 141.017 139.656 141.207 139.655 141.401C139.659 141.46 139.659 141.519 139.655 141.577C139.614 141.797 139.5 141.995 139.33 142.139C139.161 142.283 138.947 142.364 138.726 142.367L137.909 146.796L131.97 145.69L132.787 141.261C132.607 141.189 132.453 141.065 132.345 140.904C132.237 140.743 132.18 140.553 132.181 140.358C132.176 140.3 132.176 140.241 132.181 140.182C132.221 139.963 132.335 139.764 132.505 139.621C132.674 139.478 132.888 139.398 133.11 139.397L133.756 135.843C134.587 135.063 135.147 134.034 135.354 132.91C135.561 131.785 135.404 130.623 134.906 129.595L135.224 127.879C135.045 127.807 134.891 127.682 134.783 127.521C134.675 127.36 134.618 127.171 134.618 126.976C134.618 126.927 134.618 126.877 134.618 126.827C134.659 126.608 134.773 126.41 134.943 126.266C135.112 126.122 135.326 126.041 135.547 126.037L135.96 123.807C136.792 123.025 137.352 121.996 137.559 120.871C137.766 119.745 137.608 118.583 137.11 117.554L137.558 115.08C137.354 114.996 137.185 114.844 137.079 114.649C136.973 114.454 136.938 114.229 136.978 114.01C137.018 113.792 137.131 113.594 137.299 113.45C137.467 113.306 137.679 113.225 137.9 113.22L138.38 110.606L138.622 109.301L144.575 110.403L144.359 111.572L143.852 114.321C144.061 114.402 144.235 114.553 144.345 114.75C144.455 114.946 144.493 115.174 144.453 115.396Z" fill="white"/>
<mask id="mask8_0_893" style="mask-type:luminance" maskUnits="userSpaceOnUse" x="131" y="109" width="14" height="38">
<path d="M144.453 115.396C144.412 115.614 144.297 115.812 144.128 115.955C143.959 116.098 143.745 116.178 143.524 116.181L143.075 118.647C142.239 119.429 141.676 120.461 141.468 121.59C141.26 122.72 141.419 123.886 141.922 124.918L141.509 127.139C141.716 127.221 141.888 127.373 141.996 127.569C142.104 127.765 142.141 127.992 142.1 128.212C142.06 128.432 141.945 128.632 141.775 128.776C141.605 128.92 141.39 129.001 141.168 129.004L140.88 130.566L140.853 130.71C140.018 131.492 139.454 132.523 139.246 133.652C139.039 134.78 139.198 135.946 139.7 136.977L139.049 140.498C139.228 140.57 139.382 140.695 139.49 140.856C139.599 141.017 139.656 141.207 139.655 141.401C139.659 141.46 139.659 141.519 139.655 141.577C139.614 141.797 139.5 141.995 139.33 142.139C139.161 142.283 138.947 142.364 138.726 142.367L137.909 146.796L131.97 145.69L132.787 141.261C132.607 141.189 132.453 141.065 132.345 140.904C132.237 140.743 132.18 140.553 132.181 140.358C132.176 140.3 132.176 140.241 132.181 140.182C132.221 139.963 132.335 139.764 132.505 139.621C132.674 139.478 132.888 139.398 133.11 139.397L133.756 135.843C134.587 135.063 135.147 134.034 135.354 132.91C135.561 131.785 135.404 130.623 134.906 129.595L135.224 127.879C135.045 127.807 134.891 127.682 134.783 127.521C134.675 127.36 134.618 127.171 134.618 126.976C134.618 126.927 134.618 126.877 134.618 126.827C134.659 126.608 134.773 126.41 134.943 126.266C135.112 126.122 135.326 126.041 135.547 126.037L135.96 123.807C136.792 123.025 137.352 121.996 137.559 120.871C137.766 119.745 137.608 118.583 137.11 117.554L137.558 115.08C137.354 114.996 137.185 114.844 137.079 114.649C136.973 114.454 136.938 114.229 136.978 114.01C137.018 113.792 137.131 113.594 137.299 113.45C137.467 113.306 137.679 113.225 137.9 113.22L138.38 110.606L138.622 109.301L144.575 110.403L144.359 111.572L143.852 114.321C144.061 114.402 144.235 114.553 144.345 114.75C144.455 114.946 144.493 115.174 144.453 115.396Z" fill="white"/>
</mask>
<g mask="url(#mask8_0_893)">
<path opacity="0.4" d="M144.453 115.396C144.412 115.615 144.297 115.812 144.128 115.955C143.958 116.098 143.745 116.178 143.524 116.182L143.075 118.647C142.239 119.429 141.676 120.461 141.468 121.59C141.26 122.72 141.419 123.886 141.922 124.918L141.509 127.139C141.716 127.221 141.888 127.373 141.996 127.569C142.104 127.765 142.141 127.992 142.1 128.212C142.06 128.433 141.945 128.632 141.775 128.776C141.605 128.92 141.39 129.001 141.168 129.004L140.88 130.566L136.495 128.056L134.609 126.977C134.609 126.927 134.609 126.877 134.609 126.828C134.65 126.608 134.764 126.41 134.934 126.266C135.103 126.122 135.317 126.041 135.538 126.037L135.951 123.807C136.783 123.026 137.343 121.996 137.55 120.871C137.757 119.745 137.599 118.583 137.101 117.554L137.549 115.08C137.345 114.996 137.176 114.844 137.07 114.649C136.964 114.454 136.929 114.229 136.969 114.011C137.009 113.792 137.122 113.595 137.29 113.451C137.458 113.307 137.67 113.225 137.891 113.22L138.371 110.606L144.337 111.577L143.829 114.326C144.042 114.402 144.221 114.551 144.335 114.747C144.449 114.943 144.491 115.172 144.453 115.396Z" fill="#17AB49"/>
</g>
<path d="M144.453 115.396C144.412 115.614 144.297 115.812 144.128 115.955C143.959 116.098 143.745 116.178 143.524 116.181L143.075 118.647C142.239 119.429 141.676 120.461 141.468 121.59C141.26 122.72 141.419 123.886 141.922 124.918L141.509 127.139C141.716 127.221 141.888 127.373 141.996 127.569C142.104 127.765 142.141 127.992 142.1 128.212C142.06 128.432 141.945 128.632 141.775 128.776C141.605 128.92 141.39 129.001 141.168 129.004L140.88 130.566L140.853 130.71C140.018 131.492 139.454 132.523 139.246 133.652C139.039 134.78 139.198 135.946 139.7 136.977L139.049 140.498C139.228 140.57 139.382 140.695 139.49 140.856C139.599 141.017 139.656 141.207 139.655 141.401C139.659 141.46 139.659 141.519 139.655 141.577C139.614 141.797 139.5 141.995 139.33 142.139C139.161 142.283 138.947 142.364 138.726 142.367L137.909 146.796L131.97 145.69L132.787 141.261C132.607 141.189 132.453 141.065 132.345 140.904C132.237 140.743 132.18 140.553 132.181 140.358C132.176 140.3 132.176 140.241 132.181 140.182C132.221 139.963 132.335 139.764 132.505 139.621C132.674 139.478 132.888 139.398 133.11 139.397L133.756 135.843C134.587 135.063 135.147 134.034 135.354 132.91C135.561 131.785 135.404 130.623 134.906 129.595L135.224 127.879C135.045 127.807 134.891 127.682 134.783 127.521C134.675 127.36 134.618 127.171 134.618 126.976C134.618 126.927 134.618 126.877 134.618 126.827C134.659 126.608 134.773 126.41 134.943 126.266C135.112 126.122 135.326 126.041 135.547 126.037L135.96 123.807C136.792 123.025 137.352 121.996 137.559 120.871C137.766 119.745 137.608 118.583 137.11 117.554L137.558 115.08C137.354 114.996 137.185 114.844 137.079 114.649C136.973 114.454 136.938 114.229 136.978 114.01C137.018 113.792 137.131 113.594 137.299 113.45C137.467 113.306 137.679 113.225 137.9 113.22L138.38 110.606L138.622 109.301L144.575 110.403L144.359 111.572L143.852 114.321C144.061 114.402 144.235 114.553 144.345 114.75C144.455 114.946 144.493 115.174 144.453 115.396Z" stroke="#1F2723" stroke-width="0.8" stroke-linecap="round" stroke-linejoin="round"/>
<path d="M137.585 115.075L141.455 115.798" stroke="#1F2723" stroke-width="0.8" stroke-linecap="round" stroke-linejoin="round"/>
<path d="M142.851 116.06L142.353 115.965" stroke="#1F2723" stroke-width="0.8" stroke-linecap="round" stroke-linejoin="round"/>
<path d="M141.504 127.139L136.818 126.268" stroke="#1F2723" stroke-width="0.8" stroke-linecap="round" stroke-linejoin="round"/>
<path d="M136.49 128.051L139.399 128.593" stroke="#1F2723" stroke-width="0.8" stroke-linecap="round" stroke-linejoin="round"/>
<path d="M139.044 140.498L135.812 139.893" stroke="#1F2723" stroke-width="0.8" stroke-linecap="round" stroke-linejoin="round"/>
<path d="M133.105 139.392L134.358 139.622" stroke="#1F2723" stroke-width="0.8" stroke-linecap="round" stroke-linejoin="round"/>
<path d="M125.914 111.942C125.873 112.161 125.758 112.358 125.589 112.501C125.419 112.644 125.206 112.724 124.985 112.728L124.536 115.193C123.687 115.965 123.121 117.002 122.929 118.136C122.796 118.841 122.805 119.566 122.956 120.267C123.04 120.685 123.184 121.088 123.383 121.464L122.974 123.685C123.181 123.768 123.354 123.92 123.462 124.116C123.569 124.312 123.606 124.54 123.565 124.761C123.524 124.981 123.409 125.18 123.238 125.324C123.067 125.468 122.851 125.548 122.628 125.55L122.314 127.256C121.481 128.039 120.919 129.071 120.712 130.199C120.504 131.326 120.661 132.492 121.161 133.523L120.514 137.044C120.693 137.117 120.846 137.242 120.953 137.403C121.06 137.564 121.117 137.754 121.116 137.947C121.12 138.006 121.12 138.065 121.116 138.123C121.075 138.343 120.961 138.541 120.791 138.685C120.622 138.829 120.408 138.91 120.187 138.914L119.374 143.343L113.431 142.236L114.248 137.807C114.068 137.736 113.914 137.611 113.806 137.45C113.698 137.289 113.641 137.099 113.642 136.904C113.637 136.846 113.637 136.787 113.642 136.728C113.682 136.509 113.797 136.311 113.967 136.168C114.136 136.025 114.35 135.945 114.571 135.943L115.222 132.412C116.053 131.631 116.613 130.603 116.82 129.478C117.027 128.354 116.869 127.192 116.371 126.164L116.69 124.448C116.483 124.366 116.311 124.214 116.203 124.018C116.095 123.822 116.058 123.595 116.098 123.375C116.138 123.155 116.253 122.955 116.424 122.811C116.594 122.667 116.808 122.586 117.031 122.583L117.444 120.353C118.156 119.714 118.667 118.879 118.912 117.951C118.967 117.777 119.01 117.599 119.042 117.419C119.266 116.293 119.108 115.124 118.593 114.1L119.042 111.626C118.838 111.542 118.668 111.39 118.563 111.195C118.457 111 118.421 110.775 118.461 110.557C118.501 110.338 118.615 110.141 118.782 109.997C118.95 109.853 119.162 109.771 119.383 109.766L119.787 107.581L120.106 105.847L126.049 106.949L125.757 108.542L125.331 110.868C125.536 110.952 125.706 111.105 125.812 111.301C125.919 111.496 125.955 111.723 125.914 111.942Z" fill="white"/>
<mask id="mask9_0_893" style="mask-type:luminance" maskUnits="userSpaceOnUse" x="113" y="105" width="14" height="39">
<path d="M125.914 111.942C125.873 112.161 125.758 112.358 125.589 112.501C125.419 112.644 125.206 112.724 124.985 112.728L124.536 115.193C123.687 115.965 123.121 117.002 122.929 118.136C122.796 118.841 122.805 119.566 122.956 120.267C123.04 120.685 123.184 121.088 123.383 121.464L122.974 123.685C123.181 123.768 123.354 123.92 123.462 124.116C123.569 124.312 123.606 124.54 123.565 124.761C123.524 124.981 123.409 125.18 123.238 125.324C123.067 125.468 122.851 125.548 122.628 125.55L122.314 127.256C121.481 128.039 120.919 129.071 120.712 130.199C120.504 131.326 120.661 132.492 121.161 133.523L120.514 137.044C120.693 137.117 120.846 137.242 120.953 137.403C121.06 137.564 121.117 137.754 121.116 137.947C121.12 138.006 121.12 138.065 121.116 138.123C121.075 138.343 120.961 138.541 120.791 138.685C120.622 138.829 120.408 138.91 120.187 138.914L119.374 143.343L113.431 142.236L114.248 137.807C114.068 137.736 113.914 137.611 113.806 137.45C113.698 137.289 113.641 137.099 113.642 136.904C113.637 136.846 113.637 136.787 113.642 136.728C113.682 136.509 113.797 136.311 113.967 136.168C114.136 136.025 114.35 135.945 114.571 135.943L115.222 132.412C116.053 131.631 116.613 130.603 116.82 129.478C117.027 128.354 116.869 127.192 116.371 126.164L116.69 124.448C116.483 124.366 116.311 124.214 116.203 124.018C116.095 123.822 116.058 123.595 116.098 123.375C116.138 123.155 116.253 122.955 116.424 122.811C116.594 122.667 116.808 122.586 117.031 122.583L117.444 120.353C118.156 119.714 118.667 118.879 118.912 117.951C118.967 117.777 119.01 117.599 119.042 117.419C119.266 116.293 119.108 115.124 118.593 114.1L119.042 111.626C118.838 111.542 118.668 111.39 118.563 111.195C118.457 111 118.421 110.775 118.461 110.557C118.501 110.338 118.615 110.141 118.782 109.997C118.95 109.853 119.162 109.771 119.383 109.766L119.787 107.581L120.106 105.847L126.049 106.949L125.757 108.542L125.331 110.868C125.536 110.952 125.706 111.105 125.812 111.301C125.919 111.496 125.955 111.723 125.914 111.942Z" fill="white"/>
</mask>
<g mask="url(#mask9_0_893)">
<path opacity="0.4" d="M125.914 111.942C125.873 112.161 125.758 112.358 125.589 112.501C125.42 112.644 125.206 112.724 124.985 112.728L124.536 115.193C123.687 115.965 123.121 117.002 122.929 118.137C122.796 118.842 122.805 119.566 122.956 120.268L118.916 117.947C118.971 117.772 119.015 117.594 119.046 117.414C119.271 116.289 119.113 115.12 118.598 114.096L119.046 111.622C118.842 111.538 118.673 111.385 118.567 111.191C118.461 110.996 118.425 110.77 118.466 110.552C118.506 110.334 118.619 110.136 118.787 109.992C118.955 109.848 119.167 109.767 119.388 109.762L119.792 107.576L125.757 108.543L125.331 110.868C125.536 110.952 125.706 111.105 125.812 111.301C125.919 111.496 125.955 111.723 125.914 111.942Z" fill="#17AB49"/>
</g>
<path d="M125.914 111.942C125.873 112.161 125.758 112.358 125.589 112.501C125.419 112.644 125.206 112.724 124.985 112.728L124.536 115.193C123.687 115.965 123.121 117.002 122.929 118.136C122.796 118.841 122.805 119.566 122.956 120.267C123.04 120.685 123.184 121.088 123.383 121.464L122.974 123.685C123.181 123.768 123.354 123.92 123.462 124.116C123.569 124.312 123.606 124.54 123.565 124.761C123.524 124.981 123.409 125.18 123.238 125.324C123.067 125.468 122.851 125.548 122.628 125.55L122.314 127.256C121.481 128.039 120.919 129.071 120.712 130.199C120.504 131.326 120.661 132.492 121.161 133.523L120.514 137.044C120.693 137.117 120.846 137.242 120.953 137.403C121.06 137.564 121.117 137.754 121.116 137.947C121.12 138.006 121.12 138.065 121.116 138.123C121.075 138.343 120.961 138.541 120.791 138.685C120.622 138.829 120.408 138.91 120.187 138.914L119.374 143.343L113.431 142.236L114.248 137.807C114.068 137.736 113.914 137.611 113.806 137.45C113.698 137.289 113.641 137.099 113.642 136.904C113.637 136.846 113.637 136.787 113.642 136.728C113.682 136.509 113.797 136.311 113.967 136.168C114.136 136.025 114.35 135.945 114.571 135.943L115.222 132.412C116.053 131.631 116.613 130.603 116.82 129.478C117.027 128.354 116.869 127.192 116.371 126.164L116.69 124.448C116.483 124.366 116.311 124.214 116.203 124.018C116.095 123.822 116.058 123.595 116.098 123.375C116.138 123.155 116.253 122.955 116.424 122.811C116.594 122.667 116.808 122.586 117.031 122.583L117.444 120.353C118.156 119.714 118.667 118.879 118.912 117.951C118.967 117.777 119.01 117.599 119.042 117.419C119.266 116.293 119.108 115.124 118.593 114.1L119.042 111.626C118.838 111.542 118.668 111.39 118.563 111.195C118.457 111 118.421 110.775 118.461 110.557C118.501 110.338 118.615 110.141 118.782 109.997C118.95 109.853 119.162 109.771 119.383 109.766L119.787 107.581L120.106 105.847L126.049 106.949L125.757 108.542L125.331 110.868C125.536 110.952 125.706 111.105 125.812 111.301C125.919 111.496 125.955 111.723 125.914 111.942Z" stroke="#1F2723" stroke-width="0.8" stroke-linecap="round" stroke-linejoin="round"/>
<path d="M119.046 111.621L122.916 112.344" stroke="#1F2723" stroke-width="0.8" stroke-linecap="round" stroke-linejoin="round"/>
<path d="M124.316 112.606L123.818 112.511" stroke="#1F2723" stroke-width="0.8" stroke-linecap="round" stroke-linejoin="round"/>
<path d="M122.97 123.69L118.279 122.814" stroke="#1F2723" stroke-width="0.8" stroke-linecap="round" stroke-linejoin="round"/>
<path d="M117.951 124.597L120.864 125.139" stroke="#1F2723" stroke-width="0.8" stroke-linecap="round" stroke-linejoin="round"/>
<path d="M120.51 137.044L117.278 136.439" stroke="#1F2723" stroke-width="0.8" stroke-linecap="round" stroke-linejoin="round"/>
<path d="M114.566 135.938L115.819 136.169" stroke="#1F2723" stroke-width="0.8" stroke-linecap="round" stroke-linejoin="round"/>
<path d="M165.084 110.195L163.648 117.987L159.702 117.251L115.208 108.962C114.003 108.738 112.904 108.123 112.08 107.21C111.256 106.298 110.753 105.138 110.648 103.91C110.603 103.405 110.627 102.896 110.72 102.398C110.818 101.871 111.096 101.395 111.505 101.052C111.915 100.709 112.431 100.521 112.964 100.52C113.104 100.52 113.244 100.533 113.381 100.56L165.084 110.195Z" fill="white"/>
<mask id="mask10_0_893" style="mask-type:luminance" maskUnits="userSpaceOnUse" x="110" y="100" width="56" height="18">
<path d="M165.084 110.195L163.648 117.987L159.702 117.251L115.208 108.962C114.003 108.738 112.904 108.123 112.08 107.21C111.256 106.298 110.753 105.138 110.648 103.91C110.603 103.405 110.627 102.896 110.72 102.398C110.818 101.871 111.096 101.395 111.505 101.052C111.915 100.709 112.431 100.521 112.964 100.52C113.104 100.52 113.244 100.533 113.381 100.56L165.084 110.195Z" fill="white"/>
</mask>
<g mask="url(#mask10_0_893)">
<path opacity="0.4" d="M161.655 110.109L159.702 117.26L115.208 108.971C114.003 108.747 112.904 108.132 112.08 107.219C111.256 106.307 110.753 105.147 110.648 103.919L156.353 112.366L161.655 110.109Z" fill="#17AB49"/>
</g>
<path d="M165.084 110.195L163.648 117.987L159.702 117.251L115.208 108.962C114.003 108.738 112.904 108.123 112.08 107.21C111.256 106.298 110.753 105.138 110.648 103.91C110.603 103.405 110.627 102.896 110.72 102.398C110.818 101.871 111.096 101.395 111.505 101.052C111.915 100.709 112.431 100.521 112.964 100.52C113.104 100.52 113.244 100.533 113.381 100.56L165.084 110.195Z" stroke="#1F2723" stroke-width="0.8" stroke-linecap="round" stroke-linejoin="round"/>
<path d="M187.38 45.1319L187.152 45.8363L187.668 45.9988C187.951 46.0922 188.186 46.295 188.321 46.5625C188.455 46.8301 188.479 47.1405 188.386 47.4255C188.293 47.7104 188.092 47.9467 187.825 48.0821C187.559 48.2176 187.251 48.2412 186.967 48.1478L186.433 47.9718L185.688 50.2562C185.964 50.4957 186.163 50.8119 186.261 51.1651C186.358 51.5182 186.35 51.8925 186.236 52.2407C186.122 52.5889 185.908 52.8954 185.621 53.1216C185.335 53.3477 184.988 53.4834 184.624 53.5114L183.884 55.7688L184.27 55.8952C184.407 55.9354 184.535 56.0028 184.645 56.0936C184.756 56.1844 184.847 56.2967 184.914 56.4238C184.98 56.5509 185.021 56.6902 185.033 56.8333C185.045 56.9765 185.028 57.1206 184.983 57.257C184.939 57.3935 184.867 57.5195 184.773 57.6276C184.679 57.7356 184.564 57.8236 184.436 57.8861C184.307 57.9486 184.167 57.9844 184.025 57.9914C183.882 57.9985 183.739 57.9765 183.605 57.9269L183.219 57.8005L153.889 147.645L148.318 145.803L148.408 145.528L177.653 55.9585L177.267 55.8275C177.128 55.7895 176.998 55.7234 176.885 55.6332C176.772 55.543 176.678 55.4307 176.61 55.3031C176.541 55.1754 176.499 55.0351 176.487 54.8907C176.474 54.7462 176.49 54.6006 176.535 54.4627C176.58 54.3249 176.652 54.1976 176.747 54.0886C176.842 53.9797 176.958 53.8914 177.089 53.829C177.219 53.7666 177.36 53.7315 177.504 53.7258C177.648 53.7201 177.792 53.744 177.927 53.7959L178.313 53.9223L179.058 51.6649C178.782 51.4255 178.583 51.1092 178.485 50.756C178.388 50.4029 178.397 50.0286 178.511 49.6804C178.624 49.3322 178.838 49.0257 179.125 48.7996C179.412 48.5734 179.759 48.4377 180.122 48.4097L180.867 46.1252L180.333 45.9491C180.193 45.9029 180.063 45.8293 179.951 45.7326C179.839 45.6358 179.747 45.5179 179.68 45.3854C179.613 45.2529 179.573 45.1085 179.562 44.9605C179.551 44.8124 179.569 44.6636 179.615 44.5224C179.661 44.3813 179.734 44.2507 179.83 44.138C179.926 44.0254 180.043 43.9329 180.175 43.8658C180.307 43.7987 180.45 43.7584 180.598 43.7471C180.745 43.7358 180.893 43.7538 181.033 43.8001L181.567 43.9762L181.832 43.2899C181.51 42.6175 181.376 41.8691 181.447 41.1259C181.517 40.3827 181.789 39.6731 182.232 39.0742C182.675 38.4754 183.273 38.0101 183.961 37.7289C184.648 37.4477 185.4 37.3614 186.133 37.4793C186.348 37.5111 186.56 37.5625 186.765 37.6328C187.531 37.874 188.208 38.3388 188.709 38.9681C189.211 39.5974 189.515 40.3627 189.583 41.1665C189.651 41.9702 189.48 42.7761 189.091 43.4815C188.701 44.1869 188.112 44.7599 187.398 45.1274L187.38 45.1319Z" fill="white"/>
<mask id="mask11_0_893" style="mask-type:luminance" maskUnits="userSpaceOnUse" x="148" y="37" width="42" height="111">
<path d="M187.38 45.1319L187.152 45.8363L187.668 45.9988C187.951 46.0922 188.186 46.295 188.321 46.5625C188.455 46.8301 188.479 47.1405 188.386 47.4255C188.293 47.7104 188.092 47.9467 187.825 48.0821C187.559 48.2176 187.251 48.2412 186.967 48.1478L186.433 47.9718L185.688 50.2562C185.964 50.4957 186.163 50.8119 186.261 51.1651C186.358 51.5182 186.35 51.8925 186.236 52.2407C186.122 52.5889 185.908 52.8954 185.621 53.1216C185.335 53.3477 184.988 53.4834 184.624 53.5114L183.884 55.7688L184.27 55.8952C184.407 55.9354 184.535 56.0028 184.645 56.0936C184.756 56.1844 184.847 56.2967 184.914 56.4238C184.98 56.5509 185.021 56.6902 185.033 56.8333C185.045 56.9765 185.028 57.1206 184.983 57.257C184.939 57.3935 184.867 57.5195 184.773 57.6276C184.679 57.7356 184.564 57.8236 184.436 57.8861C184.307 57.9486 184.167 57.9844 184.025 57.9914C183.882 57.9985 183.739 57.9765 183.605 57.9269L183.219 57.8005L153.889 147.645L148.318 145.803L148.408 145.528L177.653 55.9585L177.267 55.8275C177.128 55.7895 176.998 55.7234 176.885 55.6332C176.772 55.543 176.678 55.4307 176.61 55.3031C176.541 55.1754 176.499 55.0351 176.487 54.8907C176.474 54.7462 176.49 54.6006 176.535 54.4627C176.58 54.3249 176.652 54.1976 176.747 54.0886C176.842 53.9797 176.958 53.8914 177.089 53.829C177.219 53.7666 177.36 53.7315 177.504 53.7258C177.648 53.7201 177.792 53.744 177.927 53.7959L178.313 53.9223L179.058 51.6649C178.782 51.4255 178.583 51.1092 178.485 50.756C178.388 50.4029 178.397 50.0286 178.511 49.6804C178.624 49.3322 178.838 49.0257 179.125 48.7996C179.412 48.5734 179.759 48.4377 180.122 48.4097L180.867 46.1252L180.333 45.9491C180.193 45.9029 180.063 45.8293 179.951 45.7326C179.839 45.6358 179.747 45.5179 179.68 45.3854C179.613 45.2529 179.573 45.1085 179.562 44.9605C179.551 44.8124 179.569 44.6636 179.615 44.5224C179.661 44.3813 179.734 44.2507 179.83 44.138C179.926 44.0254 180.043 43.9329 180.175 43.8658C180.307 43.7987 180.45 43.7584 180.598 43.7471C180.745 43.7358 180.893 43.7538 181.033 43.8001L181.567 43.9762L181.832 43.2899C181.51 42.6175 181.376 41.8691 181.447 41.1259C181.517 40.3827 181.789 39.6731 182.232 39.0742C182.675 38.4754 183.273 38.0101 183.961 37.7289C184.648 37.4477 185.4 37.3614 186.133 37.4793C186.348 37.5111 186.56 37.5625 186.765 37.6328C187.531 37.874 188.208 38.3388 188.709 38.9681C189.211 39.5974 189.515 40.3627 189.583 41.1665C189.651 41.9702 189.48 42.7761 189.091 43.4815C188.701 44.1869 188.112 44.7599 187.398 45.1274L187.38 45.1319Z" fill="white"/>
</mask>
<g mask="url(#mask11_0_893)">
<path opacity="0.4" d="M187.38 45.132L187.152 45.8363L187.668 45.9988C187.951 46.0922 188.186 46.295 188.321 46.5625C188.455 46.8301 188.479 47.1405 188.386 47.4255C188.293 47.7105 188.092 47.9467 187.825 48.0821C187.559 48.2176 187.251 48.2412 186.967 48.1478L186.433 47.9718L185.688 50.2563C185.964 50.4957 186.163 50.8119 186.261 51.1651C186.358 51.5183 186.35 51.8926 186.236 52.2408C186.122 52.5889 185.908 52.8954 185.621 53.1216C185.335 53.3477 184.988 53.4834 184.624 53.5114L183.884 55.7688L184.27 55.8953C184.407 55.9354 184.535 56.0028 184.645 56.0936C184.756 56.1845 184.847 56.2968 184.914 56.4238C184.98 56.5509 185.021 56.6902 185.033 56.8333C185.045 56.9765 185.028 57.1206 184.983 57.257C184.939 57.3935 184.867 57.5195 184.773 57.6276C184.679 57.7357 184.564 57.8236 184.436 57.8861C184.307 57.9486 184.167 57.9844 184.025 57.9915C183.882 57.9985 183.739 57.9765 183.605 57.9269L183.219 57.8005L153.889 147.645L148.318 145.803L148.408 145.528L152.897 143.108L178.932 62.2431L180.683 56.9608L181.365 54.893L182.106 52.6581L183.143 49.5249L184.88 44.2832L185.253 43.1545C186.599 41.6917 186.563 39.4839 186.088 37.4478C186.303 37.4795 186.515 37.5309 186.721 37.6013C187.486 37.8424 188.163 38.3072 188.664 38.9365C189.166 39.5658 189.47 40.3311 189.538 41.1349C189.606 41.9386 189.435 42.7446 189.046 43.45C188.657 44.1553 188.067 44.7283 187.354 45.0958L187.38 45.132Z" fill="#17AB49"/>
</g>
<path d="M187.38 45.1319L187.152 45.8363L187.668 45.9988C187.951 46.0922 188.186 46.295 188.321 46.5625C188.455 46.8301 188.479 47.1405 188.386 47.4255C188.293 47.7104 188.092 47.9467 187.825 48.0821C187.559 48.2176 187.251 48.2412 186.967 48.1478L186.433 47.9718L185.688 50.2562C185.964 50.4957 186.163 50.8119 186.261 51.1651C186.358 51.5182 186.35 51.8925 186.236 52.2407C186.122 52.5889 185.908 52.8954 185.621 53.1216C185.335 53.3477 184.988 53.4834 184.624 53.5114L183.884 55.7688L184.27 55.8952C184.407 55.9354 184.535 56.0028 184.645 56.0936C184.756 56.1844 184.847 56.2967 184.914 56.4238C184.98 56.5509 185.021 56.6902 185.033 56.8333C185.045 56.9765 185.028 57.1206 184.983 57.257C184.939 57.3935 184.867 57.5195 184.773 57.6276C184.679 57.7356 184.564 57.8236 184.436 57.8861C184.307 57.9486 184.167 57.9844 184.025 57.9914C183.882 57.9985 183.739 57.9765 183.605 57.9269L183.219 57.8005L153.889 147.645L148.318 145.803L148.408 145.528L177.653 55.9585L177.267 55.8275C177.128 55.7895 176.998 55.7234 176.885 55.6332C176.772 55.543 176.678 55.4307 176.61 55.3031C176.541 55.1754 176.499 55.0351 176.487 54.8907C176.474 54.7462 176.49 54.6006 176.535 54.4627C176.58 54.3249 176.652 54.1976 176.747 54.0886C176.842 53.9797 176.958 53.8914 177.089 53.829C177.219 53.7666 177.36 53.7315 177.504 53.7258C177.648 53.7201 177.792 53.744 177.927 53.7959L178.313 53.9223L179.058 51.6649C178.782 51.4255 178.583 51.1092 178.485 50.756C178.388 50.4029 178.397 50.0286 178.511 49.6804C178.624 49.3322 178.838 49.0257 179.125 48.7996C179.412 48.5734 179.759 48.4378 180.122 48.4097L180.867 46.1252L180.333 45.9491C180.193 45.9029 180.063 45.8293 179.951 45.7326C179.839 45.6358 179.747 45.5179 179.68 45.3854C179.613 45.2529 179.573 45.1085 179.562 44.9605C179.551 44.8124 179.569 44.6636 179.615 44.5224C179.661 44.3813 179.734 44.2507 179.83 44.138C179.926 44.0254 180.043 43.9329 180.175 43.8658C180.307 43.7987 180.45 43.7584 180.598 43.7471C180.745 43.7358 180.893 43.7538 181.033 43.8001L181.567 43.9762L181.832 43.2899C181.51 42.6175 181.376 41.8691 181.447 41.1259C181.517 40.3827 181.789 39.6731 182.232 39.0742C182.675 38.4754 183.273 38.0101 183.961 37.7289C184.648 37.4477 185.4 37.3614 186.133 37.4793C186.348 37.5111 186.56 37.5625 186.765 37.6328C187.531 37.874 188.208 38.3388 188.709 38.9681C189.211 39.5974 189.515 40.3627 189.583 41.1665C189.651 41.9702 189.48 42.7761 189.091 43.4815C188.701 44.1869 188.112 44.7599 187.398 45.1274L187.38 45.1319Z" stroke="#1F2723" stroke-width="0.8" stroke-linecap="round" stroke-linejoin="round"/>
<path d="M181.814 43.2943L185.8 44.6126" stroke="#1F2723" stroke-width="0.8" stroke-linecap="round" stroke-linejoin="round"/>
<path d="M186.451 47.9853L184.113 47.2133" stroke="#1F2723" stroke-width="0.8" stroke-linecap="round" stroke-linejoin="round"/>
<path d="M180.885 46.1478L182.173 46.5722" stroke="#1F2723" stroke-width="0.8" stroke-linecap="round" stroke-linejoin="round"/>
<path d="M181.388 48.974L185.666 50.3871" stroke="#1F2723" stroke-width="0.8" stroke-linecap="round" stroke-linejoin="round"/>
<path d="M179.076 51.6874L183.475 53.1366" stroke="#1F2723" stroke-width="0.8" stroke-linecap="round" stroke-linejoin="round"/>
<path d="M183.237 57.832L180.454 56.911" stroke="#1F2723" stroke-width="0.8" stroke-linecap="round" stroke-linejoin="round"/>
<path d="M180.337 54.5814L181.572 54.9877" stroke="#1F2723" stroke-width="0.8" stroke-linecap="round" stroke-linejoin="round"/>
<path d="M177.671 55.9944L178.959 56.4188" stroke="#1F2723" stroke-width="0.8" stroke-linecap="round" stroke-linejoin="round"/>
<path d="M158.041 148.006L157.889 148.837L157.377 151.609C157.28 152.129 156.982 152.588 156.549 152.887C156.115 153.186 155.582 153.299 155.065 153.203L100.238 142.99C99.9819 142.943 99.7378 142.846 99.5194 142.703C99.3009 142.561 99.1126 142.377 98.965 142.161C98.8174 141.946 98.7135 141.703 98.6592 141.447C98.605 141.191 98.6014 140.927 98.6488 140.67L98.945 139.054L99.3131 137.067C99.3601 136.81 99.4571 136.564 99.5985 136.344C99.7399 136.125 99.923 135.935 100.137 135.787C100.352 135.638 100.593 135.534 100.847 135.479C101.102 135.425 101.365 135.421 101.62 135.469L156.439 145.681C156.696 145.728 156.942 145.824 157.162 145.966C157.382 146.108 157.571 146.293 157.72 146.509C157.869 146.725 157.974 146.968 158.029 147.225C158.084 147.482 158.088 147.748 158.041 148.006Z" fill="white"/>
<mask id="mask12_0_893" style="mask-type:luminance" maskUnits="userSpaceOnUse" x="98" y="135" width="61" height="19">
<path d="M158.041 148.006L157.889 148.837L157.377 151.609C157.28 152.129 156.982 152.588 156.549 152.887C156.115 153.186 155.582 153.299 155.065 153.203L100.238 142.99C99.9819 142.943 99.7378 142.846 99.5194 142.703C99.3009 142.561 99.1126 142.377 98.965 142.161C98.8174 141.946 98.7135 141.703 98.6592 141.447C98.605 141.191 98.6014 140.927 98.6488 140.67L98.945 139.054L99.3131 137.067C99.3601 136.81 99.4571 136.564 99.5985 136.344C99.7399 136.125 99.923 135.935 100.137 135.787C100.352 135.638 100.593 135.534 100.847 135.479C101.102 135.425 101.365 135.421 101.62 135.469L156.439 145.681C156.696 145.728 156.942 145.824 157.162 145.966C157.382 146.108 157.571 146.293 157.72 146.509C157.869 146.725 157.974 146.968 158.029 147.225C158.084 147.482 158.088 147.748 158.041 148.006Z" fill="white"/>
</mask>
<g mask="url(#mask12_0_893)">
<path opacity="0.4" d="M157.875 148.837L157.363 151.609C157.266 152.129 156.968 152.588 156.535 152.887C156.102 153.186 155.568 153.299 155.052 153.203L100.238 142.99C99.9819 142.943 99.7378 142.846 99.5194 142.703C99.3009 142.561 99.1126 142.377 98.965 142.161C98.8174 141.946 98.7135 141.703 98.6592 141.447C98.605 141.191 98.6014 140.927 98.6488 140.67L98.945 139.054L155.402 150.291L157.875 148.837Z" fill="#17AB49"/>
</g>
<path d="M158.041 148.006L157.889 148.837L157.377 151.609C157.28 152.129 156.982 152.588 156.549 152.887C156.115 153.186 155.582 153.299 155.065 153.203L100.238 142.99C99.9819 142.943 99.7378 142.846 99.5194 142.703C99.3009 142.561 99.1126 142.377 98.965 142.161C98.8174 141.946 98.7135 141.703 98.6592 141.447C98.605 141.191 98.6014 140.927 98.6488 140.67L98.945 139.054L99.3131 137.067C99.3601 136.81 99.4571 136.564 99.5985 136.344C99.7399 136.125 99.923 135.935 100.137 135.787C100.352 135.638 100.593 135.534 100.847 135.479C101.102 135.425 101.365 135.421 101.62 135.469L156.439 145.681C156.696 145.728 156.942 145.824 157.162 145.966C157.382 146.108 157.571 146.293 157.72 146.509C157.869 146.725 157.974 146.968 158.029 147.225C158.084 147.482 158.088 147.748 158.041 148.006Z" stroke="#1F2723" stroke-width="0.8" stroke-linecap="round" stroke-linejoin="round"/>
</svg>
