<svg width="201" height="200" viewBox="0 0 201 200" fill="none" xmlns="http://www.w3.org/2000/svg">
<path d="M154.956 28.0079C154.956 28.0079 154.882 26.0749 154.064 24.7365C153.246 23.3983 150.273 22.4317 148.711 23.1009C147.15 23.7701 146.406 24.2162 146.406 24.2162C146.406 24.2162 148.711 24.8853 150.793 26.298C152.875 27.7105 154.956 28.0079 154.956 28.0079Z" fill="#17AB49" stroke="#A6A6A6" stroke-width="0.8" stroke-linecap="round" stroke-linejoin="round"/>
<path d="M158.079 28.9745C158.079 28.9745 156.295 27.2644 155.997 24.8853C155.7 22.5061 158.228 18.7887 158.228 18.7887C158.228 18.7887 159.492 21.0935 160.235 23.7701C160.979 26.4467 158.079 28.9745 158.079 28.9745Z" fill="#17AB49" stroke="#A6A6A6" stroke-width="0.8" stroke-linecap="round" stroke-linejoin="round"/>
<path d="M161.499 28.231C161.499 28.231 161.053 26.0005 161.871 24.4392C162.689 22.8779 164.845 23.0266 167.001 23.6957C169.157 24.3649 169.826 24.3649 169.826 24.3649C169.826 24.3649 167.298 26.0749 165.142 26.9671C162.986 27.8593 161.499 28.231 161.499 28.231Z" fill="#17AB49" stroke="#A6A6A6" stroke-width="0.8" stroke-linecap="round" stroke-linejoin="round"/>
<path d="M158.099 36.2428C157.993 36.2428 157.907 36.1568 157.907 36.0505V25.4188C157.907 25.3126 157.993 25.2266 158.099 25.2266C158.205 25.2266 158.291 25.3126 158.291 25.4188V36.0505C158.291 36.1568 158.205 36.2428 158.099 36.2428Z" fill="#1F2723" stroke="#A6A6A6" stroke-width="0.8" stroke-miterlimit="10"/>
<path d="M158.991 36.2428C158.982 36.2428 158.974 36.2422 158.965 36.2409C158.86 36.2265 158.786 36.1294 158.801 36.0243C158.837 35.7579 159.736 29.459 162.786 25.9616C162.856 25.8814 162.978 25.8733 163.058 25.9429C163.138 26.0128 163.146 26.1343 163.076 26.2143C160.102 29.6244 159.19 36.0127 159.181 36.0769C159.168 36.1732 159.086 36.2428 158.991 36.2428Z" fill="#1F2723" stroke="#A6A6A6" stroke-width="0.8" stroke-miterlimit="10"/>
<path d="M157.207 36.0941H157.205C157.098 36.0929 157.013 36.0057 157.015 35.8996C157.015 35.8388 157.043 29.7871 153.443 26.9073C153.36 26.8408 153.347 26.7199 153.413 26.6369C153.48 26.5543 153.601 26.5409 153.684 26.6069C157.431 29.6051 157.402 35.6485 157.399 35.9042C157.398 36.0097 157.312 36.0941 157.207 36.0941Z" fill="#1F2723" stroke="#A6A6A6" stroke-width="0.8" stroke-miterlimit="10"/>
<path d="M160.181 36.0199C160.164 36.0199 160.147 36.0178 160.131 36.0133C160.028 35.9857 159.967 35.8802 159.995 35.7777C160.016 35.6973 160.538 33.7914 161.735 32.146C161.797 32.0598 161.918 32.0414 162.004 32.1036C162.09 32.1659 162.108 32.2862 162.046 32.372C160.891 33.9605 160.371 35.8586 160.366 35.8775C160.343 35.9633 160.265 36.0199 160.181 36.0199Z" fill="#1F2723" stroke="#A6A6A6" stroke-width="0.8" stroke-miterlimit="10"/>
<path d="M161.35 33.0636C161.35 33.0636 161.276 30.9819 162.168 30.6845C163.06 30.3871 163.878 31.1306 164.547 31.5766C165.217 32.0228 165.96 32.4688 165.96 33.8071C165.96 35.1454 165.44 37.5989 165.44 37.5989C165.44 37.5989 164.696 35.294 163.432 34.2532C162.168 33.2123 161.35 33.0636 161.35 33.0636Z" fill="#17AB49" stroke="#A6A6A6" stroke-width="0.8" stroke-linecap="round" stroke-linejoin="round"/>
<path d="M155.868 36.0941C155.787 36.0941 155.711 36.0422 155.685 35.9606C155.679 35.9424 155.09 34.1431 153.742 33.079C153.659 33.0131 153.644 32.8922 153.71 32.8089C153.776 32.7261 153.897 32.7116 153.98 32.7771C155.422 33.9155 156.026 35.7652 156.051 35.8433C156.084 35.9443 156.028 36.0525 155.927 36.0849C155.907 36.0911 155.888 36.0941 155.868 36.0941Z" fill="#1F2723" stroke="#A6A6A6" stroke-width="0.8" stroke-miterlimit="10"/>
<path d="M154.956 33.7327C154.956 33.7327 155.254 32.3945 154.51 31.4279C153.767 30.4614 151.983 30.6844 151.09 31.7253C150.198 32.7662 148.934 35.8888 148.934 35.8888C148.934 35.8888 150.719 34.4762 152.8 34.4762C154.882 34.4762 154.956 33.7327 154.956 33.7327Z" fill="#17AB49" stroke="#A6A6A6" stroke-width="0.8" stroke-linecap="round" stroke-linejoin="round"/>
<path d="M160.881 47.491H154.947L151.98 37.6774H163.848L160.881 47.491Z" fill="white" stroke="#A6A6A6" stroke-width="0.8" stroke-linecap="round" stroke-linejoin="round"/>
<path d="M163.881 36.05H151.947V37.6774H163.881V36.05Z" fill="white" stroke="#A6A6A6" stroke-width="0.8" stroke-linecap="round" stroke-linejoin="round"/>
<path d="M162.854 47.5254H61.0772V154.661H162.854V47.5254Z" stroke="#A6A6A6" stroke-width="0.8" stroke-linecap="round" stroke-linejoin="round"/>
<path d="M159.425 50.207H63.4528V151.44H159.425V50.207Z" stroke="#A6A6A6" stroke-width="0.8" stroke-linecap="round" stroke-linejoin="round"/>
<path d="M159.425 82.5638H63.4528V85.5974H159.425V82.5638Z" stroke="#A6A6A6" stroke-width="0.8" stroke-linecap="round" stroke-linejoin="round"/>
<path d="M128.497 85.6292H126.455V117.507H128.497V85.6292Z" stroke="#A6A6A6" stroke-width="0.8" stroke-linecap="round" stroke-linejoin="round"/>
<path d="M95.8724 85.6292H93.8311V117.507H95.8724V85.6292Z" stroke="#A6A6A6" stroke-width="0.8" stroke-linecap="round" stroke-linejoin="round"/>
<path d="M112.026 50.2951H109.985V82.5566H112.026V50.2951Z" stroke="#A6A6A6" stroke-width="0.8" stroke-linecap="round" stroke-linejoin="round"/>
<path d="M159.425 117.514H63.4528V120.548H159.425V117.514Z" stroke="#A6A6A6" stroke-width="0.8" stroke-linecap="round" stroke-linejoin="round"/>
<path d="M101.874 88.075H96.9472V117.409H101.874V88.075Z" stroke="#A6A6A6" stroke-width="0.8" stroke-linecap="round" stroke-linejoin="round"/>
<path d="M101.874 111.107H96.9472V113.513H101.874V111.107Z" stroke="#A6A6A6" stroke-width="0.8" stroke-linecap="round" stroke-linejoin="round"/>
<path d="M101.874 91.0543H96.9472V93.4606H101.874V91.0543Z" stroke="#A6A6A6" stroke-width="0.8" stroke-linecap="round" stroke-linejoin="round"/>
<path d="M106.916 88.075H101.989V117.409H106.916V88.075Z" stroke="#A6A6A6" stroke-width="0.8" stroke-linecap="round" stroke-linejoin="round"/>
<path d="M106.916 111.107H101.989V113.513H106.916V111.107Z" stroke="#A6A6A6" stroke-width="0.8" stroke-linecap="round" stroke-linejoin="round"/>
<path d="M106.916 91.0543H101.989V93.4606H106.916V91.0543Z" stroke="#A6A6A6" stroke-width="0.8" stroke-linecap="round" stroke-linejoin="round"/>
<path d="M111.958 88.075H107.031V117.409H111.958V88.075Z" stroke="#A6A6A6" stroke-width="0.8" stroke-linecap="round" stroke-linejoin="round"/>
<path d="M111.958 111.107H107.031V113.513H111.958V111.107Z" stroke="#A6A6A6" stroke-width="0.8" stroke-linecap="round" stroke-linejoin="round"/>
<path d="M111.958 91.0543H107.031V93.4606H111.958V91.0543Z" stroke="#A6A6A6" stroke-width="0.8" stroke-linecap="round" stroke-linejoin="round"/>
<path d="M117 88.075H112.073V117.409H117V88.075Z" stroke="#A6A6A6" stroke-width="0.8" stroke-linecap="round" stroke-linejoin="round"/>
<path d="M125.208 88.075H116.956V117.409H125.208V88.075Z" stroke="#A6A6A6" stroke-width="0.8" stroke-linecap="round" stroke-linejoin="round"/>
<path d="M117 111.107H112.073V113.513H117V111.107Z" stroke="#A6A6A6" stroke-width="0.8" stroke-linecap="round" stroke-linejoin="round"/>
<path d="M117 91.0543H112.073V93.4606H117V91.0543Z" stroke="#A6A6A6" stroke-width="0.8" stroke-linecap="round" stroke-linejoin="round"/>
<path d="M134.415 88.075H129.488V117.409H134.415V88.075Z" stroke="#A6A6A6" stroke-width="0.8" stroke-linecap="round" stroke-linejoin="round"/>
<path d="M134.415 111.107H129.488V113.513H134.415V111.107Z" stroke="#A6A6A6" stroke-width="0.8" stroke-linecap="round" stroke-linejoin="round"/>
<path d="M134.415 91.0543H129.488V93.4606H134.415V91.0543Z" stroke="#A6A6A6" stroke-width="0.8" stroke-linecap="round" stroke-linejoin="round"/>
<path d="M139.457 88.075H134.53V117.409H139.457V88.075Z" stroke="#A6A6A6" stroke-width="0.8" stroke-linecap="round" stroke-linejoin="round"/>
<path d="M139.457 111.107H134.53V113.513H139.457V111.107Z" stroke="#A6A6A6" stroke-width="0.8" stroke-linecap="round" stroke-linejoin="round"/>
<path d="M139.457 91.0543H134.53V93.4606H139.457V91.0543Z" stroke="#A6A6A6" stroke-width="0.8" stroke-linecap="round" stroke-linejoin="round"/>
<path d="M144.499 88.075H139.572V117.409H144.499V88.075Z" stroke="#A6A6A6" stroke-width="0.8" stroke-linecap="round" stroke-linejoin="round"/>
<path d="M144.499 111.107H139.572V113.513H144.499V111.107Z" stroke="#A6A6A6" stroke-width="0.8" stroke-linecap="round" stroke-linejoin="round"/>
<path d="M144.499 91.0543H139.572V93.4606H144.499V91.0543Z" stroke="#A6A6A6" stroke-width="0.8" stroke-linecap="round" stroke-linejoin="round"/>
<path d="M149.541 88.075H144.614V117.409H149.541V88.075Z" stroke="#A6A6A6" stroke-width="0.8" stroke-linecap="round" stroke-linejoin="round"/>
<path d="M157.749 88.075H149.497V117.409H157.749V88.075Z" stroke="#A6A6A6" stroke-width="0.8" stroke-linecap="round" stroke-linejoin="round"/>
<path d="M149.541 111.107H144.614V113.513H149.541V111.107Z" stroke="#A6A6A6" stroke-width="0.8" stroke-linecap="round" stroke-linejoin="round"/>
<path d="M149.541 91.0543H144.614V93.4606H149.541V91.0543Z" stroke="#A6A6A6" stroke-width="0.8" stroke-linecap="round" stroke-linejoin="round"/>
<path d="M69.5447 88.075H64.6175V117.409H69.5447V88.075Z" stroke="#A6A6A6" stroke-width="0.8" stroke-linecap="round" stroke-linejoin="round"/>
<path d="M69.5447 111.107H64.6175V113.513H69.5447V111.107Z" stroke="#A6A6A6" stroke-width="0.8" stroke-linecap="round" stroke-linejoin="round"/>
<path d="M69.5447 91.0543H64.6175V93.4606H69.5447V91.0543Z" stroke="#A6A6A6" stroke-width="0.8" stroke-linecap="round" stroke-linejoin="round"/>
<path d="M74.5865 88.075H69.6592V117.409H74.5865V88.075Z" stroke="#A6A6A6" stroke-width="0.8" stroke-linecap="round" stroke-linejoin="round"/>
<path d="M74.5865 111.107H69.6592V113.513H74.5865V111.107Z" stroke="#A6A6A6" stroke-width="0.8" stroke-linecap="round" stroke-linejoin="round"/>
<path d="M74.5865 91.0543H69.6592V93.4606H74.5865V91.0543Z" stroke="#A6A6A6" stroke-width="0.8" stroke-linecap="round" stroke-linejoin="round"/>
<path d="M79.6283 88.075H74.701V117.409H79.6283V88.075Z" stroke="#A6A6A6" stroke-width="0.8" stroke-linecap="round" stroke-linejoin="round"/>
<path d="M79.6283 111.107H74.701V113.513H79.6283V111.107Z" stroke="#A6A6A6" stroke-width="0.8" stroke-linecap="round" stroke-linejoin="round"/>
<path d="M79.6283 91.0543H74.701V93.4606H79.6283V91.0543Z" stroke="#A6A6A6" stroke-width="0.8" stroke-linecap="round" stroke-linejoin="round"/>
<path d="M84.67 88.075H79.7429V117.409H84.67V88.075Z" stroke="#A6A6A6" stroke-width="0.8" stroke-linecap="round" stroke-linejoin="round"/>
<path d="M92.8781 88.075H84.6261V117.409H92.8781V88.075Z" stroke="#A6A6A6" stroke-width="0.8" stroke-linecap="round" stroke-linejoin="round"/>
<path d="M84.67 111.107H79.7429V113.513H84.67V111.107Z" stroke="#A6A6A6" stroke-width="0.8" stroke-linecap="round" stroke-linejoin="round"/>
<path d="M84.67 91.0543H79.7429V93.4606H84.67V91.0543Z" stroke="#A6A6A6" stroke-width="0.8" stroke-linecap="round" stroke-linejoin="round"/>
<path d="M83.4908 53.1185H78.5636V82.4525H83.4908V53.1185Z" stroke="#A6A6A6" stroke-width="0.8" stroke-linecap="round" stroke-linejoin="round"/>
<path d="M83.4908 76.1503H78.5636V78.5566H83.4908V76.1503Z" stroke="#A6A6A6" stroke-width="0.8" stroke-linecap="round" stroke-linejoin="round"/>
<path d="M83.4908 56.0977H78.5636V58.504H83.4908V56.0977Z" stroke="#A6A6A6" stroke-width="0.8" stroke-linecap="round" stroke-linejoin="round"/>
<path d="M78.6308 53.1185H73.7036V82.4525H78.6308V53.1185Z" stroke="#A6A6A6" stroke-width="0.8" stroke-linecap="round" stroke-linejoin="round"/>
<path d="M78.6308 76.1503H73.7036V78.5566H78.6308V76.1503Z" stroke="#A6A6A6" stroke-width="0.8" stroke-linecap="round" stroke-linejoin="round"/>
<path d="M78.6308 56.0977H73.7036V58.504H78.6308V56.0977Z" stroke="#A6A6A6" stroke-width="0.8" stroke-linecap="round" stroke-linejoin="round"/>
<path d="M73.7707 53.1185H68.8436V82.4525H73.7707V53.1185Z" stroke="#A6A6A6" stroke-width="0.8" stroke-linecap="round" stroke-linejoin="round"/>
<path d="M73.7707 76.1503H68.8436V78.5566H73.7707V76.1503Z" stroke="#A6A6A6" stroke-width="0.8" stroke-linecap="round" stroke-linejoin="round"/>
<path d="M73.7707 56.0977H68.8436V58.504H73.7707V56.0977Z" stroke="#A6A6A6" stroke-width="0.8" stroke-linecap="round" stroke-linejoin="round"/>
<path d="M68.9108 53.1185H63.9835V82.4525H68.9108V53.1185Z" stroke="#A6A6A6" stroke-width="0.8" stroke-linecap="round" stroke-linejoin="round"/>
<path d="M68.9108 76.1503H63.9835V78.5566H68.9108V76.1503Z" stroke="#A6A6A6" stroke-width="0.8" stroke-linecap="round" stroke-linejoin="round"/>
<path d="M68.9108 56.0977H63.9835V58.504H68.9108V56.0977Z" stroke="#A6A6A6" stroke-width="0.8" stroke-linecap="round" stroke-linejoin="round"/>
<path d="M88.5326 53.1185H83.6055V82.4525H88.5326V53.1185Z" stroke="#A6A6A6" stroke-width="0.8" stroke-linecap="round" stroke-linejoin="round"/>
<path d="M88.5326 76.1503H83.6055V78.5566H88.5326V76.1503Z" stroke="#A6A6A6" stroke-width="0.8" stroke-linecap="round" stroke-linejoin="round"/>
<path d="M88.5326 56.0977H83.6055V58.504H88.5326V56.0977Z" stroke="#A6A6A6" stroke-width="0.8" stroke-linecap="round" stroke-linejoin="round"/>
<path d="M93.5745 53.1185H88.6472V82.4525H93.5745V53.1185Z" stroke="#A6A6A6" stroke-width="0.8" stroke-linecap="round" stroke-linejoin="round"/>
<path d="M93.5745 76.1503H88.6472V78.5566H93.5745V76.1503Z" stroke="#A6A6A6" stroke-width="0.8" stroke-linecap="round" stroke-linejoin="round"/>
<path d="M93.5745 56.0977H88.6472V58.504H93.5745V56.0977Z" stroke="#A6A6A6" stroke-width="0.8" stroke-linecap="round" stroke-linejoin="round"/>
<path d="M98.6162 53.1185H93.689V82.4525H98.6162V53.1185Z" stroke="#A6A6A6" stroke-width="0.8" stroke-linecap="round" stroke-linejoin="round"/>
<path d="M106.824 53.1185H98.5722V82.4525H106.824V53.1185Z" stroke="#A6A6A6" stroke-width="0.8" stroke-linecap="round" stroke-linejoin="round"/>
<path d="M98.6162 76.1503H93.689V78.5566H98.6162V76.1503Z" stroke="#A6A6A6" stroke-width="0.8" stroke-linecap="round" stroke-linejoin="round"/>
<path d="M98.6162 56.0977H93.689V58.504H98.6162V56.0977Z" stroke="#A6A6A6" stroke-width="0.8" stroke-linecap="round" stroke-linejoin="round"/>
<path d="M118.527 53.1186H113.6V82.4526H118.527V53.1186Z" stroke="#A6A6A6" stroke-width="0.8" stroke-linecap="round" stroke-linejoin="round"/>
<path d="M118.527 76.1503H113.6V78.5566H118.527V76.1503Z" stroke="#A6A6A6" stroke-width="0.8" stroke-linecap="round" stroke-linejoin="round"/>
<path d="M118.527 56.0977H113.6V58.5041H118.527V56.0977Z" stroke="#A6A6A6" stroke-width="0.8" stroke-linecap="round" stroke-linejoin="round"/>
<path d="M123.569 53.1186H118.642V82.4526H123.569V53.1186Z" stroke="#A6A6A6" stroke-width="0.8" stroke-linecap="round" stroke-linejoin="round"/>
<path d="M123.569 76.1503H118.642V78.5566H123.569V76.1503Z" stroke="#A6A6A6" stroke-width="0.8" stroke-linecap="round" stroke-linejoin="round"/>
<path d="M123.569 56.0977H118.642V58.5041H123.569V56.0977Z" stroke="#A6A6A6" stroke-width="0.8" stroke-linecap="round" stroke-linejoin="round"/>
<path d="M133.66 53.0982L129.065 55.0386L140.617 82.3977L145.213 80.4572L133.66 53.0982Z" stroke="#A6A6A6" stroke-width="0.8" stroke-linecap="round" stroke-linejoin="round"/>
<path d="M142.731 74.5793L138.135 76.5198L139.083 78.7641L143.678 76.8236L142.731 74.5793Z" stroke="#A6A6A6" stroke-width="0.8" stroke-linecap="round" stroke-linejoin="round"/>
<path d="M134.834 55.8768L130.238 57.8173L131.186 60.0616L135.781 58.1211L134.834 55.8768Z" stroke="#A6A6A6" stroke-width="0.8" stroke-linecap="round" stroke-linejoin="round"/>
<path d="M140.617 82.3977H150.904L155.532 80.4704L145.213 80.4573L140.617 82.3977Z" stroke="#A6A6A6" stroke-width="0.8" stroke-linecap="round" stroke-linejoin="round"/>
<path d="M133.66 53.0982H143.321L155.532 80.4704L145.213 80.4573L133.66 53.0982Z" stroke="#A6A6A6" stroke-width="0.8" stroke-linecap="round" stroke-linejoin="round"/>
<path d="M128.43 53.1186H123.503V82.4526H128.43V53.1186Z" stroke="#A6A6A6" stroke-width="0.8" stroke-linecap="round" stroke-linejoin="round"/>
<path d="M128.43 76.1503H123.503V78.5566H128.43V76.1503Z" stroke="#A6A6A6" stroke-width="0.8" stroke-linecap="round" stroke-linejoin="round"/>
<path d="M128.43 56.0977H123.503V58.5041H128.43V56.0977Z" stroke="#A6A6A6" stroke-width="0.8" stroke-linecap="round" stroke-linejoin="round"/>
<path d="M128.43 53.1186H133.66L129.065 55.0387L140.617 82.3977H128.43V53.1186Z" stroke="#A6A6A6" stroke-width="0.8" stroke-linecap="round" stroke-linejoin="round"/>
<path d="M118.527 121.707H113.6V151.041H118.527V121.707Z" stroke="#A6A6A6" stroke-width="0.8" stroke-linecap="round" stroke-linejoin="round"/>
<path d="M118.527 144.739H113.6V147.145H118.527V144.739Z" stroke="#A6A6A6" stroke-width="0.8" stroke-linecap="round" stroke-linejoin="round"/>
<path d="M118.527 124.687H113.6V127.093H118.527V124.687Z" stroke="#A6A6A6" stroke-width="0.8" stroke-linecap="round" stroke-linejoin="round"/>
<path d="M123.569 121.707H118.642V151.041H123.569V121.707Z" stroke="#A6A6A6" stroke-width="0.8" stroke-linecap="round" stroke-linejoin="round"/>
<path d="M123.569 144.739H118.642V147.145H123.569V144.739Z" stroke="#A6A6A6" stroke-width="0.8" stroke-linecap="round" stroke-linejoin="round"/>
<path d="M123.569 124.687H118.642V127.093H123.569V124.687Z" stroke="#A6A6A6" stroke-width="0.8" stroke-linecap="round" stroke-linejoin="round"/>
<path d="M133.661 121.687L129.065 123.627L140.617 150.987L145.213 149.046L133.661 121.687Z" stroke="#A6A6A6" stroke-width="0.8" stroke-linecap="round" stroke-linejoin="round"/>
<path d="M142.731 143.168L138.135 145.109L139.083 147.353L143.678 145.413L142.731 143.168Z" stroke="#A6A6A6" stroke-width="0.8" stroke-linecap="round" stroke-linejoin="round"/>
<path d="M134.834 124.466L130.238 126.406L131.186 128.65L135.781 126.71L134.834 124.466Z" stroke="#A6A6A6" stroke-width="0.8" stroke-linecap="round" stroke-linejoin="round"/>
<path d="M140.617 150.987H150.904L155.532 149.059L145.213 149.046L140.617 150.987Z" stroke="#A6A6A6" stroke-width="0.8" stroke-linecap="round" stroke-linejoin="round"/>
<path d="M133.66 121.687H143.321L155.532 149.059L145.213 149.046L133.66 121.687Z" stroke="#A6A6A6" stroke-width="0.8" stroke-linecap="round" stroke-linejoin="round"/>
<path d="M128.43 121.707H123.503V151.041H128.43V121.707Z" stroke="#A6A6A6" stroke-width="0.8" stroke-linecap="round" stroke-linejoin="round"/>
<path d="M128.43 144.739H123.503V147.145H128.43V144.739Z" stroke="#A6A6A6" stroke-width="0.8" stroke-linecap="round" stroke-linejoin="round"/>
<path d="M128.43 124.687H123.503V127.093H128.43V124.687Z" stroke="#A6A6A6" stroke-width="0.8" stroke-linecap="round" stroke-linejoin="round"/>
<path d="M128.43 121.707H133.66L129.065 123.627L140.617 150.987H128.43V121.707Z" stroke="#A6A6A6" stroke-width="0.8" stroke-linecap="round" stroke-linejoin="round"/>
<path d="M74.5634 121.707H69.6362V151.041H74.5634V121.707Z" stroke="#A6A6A6" stroke-width="0.8" stroke-linecap="round" stroke-linejoin="round"/>
<path d="M74.5634 144.739H69.6362V147.145H74.5634V144.739Z" stroke="#A6A6A6" stroke-width="0.8" stroke-linecap="round" stroke-linejoin="round"/>
<path d="M74.5634 124.687H69.6362V127.093H74.5634V124.687Z" stroke="#A6A6A6" stroke-width="0.8" stroke-linecap="round" stroke-linejoin="round"/>
<path d="M69.5447 121.707H64.6175V151.041H69.5447V121.707Z" stroke="#A6A6A6" stroke-width="0.8" stroke-linecap="round" stroke-linejoin="round"/>
<path d="M69.5447 144.739H64.6175V147.145H69.5447V144.739Z" stroke="#A6A6A6" stroke-width="0.8" stroke-linecap="round" stroke-linejoin="round"/>
<path d="M69.5447 124.687H64.6175V127.093H69.5447V124.687Z" stroke="#A6A6A6" stroke-width="0.8" stroke-linecap="round" stroke-linejoin="round"/>
<path d="M79.6052 121.707H74.6779V151.041H79.6052V121.707Z" stroke="#A6A6A6" stroke-width="0.8" stroke-linecap="round" stroke-linejoin="round"/>
<path d="M79.6052 144.739H74.6779V147.145H79.6052V144.739Z" stroke="#A6A6A6" stroke-width="0.8" stroke-linecap="round" stroke-linejoin="round"/>
<path d="M79.6052 124.687H74.6779V127.093H79.6052V124.687Z" stroke="#A6A6A6" stroke-width="0.8" stroke-linecap="round" stroke-linejoin="round"/>
<path d="M89.6966 121.687L85.1011 123.627L96.653 150.987L101.248 149.046L89.6966 121.687Z" stroke="#A6A6A6" stroke-width="0.8" stroke-linecap="round" stroke-linejoin="round"/>
<path d="M98.7667 143.168L94.1713 145.109L95.1189 147.353L99.7144 145.413L98.7667 143.168Z" stroke="#A6A6A6" stroke-width="0.8" stroke-linecap="round" stroke-linejoin="round"/>
<path d="M90.8697 124.466L86.2742 126.406L87.2219 128.65L91.8173 126.71L90.8697 124.466Z" stroke="#A6A6A6" stroke-width="0.8" stroke-linecap="round" stroke-linejoin="round"/>
<path d="M96.6532 150.987H106.94L111.568 149.059L101.249 149.046L96.6532 150.987Z" stroke="#A6A6A6" stroke-width="0.8" stroke-linecap="round" stroke-linejoin="round"/>
<path d="M89.6965 121.687H99.3568L111.568 149.059L101.249 149.046L89.6965 121.687Z" stroke="#A6A6A6" stroke-width="0.8" stroke-linecap="round" stroke-linejoin="round"/>
<path d="M84.4661 121.707H79.5389V151.041H84.4661V121.707Z" stroke="#A6A6A6" stroke-width="0.8" stroke-linecap="round" stroke-linejoin="round"/>
<path d="M84.4661 144.739H79.5389V147.145H84.4661V144.739Z" stroke="#A6A6A6" stroke-width="0.8" stroke-linecap="round" stroke-linejoin="round"/>
<path d="M84.4661 124.687H79.5389V127.093H84.4661V124.687Z" stroke="#A6A6A6" stroke-width="0.8" stroke-linecap="round" stroke-linejoin="round"/>
<path d="M84.4661 121.707H89.6964L85.1009 123.627L96.6532 150.987H84.4661V121.707Z" stroke="#A6A6A6" stroke-width="0.8" stroke-linecap="round" stroke-linejoin="round"/>
<path d="M175.945 47.5254H162.854V154.575H175.945V47.5254Z" stroke="#A6A6A6" stroke-width="0.8" stroke-linecap="round" stroke-linejoin="round"/>
<path d="M201 154.661H1" stroke="#1F2723" stroke-width="0.8" stroke-linecap="round" stroke-linejoin="round"/>
<path d="M93.9605 122.279C90.7623 104.948 77.7149 92.8281 64.8183 95.208C51.9217 97.5879 44.0595 113.566 47.2577 130.897C50.4558 148.228 63.5032 160.348 76.3998 157.968C89.2964 155.589 97.1586 139.61 93.9605 122.279ZM49.945 130.401C48.4103 122.085 49.664 114.143 52.8861 108.286C55.4831 104.616 59.0404 102.086 63.264 101.328C73.9801 99.4072 84.8988 109.597 87.6514 124.089C90.404 138.58 83.9483 151.885 73.2321 153.807C70.6034 154.278 67.9632 154.017 65.4337 153.146C58.1086 149.754 51.94 141.212 49.945 130.401ZM89.8439 123.039C89.8542 123.094 89.8615 123.15 89.8716 123.206C87.0002 108.472 76.2029 98.0092 65.1422 98.8959C76.0396 97.1698 87.0456 107.875 89.8439 123.039Z" fill="#1F2723" stroke="#1F2723" stroke-width="0.8" stroke-linecap="round" stroke-linejoin="round"/>
<path d="M60.0622 77.9864C60.0622 77.9864 50.9855 78.4037 50.6725 79.2383C50.3595 80.073 50.3595 81.4293 50.9855 81.6379C51.6115 81.8466 52.3418 81.4293 52.7591 81.5336C53.1764 81.6379 53.4894 82.0553 54.0111 81.7423C54.5327 81.4293 55.0544 81.012 55.0544 81.012C55.0544 81.012 55.576 81.4293 56.0977 81.4293C56.6193 81.4293 56.9323 80.699 57.3496 80.699C57.767 80.699 57.9756 80.9076 58.2886 81.012C58.6016 81.1163 59.2276 80.699 59.2276 80.699L60.0622 80.386L66.068 146.388L56.0523 145.553L56.3653 147.953C56.3653 147.953 85.7865 150.04 87.4558 149.309C89.125 148.579 91.9419 141.484 93.5069 141.067C95.0719 140.65 99.1407 140.963 99.1407 140.963V138.876C99.1407 138.876 94.3415 138.459 92.8809 139.189C91.4203 139.919 86.9341 147.744 86.4124 147.849C85.8908 147.953 68.2589 146.388 68.2589 146.388L66.2767 119.888L100.288 120.827L99.9754 118.427L66.2767 117.384L61.8358 78.195L60.0622 77.9864Z" fill="#1F2723" stroke="#1F2723" stroke-width="0.8" stroke-linecap="round" stroke-linejoin="round"/>
<path d="M38.792 125.285L49.5124 123.281H74.1593L95.8004 120.676L96.101 116.568L38.9924 118.672L38.792 125.285Z" fill="#1F2723" stroke="#1F2723" stroke-width="0.8" stroke-linecap="round" stroke-linejoin="round"/>
<path d="M80.3287 118.096L78.8109 117.044L65.4122 136.371L44.8369 116.899L43.5676 118.241L64.3476 137.906L56.1675 149.706L57.6853 150.758L65.7046 139.191L75.3279 148.298L76.5977 146.956L66.7692 137.655L80.3287 118.096Z" fill="#1F2723" stroke="#1F2723" stroke-width="0.8" stroke-linecap="round" stroke-linejoin="round"/>
<path d="M33.2494 80.0197C33.2494 80.0197 24.1726 80.4371 23.8597 81.2717C23.5467 82.1064 23.5467 83.4626 24.1726 83.6713C24.7987 83.8799 25.529 83.4626 25.9463 83.5669C26.3636 83.6713 26.6766 84.0886 27.1983 83.7756C27.7199 83.4626 28.2415 83.0453 28.2415 83.0453C28.2415 83.0453 28.7632 83.4626 29.2849 83.4626C29.8065 83.4626 30.1195 82.7323 30.5368 82.7323C30.9541 82.7323 31.1628 82.941 31.4758 83.0453C31.7888 83.1496 32.4148 82.7323 32.4148 82.7323L33.2494 82.4193L39.7179 154.303L29.7022 153.468L30.0152 155.868C30.0152 155.868 59.4363 157.955 61.1056 157.224C62.7749 156.494 65.5918 149.399 67.1568 148.982C68.7217 148.565 72.7906 148.878 72.7906 148.878V146.791C72.7906 146.791 67.9914 146.374 66.5308 147.104C65.0701 147.834 60.5839 155.659 60.0623 155.764C59.5407 155.868 41.9088 154.303 41.9088 154.303L39.9265 127.803L73.9382 128.742L73.6253 126.342L39.9265 125.299L35.023 80.2284L33.2494 80.0197Z" fill="#1F2723" stroke="#1F2723" stroke-width="0.8" stroke-linecap="round" stroke-linejoin="round"/>
<path d="M71.5084 97.6748L79.4981 99.2897L86.077 100.861C86.077 100.861 66.8313 100.37 66.0458 100.37C65.2602 100.37 64.3765 99.8789 64.3765 99.8789L64.5729 97.0313L71.5084 97.6748Z" stroke="#1F2723" stroke-width="0.8" stroke-linecap="round" stroke-linejoin="round"/>
<path d="M57.7797 63.3998C57.7797 63.3998 59.5052 62.5599 61.22 63.3054C62.9347 64.051 64.053 65.8403 64.053 65.8403C64.053 65.8403 66.737 66.3621 68.4517 68.0023C70.1665 69.6425 72.4776 71.8791 73.8941 76.7251C75.3107 81.5712 74.8634 95.8855 75.1616 96.482C75.4598 97.0784 78.9638 97.7494 79.933 98.644C80.9022 99.5387 81.1259 99.9114 81.1259 99.9114C81.1259 99.9114 77.2491 99.5387 74.5652 98.644C71.8812 97.7494 69.9428 95.5128 69.9428 95.5128C69.9428 95.5128 68.5262 88.4301 67.8553 85.0752C67.1843 81.7203 65.4695 72.8483 62.4874 69.2698C59.5052 65.6912 57.7797 63.3998 57.7797 63.3998Z" fill="#17AB49" stroke="#1F2723" stroke-width="0.8" stroke-linecap="round" stroke-linejoin="round"/>
<path d="M64.7282 66.9139C64.7282 66.9139 68.4275 73.3915 68.9736 78.8872" stroke="#1F2723" stroke-width="0.8" stroke-linecap="round" stroke-linejoin="round"/>
<path d="M70.2185 89.2742C70.2185 89.2742 70.0188 92.3687 71.1168 93.7662C72.2149 95.1638 73.5126 95.6629 73.5126 95.6629" stroke="#1F2723" stroke-width="0.8" stroke-linecap="round" stroke-linejoin="round"/>
<path d="M46.0727 59.2562C46.0727 59.2562 45.5636 58.1612 45.2654 58.4594C44.9672 58.7576 43.7743 59.7268 43.7743 59.7268C43.7743 59.7268 47.2038 61.6652 51.0061 68.1514C54.8083 74.6376 60.6235 88.3555 60.7726 88.6538C60.9218 88.952 64.9477 94.8417 65.7678 95.8109C66.5879 96.7801 66.8861 98.3458 66.8861 98.3458C66.8861 98.3458 70.7629 97.7494 71.5084 97.6748L72.254 97.6002C72.254 97.6002 68.5262 92.8288 68.3771 88.4301C68.228 84.0314 65.8423 74.4139 63.6803 70.6117C61.5182 66.8094 58.2907 63.8668 57.7797 63.3997C57.2686 62.9326 56.6721 62.709 56.6721 62.709L46.0727 59.2562Z" fill="white" stroke="#1F2723" stroke-width="0.8" stroke-linecap="round" stroke-linejoin="round"/>
<path d="M53.1246 71.0503L64.533 72.4255L65.9439 76.2871L56.1339 75.7315L53.1246 71.0503Z" fill="#1F2723" stroke="#1F2723" stroke-width="0.8" stroke-linecap="round" stroke-linejoin="round"/>
<path d="M67.0531 40.1175C67.0531 40.1175 69.2893 39.7228 69.2893 41.7617C69.2893 43.8005 67.4477 44.6555 67.4477 44.6555L67.0531 40.1175Z" fill="#1F2723" stroke="#1F2723" stroke-width="0.8" stroke-linecap="round" stroke-linejoin="round"/>
<path d="M67.0531 41.1697C67.0531 41.1697 67.8423 47.6151 67.5135 48.7332C67.1846 49.8513 66.3297 49.917 66.1981 51.0351C66.0666 52.1532 66.9216 54.192 66.5927 54.7839C66.2639 55.3758 65.1458 55.7047 65.1458 55.7047C65.1458 55.7047 64.0935 58.8616 63.6331 59.9139C63.1727 60.9662 62.1204 61.3609 60.9366 61.2293C59.7527 61.0978 59.3581 60.9662 59.3581 60.9662C59.3581 60.9662 58.1892 65.5902 58.0577 66.2479C57.9262 66.9056 54.711 63.2949 54.711 63.2949C54.711 63.2949 53.965 62.6105 49.9531 61.1635C45.9412 59.7166 45.8754 59.322 46.0728 59.2562C46.2701 59.1905 48.1116 57.4805 48.3089 55.047C48.5062 52.6136 48.5062 51.8901 48.5062 51.8901C48.5062 51.8901 46.862 48.799 46.862 45.7078C46.862 42.6167 49.0981 39.9859 55.0831 39.1309C61.0681 38.2759 66.5269 40.3805 67.0531 41.1697Z" fill="white" stroke="#1F2723" stroke-width="0.8" stroke-linecap="round" stroke-linejoin="round"/>
<path d="M49.2297 35.5136C49.2297 35.5136 47.5197 35.2505 46.007 39.7228C44.4943 44.1951 45.8097 47.4836 46.6647 48.7332C47.5197 49.9828 47.717 50.5747 47.717 50.5747C47.717 50.5747 47.717 53.2713 47.9801 53.4028C48.2431 53.5343 49.2297 53.074 49.427 52.7451C49.6243 52.4163 48.3747 50.4432 48.7035 48.0755C49.0324 45.7078 50.8739 46.4313 51.2685 46.9575C51.6631 47.4836 51.8604 48.5359 51.8604 48.5359C51.8604 48.5359 53.2416 49.1936 53.702 49.1278C54.1624 49.0621 54.4254 47.6151 54.6227 47.5494C54.8201 47.4836 56.53 48.0098 57.1877 46.8917C57.8454 45.7736 57.7139 44.7213 57.7139 44.7213C57.7139 44.7213 58.3058 44.524 59.2923 43.9978C60.2789 43.4717 60.542 43.3401 60.542 43.3401L59.8843 45.3132C59.8843 45.3132 59.6869 45.5105 62.6466 44.8528C65.6062 44.1951 67.3162 42.0905 67.5135 39.6571C67.7108 37.2236 67.5135 38.0128 61.5285 34.7902C55.5435 31.5675 51.4658 32.0279 49.2297 35.5136Z" fill="#1F2723" stroke="#1F2723" stroke-width="0.8" stroke-linecap="round" stroke-linejoin="round"/>
<path d="M62.8439 50.9693C62.8439 51.4779 62.5641 51.8901 62.2191 51.8901C61.874 51.8901 61.5942 51.4779 61.5942 50.9693C61.5942 50.4608 61.874 50.0486 62.2191 50.0486C62.5641 50.0486 62.8439 50.4608 62.8439 50.9693Z" fill="#1F2723"/>
<path d="M60.7393 49.1936C60.7393 49.1936 61.8639 48.1004 64.326 49.4815" stroke="#1F2723" stroke-width="0.8" stroke-linecap="round" stroke-linejoin="round"/>
<path d="M65.1458 55.7047C65.1458 55.7047 63.7646 56.2309 63.2385 55.639" stroke="#1F2723" stroke-width="0.8" stroke-linecap="round" stroke-linejoin="round"/>
<path d="M60.1473 55.9678C60.1473 55.9678 60.7916 56.9705 62.7647 57.1678" stroke="#1F2723" stroke-width="0.8" stroke-linecap="round" stroke-linejoin="round"/>
<path d="M49.2954 51.7586C49.2954 51.7586 49.7558 53.0082 50.3477 53.2055C50.9397 53.4028 51.4001 53.0082 51.4001 53.0082C51.4001 53.0082 51.2027 55.0471 52.4523 56.3624C53.702 57.6778 54.6227 58.204 54.6227 58.204" stroke="#1F2723" stroke-width="0.8" stroke-linecap="round" stroke-linejoin="round"/>
<path d="M120.226 155.695C120.856 160.735 118.926 165.125 115.917 165.501C112.907 165.877 109.956 162.097 109.326 157.058C108.696 152.019 110.625 147.629 113.635 147.253C116.645 146.876 119.596 150.656 120.226 155.695Z" fill="#1F2723" stroke="#1F2723" stroke-width="0.8" stroke-linecap="round" stroke-linejoin="round"/>
<path d="M117.921 155.984C118.36 159.49 117.162 162.527 115.246 162.766C113.33 163.006 111.422 160.358 110.983 156.851C110.545 153.345 111.743 150.308 113.659 150.068C115.574 149.829 117.483 152.477 117.921 155.984Z" fill="white" stroke="#1F2723" stroke-width="0.8" stroke-linecap="round" stroke-linejoin="round"/>
<path d="M113.343 130.938L111.613 131.584L120.881 156.377L122.611 155.731L113.343 130.938Z" fill="#1F2723" stroke="#1F2723" stroke-width="0.8" stroke-linecap="round" stroke-linejoin="round"/>
<path d="M122.221 154.47C122.221 154.47 129.746 152.569 129.984 152.569C130.222 152.569 130.38 153.044 130.459 153.282C130.539 153.52 130.301 158.193 130.301 158.193L119.449 160.807L122.221 154.47Z" fill="#1F2723" stroke="#1F2723" stroke-width="0.8" stroke-linecap="round" stroke-linejoin="round"/>
<path d="M109.541 147.457L109.707 150.114C109.707 150.114 112.364 153.434 114.522 154.265C116.68 155.095 118.009 155.676 119.586 155.676C121.163 155.676 122.824 155.759 123.571 156.838C124.318 157.917 123.986 159.744 122.326 161.321C120.665 162.898 117.096 164.143 116.265 164.31C115.435 164.476 109.873 164.226 106.636 164.891C103.398 165.555 98.168 164.226 97.7529 163.313C97.3378 162.4 98.417 153.683 98.9151 153.102C99.4132 152.521 101.157 146.876 101.24 146.627C101.323 146.378 107.181 146.136 109.541 147.457Z" fill="white" stroke="#1F2723" stroke-width="0.8" stroke-linecap="round" stroke-linejoin="round"/>
<path d="M107.466 151.193C107.051 151.857 106.304 152.687 106.054 152.77C105.868 152.832 101.786 151.735 99.7364 151.177C99.3951 152.128 99.0837 152.906 98.9151 153.102C98.417 153.683 97.3378 162.4 97.7529 163.313C98.168 164.226 103.398 165.555 106.636 164.891C109.873 164.227 115.435 164.476 116.265 164.31C117.096 164.143 120.665 162.898 122.326 161.321C123.986 159.744 124.318 157.917 123.571 156.838C122.824 155.759 121.163 155.676 119.586 155.676C118.009 155.676 116.681 155.095 114.522 154.265C112.364 153.434 109.707 150.114 109.707 150.114C109.707 150.114 107.881 150.529 107.466 151.193Z" fill="white" stroke="#1F2723" stroke-width="0.8" stroke-linecap="round" stroke-linejoin="round"/>
<path d="M122.326 161.321C123.986 159.744 124.318 157.917 123.571 156.838C123.446 156.658 123.289 156.515 123.118 156.386L122.409 156.257C122.409 156.257 119.254 156.257 118.009 156.921C116.764 157.585 114.024 158.581 113.443 158.913C112.955 159.193 101.509 160.292 97.6669 161.966C97.6477 162.639 97.6704 163.132 97.7529 163.313C98.168 164.226 103.398 165.555 106.636 164.891C109.873 164.227 115.435 164.476 116.265 164.31C117.096 164.143 120.665 162.898 122.326 161.321Z" fill="#D1D1D1" stroke="#1F2723" stroke-width="0.8" stroke-linecap="round" stroke-linejoin="round"/>
<path d="M106.206 104.396C106.206 104.396 112.491 104.985 114.16 105.967C115.829 106.949 119.07 109.305 118.48 115.099C117.891 120.892 113.473 135.13 113.08 140.334C112.687 145.538 111.902 148.779 111.902 148.779C111.902 148.779 105.715 147.895 104.635 147.699C103.555 147.502 103.261 147.011 103.261 147.011C103.261 147.011 103.162 139.745 104.046 136.505C104.93 133.264 107.679 114.313 107.188 110.876C106.697 107.44 106.206 104.396 106.206 104.396Z" fill="#878787" stroke="#1F2723" stroke-width="0.8" stroke-linecap="round" stroke-linejoin="round"/>
<path d="M93.7681 146.378C93.7681 146.378 93.436 153.434 93.187 154.016C92.938 154.597 91.6927 155.593 91.1946 157.004C90.6965 158.415 89.4513 163.977 89.2853 164.309C89.1192 164.642 89.7834 165.887 91.1116 166.634C92.4399 167.381 93.187 167.464 93.7681 167.381C94.3492 167.298 103.232 164.808 105.058 164.642C106.885 164.475 110.377 164.095 111.866 163.147C114.605 161.404 114.273 158.332 113.775 157.17C113.277 156.008 105.971 155.344 105.473 155.344C104.975 155.344 102.983 152.687 102.319 151.774C101.655 150.861 101.406 150.031 101.406 150.031L101.489 147.872C101.489 147.872 98.7491 144.718 93.7681 146.378Z" fill="white" stroke="#1F2723" stroke-width="0.8" stroke-linecap="round" stroke-linejoin="round"/>
<path d="M89.2853 164.309C89.1192 164.642 89.7834 165.887 91.1116 166.634C92.4398 167.381 93.187 167.464 93.7681 167.381C94.3492 167.298 103.232 164.808 105.058 164.642C106.885 164.475 110.377 164.095 111.866 163.147C114.605 161.404 114.273 158.332 113.775 157.17C113.277 156.008 105.971 155.344 105.473 155.344C105.085 155.344 103.788 153.728 102.921 152.583L102.236 152.355H101.074C101.074 152.355 99.6622 151.359 98.5 151.691C97.3378 152.023 93.187 154.015 93.187 154.015C92.938 154.597 91.6928 155.593 91.1946 157.004C90.6965 158.415 89.4513 163.977 89.2853 164.309Z" fill="white" stroke="#1F2723" stroke-width="0.8" stroke-linecap="round" stroke-linejoin="round"/>
<path d="M114.001 157.927C112.757 157.095 110.638 156.581 108.96 156.755C106.553 157.004 98.1679 159.827 96.0926 161.404C94.0172 162.981 90.1154 163.894 90.1154 163.894L89.2982 164.277C89.2936 164.289 89.2889 164.302 89.2853 164.309C89.1192 164.642 89.7834 165.887 91.1116 166.634C92.4398 167.381 93.187 167.464 93.7681 167.381C94.3492 167.298 103.232 164.808 105.058 164.642C106.885 164.475 110.377 164.095 111.866 163.147C114.133 161.704 114.295 159.354 114.001 157.927Z" fill="#D1D1D1" stroke="#1F2723" stroke-width="0.8" stroke-linecap="round" stroke-linejoin="round"/>
<path d="M105.473 155.344C105.473 155.344 101.489 154.597 99.0811 156.091Z" fill="white"/>
<path d="M105.473 155.344C105.473 155.344 101.489 154.597 99.0811 156.091" stroke="#1F2723" stroke-width="0.8" stroke-linecap="round" stroke-linejoin="round"/>
<path d="M66.5368 99.6825C66.5368 99.6825 66.7441 99.6863 67.1233 99.6953C70.0653 99.7651 83.352 100.145 90.3975 101.45C98.3511 102.923 103.948 102.235 106.992 103.905C110.036 105.574 111.803 110.582 111.018 114.706C110.232 118.83 105.421 134.246 105.323 138.37C105.225 142.494 103.752 149.073 103.752 149.073L93.2451 148.19C93.2451 148.19 94.4234 136.112 94.4234 134.05C94.4234 131.988 94.227 119.419 94.227 119.419C94.227 119.419 77.9271 121.285 75.3741 121.285C72.8211 121.285 65.3584 121.088 64.7693 120.892C64.1801 120.696 61.038 111.466 61.038 107.243C61.038 107.243 60.8196 101.765 66.5368 99.6825Z" fill="#878787" stroke="#1F2723" stroke-width="0.8" stroke-linecap="round" stroke-linejoin="round"/>
<path d="M95.2831 114.751C95.6012 113.497 96.0154 112.205 96.4854 111.564C97.5656 110.091 102.082 108.225 102.082 108.225" stroke="#1F2723" stroke-width="0.8" stroke-linecap="round" stroke-linejoin="round"/>
<path d="M94.6198 117.946C94.6198 117.946 94.7412 117.187 94.9542 116.177" stroke="#1F2723" stroke-width="0.8" stroke-linecap="round" stroke-linejoin="round"/>
<path d="M100.708 107.243C100.708 107.243 97.5655 109.011 96.8782 109.894" stroke="#1F2723" stroke-width="0.8" stroke-linecap="round" stroke-linejoin="round"/>
<path d="M89.1885 106.585C91.1585 106.765 92.9505 106.875 94.227 106.851C99.333 106.752 100.02 106.556 100.02 106.556" stroke="#1F2723" stroke-width="0.8" stroke-linecap="round" stroke-linejoin="round"/>
<path d="M75.7668 104.887C75.7668 104.887 81.4784 105.769 86.8591 106.351" stroke="#1F2723" stroke-width="0.8" stroke-linecap="round" stroke-linejoin="round"/>
<path d="M103.555 107.832C103.555 107.832 104.341 107.538 104.635 108.913C104.635 108.913 102.573 109.796 102.082 109.993" stroke="#1F2723" stroke-width="0.8" stroke-linecap="round" stroke-linejoin="round"/>
<path d="M100.974 137.728C100.879 138.969 100.819 140.147 100.806 141.218" stroke="#1F2723" stroke-width="0.8" stroke-linecap="round" stroke-linejoin="round"/>
<path d="M104.144 110.876C104.439 111.171 105.225 110.975 105.225 111.957C105.225 112.939 104.635 114.215 104.341 115.59C104.046 116.964 103.752 118.634 103.752 118.634C103.752 118.634 102.022 127.4 101.213 135.126" stroke="#1F2723" stroke-width="0.8" stroke-linecap="round" stroke-linejoin="round"/>
<path d="M44.3708 59.0558C44.3708 59.0558 51.2298 65.1693 53.3918 68.897C55.5539 72.6246 59.0579 80.8256 60.1017 83.5095C61.1454 86.1935 63.8294 92.7542 64.2767 92.9779C64.724 93.2016 68.8245 95.7364 69.2718 96.3328C69.7191 96.9292 68.5263 99.6877 68.5263 102.819C68.5263 105.95 69.1227 106.845 69.1227 106.845L70.1665 115.941C70.1665 115.941 59.9526 115.568 52.1244 114.375C44.2962 113.182 39.8975 107.441 39.0029 103.788C38.1082 100.135 37.2136 93.4252 37.2136 93.4252C37.2136 93.4252 32.4421 80.5274 31.6966 79.3345C30.9511 78.1416 29.6836 76.2032 29.9073 73.7429C30.1309 71.2827 32.1439 67.2568 32.964 65.9894C33.7841 64.7219 38.0337 62.2617 38.4064 61.8889C38.7792 61.5161 38.1082 60.025 39.5993 59.2049C41.0904 58.3848 44.3708 59.0558 44.3708 59.0558Z" fill="#17AB49" stroke="#1F2723" stroke-width="0.8" stroke-linecap="round" stroke-linejoin="round"/>
<path d="M52.1249 78.6194C52.681 80.1928 53.2734 81.6094 54.0471 82.6859" stroke="#1F2723" stroke-width="0.8" stroke-linecap="round" stroke-linejoin="round"/>
<path d="M45.4505 65.8814C46.4512 66.756 47.4054 67.7691 48.1576 68.9103C49.7221 71.284 50.6452 74.1826 51.5256 76.8496" stroke="#1F2723" stroke-width="0.8" stroke-linecap="round" stroke-linejoin="round"/>
<path d="M39.3731 62.0225C39.3731 62.0225 41.1882 62.7916 43.2983 64.2273" stroke="#1F2723" stroke-width="0.8" stroke-linecap="round" stroke-linejoin="round"/>
<path d="M47.8557 95.252L69.5564 94.626C69.5564 94.626 69.5564 91.9134 68.3044 91.2874C67.0524 90.6615 49.7336 91.3918 49.7336 91.3918L47.8557 95.252Z" fill="#1F2723" stroke="#1F2723" stroke-width="0.8" stroke-linecap="round" stroke-linejoin="round"/>
<path d="M75.7087 70.807L71.0171 90.1726C71.0171 90.1726 80.4004 92.1691 85.1919 92.1691C89.9834 92.1691 94.0762 91.5702 94.0762 91.5702L99.5664 72.1047L89.085 73.4024L75.7087 70.807Z" fill="white" stroke="#1F2723" stroke-width="0.8" stroke-linecap="round" stroke-linejoin="round"/>
<path d="M87.4685 78.8385L83.6945 91.6699" stroke="#1F2723" stroke-width="0.8" stroke-linecap="round" stroke-linejoin="round"/>
<path d="M88.6857 74.7001L88.0222 76.9558" stroke="#1F2723" stroke-width="0.8" stroke-linecap="round" stroke-linejoin="round"/>
<path d="M99.2351 74.6966C99.2351 74.6966 96.9708 76.1375 96.6963 76.3433C96.4219 76.5492 95.8044 76.755 96.1474 77.3725C96.4905 77.9901 97.3825 77.9215 97.3825 77.9215C97.3825 77.9215 95.6671 78.4018 94.8437 78.7448C94.0203 79.0879 94.1576 79.6369 94.3634 79.9113C94.5693 80.1858 95.0495 80.2544 95.0495 80.2544C95.0495 80.2544 93.6086 80.6661 93.8831 81.3523C94.1576 82.0384 94.9123 82.0384 94.9123 82.0384C94.9123 82.0384 94.2948 83.2735 94.9123 83.5479C95.5299 83.8224 97.108 83.3421 98.4117 82.9304C99.7154 82.5187 100.264 80.7347 100.264 80.7347C100.264 80.7347 100.47 79.8427 100.539 79.2252L100.607 78.6076C100.607 78.6076 100.745 77.5784 100.607 77.0294C100.47 76.4806 100.676 77.0294 100.47 76.4806C100.264 75.9316 100.333 74.079 99.2351 74.6966Z" fill="white" stroke="#1F2723" stroke-width="0.8" stroke-linecap="round" stroke-linejoin="round"/>
<path d="M97.3825 77.9215L99.9213 76.755" stroke="#1F2723" stroke-width="0.8" stroke-linecap="round" stroke-linejoin="round"/>
<path d="M95.0496 80.2544C95.0496 80.2544 96.9022 79.9113 97.9314 79.6369C98.9607 79.3624 99.8526 78.6762 99.9899 78.4704" stroke="#1F2723" stroke-width="0.8" stroke-linecap="round" stroke-linejoin="round"/>
<path d="M94.9124 82.0384C94.9124 82.0384 97.0395 81.9012 97.8628 81.7639C98.6862 81.6267 99.1665 81.215 99.5096 80.8719" stroke="#1F2723" stroke-width="0.8" stroke-linecap="round" stroke-linejoin="round"/>
<path d="M35.4403 104.955L72.5819 104.642L73.2079 122.378L37.1096 122.169L35.4403 104.955Z" fill="#1F2723" stroke="#1F2723" stroke-width="0.8" stroke-linecap="round" stroke-linejoin="round"/>
<path d="M95.8211 166.063C94.6852 166.063 93.6346 165.314 93.3067 164.174C88.0201 145.739 83.9519 132.513 83.1416 131.119C82.4963 130.577 78.713 130.288 75.0015 130.512L74.8617 128.208C77.3936 128.055 83.4428 127.887 84.9236 129.646C85.8119 130.701 89.3792 142.103 95.5262 163.537C95.5722 163.697 95.7331 163.791 95.8982 163.743L106.225 160.875C106.839 160.704 107.476 161.064 107.646 161.679C107.817 162.293 107.457 162.929 106.843 163.1L96.516 165.968C96.2847 166.032 96.0511 166.063 95.8211 166.063Z" fill="#1F2723" stroke="#1F2723" stroke-width="0.8" stroke-linecap="round" stroke-linejoin="round"/>
<path d="M74.2498 96.7865C73.8778 93.6224 70.7346 92.3435 68.9056 91.8635C69.4582 92.7255 69.5418 94.1184 69.5541 94.5155C70.665 94.9842 71.8061 95.7725 71.9571 97.0562C72.3665 100.535 74.3141 150.42 74.3475 150.912L76.6508 150.756C76.5146 148.744 74.666 100.321 74.2498 96.7865Z" fill="#1F2723" stroke="#1F2723" stroke-width="0.8" stroke-linecap="round" stroke-linejoin="round"/>
<path d="M74.5841 144.183H73.2924C72.9 144.183 72.5819 144.501 72.5819 144.893V150.358C72.5819 150.751 72.9 151.069 73.2924 151.069H74.5841C74.9765 151.069 75.2945 150.751 75.2945 150.358V144.893C75.2945 144.501 74.9765 144.183 74.5841 144.183Z" fill="#1F2723" stroke="#1F2723" stroke-width="0.8" stroke-linecap="round" stroke-linejoin="round"/>
<path d="M79.5699 176.225C83.068 175.787 85.31 170.685 84.5778 164.829C83.8455 158.972 80.4161 154.579 76.9181 155.017C73.4201 155.454 71.178 160.556 71.9103 166.413C72.6426 172.269 76.0719 176.662 79.5699 176.225Z" fill="#1F2723" stroke="#1F2723" stroke-width="0.8" stroke-linecap="round" stroke-linejoin="round"/>
<path d="M78.7908 173.047C81.0174 172.768 82.4093 169.239 81.8998 165.164C81.3903 161.088 79.1722 158.01 76.9456 158.289C74.719 158.567 73.3271 162.097 73.8366 166.172C74.3462 170.247 76.5642 173.325 78.7908 173.047Z" fill="white" stroke="#1F2723" stroke-width="0.8" stroke-linecap="round" stroke-linejoin="round"/>
<path d="M73.821 150.991C73.821 150.991 70.9443 151.305 70.9443 151.828C70.9443 152.351 71.0489 158.837 71.3104 159.831C71.572 160.824 74.9716 166.944 75.1808 167.205C75.39 167.467 76.3315 167.362 76.4361 166.264C76.5407 165.165 75.3377 164.172 75.1285 163.753C74.9193 163.335 72.618 159.517 72.5657 158.994C72.5134 158.471 72.5657 154.234 72.8272 153.659C73.0887 153.083 75.3377 152.717 75.5993 152.77C75.8608 152.822 76.3094 155.072 76.3094 155.072L76.7189 155.014C77.0132 154.973 77.3103 154.954 77.6074 154.958L78.1621 154.966C78.1621 154.966 78.0052 152.613 77.6914 151.724C77.3776 150.834 77.3253 150.416 73.821 150.991Z" fill="#878787" stroke="#1F2723" stroke-width="0.8" stroke-linecap="round" stroke-linejoin="round"/>
<path d="M75.5992 152.77C75.5992 152.77 77.0115 152.508 77.3776 152.717C77.7437 152.927 77.6914 154.443 77.6914 154.443" stroke="#1F2723" stroke-width="0.8" stroke-linecap="round" stroke-linejoin="round"/>
<path d="M102.497 161.837L102.893 164.372H117.072L117.152 165.401L98.3783 168.649L94.9722 168.887L93.4672 164.609L102.497 161.837Z" fill="white" stroke="#1F2723" stroke-width="0.8" stroke-linecap="round" stroke-linejoin="round"/>
<path d="M94.9722 168.887L103.289 165.322L117.152 165.401L98.3783 168.649L94.9722 168.887Z" fill="#1F2723" stroke="#1F2723" stroke-width="0.8" stroke-linecap="round" stroke-linejoin="round"/>
<path d="M59.5951 132.599C56.3969 115.268 43.3496 103.148 30.4529 105.528C17.5563 107.908 9.69415 123.886 12.8923 141.217C16.0905 158.548 29.1379 170.668 42.0345 168.288C54.9311 165.908 62.7933 149.93 59.5951 132.599ZM40.6534 164.809C29.6357 166.842 18.4097 156.057 15.5796 140.721C12.7495 125.385 19.3869 111.304 30.4047 109.271C41.4225 107.238 52.6484 118.022 55.4785 133.358C58.3086 148.695 51.6712 162.776 40.6534 164.809Z" fill="#1F2723" stroke="#1F2723" stroke-width="0.8" stroke-linecap="round" stroke-linejoin="round"/>
<path d="M55.5781 133.876C52.6753 118.221 40.8331 107.274 29.1277 109.423C17.4224 111.573 10.2865 126.006 13.1892 141.66C16.0919 157.315 27.9341 168.262 39.6395 166.113C51.3449 163.963 58.4808 149.53 55.5781 133.876ZM38.8668 164.126C28.1506 166.047 17.2319 155.857 14.4793 141.366C11.7266 126.874 18.1824 113.569 28.8986 111.648C39.6148 109.727 50.5334 119.917 53.2861 134.409C56.0387 148.9 49.583 162.205 38.8668 164.126Z" fill="white" stroke="#1F2723" stroke-width="0.8" stroke-linecap="round" stroke-linejoin="round"/>
<path d="M35.5859 137.708C35.5859 138.926 34.8458 139.912 33.9327 139.912C33.0197 139.912 32.2796 138.926 32.2796 137.708C32.2796 136.491 33.0198 135.504 33.9327 135.504C34.8457 135.504 35.5859 136.491 35.5859 137.708Z" fill="#1F2723" stroke="#1F2723" stroke-width="0.8" stroke-linecap="round" stroke-linejoin="round"/>
<path d="M41.3839 84.2531C38.2989 83.4452 34.3072 85.2418 33.4859 88.4301" stroke="#1F2723" stroke-width="0.8" stroke-linecap="round" stroke-linejoin="round"/>
<path d="M44.2962 85.5225C44.2962 85.5225 43.7215 85.2131 42.8784 84.8324" stroke="#1F2723" stroke-width="0.8" stroke-linecap="round" stroke-linejoin="round"/>
<path d="M37.139 85.2988C37.139 85.2988 35.2006 85.9698 34.3805 89.1757" stroke="#1F2723" stroke-width="0.8" stroke-linecap="round" stroke-linejoin="round"/>
<path d="M54.5101 85.8207C54.5101 85.8207 53.8391 88.1319 55.6284 90.9649" stroke="#1F2723" stroke-width="0.8" stroke-linecap="round" stroke-linejoin="round"/>
<path d="M61.22 83.435C61.22 83.435 68.6008 79.1108 68.9736 78.8872C69.3464 78.6635 70.0919 78.3653 71.583 78.589C73.0741 78.8126 75.4598 78.6635 75.9071 79.1854C76.3544 79.7073 77.3982 80.602 77.5473 81.1984C77.6964 81.7948 77.3982 82.093 76.8763 81.9439C76.3544 81.7948 75.6834 81.1984 75.2361 81.0493C74.7888 80.9002 72.0303 80.9747 72.0303 80.9747C72.0303 80.9747 75.4598 82.093 75.758 82.3167C76.0562 82.5403 77.2491 84.0314 77.1 84.5533C76.9508 85.0752 76.1308 84.9261 75.758 84.9261H75.3852C75.3852 84.9261 75.2361 86.2681 74.8634 86.4172C74.4906 86.5663 73.2977 86.6408 73.2977 86.6408C73.2977 86.6408 73.2977 87.1627 72.4776 87.5355C71.6575 87.9082 70.3156 87.8337 69.8682 87.9828C69.4209 88.1319 68.3771 88.6538 66.9606 88.8775C65.5441 89.1011 63.6057 88.2064 63.6057 88.2064L62.1146 88.0573L61.22 83.435Z" fill="white" stroke="#1F2723" stroke-width="0.8" stroke-linecap="round" stroke-linejoin="round"/>
<path d="M71.1357 83.5841C71.1357 83.5841 72.7759 83.435 73.4468 83.6586C74.1178 83.8823 75.3853 84.926 75.3853 84.926" stroke="#1F2723" stroke-width="0.8" stroke-linecap="round" stroke-linejoin="round"/>
<path d="M73.2977 86.6408C73.2977 86.6408 72.0303 85.5225 70.8374 85.6716" stroke="#1F2723" stroke-width="0.8" stroke-linecap="round" stroke-linejoin="round"/>
<path d="M157.507 86.2528C157.507 86.2528 158.731 87.6652 157.507 89.36H175.02L175.679 87.6652L174.832 86.1587L157.507 86.2528Z" fill="white" stroke="#1F2723" stroke-width="0.8" stroke-linecap="round" stroke-linejoin="round"/>
<path d="M175.02 89.2834V86.4412H158.866V85.7318H181.929C183.105 85.7318 184.059 86.6856 184.059 87.8623C184.059 89.039 183.105 89.9929 181.929 89.9929H158.866V89.2834H175.02Z" fill="#17AB49" stroke="#1F2723" stroke-width="0.8" stroke-linecap="round" stroke-linejoin="round"/>
<path d="M175.02 87.8623C175.02 87.0775 174.384 86.4412 173.599 86.4412H156.66V85.7318H174C175.129 85.7318 176.044 86.6466 176.044 87.7752C176.044 88.9999 175.051 89.9929 173.826 89.9929H156.66V89.2834H173.599C174.384 89.2834 175.02 88.6472 175.02 87.8623Z" fill="#17AB49" stroke="#1F2723" stroke-width="0.8" stroke-linecap="round" stroke-linejoin="round"/>
<path d="M156.079 82.0318C156.079 82.0318 157.303 83.4442 156.079 85.139H173.592L174.251 83.4442L173.403 81.9377L156.079 82.0318Z" fill="white" stroke="#1F2723" stroke-width="0.8" stroke-linecap="round" stroke-linejoin="round"/>
<path d="M173.592 85.0623V82.2201H157.438V81.5107H180.5C181.677 81.5107 182.631 82.4646 182.631 83.6412C182.631 84.8179 181.677 85.7718 180.5 85.7718H157.438V85.0623H173.592Z" fill="#17AB49" stroke="#1F2723" stroke-width="0.8" stroke-linecap="round" stroke-linejoin="round"/>
<path d="M173.592 83.6412C173.592 82.8564 172.955 82.2201 172.171 82.2201H155.231V81.5107H172.572C173.7 81.5107 174.615 82.4255 174.615 83.5541C174.615 84.7789 173.622 85.7718 172.397 85.7718H155.231V85.0623H172.171C172.955 85.0623 173.592 84.4261 173.592 83.6412Z" fill="#17AB49" stroke="#1F2723" stroke-width="0.8" stroke-linecap="round" stroke-linejoin="round"/>
<path d="M181.911 77.9592C181.911 77.9592 180.686 79.3716 181.911 81.0664H164.397L163.738 79.3716L164.586 77.8651L181.911 77.9592Z" fill="white" stroke="#1F2723" stroke-width="0.8" stroke-linecap="round" stroke-linejoin="round"/>
<path d="M164.397 80.9898V78.1476H180.551V77.4381H157.489C156.312 77.4381 155.358 78.392 155.358 79.5687C155.358 80.7453 156.312 81.6992 157.489 81.6992H180.551V80.9898H164.397Z" fill="#17AB49" stroke="#1F2723" stroke-width="0.8" stroke-linecap="round" stroke-linejoin="round"/>
<path d="M164.397 79.5687C164.397 78.7838 165.034 78.1476 165.818 78.1476H182.758V77.4381H165.417C164.289 77.4381 163.374 78.353 163.374 79.4815C163.374 80.7063 164.367 81.6992 165.592 81.6992H182.758V80.9898H165.818C165.034 80.9898 164.397 80.3535 164.397 79.5687Z" fill="#17AB49" stroke="#1F2723" stroke-width="0.8" stroke-linecap="round" stroke-linejoin="round"/>
<path d="M155.558 89.187H103.184V90.1613H155.558V89.187Z" fill="#878787" stroke="#1F2723" stroke-width="0.8" stroke-linecap="round" stroke-linejoin="round"/>
<path d="M155.558 90.1613H122.178L124.937 66.5753H158.317L155.558 90.1613Z" fill="#878787" stroke="#1F2723" stroke-width="0.8" stroke-linecap="round" stroke-linejoin="round"/>
<path d="M155.558 90.1613L157.883 70.2883C157.009 72.1576 155.028 74.6619 150.724 77.641C142.83 83.1063 130.84 84.8025 124.44 90.1613H155.558Z" fill="#1F2723" stroke="#1F2723" stroke-width="0.8" stroke-linecap="round" stroke-linejoin="round"/>
<path d="M133.064 183.245L130.656 183.97L128.507 183.495V92.1691H133.064V183.245Z" fill="#1F2723" stroke="#1F2723" stroke-width="0.8" stroke-linecap="round" stroke-linejoin="round"/>
<path d="M128.507 92.1691V183.495L130.656 183.97V92.1691H128.507Z" fill="white" stroke="#1F2723" stroke-width="0.8" stroke-linecap="round" stroke-linejoin="round"/>
<path d="M96.1985 177.56L93.7902 178.284L91.6415 177.809V92.1691H96.1985V177.56Z" fill="#1F2723" stroke="#1F2723" stroke-width="0.8" stroke-linecap="round" stroke-linejoin="round"/>
<path d="M91.6415 92.1691V177.809L93.7902 178.284V92.1691H91.6415Z" fill="white" stroke="#1F2723" stroke-width="0.8" stroke-linecap="round" stroke-linejoin="round"/>
<path d="M187.197 168.759L184.789 169.483L182.64 169.008V92.1691H187.197V168.759Z" fill="#1F2723" stroke="#1F2723" stroke-width="0.8" stroke-linecap="round" stroke-linejoin="round"/>
<path d="M182.64 92.1691V169.008L184.789 169.483V92.1691H182.64Z" fill="white" stroke="#1F2723" stroke-width="0.8" stroke-linecap="round" stroke-linejoin="round"/>
<path d="M141.428 165.314L139.02 166.038L136.871 165.563V92.1691H141.428V165.314Z" fill="#1F2723" stroke="#1F2723" stroke-width="0.8" stroke-linecap="round" stroke-linejoin="round"/>
<path d="M136.871 92.1691V165.563L139.02 166.038V92.1691H136.871Z" fill="white" stroke="#1F2723" stroke-width="0.8" stroke-linecap="round" stroke-linejoin="round"/>
<path d="M189.906 92.8684H89.3983V97.2809H189.906V92.8684Z" fill="white" stroke="#1F2723" stroke-width="0.8" stroke-linecap="round" stroke-linejoin="round"/>
<path d="M189.906 92.8684H131.003V97.2809H189.906V92.8684Z" fill="#1F2723" stroke="#1F2723" stroke-width="0.8" stroke-linecap="round" stroke-linejoin="round"/>
<path d="M195.599 90.0811H82.9738V93.2495H195.599V90.0811Z" fill="white" stroke="#1F2723" stroke-width="0.8" stroke-linecap="round" stroke-linejoin="round"/>
<path d="M195.599 90.0811H134.68V93.2495H195.599V90.0811Z" fill="#878787" stroke="#1F2723" stroke-width="0.8" stroke-linecap="round" stroke-linejoin="round"/>
<path d="M54.1057 137.02C54.1057 137.02 44.2619 137.02 40.9806 139.402C37.6994 141.784 37.9976 151.014 37.9976 153.396C37.9976 155.778 35.0147 162.031 32.9266 170.07C30.8385 178.109 32.6283 180.193 34.1198 181.087C35.6113 181.98 43.9636 185.553 46.9466 185.553C49.9296 185.553 62.7563 185.255 64.2478 184.66C65.7393 184.064 69.6172 180.789 69.3189 175.429C69.0206 170.07 68.4239 155.48 66.9324 150.716C65.441 145.952 64.5461 143.272 62.458 141.188C60.3699 139.104 57.387 136.126 54.1057 137.02Z" fill="#878787" stroke="#1F2723" stroke-width="0.8" stroke-linecap="round" stroke-linejoin="round"/>
<path d="M69.3188 175.429C69.0206 170.07 68.424 155.48 66.9325 150.716C65.441 145.952 64.5461 143.272 62.458 141.188C60.3699 139.104 57.387 136.126 54.1057 137.02C54.1057 137.02 48.1473 137.02 43.9566 138.142C46.4617 138.13 51.9165 138.146 53.2135 138.491C54.9114 138.943 57.2669 138.886 59.7787 142.897C62.0426 146.513 60.3447 152.162 60.3447 160.862C60.3447 169.562 61.3634 176.454 61.0238 177.81C60.6843 179.166 61.5898 182.668 60.4578 183.572C59.687 184.188 56.3444 184.908 53.8252 185.412C58.3252 185.269 63.3481 185.019 64.2478 184.66C65.7393 184.064 69.6171 180.789 69.3188 175.429Z" fill="#17AB49" stroke="#1F2723" stroke-width="0.8" stroke-linecap="round" stroke-linejoin="round"/>
<path d="M50.3837 138.265C50.3837 138.265 45.4031 172.726 44.724 176.68C44.0448 180.635 44.4976 184.589 45.1767 185.267C45.8559 185.945 53.1918 184.879 53.8252 185.412C54.4587 185.945 56.4961 185.38 55.251 185.154C54.0059 184.928 49.2517 182.442 49.2517 182.442C49.2517 182.442 53.8927 143.462 54.2323 142.332C54.5718 141.203 55.251 139.96 54.7982 139.282C54.3455 138.604 52.5344 137.135 50.3837 138.265Z" fill="#1F2723" stroke="#1F2723" stroke-width="0.8" stroke-linecap="round" stroke-linejoin="round"/>
<path d="M43.9566 138.142C43.9566 138.142 33.7442 153.744 30.3484 157.811C26.9526 161.879 28.6505 178.714 28.9901 179.844C29.3297 180.974 40.7622 184.702 41.1018 184.363C41.4414 184.024 33.2914 179.279 32.4991 178.262C31.7067 177.245 31.8199 164.704 34.4234 159.619C37.0268 154.535 44.6108 143.462 45.5163 141.315C46.4219 139.169 46.7615 138.265 46.7615 138.265L43.9566 138.142Z" fill="#1F2723" stroke="#1F2723" stroke-width="0.8" stroke-linecap="round" stroke-linejoin="round"/>
<path d="M68.721 162.218C68.721 162.218 67.3627 162.896 65.8912 163.348C64.4197 163.8 62.9482 164.252 62.9482 164.252L62.835 167.302L69.287 165.382C69.287 165.382 68.9474 163.687 68.721 162.218Z" fill="#17AB49" stroke="#1F2723" stroke-width="0.8" stroke-linecap="round" stroke-linejoin="round"/>
<path d="M56.7225 137.7C56.7225 137.7 60.7975 139.508 62.3822 141.993C63.9669 144.479 65.212 149.789 65.212 151.71C65.212 153.631 65.4384 158.489 65.4384 158.489L63.4009 159.506" stroke="#1F2723" stroke-width="0.8" stroke-linecap="round" stroke-linejoin="round"/>
</svg>
