<svg width="200" height="200" viewBox="0 0 200 200" fill="none" xmlns="http://www.w3.org/2000/svg">
<g opacity="0.12">
<path d="M63.9949 74.6524C62.7163 72.7366 65.2694 71.446 64.6321 67.6225C63.9949 63.799 60.7966 66.6646 58.5601 64.1076C56.3237 61.5505 59.8387 59.6347 59.2014 56.4404C58.5641 53.2461 53.7707 54.8373 53.1294 51.9676C52.4882 49.098 54.408 42.0641 47.3621 39.8397C40.3162 37.6153 32.6651 41.1142 32.6651 41.1142L32.4887 42.9578V84.5719H67.2092C67.1892 84.2152 67.1731 83.8745 67.1731 83.598C67.1731 82.3195 69.0889 80.7243 69.0889 77.8467C69.0889 74.969 65.2694 76.5681 63.9949 74.6524Z" fill="#1F2723"/>
<path opacity="0.93" d="M63.9949 74.6524C62.7163 72.7366 65.2694 71.446 64.6321 67.6225C63.9949 63.799 60.7966 66.6646 58.5601 64.1076C56.3237 61.5505 59.8387 59.6347 59.2014 56.4404C58.5641 53.2461 53.7707 54.8373 53.1294 51.9676C52.4882 49.098 54.408 42.0641 47.3621 39.8397C40.3162 37.6153 32.6651 41.1142 32.6651 41.1142L32.4887 42.9578V84.5719H67.2092C67.1892 84.2152 67.1731 83.8745 67.1731 83.598C67.1731 82.3195 69.0889 80.7243 69.0889 77.8467C69.0889 74.969 65.2694 76.5681 63.9949 74.6524Z" fill="white"/>
<path d="M80.5879 26.2125H32.5051V84.5717H80.5879V26.2125Z" stroke="#1F2723" stroke-width="0.8" stroke-linecap="round" stroke-linejoin="round"/>
<path d="M63.6746 47.7752L48.4325 68.2276" stroke="#1F2723" stroke-width="0.8" stroke-linecap="round" stroke-linejoin="round"/>
<path d="M76.1912 30.9821L66.5723 43.8876" stroke="#1F2723" stroke-width="0.8" stroke-linecap="round" stroke-linejoin="round"/>
<path d="M42.8012 68.6642L41.0537 71.0409" stroke="#1F2723" stroke-width="0.8" stroke-linecap="round" stroke-linejoin="round"/>
<path d="M54.7568 52.4163L44.8011 65.943" stroke="#1F2723" stroke-width="0.8" stroke-linecap="round" stroke-linejoin="round"/>
<path d="M38.0961 36.7773L36.4849 38.7132" stroke="#1F2723" stroke-width="0.8" stroke-linecap="round" stroke-linejoin="round"/>
<path d="M45.2703 28.1724L40.6332 33.7354" stroke="#1F2723" stroke-width="0.8" stroke-linecap="round" stroke-linejoin="round"/>
</g>
<path d="M52.2156 105.325H45.6386L46.9572 99.1608H50.901L52.2156 105.325Z" fill="#8A8A8A" stroke="#1F2723" stroke-width="0.8" stroke-linecap="round" stroke-linejoin="round"/>
<path d="M67.013 105.325H60.436L61.7506 99.1608H65.6984L67.013 105.325Z" fill="#8A8A8A" stroke="#1F2723" stroke-width="0.8" stroke-linecap="round" stroke-linejoin="round"/>
<path d="M56.5323 106.772C56.3702 106.772 56.2097 106.74 56.06 106.678C55.9102 106.616 55.7741 106.525 55.6595 106.41C55.5448 106.295 55.4539 106.159 55.3919 106.01C55.3298 105.86 55.2979 105.699 55.2979 105.537V94.8442C55.2979 93.2635 55.9258 91.7476 57.0435 90.63C58.1612 89.5123 59.677 88.8844 61.2577 88.8844C62.8383 88.8844 64.3542 89.5123 65.4719 90.63C66.5895 91.7476 67.2174 93.2635 67.2174 94.8442V98.7559C67.1995 99.0706 67.0618 99.3665 66.8326 99.583C66.6035 99.7994 66.3002 99.92 65.985 99.92C65.6698 99.92 65.3665 99.7994 65.1373 99.583C64.9082 99.3665 64.7705 99.0706 64.7526 98.7559V94.8482C64.7219 93.9423 64.3404 93.0837 63.6887 92.4537C63.037 91.8238 62.1661 91.4716 61.2597 91.4716C60.3533 91.4716 59.4823 91.8238 58.8306 92.4537C58.1789 93.0837 57.7975 93.9423 57.7668 94.8482V105.529C57.7678 105.692 57.7367 105.853 57.6751 106.004C57.6136 106.155 57.5228 106.292 57.4081 106.407C57.2933 106.523 57.1569 106.614 57.0066 106.677C56.8563 106.739 56.6951 106.772 56.5323 106.772Z" fill="#8A8A8A" stroke="#1F2723" stroke-width="0.8" stroke-linecap="round" stroke-linejoin="round"/>
<path d="M94.6153 104.231H25.022V188.345H94.6153V104.231Z" fill="white" stroke="#1F2723" stroke-width="0.8" stroke-linecap="round" stroke-linejoin="round"/>
<path d="M94.6153 104.231H43.9273V188.345H94.6153V104.231Z" fill="white" stroke="#1F2723" stroke-width="0.8" stroke-linecap="round" stroke-linejoin="round"/>
<path d="M95.986 104.231H25.022V107.517H95.986V104.231Z" fill="white" stroke="#1F2723" stroke-width="0.8" stroke-linecap="round" stroke-linejoin="round"/>
<path d="M95.986 104.231H44.3V107.517H95.986V104.231Z" fill="white" stroke="#1F2723" stroke-width="0.8" stroke-linecap="round" stroke-linejoin="round"/>
<path d="M91.8777 109.982H46.6685V124.503H91.8777V109.982Z" fill="white" stroke="#1F2723" stroke-width="0.8" stroke-linecap="round" stroke-linejoin="round"/>
<path d="M74.4152 116.214H63.8584V117.998H74.4152V116.214Z" fill="#1F2723" stroke="#1F2723" stroke-width="0.8" stroke-linecap="round" stroke-linejoin="round"/>
<path d="M91.8777 129.437H46.6685V143.957H91.8777V129.437Z" fill="white" stroke="#1F2723" stroke-width="0.8" stroke-linecap="round" stroke-linejoin="round"/>
<path d="M74.4152 135.669H63.8584V137.452H74.4152V135.669Z" fill="#1F2723" stroke="#1F2723" stroke-width="0.8" stroke-linecap="round" stroke-linejoin="round"/>
<path d="M91.8777 148.891H46.6685V163.411H91.8777V148.891Z" fill="white" stroke="#1F2723" stroke-width="0.8" stroke-linecap="round" stroke-linejoin="round"/>
<path d="M74.4152 155.123H63.8584V156.907H74.4152V155.123Z" fill="#1F2723" stroke="#1F2723" stroke-width="0.8" stroke-linecap="round" stroke-linejoin="round"/>
<path d="M91.8777 168.341H46.6685V182.862H91.8777V168.341Z" fill="white" stroke="#1F2723" stroke-width="0.8" stroke-linecap="round" stroke-linejoin="round"/>
<path d="M74.4152 174.574H63.8584V176.357H74.4152V174.574Z" fill="#1F2723" stroke="#1F2723" stroke-width="0.8" stroke-linecap="round" stroke-linejoin="round"/>
<path d="M7.43127 188.345H179.627" stroke="#1F2723" stroke-width="0.8" stroke-linecap="round" stroke-linejoin="round"/>
<path d="M16.329 150.935C16.2589 150.61 16.1568 150.293 16.0244 149.989C15.8858 149.644 15.7279 149.307 15.5515 148.979C15.2432 148.417 14.8907 147.881 14.4974 147.376C14.4831 147.361 14.4643 147.351 14.4438 147.347C14.4233 147.344 14.4022 147.347 14.3837 147.356C14.3652 147.366 14.3503 147.381 14.3412 147.4C14.332 147.418 14.3292 147.44 14.3331 147.46C14.3892 147.672 14.4574 147.957 14.5375 148.262C14.6177 148.566 14.6818 148.955 14.7539 149.32C14.9102 150.045 15.0145 150.819 15.1547 151.368L15.3912 152.322C15.4555 152.578 15.5331 152.831 15.6237 153.079L14.8982 152.462C14.6658 152.249 14.4052 152.061 14.1608 151.865C14.2907 151.535 14.3267 151.176 14.265 150.827C14.1932 150.227 14.0395 149.641 13.8081 149.083C13.6734 148.776 13.5181 148.479 13.3432 148.193C13.1379 147.875 12.9159 147.567 12.6778 147.272C12.2635 146.762 11.8048 146.29 11.3071 145.861C11.2904 145.848 11.2699 145.841 11.2486 145.84C11.2274 145.84 11.2067 145.847 11.1898 145.86C11.1729 145.873 11.1607 145.891 11.1551 145.911C11.1495 145.932 11.1508 145.953 11.1588 145.973C11.259 146.177 11.3913 146.446 11.5276 146.751L11.9524 147.753C12.2169 148.45 12.4975 149.175 12.7059 149.72C12.8422 150.049 12.9744 150.354 13.1067 150.618C13.2389 150.883 13.3432 151.139 13.4514 151.34L12.8742 150.939L12.273 150.582C12.2411 150.46 12.1822 150.346 12.1007 150.249C11.9798 150.104 11.8456 149.97 11.6999 149.849C11.2809 149.53 10.8143 149.28 10.3172 149.107C9.72347 148.928 9.10552 148.843 8.48557 148.855C7.94681 148.841 7.40841 148.894 6.88241 149.011C6.80225 149.031 6.81027 149.175 6.88241 149.195C7.3633 149.346 7.8356 149.522 8.2972 149.724C8.84628 149.949 9.40739 150.229 9.86028 150.386C10.7981 150.73 11.6478 150.951 12.0526 150.883L12.6498 151.235C12.8422 151.356 13.0506 151.492 13.2229 151.636C12.9743 151.606 12.7237 151.596 12.4734 151.604C12.176 151.626 11.8802 151.666 11.5877 151.724C11.298 151.787 11.0149 151.877 10.742 151.993C10.4393 152.113 10.1459 152.255 9.86429 152.418C9.57973 152.582 9.31922 152.75 9.09477 152.911C8.87033 153.071 8.69398 153.231 8.54569 153.348C8.48557 153.4 8.48557 153.532 8.54569 153.512C8.81823 153.428 9.28314 153.328 9.8202 153.223L10.6538 153.075C10.9304 153.035 11.2069 152.991 11.4554 152.935C12.0205 152.811 12.5616 152.702 13.0145 152.562C13.3506 152.492 13.6695 152.356 13.9524 152.161C14.1888 152.354 14.4373 152.53 14.6618 152.734L15.3391 153.352C15.0958 153.286 14.848 153.239 14.5976 153.211C14.3014 153.172 14.0021 153.161 13.7039 153.179C13.0759 153.217 12.4566 153.344 11.8642 153.556C11.5742 153.651 11.2893 153.761 11.0106 153.885C10.75 154.005 10.5336 154.117 10.3693 154.205C10.2971 154.245 10.2731 154.374 10.3412 154.37C10.6418 154.342 11.1428 154.346 11.6919 154.342C11.9765 154.342 12.261 154.342 12.5536 154.342H13.3832C13.9564 154.342 14.5335 154.277 14.9864 154.229C15.3302 154.217 15.6676 154.133 15.9763 153.981C16.4092 154.41 16.7779 154.887 17.1787 155.356C16.6659 155.147 16.1262 155.012 15.5756 154.955C14.9453 154.903 14.311 154.931 13.6878 155.039C13.1453 155.129 12.6097 155.256 12.0847 155.42C12.0045 155.448 11.9644 155.572 12.0326 155.576L13.4033 155.796C13.9483 155.917 14.6056 156.009 15.0946 156.081C15.6263 156.15 16.1616 156.187 16.6978 156.193C17.0402 156.227 17.386 156.188 17.7118 156.077L18.2568 156.814L18.7659 157.58C18.2778 157.313 17.7542 157.117 17.2108 156.999C16.5859 156.862 15.9465 156.802 15.307 156.822C14.7531 156.835 14.2003 156.881 13.6518 156.959C13.5636 156.959 13.5115 157.087 13.5796 157.111C13.8722 157.211 14.3812 157.372 14.9343 157.54C15.4847 157.747 16.0468 157.923 16.6176 158.065C17.1449 158.2 17.6804 158.3 18.2208 158.366C18.5604 158.431 18.9099 158.424 19.2468 158.345L19.7077 159.147L20.1366 159.949C19.6793 159.633 19.1783 159.386 18.6496 159.215C18.0417 159.016 17.4118 158.893 16.7739 158.846C16.2146 158.791 15.6526 158.768 15.0906 158.778C15.0024 158.778 14.9343 158.895 15.0024 158.923C15.311 159.055 15.78 159.291 16.3331 159.532C16.8553 159.787 17.3904 160.014 17.9362 160.213C18.4466 160.401 18.9687 160.555 19.4993 160.674C19.8281 160.777 20.1753 160.809 20.5173 160.766C20.7818 161.319 21.0023 161.888 21.2267 162.458C20.8055 162.095 20.3361 161.793 19.832 161.56C19.2472 161.304 18.6355 161.116 18.0084 160.999C17.4594 160.886 16.9039 160.808 16.3451 160.766C16.2569 160.766 16.1767 160.866 16.2449 160.903C16.5334 161.059 16.9743 161.339 17.4953 161.632C18.0164 161.925 18.5614 162.249 19.0183 162.478C20.0965 162.975 21.1065 163.379 21.5273 163.311L21.7918 164.189L22.0203 165.075C21.6484 164.664 21.2191 164.309 20.7458 164.021C20.1988 163.699 19.6164 163.442 19.0103 163.255C18.4834 163.093 17.9482 162.96 17.4072 162.854C17.323 162.854 17.2308 162.931 17.2869 162.975C17.5314 163.167 17.9843 163.476 18.4372 163.828C18.8901 164.181 19.4071 164.558 19.852 164.83C20.846 165.447 21.8078 165.973 22.2207 165.969C22.3325 166.564 22.4048 167.167 22.4371 167.772C22.4371 167.844 22.5172 167.9 22.6174 167.904C22.6388 167.907 22.6604 167.904 22.681 167.898C22.7015 167.892 22.7206 167.881 22.737 167.868C22.7535 167.854 22.767 167.837 22.7768 167.818C22.7865 167.798 22.7923 167.777 22.7938 167.756C22.7626 167.135 22.689 166.516 22.5734 165.904C22.9742 165.796 23.6916 164.914 24.1765 163.636C24.4062 162.988 24.5596 162.315 24.6334 161.632C24.7062 161.024 24.7437 160.413 24.7456 159.8C24.745 159.778 24.7366 159.758 24.722 159.741C24.7073 159.725 24.6874 159.715 24.6657 159.712C24.644 159.709 24.622 159.714 24.6036 159.726C24.5852 159.737 24.5716 159.755 24.5653 159.776L23.7918 161.48C23.4671 162.153 23.1545 162.83 22.9381 163.363C22.7201 163.91 22.5354 164.47 22.385 165.039C22.3128 164.73 22.2287 164.425 22.1485 164.117L21.876 163.207C22.1656 163.005 22.3944 162.728 22.5373 162.405C22.8246 161.886 23.0416 161.331 23.1826 160.754C23.3363 160.086 23.4143 159.403 23.415 158.718C23.4153 158.113 23.3832 157.508 23.3188 156.907C23.3188 156.814 23.1705 156.814 23.1385 156.907C23.0182 157.307 22.7818 157.989 22.5533 158.678C22.3249 159.367 22.1125 160.077 21.9762 160.626C21.8212 161.193 21.706 161.77 21.6315 162.353C21.4031 161.764 21.1706 161.175 20.8981 160.602C21.1633 160.369 21.3624 160.071 21.4752 159.736C21.6915 159.185 21.8448 158.611 21.9321 158.025C22.0026 157.351 22.0026 156.671 21.9321 155.997C21.8724 155.398 21.7814 154.803 21.6596 154.213C21.6395 154.121 21.4992 154.137 21.4792 154.233C21.399 154.634 21.2347 155.34 21.0784 156.049C20.9221 156.758 20.7458 157.496 20.6776 158.053C20.5888 158.634 20.5379 159.221 20.5253 159.808L20.0844 158.967L19.6035 158.165C19.8416 157.906 20.0063 157.588 20.0804 157.243C20.2377 156.674 20.3317 156.09 20.361 155.5C20.3617 154.827 20.2973 154.156 20.1686 153.496C20.0123 152.795 19.8119 152.129 19.6797 151.72C19.6516 151.624 19.5073 151.656 19.5033 151.752L19.3069 153.6C19.2468 154.326 19.1145 155.083 19.1025 155.64C19.0734 156.227 19.0828 156.814 19.1306 157.4L18.6055 156.598L18.0404 155.833C18.2565 155.553 18.3948 155.221 18.4412 154.871C18.5371 154.284 18.564 153.688 18.5214 153.095C18.4465 152.411 18.2904 151.738 18.0565 151.091C17.8379 150.504 17.5877 149.928 17.307 149.368C17.2954 149.35 17.2785 149.337 17.2588 149.33C17.239 149.323 17.2175 149.323 17.1976 149.329C17.1777 149.336 17.1603 149.348 17.1482 149.365C17.1362 149.382 17.13 149.403 17.1306 149.424C17.1667 149.865 17.1907 150.594 17.2228 151.328C17.2549 152.061 17.2228 152.843 17.2909 153.4C17.3274 153.989 17.4024 154.576 17.5154 155.155C17.1146 154.666 16.7138 154.173 16.2569 153.728C16.4314 153.421 16.5213 153.072 16.5174 152.718C16.5348 152.118 16.4715 151.518 16.329 150.935Z" fill="#1F2723"/>
<path d="M29.9118 135.969C30.4409 135.32 31.1463 134.434 31.7675 133.588L33.3707 131.48C33.4588 131.372 33.3707 131.228 33.2825 131.296C32.8176 131.585 32.0801 132.098 31.2785 132.695C30.5072 133.289 29.7848 133.945 29.1183 134.655C28.4981 135.377 27.9404 136.151 27.451 136.967L27.9319 135.256L28.1804 134.398L28.465 133.552C28.8658 133.605 30.1042 132.587 31.523 131.224C32.7254 130.021 34.557 127.933 35.4147 127.08C35.5109 126.979 35.4508 126.827 35.3426 126.883C34.615 127.246 33.9073 127.647 33.2224 128.086C32.8216 128.354 32.3687 128.635 31.9759 128.939C31.5831 129.244 31.2104 129.545 30.8938 129.841C30.5162 130.185 30.1615 130.553 29.8317 130.943C29.5151 131.308 29.2345 131.661 29.002 131.981C29.3227 131.18 29.6072 130.346 29.9599 129.553C30.3565 129.181 30.6847 128.743 30.9299 128.258C31.3306 127.597 31.7755 126.715 32.2725 125.769C32.4809 125.344 32.7013 124.847 32.9458 124.334C33.058 124.074 33.1783 123.805 33.2945 123.533L33.6592 122.731C34.1322 121.681 34.5931 120.691 34.8977 120.102C34.9698 119.966 34.8536 119.881 34.7454 119.998C34.084 120.729 33.4631 121.495 32.8857 122.294L32.3687 123.024C32.2044 123.272 32.044 123.525 31.8877 123.769C31.594 124.224 31.3264 124.695 31.0862 125.18C30.6785 125.985 30.3289 126.818 30.0401 127.673C29.8533 128.198 29.74 128.747 29.7034 129.304L29.4389 129.913L29.1984 130.538L28.7215 131.781C28.7616 131.38 28.7856 130.951 28.7976 130.474C28.8097 129.997 28.7976 129.48 28.7976 128.951C28.7976 128.506 28.7976 128.001 28.7375 127.476C28.6774 126.951 28.6694 126.41 28.6333 125.873C28.5451 124.815 28.489 123.833 28.4409 123.228C28.4409 123.088 28.2686 123.144 28.2325 123.296C28.1524 123.633 28.0522 124.078 27.9319 124.583C27.8117 125.088 27.7315 125.657 27.6354 126.238C27.5392 126.819 27.479 127.42 27.4229 127.981C27.3685 128.497 27.3458 129.015 27.3548 129.532C27.3869 131.605 27.7877 133.172 28.1564 133.412L27.8758 134.246C27.7877 134.526 27.7115 134.807 27.6313 135.091L27.1504 136.779C27.1454 135.833 27.0852 134.888 26.97 133.949C26.9019 133.067 26.6975 131.945 26.5252 130.911C26.3528 129.877 26.1885 128.883 26.0883 128.294C26.0683 128.158 25.9079 128.226 25.8839 128.382C25.7957 129.072 25.6394 130.19 25.5673 131.372C25.4873 132.476 25.4994 133.585 25.6033 134.687C25.6869 135.565 25.8616 136.433 26.1244 137.276C26.3448 137.941 26.5733 138.37 26.7576 138.478L26.5612 139.336L26.4089 140.202L26.1204 141.953C26.0191 141.009 25.8585 140.072 25.6394 139.147C25.4831 138.278 25.1865 137.196 24.8899 136.162C24.5934 135.128 24.3769 134.182 24.2126 133.592C24.1765 133.46 24.0282 133.544 24.0202 133.701C23.9361 135.099 23.924 138.246 24.3609 140.029C24.7617 142.061 25.5392 143.516 25.92 143.676C25.7556 144.839 25.7396 146.013 25.6795 147.183C25.5913 146.807 25.4791 146.382 25.3388 145.917C25.2707 145.688 25.1945 145.448 25.1144 145.203C25.0342 144.959 24.946 144.71 24.8739 144.458C24.6214 143.608 24.1886 142.558 23.7958 141.56C23.403 140.562 23.0744 139.636 22.8539 139.063C22.8018 138.931 22.6615 139.035 22.6736 139.196C22.6976 139.544 22.7297 139.997 22.7698 140.526C22.8044 141.093 22.8687 141.657 22.9621 142.218C23.0583 142.807 23.1665 143.42 23.2788 143.965C23.3389 144.246 23.395 144.514 23.4631 144.767C23.5313 145.019 23.6194 145.26 23.6956 145.476C23.9834 146.313 24.3414 147.124 24.7657 147.901C25.1264 148.49 25.439 148.859 25.6434 148.923C25.6434 150.089 25.6434 151.259 25.6715 152.43C25.3974 151.53 25.0695 150.648 24.6895 149.788C24.5172 149.388 24.2888 148.935 24.0563 148.478C23.9361 148.249 23.8078 148.021 23.6836 147.788C23.5593 147.556 23.4431 147.308 23.3228 147.075L22.0804 144.67C22.0123 144.546 21.888 144.67 21.9161 144.823C22.0483 145.52 22.2688 146.658 22.5453 147.809C22.83 148.845 23.1794 149.862 23.5914 150.855C24.393 152.71 25.3028 154.037 25.7116 154.145C25.7463 155.315 25.7944 156.483 25.8558 157.648C25.5531 156.759 25.1971 155.889 24.7897 155.043C23.9226 153.39 22.9687 151.785 21.9321 150.233C21.856 150.121 21.7357 150.233 21.7758 150.386C22.2691 152.367 22.9177 154.306 23.7156 156.185C24.5934 158.009 25.5352 159.307 25.948 159.391C26.0242 160.558 26.1043 161.72 26.2085 162.886C25.8728 162.009 25.4875 161.151 25.0543 160.317C24.1336 158.691 23.1275 157.115 22.0403 155.596C21.9642 155.488 21.8479 155.596 21.888 155.756C22.2648 157.031 23.1986 159.9 24.0282 161.471C24.9581 163.267 25.948 164.534 26.3648 164.614C26.4771 165.776 26.6013 166.934 26.7656 168.093C26.7656 168.237 26.8819 168.345 26.9781 168.333C27.0742 168.321 27.1384 168.193 27.1223 168.044C26.974 166.894 26.8498 165.74 26.7215 164.586C27.1223 164.465 27.8438 163.031 28.5171 161.135C29.0862 159.496 29.7195 156.67 30.004 155.436C30.0361 155.295 29.9118 155.187 29.8397 155.299C28.8547 156.844 28.0122 158.475 27.3227 160.173C26.9924 161.075 26.7377 162.002 26.5612 162.946C26.457 161.744 26.3729 160.57 26.2967 159.383C26.6975 159.279 27.471 157.864 28.2005 155.993C28.8297 154.39 29.5431 151.584 29.8758 150.354C29.9118 150.213 29.7916 150.101 29.7195 150.209C28.685 151.714 27.7928 153.312 27.0542 154.983C26.6961 155.873 26.4106 156.791 26.2005 157.728C26.1404 156.526 26.0883 155.351 26.0522 154.161C26.453 154.069 27.2746 152.682 28.0562 150.835C28.3928 150.033 28.7696 148.947 29.0982 147.905C29.4269 146.863 29.7876 146.001 29.976 145.444C30.0201 145.32 29.9038 145.203 29.8277 145.296C29.491 145.696 28.9459 146.406 28.3848 147.219C28.2446 147.42 28.1003 147.62 27.964 147.845C27.8277 148.069 27.7035 148.289 27.5833 148.51C27.3388 148.951 27.1143 149.388 26.938 149.788C26.5521 150.666 26.2372 151.574 25.9961 152.502C25.9961 151.299 25.96 150.121 25.9721 148.931C26.1685 148.891 26.4891 148.53 26.8618 147.957C27.3342 147.252 27.7651 146.52 28.1524 145.765C28.2486 145.58 28.3448 145.364 28.445 145.163L28.7856 144.494C29.0141 144.033 29.2425 143.548 29.459 143.075C29.6754 142.602 29.9078 142.145 30.1082 141.745C30.3086 141.344 30.481 140.987 30.6132 140.719C30.6693 140.598 30.5691 140.47 30.481 140.554C30.0802 140.927 29.463 141.56 28.8017 142.306C28.1782 143.043 27.6152 143.83 27.1183 144.658C26.9833 144.881 26.8628 145.113 26.7576 145.352C26.6494 145.58 26.5532 145.809 26.461 146.033C26.2767 146.474 26.1204 146.899 26.0001 147.275C26.0643 146.073 26.0763 144.903 26.2406 143.724C26.6414 143.688 27.6193 142.43 28.7576 140.831C29.6754 139.424 31.1102 137.051 31.7595 136.049C31.8316 135.933 31.7595 135.793 31.6473 135.869C31.2224 136.206 30.5251 136.775 29.7876 137.448C29.0881 138.119 28.4396 138.841 27.8478 139.608C27.3093 140.393 26.8348 141.22 26.429 142.081L26.7336 140.326L26.8859 139.448L27.0863 138.578C27.2907 138.578 27.6794 138.302 28.1684 137.833C28.6574 137.364 29.2786 136.711 29.9118 135.969Z" fill="#1F2723"/>
<path d="M39.2383 149.544C40.3565 149.063 41.9677 148.101 42.661 147.713C42.7412 147.668 42.6851 147.54 42.5889 147.548C42.1881 147.588 41.4787 147.673 40.7373 147.809C40.03 147.938 39.3364 148.132 38.6652 148.39C38.0551 148.632 37.4765 148.947 36.9418 149.328C37.3426 148.674 37.7433 148.037 38.1441 147.4C38.5129 147.584 39.7072 147.328 41.0338 146.883C41.603 146.691 42.2963 146.37 42.9416 146.081C43.5869 145.793 44.168 145.536 44.5167 145.38C44.5969 145.348 44.5488 145.22 44.4526 145.216C43.8412 145.2 43.2295 145.222 42.621 145.284C41.9103 145.345 41.2078 145.479 40.5248 145.685C39.8987 145.889 39.2988 146.166 38.7373 146.51C39.0579 146.057 39.3746 145.6 39.7072 145.156C40.108 145.091 40.9497 144.29 41.8234 143.256C42.0118 143.027 42.2242 142.759 42.4326 142.454L43.0819 141.56C43.4407 141.053 43.8274 140.566 44.2402 140.102C44.2533 140.085 44.2609 140.066 44.2617 140.045C44.2626 140.024 44.2567 140.004 44.245 139.986C44.2333 139.969 44.2163 139.956 44.1967 139.95C44.177 139.943 44.1557 139.943 44.136 139.949C43.5449 140.214 42.9833 140.541 42.4607 140.923C42.14 141.148 41.8394 141.4 41.5509 141.649C41.2899 141.883 41.0436 142.133 40.8134 142.398C39.9677 143.4 39.4828 144.402 39.4667 144.875C39.1221 145.328 38.8014 145.797 38.4728 146.258C38.5915 145.616 38.6665 144.966 38.6972 144.314C38.7253 143.681 38.6972 142.855 38.6692 142.057C38.6411 141.26 38.6171 140.494 38.6171 140.021C38.6163 139.999 38.6074 139.977 38.592 139.96C38.5767 139.943 38.5558 139.932 38.5331 139.929C38.5105 139.926 38.4875 139.932 38.4684 139.944C38.4492 139.957 38.4352 139.975 38.4287 139.997C38.1741 140.644 37.9574 141.305 37.7794 141.977C37.5704 142.713 37.4362 143.467 37.3786 144.23C37.3065 145.693 37.555 146.895 37.8435 147.18C37.4428 147.809 37.042 148.438 36.6412 149.079C36.7208 148.432 36.7543 147.78 36.7414 147.127C36.7414 146.494 36.6452 145.681 36.541 144.895C36.4368 144.109 36.3486 143.364 36.2885 142.911C36.284 142.889 36.2722 142.87 36.255 142.856C36.2379 142.842 36.2164 142.834 36.1943 142.834C36.1722 142.834 36.1507 142.842 36.1336 142.856C36.1164 142.87 36.1046 142.889 36.1001 142.911C35.708 144.284 35.4833 145.7 35.4308 147.127C35.4588 148.586 35.7554 149.765 36.072 150.041C35.6713 150.682 35.3226 151.336 34.9659 151.993C35.0163 151.343 35.0163 150.691 34.9659 150.041C34.8737 148.791 34.4328 146.783 34.2645 145.885C34.26 145.863 34.2482 145.844 34.231 145.83C34.2139 145.816 34.1924 145.808 34.1703 145.808C34.1482 145.808 34.1267 145.816 34.1096 145.83C34.0924 145.844 34.0806 145.863 34.0761 145.885C33.7797 147.269 33.6452 148.682 33.6753 150.097C33.7755 151.544 34.1282 152.71 34.4769 152.971C34.1202 153.628 33.7915 154.302 33.4589 154.975C33.4825 154.324 33.4543 153.673 33.3747 153.027C33.1444 151.644 32.8407 150.274 32.4649 148.923C32.4604 148.901 32.4486 148.882 32.4315 148.868C32.4143 148.854 32.3929 148.846 32.3707 148.846C32.3486 148.846 32.3272 148.854 32.31 148.868C32.2929 148.882 32.2811 148.901 32.2766 148.923C32.2124 149.376 32.1203 150.125 32.0601 150.895C31.9974 151.64 31.9974 152.39 32.0601 153.135C32.2245 154.57 32.6293 155.724 32.9659 155.969C32.6373 156.642 32.3447 157.332 32.0401 158.013C32.0354 157.361 31.9764 156.711 31.8637 156.069C31.7321 155.337 31.5582 154.613 31.3427 153.901C31.1343 153.151 30.9099 152.442 30.7736 152.009C30.7677 151.989 30.7555 151.972 30.7389 151.959C30.7223 151.947 30.7021 151.94 30.6814 151.94C30.6607 151.94 30.6405 151.947 30.6239 151.959C30.6073 151.972 30.5952 151.989 30.5892 152.009C30.4354 153.412 30.4354 154.827 30.5892 156.229C30.8137 157.664 31.2906 158.798 31.6353 159.035C31.3588 159.728 31.0862 160.426 30.8337 161.131C30.7817 160.481 30.6839 159.836 30.5411 159.199C30.3653 158.472 30.1512 157.755 29.8999 157.051C29.6554 156.31 29.4069 155.604 29.2506 155.175C29.2423 155.156 29.2276 155.139 29.2089 155.129C29.1903 155.118 29.1687 155.114 29.1475 155.118C29.1263 155.121 29.1069 155.131 29.0921 155.147C29.0774 155.162 29.0683 155.182 29.0662 155.203C28.9635 156.623 29.0268 158.05 29.2546 159.456C29.5632 160.887 30.1083 161.985 30.457 162.185C30.2165 162.895 30.0081 163.616 29.8117 164.337C29.7083 163.691 29.5623 163.053 29.3748 162.426C29.0221 161.223 28.1725 159.315 27.8478 158.47C27.8389 158.449 27.8233 158.433 27.8035 158.423C27.7836 158.412 27.7609 158.409 27.7392 158.414C27.7175 158.419 27.698 158.431 27.6842 158.449C27.6704 158.466 27.6631 158.488 27.6635 158.51C27.634 159.947 27.7848 161.383 28.1123 162.782C28.5131 164.201 29.1584 165.255 29.5432 165.42C29.3672 166.15 29.2334 166.89 29.1424 167.636C29.1396 167.659 29.1416 167.683 29.1483 167.705C29.1549 167.728 29.1661 167.749 29.1811 167.767C29.1961 167.785 29.2146 167.799 29.2355 167.81C29.2565 167.821 29.2793 167.827 29.3027 167.828C29.3485 167.832 29.3941 167.818 29.4304 167.79C29.4667 167.762 29.4912 167.721 29.4991 167.676C29.593 166.945 29.7268 166.22 29.8999 165.504C30.3007 165.54 31.3387 164.902 32.4369 164.061C33.3747 163.319 34.6653 161.989 35.2424 161.424C35.3065 161.359 35.2184 161.251 35.1302 161.283C33.8675 161.739 32.6676 162.353 31.5591 163.111C31.0268 163.508 30.5461 163.97 30.1283 164.486C30.3247 163.756 30.5291 163.027 30.7776 162.305C31.1784 162.382 32.2645 161.832 33.4268 161.055C34.4697 160.279 35.4704 159.448 36.4247 158.566C36.4929 158.502 36.4247 158.39 36.3205 158.418C35.9197 158.55 35.2504 158.778 34.549 159.063C33.8816 159.343 33.2405 159.683 32.6333 160.077C32.0809 160.437 31.5736 160.863 31.1223 161.343C31.3708 160.626 31.6473 159.917 31.9239 159.211C32.3247 159.315 33.4389 158.839 34.6533 158.125C35.7469 157.4 36.7962 156.611 37.7954 155.76C37.8676 155.7 37.7954 155.584 37.6952 155.608C37.2945 155.724 36.6051 155.929 35.8917 156.181C35.2094 156.419 34.5484 156.714 33.9158 157.063C33.3395 157.394 32.8018 157.788 32.3126 158.237C32.6212 157.54 32.9178 156.843 33.2505 156.157C33.6513 156.281 34.7855 155.869 36.056 155.203C36.6687 154.853 37.2615 154.469 37.8315 154.053C38.4287 153.632 38.9738 153.223 39.3024 152.975C39.3786 152.919 39.3024 152.799 39.2102 152.819C37.8861 153.102 36.5982 153.534 35.3707 154.105C34.7855 154.412 34.2347 154.78 33.7274 155.203C34.0681 154.526 34.4048 153.841 34.7615 153.171C35.1382 153.312 36.3125 152.947 37.567 152.338C38.7164 151.714 39.8322 151.031 40.9096 150.29C40.9857 150.238 40.9096 150.113 40.8254 150.129C39.4907 150.334 38.1854 150.699 36.9378 151.215C36.3376 151.492 35.7703 151.835 35.2464 152.238C35.6111 151.572 35.9799 150.907 36.3686 150.254C36.7534 150.39 37.9437 150.081 39.2383 149.544Z" fill="#1F2723"/>
<path d="M23.7797 188.345H28.7415C32.6653 186.621 35.555 180.918 35.555 174.149C35.5686 171.494 35.0875 168.86 34.1362 166.381H18.3691C17.428 168.862 16.9551 171.496 16.9743 174.149C16.9743 180.918 19.856 186.621 23.7797 188.345Z" fill="#1F2723"/>
<path d="M130.78 31.9016C130.78 31.9016 129.416 32.8449 125.862 31.07C122.308 29.2952 122.5 25.808 124.347 24.5517C126.193 23.2955 126.582 22.5846 124.132 21.0735C121.682 19.5624 123.622 14.7206 127.852 13.1827C132.081 11.6448 133.57 11.6001 137.097 12.8742C140.625 14.1484 146.15 21.1361 146.602 25.6962C147.053 30.2564 143.061 32.9835 138.309 33.7435C133.556 34.5035 130.78 31.9016 130.78 31.9016Z" fill="#1F2723" stroke="#1F2723" stroke-width="0.8" stroke-linecap="round" stroke-linejoin="round"/>
<path d="M127.313 71.4991C127.313 71.4991 126.602 75.4244 126.901 78.1516C127.201 80.8787 127.348 84.9873 127.433 87.7234C127.518 90.4594 120.116 93.7499 120.205 95.9585C120.295 98.167 120.38 101.221 120.326 102.7C120.272 104.18 118.811 110.967 119.021 117.176C119.231 123.386 122.942 133.687 122.942 133.687C122.942 133.687 124.529 137.111 124.627 140.058C124.725 143.004 126.375 148.105 127.278 149.978C128.181 151.851 132.947 168.125 133.407 172.43C133.868 176.735 133.184 178.336 133.184 178.336C133.184 178.336 130.314 183.911 129.701 184.461C129.089 185.011 126.572 186.146 125.763 186.49C124.953 186.835 125.159 187.353 125.485 187.657C125.812 187.961 127.913 187.787 127.913 187.787C127.913 187.787 131.284 187.675 132.75 187.416C134.217 187.157 135.848 185.628 136.448 184.55C137.047 183.473 141.727 181.845 142.411 180.24C143.095 178.635 141.151 177.111 140.386 176.306C139.622 175.501 138.129 168.795 138.039 166.055C137.95 163.314 138.12 155.938 137.073 149.862C136.027 143.786 134.686 138.35 134.686 138.35C134.686 138.35 134.95 130.441 135.316 128.845C135.683 127.249 143.583 108.231 144.396 104.202C145.21 100.174 153.69 94.3176 152.519 90.4594C151.347 86.6012 148.973 82.1484 149 79.8281C149.027 77.5078 150.878 73.0192 150.878 73.0192C150.878 73.0192 151.942 70.14 151.897 68.772C151.852 67.404 152.246 66.6529 146.702 64.7484C141.158 62.8438 131.014 65.1686 129.436 65.2223C127.858 65.2759 127.241 69.3979 127.313 71.4991Z" fill="#1F2723" stroke="#1F2723" stroke-width="0.8" stroke-linecap="round" stroke-linejoin="round"/>
<path d="M148.776 94C148.776 94 147.26 99.0743 146.934 101.931C146.608 104.788 143.053 110.841 140.675 114.927C138.296 119.014 135.31 127.647 134.416 131.997C133.522 136.347 132.485 140.491 133.289 142.467C134.094 144.443 136.866 148.35 136.987 148.981C137.107 149.611 146.706 168.571 147.323 171.29C147.94 174.008 148.977 176.713 149.111 177.866C149.245 179.02 146.058 184.29 145.678 185.466C145.298 186.642 143.205 187.255 143.022 188.086C142.839 188.918 144.931 188.336 145.459 188.426C145.986 188.515 148.731 188.632 149.876 188.171C151.02 187.711 152.317 185.56 153.345 184.791C154.373 184.022 155.464 181.979 156.586 180.888C157.708 179.797 158.374 177.982 157.82 176.842C157.266 175.702 154.36 174.218 153.899 173.073C153.439 171.929 152.227 163.962 151.928 161.338C151.628 158.714 152.022 152.213 149.634 146.92C147.247 141.626 145.244 140.334 145.244 140.334C145.244 140.334 145.096 139.074 145.079 138.546C145.061 138.019 153.703 129.565 155.71 126.65C157.717 123.735 149.683 117.487 149.876 116.95C150.068 116.414 150.01 112.612 149.876 105.45C149.742 98.2883 150.39 94.997 148.776 94C137.125 94.7646 145.468 94 147.323 94H148.776Z" fill="#1F2723"/>
<path d="M123.096 91.7104C123.096 91.7104 119.659 101.296 119.13 109.22C118.601 117.145 119.854 149.553 119.854 149.553L119.182 152.553C119.182 152.553 123.907 153.817 128.353 154.305C132.8 154.792 137.943 154.207 138.499 154.402C139.056 154.597 144.059 155.085 146.975 154.987C149.894 154.89 152.396 154.015 153.227 153.625C154.062 153.235 156.838 154.21 158.369 153.43C159.897 152.65 160.454 152.458 160.454 152.458C160.454 152.458 160.708 139.628 160.708 135.249C160.708 130.87 159.873 111.892 158.624 106.05C157.375 100.212 153.243 89.5822 153.243 89.5822L151.537 86H124.161L123.096 91.7104Z" fill="#1F2723"/>
<path d="M154.961 149.89C154.742 150.686 154.567 151.252 154.456 151.5" stroke="white" stroke-opacity="0.16" stroke-width="0.8" stroke-miterlimit="10"/>
<path d="M159.734 129.7C159.734 129.7 156.854 142.622 155.295 148.631" stroke="white" stroke-opacity="0.16" stroke-width="0.8" stroke-miterlimit="10"/>
<path d="M141.558 141.268C141.426 142.24 141.279 143.098 141.112 143.812" stroke="white" stroke-opacity="0.16" stroke-width="0.8" stroke-miterlimit="10"/>
<path d="M142.365 111.596C142.365 111.596 142.771 129.538 141.761 139.541" stroke="white" stroke-opacity="0.16" stroke-width="0.8" stroke-miterlimit="10"/>
<path d="M128.262 121.65C130.445 128.717 134.359 140.784 136.67 144.491" stroke="white" stroke-opacity="0.16" stroke-width="0.8" stroke-miterlimit="10"/>
<path d="M126.663 116.365C126.663 116.365 127.129 117.956 127.876 120.396" stroke="white" stroke-opacity="0.16" stroke-width="0.8" stroke-miterlimit="10"/>
<path d="M132.363 140.697C132.363 140.697 136.392 147.995 137.923 150.333" stroke="white" stroke-opacity="0.16" stroke-width="0.8" stroke-miterlimit="10"/>
<path d="M139.864 89.9917L139.724 101.961" stroke="white" stroke-opacity="0.16" stroke-width="0.8" stroke-miterlimit="10"/>
<path d="M138.754 89.2119L138.475 96.8026" stroke="white" stroke-opacity="0.16" stroke-width="0.8" stroke-miterlimit="10"/>
<path d="M139.927 39.7566C140.584 40.6991 141.147 41.7039 141.608 42.7564C142.055 44.0037 142.149 46.4224 142.149 46.4224C142.149 46.4224 135.957 47.0528 134.424 48.5817C132.89 50.1107 131.871 54.0405 131.571 54.577C131.272 55.1135 125.451 57.4159 123.971 60.836C122.491 64.2561 124.19 67.466 125.071 68.5971C125.609 69.2849 126.232 69.9009 126.926 70.4301L127.056 71.1633C127.056 71.1633 138.586 75.634 150.603 72.6923C151.649 71.1333 152.479 69.4399 153.071 67.6583C153.827 65.1055 154.962 61.1668 154.962 61.1668C154.962 61.1668 158.749 54.72 158.539 51.1435C158.329 47.5669 155.633 46.0781 154.023 45.2868C152.414 44.4955 151.681 44.5223 151.341 44.3256C151.001 44.1289 147.04 38.2499 146.468 36.5868C145.895 34.9237 139.927 39.7566 139.927 39.7566Z" fill="white" stroke="#1F2723" stroke-width="0.8" stroke-linecap="round" stroke-linejoin="round"/>
<path d="M146.468 36.5869C145.882 34.9193 139.936 39.7566 139.936 39.7566C140.584 40.6861 141.141 41.6757 141.599 42.7117C143.213 42.7117 146.705 42.5731 149.548 41.8176C148.287 39.9444 146.794 37.5525 146.468 36.5869Z" fill="#1F2723" stroke="#1F2723" stroke-width="0.8" stroke-linecap="round" stroke-linejoin="round"/>
<path d="M134.044 58.6185C134.953 57.7112 135.996 56.9497 137.137 56.3608" stroke="#1F2723" stroke-width="0.8" stroke-linecap="round" stroke-linejoin="round"/>
<path d="M125.455 70.448C120.985 73.4926 114.663 82.5905 116.067 90.4544C119.572 110.439 144.898 105.905 147.679 88.009" fill="#17AB49"/>
<path d="M125.455 70.448C120.985 73.4926 114.663 82.5905 116.067 90.4544C119.572 110.439 144.898 105.905 147.679 88.009L149.55 82.6006C149.238 82.0378 148.65 80.5746 148.8 79.2239C148.95 77.8732 150.488 73.1582 151.239 70.9695L141.484 75.2843L130.978 72.6579L125.455 70.448Z" fill="#17AB49"/>
<path d="M125.455 70.448C120.985 73.4926 114.663 82.5905 116.067 90.4544C119.572 110.439 144.898 105.905 147.679 88.009L149.55 82.6006C149.238 82.0378 148.65 80.5746 148.8 79.2239C148.95 77.8732 150.488 73.1582 151.239 70.9695L141.484 75.2843L130.978 72.6579L125.455 70.448Z" stroke="#1F2723" stroke-width="0.8" stroke-linecap="round" stroke-linejoin="round"/>
<path d="M116.264 92.1219C116.264 92.1219 115.124 93.1368 114.972 93.5839C114.82 94.0309 116.192 95.4437 116.921 96.0919C117.65 96.7402 117.94 96.4854 117.48 95.4795C117.195 94.8583 116.861 94.2604 116.483 93.6912L116.264 92.1219Z" fill="white" stroke="#1F2723" stroke-width="0.8" stroke-linecap="round" stroke-linejoin="round"/>
<path d="M116.362 90.6643C116.362 90.6643 115.092 91.5093 114.882 91.934C114.672 92.3587 115.835 93.9458 116.469 94.6835C117.104 95.4211 117.422 95.2155 117.104 94.1559C116.907 93.5028 116.659 92.866 116.362 92.2514V90.6643Z" fill="white" stroke="#1F2723" stroke-width="0.8" stroke-linecap="round" stroke-linejoin="round"/>
<path d="M115.937 89.3949C115.937 89.3949 114.667 90.2443 114.457 90.6646C114.247 91.0848 115.41 92.6764 116.044 93.4141C116.679 94.1517 116.997 93.9461 116.679 92.8865C116.482 92.2334 116.234 91.5966 115.937 90.982V89.3949Z" fill="white" stroke="#1F2723" stroke-width="0.8" stroke-linecap="round" stroke-linejoin="round"/>
<path d="M115.821 87.6244C115.821 87.6244 114.578 88.5185 114.377 88.9343C114.176 89.3501 115.383 90.9148 116.04 91.6167C116.697 92.3186 117.006 92.1175 116.657 91.0713C116.443 90.4241 116.179 89.7948 115.866 89.1891L115.821 87.6244Z" fill="white" stroke="#1F2723" stroke-width="0.8" stroke-linecap="round" stroke-linejoin="round"/>
<path d="M116.004 85.8807C116.004 85.8807 115.226 85.5499 114.896 85.7689C114.565 85.988 113.84 87.4365 113.617 87.8836C113.393 88.3306 113.563 88.6615 114.283 88.3306C114.74 88.1023 115.11 87.7321 115.338 87.2756L115.839 87.3873L116.004 85.8807Z" fill="white" stroke="#1F2723" stroke-width="0.8" stroke-linecap="round" stroke-linejoin="round"/>
<path d="M122.375 60.6974C119.179 64.1845 119.652 69.9517 124.409 71.4539C126.251 72.0351 127.226 71.3447 127.226 71.3447H128.164C128.164 71.3447 138.599 75.634 150.617 72.6923C151.662 71.1333 152.493 69.4399 153.084 67.6583C153.411 66.5495 153.813 65.1815 154.157 63.9878C151.967 63.42 148.046 62.0207 147.957 59.298C147.845 55.9763 151.014 46.7175 151.801 44.4776C151.646 44.4487 151.495 44.3975 151.354 44.3256C151.254 44.2326 151.164 44.1292 151.086 44.0172H150.818C150.818 44.0172 149.146 47.549 147.974 50.4371C146.803 53.3252 143.803 58.0373 140.155 59.231C136.507 60.4247 131.916 58.5604 133.516 56.1015C135.117 53.6426 142.149 46.4313 142.149 46.4313C142.149 46.4313 141.429 46.5073 140.414 46.6638L131.571 54.577C131.267 55.1135 124.888 57.9524 122.375 60.6974Z" fill="#17AB49" stroke="#1F2723" stroke-width="0.8" stroke-linecap="round" stroke-linejoin="round"/>
<path d="M140.447 76.1069L128.608 73.2232C127.498 72.9526 127.012 71.6452 127.676 70.7148C127.982 70.2866 128.478 70.0342 129.004 70.0384L148.895 70.1989C150.145 70.2089 151.021 71.4353 150.626 72.6211C150.535 72.8921 150.383 73.1384 150.181 73.3405L149.759 73.7631C149.5 74.022 149.175 74.2048 148.819 74.2917L141.395 76.1065C141.084 76.1827 140.758 76.1828 140.447 76.1069Z" fill="#17AB49"/>
<path d="M147.702 69.9828C146.924 71.2292 145.851 72.2647 144.577 72.9976C143.304 73.7306 141.869 74.1385 140.401 74.1853C136.1 74.3283 132.546 72.2271 132.255 67.1886" fill="#17AB49"/>
<path d="M147.702 69.9828C146.924 71.2292 145.851 72.2647 144.577 72.9976C143.304 73.7306 141.869 74.1385 140.401 74.1853C136.1 74.3283 132.546 72.2271 132.255 67.1886" stroke="#1F2723" stroke-width="0.8" stroke-linecap="round" stroke-linejoin="round"/>
<path d="M133.704 30.0104C134.945 29.2474 136.418 28.954 137.857 29.1833" stroke="#1F2723" stroke-width="0.8" stroke-linecap="round" stroke-linejoin="round"/>
<path d="M128.916 23.8183C128.465 26.2754 128.49 28.7961 128.987 31.2441C129.435 33.2425 130.499 33.9266 130.704 35.6075C130.91 37.2885 132.014 39.6848 133.579 40.8517C135.144 42.0185 137.375 44.844 139.337 44.169C141.3 43.4939 145.002 40.3197 145.596 39.5373C146.191 38.7549 147.912 35.7953 147.384 33.0682C146.857 30.341 146.016 28.6913 139.82 25.848C133.624 23.0046 130.212 21.4711 128.916 23.8183Z" fill="white" stroke="#1F2723" stroke-width="0.8" stroke-linecap="round" stroke-linejoin="round"/>
<path d="M131.782 32.067C131.782 32.067 133.042 34.0162 132.707 35.9208C132.501 37.0966 132.6 38.0309 132.989 38.3975C133.708 39.0726 135.282 38.3975 135.559 37.8164" stroke="#1F2723" stroke-width="0.8" stroke-linecap="round" stroke-linejoin="round"/>
<path d="M130.771 31.6021C130.771 31.6021 129.958 31.155 129.403 32.3487" stroke="#1F2723" stroke-width="0.8" stroke-linecap="round" stroke-linejoin="round"/>
<path d="M134.754 40.5299C135.34 40.6432 135.947 40.5579 136.479 40.2874C137.011 40.017 137.438 39.5769 137.692 39.0367" stroke="#1F2723" stroke-width="0.8" stroke-linecap="round" stroke-linejoin="round"/>
<path d="M134.737 31.146L135.331 33.1489C135.935 33.2023 136.543 33.1082 137.102 32.8745C137.661 32.6409 138.155 32.2747 138.541 31.8077" stroke="#1F2723" stroke-width="0.8" stroke-linecap="round" stroke-linejoin="round"/>
<path d="M135.331 33.149C135.331 33.149 136.673 33.453 138.541 31.8077" stroke="#1F2723" stroke-width="0.8" stroke-linecap="round" stroke-linejoin="round"/>
<path d="M130.266 33.2382L130.346 34.8566C130.346 34.8566 131.24 35.2456 132.166 34.1011" stroke="#1F2723" stroke-width="0.8" stroke-linecap="round" stroke-linejoin="round"/>
<path d="M130.346 34.8567C130.346 34.8567 131.004 35.2143 132.166 34.1011" stroke="#1F2723" stroke-width="0.8" stroke-linecap="round" stroke-linejoin="round"/>
<path d="M155.539 56.0076C155.539 56.0076 159.442 62.517 159.777 63.0311C160.112 63.5452 167.4 73.5239 167.4 73.5239C167.4 73.5239 161.141 81.4281 158.874 83.2924C157.497 84.4287 155.968 85.3676 154.332 86.0821C154.332 86.0821 149.772 85.188 148.399 85.1209C147.201 85.0297 146.001 85.2892 144.948 85.8675C143.911 86.4308 142.458 87.0031 143.003 87.62C143.548 88.237 144.264 87.4725 144.791 87.1372C145.258 86.823 145.793 86.6252 146.352 86.5605C146.799 86.5605 148.676 86.6901 148.676 86.6901C148.676 86.6901 145.337 87.6469 145.033 87.9732C144.729 88.2996 143.182 89.4038 143.616 89.7079C143.846 89.8377 144.111 89.8924 144.374 89.8643C144.637 89.8363 144.884 89.7269 145.082 89.5514C145.493 89.2205 146.213 88.6572 146.213 88.6572L148.408 88.161C148.408 88.161 145.726 89.833 145.118 90.5886C144.51 91.3441 145.158 91.7465 145.471 91.6303C145.784 91.514 146.7 90.6422 147.219 90.3114C147.738 89.9806 150.438 88.9389 150.438 88.9389C150.438 88.9389 146.861 91.6928 146.745 92.0103C146.629 92.3277 147.299 92.7301 147.809 92.2919C148.319 91.8538 151.833 89.6095 151.833 89.6095C151.833 89.6095 154.39 90.4723 156.666 89.2384C157.56 88.7422 159.795 87.6558 159.795 87.6558C159.795 87.6558 169.184 81.969 172.353 78.7144C175.523 75.4597 176.216 74.5834 175.867 73.6446C175.519 72.7057 170.055 59.8614 169.139 58.0999C168.222 56.3385 167.748 54.8095 165.866 52.1315C163.984 49.4536 161.096 44.7414 153.536 45.5238" fill="white"/>
<path d="M155.539 56.0076C155.539 56.0076 159.442 62.517 159.777 63.0311C160.112 63.5452 167.4 73.5239 167.4 73.5239C167.4 73.5239 161.141 81.4281 158.874 83.2924C157.497 84.4287 155.968 85.3676 154.332 86.0821C154.332 86.0821 149.772 85.188 148.399 85.1209C147.201 85.0297 146.001 85.2892 144.948 85.8675C143.911 86.4308 142.458 87.0031 143.003 87.62C143.548 88.237 144.264 87.4725 144.791 87.1372C145.258 86.823 145.793 86.6252 146.352 86.5605C146.799 86.5605 148.676 86.6901 148.676 86.6901C148.676 86.6901 145.337 87.6469 145.033 87.9732C144.729 88.2996 143.182 89.4038 143.616 89.7079C143.846 89.8377 144.111 89.8924 144.374 89.8643C144.637 89.8363 144.884 89.7269 145.082 89.5514C145.493 89.2205 146.213 88.6572 146.213 88.6572L148.408 88.161C148.408 88.161 145.726 89.833 145.118 90.5886C144.51 91.3441 145.158 91.7465 145.471 91.6303C145.784 91.514 146.7 90.6422 147.219 90.3114C147.738 89.9806 150.438 88.9389 150.438 88.9389C150.438 88.9389 146.861 91.6928 146.745 92.0103C146.629 92.3277 147.299 92.7301 147.809 92.2919C148.319 91.8538 151.833 89.6095 151.833 89.6095C151.833 89.6095 154.39 90.4723 156.666 89.2384C157.56 88.7422 159.795 87.6558 159.795 87.6558C159.795 87.6558 169.184 81.969 172.353 78.7144C175.523 75.4597 176.216 74.5834 175.867 73.6446C175.519 72.7057 170.055 59.8614 169.139 58.0999C168.222 56.3385 167.748 54.8095 165.866 52.1315C163.984 49.4536 161.096 44.7414 153.536 45.5238" stroke="#1F2723" stroke-width="0.8" stroke-linecap="round" stroke-linejoin="round"/>
<path d="M128.402 22.8572C128.402 22.8572 129.77 27.234 133.319 27.8778C136.869 28.5216 141.072 26.9837 142.042 28.6557C143.012 30.3278 144.8 33.5959 146.656 34.2978C146.656 34.2978 145.113 38.3214 146.128 41.3302C147.143 44.339 151.171 46.1943 151.663 47.0929C152.155 47.9916 150.044 49.1316 149.597 54.6395C149.15 60.1474 151.122 63.7419 153.469 65.4899C155.816 67.238 159.871 65.2753 159.871 65.2753C159.871 65.2753 157.081 63.9967 158.825 61.3456C160.568 58.6944 168.182 58.4396 168.446 52.6322C168.71 46.8247 166.054 44.9336 166.331 44.1602C166.608 43.3867 170.842 42.1796 169.751 36.8774C168.66 31.5751 160.81 30.1713 159.996 28.0522C157.814 22.5309 155.901 15.5789 150.433 12.3779C146.615 10.1425 137.58 8.43023 134.147 12.2885C134.147 12.2885 132.072 14.1885 131.665 15.7264" fill="#1F2723"/>
<path d="M128.402 22.8572C128.402 22.8572 129.77 27.234 133.319 27.8778C136.869 28.5216 141.072 26.9837 142.042 28.6557C143.012 30.3278 144.8 33.5959 146.656 34.2978C146.656 34.2978 145.113 38.3214 146.128 41.3302C147.143 44.339 151.171 46.1943 151.663 47.0929C152.155 47.9916 150.044 49.1316 149.597 54.6395C149.15 60.1474 151.122 63.7419 153.469 65.4899C155.816 67.238 159.871 65.2753 159.871 65.2753C159.871 65.2753 157.081 63.9967 158.825 61.3456C160.568 58.6944 168.182 58.4396 168.446 52.6322C168.71 46.8247 166.054 44.9336 166.331 44.1602C166.608 43.3867 170.842 42.1796 169.751 36.8774C168.66 31.5751 160.81 30.1713 159.996 28.0522C157.814 22.5309 155.901 15.5789 150.433 12.3779C146.615 10.1425 137.58 8.43023 134.147 12.2885C134.147 12.2885 132.072 14.1885 131.665 15.7264" stroke="#1F2723" stroke-width="0.8" stroke-linecap="round" stroke-linejoin="round"/>
</svg>
