<svg width="140" height="42" viewBox="0 0 140 42" fill="none" xmlns="http://www.w3.org/2000/svg">
<g clip-path="url(#clip0_205_6)">
<path fill-rule="evenodd" clip-rule="evenodd" d="M24.5276 6.74717C25.8399 5.22619 26.7245 3.10776 26.4825 1C24.5913 1.072 22.3034 2.20806 20.9474 3.72725C19.7297 5.07543 18.6667 7.22961 18.9525 9.296C21.062 9.45258 23.2153 8.26993 24.5276 6.74717ZM29.2582 20.125C29.311 25.5735 34.2454 27.386 34.3 27.4094C34.26 27.5372 33.5119 29.9919 31.7008 32.5299C30.1337 34.7223 28.5083 36.9057 25.9473 36.9525C23.4319 36.9975 22.6219 35.5234 19.7442 35.5234C16.8684 35.5234 15.9693 36.9056 13.5885 36.9974C11.1167 37.0856 9.23286 34.6254 7.65479 32.4402C4.42583 27.9709 1.95953 19.8102 5.27221 14.3022C6.91763 11.5681 9.85717 9.83402 13.0497 9.79082C15.476 9.74582 17.7676 11.3553 19.251 11.3553C20.7344 11.3553 23.5192 9.42029 26.4461 9.70469C27.671 9.75329 31.1111 10.1779 33.319 13.2757C33.1406 13.3819 29.2145 15.5711 29.2582 20.125Z" fill="white"/>
</g>
<path d="M46.6622 6.96C46.6622 6.36267 46.7649 5.77 46.9702 5.182C47.1849 4.58467 47.4929 4.05267 47.8942 3.586C48.3049 3.11 48.8042 2.72733 49.3922 2.438C49.9802 2.14867 50.6475 2.004 51.3942 2.004C52.2809 2.004 53.0415 2.20467 53.6762 2.606C54.3109 3.00733 54.7822 3.53 55.0902 4.174L54.0962 4.818C53.9469 4.50067 53.7649 4.23467 53.5502 4.02C53.3449 3.80533 53.1162 3.63267 52.8642 3.502C52.6215 3.37133 52.3695 3.278 52.1082 3.222C51.8469 3.166 51.5902 3.138 51.3382 3.138C50.7875 3.138 50.2975 3.25467 49.8682 3.488C49.4482 3.712 49.0935 4.01067 48.8042 4.384C48.5149 4.748 48.2955 5.16333 48.1462 5.63C48.0062 6.08733 47.9362 6.54933 47.9362 7.016C47.9362 7.53867 48.0202 8.038 48.1882 8.514C48.3655 8.98067 48.6082 9.396 48.9162 9.76C49.2242 10.124 49.5882 10.4133 50.0082 10.628C50.4282 10.8427 50.8855 10.95 51.3802 10.95C51.6415 10.95 51.9075 10.9173 52.1782 10.852C52.4582 10.7867 52.7242 10.684 52.9762 10.544C53.2282 10.3947 53.4615 10.2127 53.6762 9.998C53.9002 9.774 54.0822 9.508 54.2222 9.2L55.2722 9.774C55.1135 10.1473 54.8895 10.4787 54.6002 10.768C54.3202 11.048 53.9982 11.286 53.6342 11.482C53.2795 11.678 52.9015 11.8273 52.5002 11.93C52.0989 12.0327 51.7069 12.084 51.3242 12.084C50.6429 12.084 50.0175 11.9347 49.4482 11.636C48.8789 11.3373 48.3842 10.95 47.9642 10.474C47.5535 9.98867 47.2315 9.44267 46.9982 8.836C46.7742 8.22 46.6622 7.59467 46.6622 6.96ZM61.0215 4.692H62.3935L59.5235 8.248L62.5895 12H61.2315L58.7255 8.794H57.8715V12H56.6675V4.692H57.8715V7.87H58.5855L61.0215 4.692ZM65.3925 12.14C65.0471 12.14 64.7251 12.084 64.4265 11.972C64.1278 11.8507 63.8665 11.6873 63.6425 11.482C63.4278 11.2767 63.2551 11.0387 63.1245 10.768C63.0031 10.488 62.9425 10.1847 62.9425 9.858C62.9425 9.522 63.0171 9.21867 63.1665 8.948C63.3158 8.668 63.5258 8.43 63.7965 8.234C64.0765 8.038 64.4031 7.884 64.7765 7.772C65.1591 7.66 65.5745 7.604 66.0225 7.604C66.3771 7.604 66.7365 7.63667 67.1005 7.702C67.4645 7.76733 67.7865 7.856 68.0665 7.968V7.38C68.0665 6.78267 67.8985 6.316 67.5625 5.98C67.2265 5.63467 66.7505 5.462 66.1345 5.462C65.3971 5.462 64.6225 5.74667 63.8105 6.316L63.4045 5.518C64.3471 4.88333 65.2945 4.566 66.2465 4.566C67.2078 4.566 67.9545 4.82267 68.4865 5.336C69.0278 5.84933 69.2985 6.57267 69.2985 7.506V10.488C69.2985 10.7773 69.4291 10.9267 69.6905 10.936V12C69.5598 12.0187 69.4525 12.0327 69.3685 12.042C69.2845 12.0513 69.1958 12.056 69.1025 12.056C68.8598 12.056 68.6638 11.986 68.5145 11.846C68.3745 11.6967 68.2905 11.5193 68.2625 11.314L68.2345 10.796C67.9078 11.2347 67.4925 11.5707 66.9885 11.804C66.4938 12.028 65.9618 12.14 65.3925 12.14ZM65.7145 11.216C66.1531 11.216 66.5591 11.1367 66.9325 10.978C67.3151 10.81 67.6045 10.5907 67.8005 10.32C67.9778 10.1427 68.0665 9.96067 68.0665 9.774V8.696C67.4691 8.46267 66.8485 8.346 66.2045 8.346C65.5885 8.346 65.0845 8.47667 64.6925 8.738C64.3098 8.99933 64.1185 9.34 64.1185 9.76C64.1185 9.96533 64.1558 10.1567 64.2305 10.334C64.3145 10.5113 64.4265 10.6653 64.5665 10.796C64.7158 10.9267 64.8885 11.0293 65.0845 11.104C65.2805 11.1787 65.4905 11.216 65.7145 11.216ZM76.0281 12H74.8101V9.088C74.7074 9.116 74.6048 9.144 74.5021 9.172C74.4088 9.2 74.2968 9.22333 74.1661 9.242C74.0448 9.25133 73.9001 9.26067 73.7321 9.27C73.5734 9.27933 73.3821 9.284 73.1581 9.284C72.7194 9.284 72.3508 9.214 72.0521 9.074C71.7534 8.934 71.5154 8.74733 71.3381 8.514C71.1608 8.27133 71.0348 8.00067 70.9601 7.702C70.8854 7.394 70.8481 7.072 70.8481 6.736V4.692H72.0661V6.498C72.0661 7.142 72.1874 7.59 72.4301 7.842C72.6728 8.08467 73.0041 8.206 73.4241 8.206C73.8161 8.206 74.1194 8.17333 74.3341 8.108C74.5488 8.04267 74.7074 7.95867 74.8101 7.856V4.692H76.0281V12ZM79.9257 12.14C79.5803 12.14 79.2583 12.084 78.9597 11.972C78.661 11.8507 78.3997 11.6873 78.1757 11.482C77.961 11.2767 77.7883 11.0387 77.6577 10.768C77.5363 10.488 77.4757 10.1847 77.4757 9.858C77.4757 9.522 77.5503 9.21867 77.6997 8.948C77.849 8.668 78.059 8.43 78.3297 8.234C78.6097 8.038 78.9363 7.884 79.3097 7.772C79.6923 7.66 80.1077 7.604 80.5557 7.604C80.9103 7.604 81.2697 7.63667 81.6337 7.702C81.9977 7.76733 82.3197 7.856 82.5997 7.968V7.38C82.5997 6.78267 82.4317 6.316 82.0957 5.98C81.7597 5.63467 81.2837 5.462 80.6677 5.462C79.9303 5.462 79.1557 5.74667 78.3437 6.316L77.9377 5.518C78.8803 4.88333 79.8277 4.566 80.7797 4.566C81.741 4.566 82.4877 4.82267 83.0197 5.336C83.561 5.84933 83.8317 6.57267 83.8317 7.506V10.488C83.8317 10.7773 83.9623 10.9267 84.2237 10.936V12C84.093 12.0187 83.9857 12.0327 83.9017 12.042C83.8177 12.0513 83.729 12.056 83.6357 12.056C83.393 12.056 83.197 11.986 83.0477 11.846C82.9077 11.6967 82.8237 11.5193 82.7957 11.314L82.7677 10.796C82.441 11.2347 82.0257 11.5707 81.5217 11.804C81.027 12.028 80.495 12.14 79.9257 12.14ZM80.2477 11.216C80.6863 11.216 81.0923 11.1367 81.4657 10.978C81.8483 10.81 82.1377 10.5907 82.3337 10.32C82.511 10.1427 82.5997 9.96067 82.5997 9.774V8.696C82.0023 8.46267 81.3817 8.346 80.7377 8.346C80.1217 8.346 79.6177 8.47667 79.2257 8.738C78.843 8.99933 78.6517 9.34 78.6517 9.76C78.6517 9.96533 78.689 10.1567 78.7637 10.334C78.8477 10.5113 78.9597 10.6653 79.0997 10.796C79.249 10.9267 79.4217 11.0293 79.6177 11.104C79.8137 11.1787 80.0237 11.216 80.2477 11.216ZM88.6873 12H87.4833V5.756H85.0333V4.692H91.1373V5.756H88.6873V12ZM92.4468 4.692H93.6508V7.212H95.0368C95.3541 7.212 95.6621 7.26333 95.9608 7.366C96.2688 7.45933 96.5395 7.60867 96.7728 7.814C97.0155 8.01 97.2115 8.262 97.3608 8.57C97.5101 8.86867 97.5848 9.22333 97.5848 9.634C97.5848 10.0447 97.5101 10.3993 97.3608 10.698C97.2115 10.9967 97.0155 11.244 96.7728 11.44C96.5395 11.6267 96.2688 11.7667 95.9608 11.86C95.6528 11.9533 95.3401 12 95.0228 12H92.4468V4.692ZM95.0228 10.964C95.4241 10.964 95.7461 10.8567 95.9888 10.642C96.2408 10.418 96.3668 10.082 96.3668 9.634C96.3668 9.17667 96.2315 8.83133 95.9608 8.598C95.6995 8.36467 95.3915 8.248 95.0368 8.248H93.6508V10.964H95.0228ZM106.233 4.692C106.494 4.692 106.737 4.73867 106.961 4.832C107.185 4.916 107.381 5.03733 107.549 5.196C107.717 5.35467 107.848 5.546 107.941 5.77C108.034 5.98467 108.081 6.22267 108.081 6.484C108.081 6.64267 108.062 6.806 108.025 6.974C107.988 7.13267 107.927 7.29133 107.843 7.45C107.768 7.59933 107.666 7.73933 107.535 7.87C107.404 8.00067 107.246 8.10333 107.059 8.178C107.46 8.29 107.778 8.5 108.011 8.808C108.244 9.10667 108.361 9.48467 108.361 9.942C108.361 10.25 108.305 10.5347 108.193 10.796C108.081 11.048 107.922 11.2627 107.717 11.44C107.521 11.6173 107.283 11.7573 107.003 11.86C106.732 11.9533 106.429 12 106.093 12H102.551V4.692H106.233ZM105.743 7.814C106.098 7.814 106.373 7.716 106.569 7.52C106.774 7.31467 106.877 7.03467 106.877 6.68C106.877 6.38133 106.798 6.12933 106.639 5.924C106.48 5.70933 106.214 5.602 105.841 5.602H103.755V7.814H105.743ZM105.953 11.09C106.326 11.09 106.62 10.9733 106.835 10.74C107.059 10.4973 107.171 10.2127 107.171 9.886C107.171 9.578 107.068 9.30733 106.863 9.074C106.658 8.84067 106.364 8.724 105.981 8.724H103.755V11.09H105.953Z" fill="white"/>
<path d="M51.78 22.8H53.74L59.34 37H56.98L55.48 33.14H50L48.52 37H46.14L51.78 22.8ZM55.04 31.48L52.76 25.38L50.4 31.48H55.04ZM66.7561 37.2C65.9161 37.2 65.1761 37 64.5361 36.6C63.8961 36.2 63.3894 35.68 63.0161 35.04V41.26H60.8161V26.54H62.7561V28.42C63.1561 27.7933 63.6694 27.2933 64.2961 26.92C64.9361 26.5467 65.6561 26.36 66.4561 26.36C67.1761 26.36 67.8361 26.5067 68.4361 26.8C69.0361 27.0933 69.5561 27.4867 69.9961 27.98C70.4361 28.4733 70.7761 29.0467 71.0161 29.7C71.2694 30.3533 71.3961 31.04 71.3961 31.76C71.3961 32.52 71.2828 33.2333 71.0561 33.9C70.8294 34.5533 70.5094 35.1267 70.0961 35.62C69.6828 36.1 69.1894 36.4867 68.6161 36.78C68.0561 37.06 67.4361 37.2 66.7561 37.2ZM66.0361 35.32C66.5028 35.32 66.9228 35.22 67.2961 35.02C67.6828 34.82 68.0094 34.5533 68.2761 34.22C68.5561 33.8867 68.7694 33.5067 68.9161 33.08C69.0628 32.6533 69.1361 32.2133 69.1361 31.76C69.1361 31.28 69.0494 30.8267 68.8761 30.4C68.7161 29.9733 68.4894 29.6 68.1961 29.28C67.9161 28.96 67.5761 28.7067 67.1761 28.52C66.7761 28.3333 66.3428 28.24 65.8761 28.24C65.5961 28.24 65.3028 28.2933 64.9961 28.4C64.6894 28.5067 64.4028 28.6533 64.1361 28.84C63.8694 29.0267 63.6361 29.2467 63.4361 29.5C63.2361 29.74 63.0961 30.0067 63.0161 30.3V33.04C63.1494 33.36 63.3228 33.66 63.5361 33.94C63.7494 34.22 63.9828 34.46 64.2361 34.66C64.5028 34.86 64.7894 35.02 65.0961 35.14C65.4028 35.26 65.7161 35.32 66.0361 35.32ZM79.3147 37.2C78.4747 37.2 77.7347 37 77.0947 36.6C76.4547 36.2 75.948 35.68 75.5747 35.04V41.26H73.3747V26.54H75.3147V28.42C75.7147 27.7933 76.228 27.2933 76.8547 26.92C77.4947 26.5467 78.2147 26.36 79.0147 26.36C79.7347 26.36 80.3947 26.5067 80.9947 26.8C81.5947 27.0933 82.1147 27.4867 82.5547 27.98C82.9947 28.4733 83.3347 29.0467 83.5747 29.7C83.828 30.3533 83.9547 31.04 83.9547 31.76C83.9547 32.52 83.8414 33.2333 83.6147 33.9C83.388 34.5533 83.068 35.1267 82.6547 35.62C82.2414 36.1 81.748 36.4867 81.1747 36.78C80.6147 37.06 79.9947 37.2 79.3147 37.2ZM78.5947 35.32C79.0614 35.32 79.4814 35.22 79.8547 35.02C80.2414 34.82 80.568 34.5533 80.8347 34.22C81.1147 33.8867 81.328 33.5067 81.4747 33.08C81.6214 32.6533 81.6947 32.2133 81.6947 31.76C81.6947 31.28 81.608 30.8267 81.4347 30.4C81.2747 29.9733 81.048 29.6 80.7547 29.28C80.4747 28.96 80.1347 28.7067 79.7347 28.52C79.3347 28.3333 78.9014 28.24 78.4347 28.24C78.1547 28.24 77.8614 28.2933 77.5547 28.4C77.248 28.5067 76.9614 28.6533 76.6947 28.84C76.428 29.0267 76.1947 29.2467 75.9947 29.5C75.7947 29.74 75.6547 30.0067 75.5747 30.3V33.04C75.708 33.36 75.8814 33.66 76.0947 33.94C76.308 34.22 76.5414 34.46 76.7947 34.66C77.0614 34.86 77.348 35.02 77.6547 35.14C77.9614 35.26 78.2747 35.32 78.5947 35.32ZM99.5547 26.14C99.4214 25.9933 99.228 25.84 98.9747 25.68C98.7214 25.5067 98.4214 25.3467 98.0747 25.2C97.7414 25.0533 97.368 24.9333 96.9547 24.84C96.5547 24.7467 96.1414 24.7 95.7147 24.7C94.768 24.7 94.068 24.8733 93.6147 25.22C93.1747 25.5667 92.9547 26.0467 92.9547 26.66C92.9547 27.0067 93.0214 27.2933 93.1547 27.52C93.3014 27.7333 93.5214 27.9267 93.8147 28.1C94.108 28.26 94.4747 28.4067 94.9147 28.54C95.3547 28.66 95.868 28.7933 96.4547 28.94C97.1747 29.1133 97.8214 29.3067 98.3947 29.52C98.9814 29.7333 99.4747 29.9933 99.8747 30.3C100.275 30.6067 100.581 30.9867 100.795 31.44C101.021 31.88 101.135 32.42 101.135 33.06C101.135 33.78 100.995 34.4 100.715 34.92C100.448 35.44 100.075 35.8667 99.5947 36.2C99.128 36.52 98.5814 36.76 97.9547 36.92C97.328 37.0667 96.6547 37.14 95.9347 37.14C94.8547 37.14 93.808 36.98 92.7947 36.66C91.7947 36.3267 90.888 35.8467 90.0747 35.22L91.0947 33.3C91.268 33.4733 91.5147 33.6667 91.8347 33.88C92.168 34.0933 92.548 34.2933 92.9747 34.48C93.4147 34.6533 93.888 34.8067 94.3947 34.94C94.9014 35.06 95.428 35.12 95.9747 35.12C96.8547 35.12 97.5347 34.9667 98.0147 34.66C98.4947 34.3533 98.7347 33.9 98.7347 33.3C98.7347 32.94 98.6414 32.64 98.4547 32.4C98.2814 32.16 98.028 31.9533 97.6947 31.78C97.3614 31.5933 96.9547 31.4267 96.4747 31.28C95.9947 31.1333 95.448 30.98 94.8347 30.82C94.128 30.6333 93.508 30.44 92.9747 30.24C92.4547 30.0267 92.0214 29.7733 91.6747 29.48C91.328 29.1867 91.0614 28.8467 90.8747 28.46C90.7014 28.06 90.6147 27.58 90.6147 27.02C90.6147 26.3267 90.748 25.7133 91.0147 25.18C91.2814 24.6333 91.6414 24.18 92.0947 23.82C92.5614 23.4467 93.108 23.1667 93.7347 22.98C94.3614 22.7933 95.0414 22.7 95.7747 22.7C96.7347 22.7 97.6214 22.8533 98.4347 23.16C99.248 23.4667 99.9614 23.8467 100.575 24.3L99.5547 26.14ZM108.804 36.46C108.524 36.5933 108.137 36.7467 107.644 36.92C107.151 37.08 106.624 37.16 106.064 37.16C105.717 37.16 105.391 37.1133 105.084 37.02C104.777 36.9267 104.504 36.7867 104.264 36.6C104.037 36.4133 103.857 36.1733 103.724 35.88C103.591 35.5733 103.524 35.2067 103.524 34.78V28.24H102.144V26.54H103.524V23.1H105.724V26.54H108.004V28.24H105.724V34.08C105.751 34.4533 105.864 34.7267 106.064 34.9C106.277 35.06 106.537 35.14 106.844 35.14C107.151 35.14 107.444 35.0867 107.724 34.98C108.004 34.8733 108.211 34.7867 108.344 34.72L108.804 36.46ZM114.774 37.2C113.947 37.2 113.201 37.0533 112.534 36.76C111.881 36.4667 111.321 36.0733 110.854 35.58C110.387 35.0867 110.027 34.5133 109.774 33.86C109.521 33.1933 109.394 32.5 109.394 31.78C109.394 31.06 109.521 30.3733 109.774 29.72C110.027 29.0533 110.387 28.4733 110.854 27.98C111.334 27.4867 111.901 27.0933 112.554 26.8C113.221 26.5067 113.961 26.36 114.774 26.36C115.587 26.36 116.321 26.5067 116.974 26.8C117.641 27.0933 118.207 27.4867 118.674 27.98C119.154 28.4733 119.521 29.0533 119.774 29.72C120.027 30.3733 120.154 31.06 120.154 31.78C120.154 32.5 120.027 33.1933 119.774 33.86C119.521 34.5133 119.154 35.0867 118.674 35.58C118.207 36.0733 117.641 36.4667 116.974 36.76C116.321 37.0533 115.587 37.2 114.774 37.2ZM111.654 31.8C111.654 32.3067 111.734 32.7733 111.894 33.2C112.054 33.6267 112.274 34 112.554 34.32C112.834 34.6267 113.161 34.8733 113.534 35.06C113.921 35.2333 114.334 35.32 114.774 35.32C115.214 35.32 115.621 35.2333 115.994 35.06C116.381 34.8733 116.714 34.62 116.994 34.3C117.274 33.98 117.494 33.6067 117.654 33.18C117.814 32.7533 117.894 32.2867 117.894 31.78C117.894 31.2867 117.814 30.8267 117.654 30.4C117.494 29.96 117.274 29.58 116.994 29.26C116.714 28.94 116.381 28.6933 115.994 28.52C115.621 28.3333 115.214 28.24 114.774 28.24C114.347 28.24 113.941 28.3333 113.554 28.52C113.181 28.7067 112.854 28.96 112.574 29.28C112.294 29.6 112.067 29.98 111.894 30.42C111.734 30.8467 111.654 31.3067 111.654 31.8ZM127.985 28.44C127.132 28.4667 126.372 28.6667 125.705 29.04C125.052 29.4 124.585 29.92 124.305 30.6V37H122.105V26.54H124.145V28.88C124.505 28.16 124.972 27.5867 125.545 27.16C126.132 26.72 126.758 26.48 127.425 26.44C127.558 26.44 127.665 26.44 127.745 26.44C127.838 26.44 127.918 26.4467 127.985 26.46V28.44ZM133.798 37.2C132.985 37.2 132.245 37.06 131.578 36.78C130.912 36.4867 130.338 36.0933 129.858 35.6C129.392 35.1067 129.025 34.5333 128.758 33.88C128.505 33.2267 128.378 32.5333 128.378 31.8C128.378 31.0667 128.505 30.3733 128.758 29.72C129.025 29.0533 129.392 28.4733 129.858 27.98C130.338 27.4733 130.912 27.08 131.578 26.8C132.245 26.5067 132.992 26.36 133.818 26.36C134.632 26.36 135.365 26.5067 136.018 26.8C136.685 27.0933 137.252 27.4867 137.718 27.98C138.185 28.46 138.538 29.0267 138.778 29.68C139.032 30.32 139.158 30.9933 139.158 31.7C139.158 31.86 139.152 32.0133 139.138 32.16C139.125 32.2933 139.112 32.4067 139.098 32.5H130.718C130.758 32.9667 130.865 33.3867 131.038 33.76C131.225 34.1333 131.458 34.46 131.738 34.74C132.032 35.0067 132.358 35.2133 132.718 35.36C133.092 35.5067 133.478 35.58 133.878 35.58C134.172 35.58 134.458 35.5467 134.738 35.48C135.032 35.4 135.298 35.2933 135.538 35.16C135.778 35.0133 135.992 34.84 136.178 34.64C136.365 34.44 136.512 34.22 136.618 33.98L138.498 34.52C138.138 35.3067 137.538 35.9533 136.698 36.46C135.872 36.9533 134.905 37.2 133.798 37.2ZM136.978 30.98C136.938 30.54 136.825 30.1333 136.638 29.76C136.465 29.3867 136.238 29.0733 135.958 28.82C135.678 28.5533 135.352 28.3467 134.978 28.2C134.605 28.0533 134.212 27.98 133.798 27.98C133.385 27.98 132.992 28.0533 132.618 28.2C132.258 28.3467 131.938 28.5533 131.658 28.82C131.378 29.0733 131.152 29.3867 130.978 29.76C130.805 30.1333 130.698 30.54 130.658 30.98H136.978Z" fill="white"/>
<defs>
<clipPath id="clip0_205_6">
<rect width="36" height="36" fill="white" transform="translate(0 2)"/>
</clipPath>
</defs>
</svg>
