<svg width="28" height="28" viewBox="0 0 28 28" fill="none" xmlns="http://www.w3.org/2000/svg">
<path d="M24.7209 11.8584C23.4866 11.3955 21.8613 11.1406 20.1445 11.1406C18.106 11.1406 16.0529 11.5047 14.7109 12.2134V5.04688C14.7109 4.37428 14.3156 3.42421 12.4319 2.71779C11.1975 2.25492 9.57228 2 7.85547 2C4.67646 2 1 2.94468 1 5.04688V23.3281C1 24.0008 1.39538 24.9508 3.27906 25.6572C4.51345 26.1201 6.13866 26.375 7.85547 26.375C9.72853 26.375 12.5636 26.02 13.96 24.8049C15.1812 25.8402 17.6736 26.375 20.1445 26.375C23.3493 26.375 27 25.4209 27 23.3281V14.1875C27 13.5149 26.6046 12.5648 24.7209 11.8584ZM13.1875 23.3281C13.1875 23.7752 11.3215 24.8617 7.85547 24.8617C4.40427 24.8617 2.52344 23.7794 2.52344 23.3281V22.2749C4.01844 23.0622 6.15521 23.3281 7.85547 23.3281C9.55476 23.3281 11.692 23.0625 13.1875 22.2749V23.3281ZM13.1875 20.2812C13.1875 20.7283 11.3215 21.8148 7.85547 21.8148C4.40427 21.8148 2.52344 20.7325 2.52344 20.2812V19.228C4.01844 20.0154 6.15521 20.2812 7.85547 20.2812C9.55476 20.2812 11.692 20.0156 13.1875 19.228V20.2812ZM13.1875 17.2344C13.1875 17.6814 11.3215 18.768 7.85547 18.768C4.40427 18.768 2.52344 17.6856 2.52344 17.2344V16.1812C4.01844 16.9685 6.15521 17.2344 7.85547 17.2344C9.55476 17.2344 11.692 16.9687 13.1875 16.1812V17.2344ZM13.1875 14.1875C13.1875 14.6345 11.3215 15.7211 7.85547 15.7211C4.40427 15.7211 2.52344 14.6387 2.52344 14.1875V13.1343C4.01793 13.9214 6.15465 14.1875 7.85547 14.1875C9.55431 14.1875 11.692 13.9219 13.1875 13.1343V14.1875ZM13.1875 11.1406C13.1875 11.5877 11.3215 12.6742 7.85547 12.6742C4.40427 12.6742 2.52344 11.5919 2.52344 11.1406V10.0874C4.01844 10.8747 6.15521 11.1406 7.85547 11.1406C9.55476 11.1406 11.692 10.875 13.1875 10.0874V11.1406ZM13.1875 8.09375C13.1875 8.54078 11.3215 9.62734 7.85547 9.62734C4.40427 9.62734 2.52344 8.54499 2.52344 8.09375V7.04055C4.01844 7.82786 6.15521 8.09375 7.85547 8.09375C9.55476 8.09375 11.692 7.82811 13.1875 7.04055V8.09375ZM7.85547 6.58047C4.40427 6.58047 2.52344 5.49812 2.52344 5.04688C2.52344 4.59985 4.38939 3.51328 7.85547 3.51328C11.3067 3.51328 13.1875 4.59563 13.1875 5.04688C13.1875 5.4939 11.3215 6.58047 7.85547 6.58047ZM25.4766 23.3281C25.4766 23.7752 23.6106 24.8617 20.1445 24.8617C16.7463 24.8617 14.7109 23.7889 14.7109 23.3281V22.2554C16.0529 22.9641 18.106 23.3281 20.1445 23.3281C21.8438 23.3281 23.9811 23.0625 25.4766 22.2749V23.3281ZM25.4766 20.2812C25.4766 20.7283 23.6106 21.8148 20.1445 21.8148C16.7463 21.8148 14.7109 20.742 14.7109 20.2812V19.2085C16.0529 19.9172 18.106 20.2812 20.1445 20.2812C21.8438 20.2812 23.9811 20.0156 25.4766 19.228V20.2812ZM25.4766 17.2344C25.4766 17.6814 23.6106 18.768 20.1445 18.768C16.7463 18.768 14.7109 17.6951 14.7109 17.2344V16.1616C16.0529 16.8703 18.106 17.2344 20.1445 17.2344C21.8438 17.2344 23.9811 16.9687 25.4766 16.1812V17.2344ZM20.1445 15.7211C16.7028 15.7211 14.7109 14.6348 14.7109 14.1875C14.7109 13.7588 16.6458 12.6539 20.1445 12.6539C23.5957 12.6539 25.4766 13.7363 25.4766 14.1875C25.4766 14.6345 23.6106 15.7211 20.1445 15.7211Z" fill="#17AB49"/>
</svg>
