<svg width="28" height="28" viewBox="0 0 28 28" fill="none" xmlns="http://www.w3.org/2000/svg">
<path d="M12.038 6.30208L15.6784 8.95628C16.572 9.60777 17.1604 10.5889 16.7188 11.6027C16.2771 12.6166 15.0487 13.162 14.0724 12.6431L8.393 9.625L5.98675 9.62877M6.36957 1.75L16.7033 1.70581C17.1282 1.64303 17.5721 1.71385 17.9645 1.92626C18.1389 2.01601 18.2996 2.13044 18.4414 2.26603L25.0767 7.4381C25.9544 8.12224 26.0935 9.41019 25.4008 10.2812C24.7081 11.1523 23.4769 11.2324 22.5577 10.6054L16.2375 6.29431L12.0906 6.2772M1.88519 10.4607H5.98675V0.820312H1.88519V10.4607ZM16.2085 16.9478L16.9413 20.4492L15.5571 23.7063L18.3492 25.6484L21.5211 27.1797L23.7633 25.4844L26.1148 19.7968L22.1527 17.4932L21.5827 15.2131H17.9185L16.2085 16.9478Z" stroke="#17AB49" stroke-width="1.40625" stroke-miterlimit="22.9256" stroke-linecap="round" stroke-linejoin="round"/>
</svg>
