<svg width="161" height="42" viewBox="0 0 161 42" fill="none" xmlns="http://www.w3.org/2000/svg">
<mask id="mask0_205_5" style="mask-type:alpha" maskUnits="userSpaceOnUse" x="0" y="2" width="34" height="36">
<path d="M31.9132 17.7852C33.67 18.7519 33.67 21.2481 31.9132 22.2148L3.81637 37.6759C2.10534 38.6174 0 37.3955 0 35.461V4.53902C0 2.60448 2.10534 1.38267 3.81637 2.32421L31.9132 17.7852Z" fill="#C4C4C4"/>
</mask>
<g mask="url(#mask0_205_5)">
<path d="M0.878857 37.3722L18.4047 19.7479L1.16749 2.41376C0.479811 2.8546 0 3.61571 0 4.53925V35.4612C0 36.2492 0.349241 36.9188 0.878857 37.3722Z" fill="url(#paint0_linear_205_5)"/>
<path d="M31.9126 17.785C33.6695 18.7518 33.6695 21.2478 31.9126 22.2146L24.8243 26.1152L18.4043 19.7473L24.497 13.7043L31.9126 17.785Z" fill="url(#paint1_linear_205_5)"/>
<path d="M24.825 26.1156L18.4049 19.7479L0.878906 37.3722C1.64961 38.0321 2.8023 38.2341 3.81648 37.676L24.825 26.1156Z" fill="url(#paint2_linear_205_5)"/>
<path d="M1.1669 2.41352L18.4042 19.7476L24.4969 13.7046L3.81575 2.32421C2.92157 1.83216 1.9197 1.93095 1.1669 2.41352Z" fill="url(#paint3_linear_205_5)"/>
</g>
<path d="M46.6622 6.96C46.6622 6.36267 46.7649 5.77 46.9702 5.182C47.1849 4.58467 47.4929 4.05267 47.8942 3.586C48.3049 3.11 48.8042 2.72733 49.3922 2.438C49.9802 2.14867 50.6475 2.004 51.3942 2.004C52.2809 2.004 53.0415 2.20467 53.6762 2.606C54.3109 3.00733 54.7822 3.53 55.0902 4.174L54.0962 4.818C53.9469 4.50067 53.7649 4.23467 53.5502 4.02C53.3449 3.80533 53.1162 3.63267 52.8642 3.502C52.6215 3.37133 52.3695 3.278 52.1082 3.222C51.8469 3.166 51.5902 3.138 51.3382 3.138C50.7875 3.138 50.2975 3.25467 49.8682 3.488C49.4482 3.712 49.0935 4.01067 48.8042 4.384C48.5149 4.748 48.2955 5.16333 48.1462 5.63C48.0062 6.08733 47.9362 6.54933 47.9362 7.016C47.9362 7.53867 48.0202 8.038 48.1882 8.514C48.3655 8.98067 48.6082 9.396 48.9162 9.76C49.2242 10.124 49.5882 10.4133 50.0082 10.628C50.4282 10.8427 50.8855 10.95 51.3802 10.95C51.6415 10.95 51.9075 10.9173 52.1782 10.852C52.4582 10.7867 52.7242 10.684 52.9762 10.544C53.2282 10.3947 53.4615 10.2127 53.6762 9.998C53.9002 9.774 54.0822 9.508 54.2222 9.2L55.2722 9.774C55.1135 10.1473 54.8895 10.4787 54.6002 10.768C54.3202 11.048 53.9982 11.286 53.6342 11.482C53.2795 11.678 52.9015 11.8273 52.5002 11.93C52.0989 12.0327 51.7069 12.084 51.3242 12.084C50.6429 12.084 50.0175 11.9347 49.4482 11.636C48.8789 11.3373 48.3842 10.95 47.9642 10.474C47.5535 9.98867 47.2315 9.44267 46.9982 8.836C46.7742 8.22 46.6622 7.59467 46.6622 6.96ZM61.0215 4.692H62.3935L59.5235 8.248L62.5895 12H61.2315L58.7255 8.794H57.8715V12H56.6675V4.692H57.8715V7.87H58.5855L61.0215 4.692ZM65.3925 12.14C65.0471 12.14 64.7251 12.084 64.4265 11.972C64.1278 11.8507 63.8665 11.6873 63.6425 11.482C63.4278 11.2767 63.2551 11.0387 63.1245 10.768C63.0031 10.488 62.9425 10.1847 62.9425 9.858C62.9425 9.522 63.0171 9.21867 63.1665 8.948C63.3158 8.668 63.5258 8.43 63.7965 8.234C64.0765 8.038 64.4031 7.884 64.7765 7.772C65.1591 7.66 65.5745 7.604 66.0225 7.604C66.3771 7.604 66.7365 7.63667 67.1005 7.702C67.4645 7.76733 67.7865 7.856 68.0665 7.968V7.38C68.0665 6.78267 67.8985 6.316 67.5625 5.98C67.2265 5.63467 66.7505 5.462 66.1345 5.462C65.3971 5.462 64.6225 5.74667 63.8105 6.316L63.4045 5.518C64.3471 4.88333 65.2945 4.566 66.2465 4.566C67.2078 4.566 67.9545 4.82267 68.4865 5.336C69.0278 5.84933 69.2985 6.57267 69.2985 7.506V10.488C69.2985 10.7773 69.4291 10.9267 69.6905 10.936V12C69.5598 12.0187 69.4525 12.0327 69.3685 12.042C69.2845 12.0513 69.1958 12.056 69.1025 12.056C68.8598 12.056 68.6638 11.986 68.5145 11.846C68.3745 11.6967 68.2905 11.5193 68.2625 11.314L68.2345 10.796C67.9078 11.2347 67.4925 11.5707 66.9885 11.804C66.4938 12.028 65.9618 12.14 65.3925 12.14ZM65.7145 11.216C66.1531 11.216 66.5591 11.1367 66.9325 10.978C67.3151 10.81 67.6045 10.5907 67.8005 10.32C67.9778 10.1427 68.0665 9.96067 68.0665 9.774V8.696C67.4691 8.46267 66.8485 8.346 66.2045 8.346C65.5885 8.346 65.0845 8.47667 64.6925 8.738C64.3098 8.99933 64.1185 9.34 64.1185 9.76C64.1185 9.96533 64.1558 10.1567 64.2305 10.334C64.3145 10.5113 64.4265 10.6653 64.5665 10.796C64.7158 10.9267 64.8885 11.0293 65.0845 11.104C65.2805 11.1787 65.4905 11.216 65.7145 11.216ZM76.0281 12H74.8101V9.088C74.7074 9.116 74.6048 9.144 74.5021 9.172C74.4088 9.2 74.2968 9.22333 74.1661 9.242C74.0448 9.25133 73.9001 9.26067 73.7321 9.27C73.5734 9.27933 73.3821 9.284 73.1581 9.284C72.7194 9.284 72.3508 9.214 72.0521 9.074C71.7534 8.934 71.5154 8.74733 71.3381 8.514C71.1608 8.27133 71.0348 8.00067 70.9601 7.702C70.8854 7.394 70.8481 7.072 70.8481 6.736V4.692H72.0661V6.498C72.0661 7.142 72.1874 7.59 72.4301 7.842C72.6728 8.08467 73.0041 8.206 73.4241 8.206C73.8161 8.206 74.1194 8.17333 74.3341 8.108C74.5488 8.04267 74.7074 7.95867 74.8101 7.856V4.692H76.0281V12ZM79.9257 12.14C79.5803 12.14 79.2583 12.084 78.9597 11.972C78.661 11.8507 78.3997 11.6873 78.1757 11.482C77.961 11.2767 77.7883 11.0387 77.6577 10.768C77.5363 10.488 77.4757 10.1847 77.4757 9.858C77.4757 9.522 77.5503 9.21867 77.6997 8.948C77.849 8.668 78.059 8.43 78.3297 8.234C78.6097 8.038 78.9363 7.884 79.3097 7.772C79.6923 7.66 80.1077 7.604 80.5557 7.604C80.9103 7.604 81.2697 7.63667 81.6337 7.702C81.9977 7.76733 82.3197 7.856 82.5997 7.968V7.38C82.5997 6.78267 82.4317 6.316 82.0957 5.98C81.7597 5.63467 81.2837 5.462 80.6677 5.462C79.9303 5.462 79.1557 5.74667 78.3437 6.316L77.9377 5.518C78.8803 4.88333 79.8277 4.566 80.7797 4.566C81.741 4.566 82.4877 4.82267 83.0197 5.336C83.561 5.84933 83.8317 6.57267 83.8317 7.506V10.488C83.8317 10.7773 83.9623 10.9267 84.2237 10.936V12C84.093 12.0187 83.9857 12.0327 83.9017 12.042C83.8177 12.0513 83.729 12.056 83.6357 12.056C83.393 12.056 83.197 11.986 83.0477 11.846C82.9077 11.6967 82.8237 11.5193 82.7957 11.314L82.7677 10.796C82.441 11.2347 82.0257 11.5707 81.5217 11.804C81.027 12.028 80.495 12.14 79.9257 12.14ZM80.2477 11.216C80.6863 11.216 81.0923 11.1367 81.4657 10.978C81.8483 10.81 82.1377 10.5907 82.3337 10.32C82.511 10.1427 82.5997 9.96067 82.5997 9.774V8.696C82.0023 8.46267 81.3817 8.346 80.7377 8.346C80.1217 8.346 79.6177 8.47667 79.2257 8.738C78.843 8.99933 78.6517 9.34 78.6517 9.76C78.6517 9.96533 78.689 10.1567 78.7637 10.334C78.8477 10.5113 78.9597 10.6653 79.0997 10.796C79.249 10.9267 79.4217 11.0293 79.6177 11.104C79.8137 11.1787 80.0237 11.216 80.2477 11.216ZM88.6873 12H87.4833V5.756H85.0333V4.692H91.1373V5.756H88.6873V12ZM92.4468 4.692H93.6508V7.212H95.0368C95.3541 7.212 95.6621 7.26333 95.9608 7.366C96.2688 7.45933 96.5395 7.60867 96.7728 7.814C97.0155 8.01 97.2115 8.262 97.3608 8.57C97.5101 8.86867 97.5848 9.22333 97.5848 9.634C97.5848 10.0447 97.5101 10.3993 97.3608 10.698C97.2115 10.9967 97.0155 11.244 96.7728 11.44C96.5395 11.6267 96.2688 11.7667 95.9608 11.86C95.6528 11.9533 95.3401 12 95.0228 12H92.4468V4.692ZM95.0228 10.964C95.4241 10.964 95.7461 10.8567 95.9888 10.642C96.2408 10.418 96.3668 10.082 96.3668 9.634C96.3668 9.17667 96.2315 8.83133 95.9608 8.598C95.6995 8.36467 95.3915 8.248 95.0368 8.248H93.6508V10.964H95.0228ZM106.233 4.692C106.494 4.692 106.737 4.73867 106.961 4.832C107.185 4.916 107.381 5.03733 107.549 5.196C107.717 5.35467 107.848 5.546 107.941 5.77C108.034 5.98467 108.081 6.22267 108.081 6.484C108.081 6.64267 108.062 6.806 108.025 6.974C107.988 7.13267 107.927 7.29133 107.843 7.45C107.768 7.59933 107.666 7.73933 107.535 7.87C107.404 8.00067 107.246 8.10333 107.059 8.178C107.46 8.29 107.778 8.5 108.011 8.808C108.244 9.10667 108.361 9.48467 108.361 9.942C108.361 10.25 108.305 10.5347 108.193 10.796C108.081 11.048 107.922 11.2627 107.717 11.44C107.521 11.6173 107.283 11.7573 107.003 11.86C106.732 11.9533 106.429 12 106.093 12H102.551V4.692H106.233ZM105.743 7.814C106.098 7.814 106.373 7.716 106.569 7.52C106.774 7.31467 106.877 7.03467 106.877 6.68C106.877 6.38133 106.798 6.12933 106.639 5.924C106.48 5.70933 106.214 5.602 105.841 5.602H103.755V7.814H105.743ZM105.953 11.09C106.326 11.09 106.62 10.9733 106.835 10.74C107.059 10.4973 107.171 10.2127 107.171 9.886C107.171 9.578 107.068 9.30733 106.863 9.074C106.658 8.84067 106.364 8.724 105.981 8.724H103.755V11.09H105.953Z" fill="white"/>
<path d="M57.54 35.24C56.34 36.48 54.96 37.1 53.4 37.1C52.4533 37.1 51.5733 36.9067 50.76 36.52C49.9467 36.12 49.24 35.5867 48.64 34.92C48.04 34.2533 47.5667 33.48 47.22 32.6C46.8867 31.72 46.72 30.8 46.72 29.84C46.72 28.88 46.8867 27.9667 47.22 27.1C47.5667 26.2333 48.04 25.4733 48.64 24.82C49.24 24.1667 49.9533 23.6533 50.78 23.28C51.6067 22.8933 52.5067 22.7 53.48 22.7C54.84 22.7 55.98 22.9867 56.9 23.56C57.82 24.12 58.5133 24.8667 58.98 25.8L57.26 27.04C56.8733 26.2667 56.34 25.6867 55.66 25.3C54.98 24.9133 54.2333 24.72 53.42 24.72C52.7533 24.72 52.1467 24.8667 51.6 25.16C51.0533 25.44 50.5867 25.82 50.2 26.3C49.8133 26.7667 49.5133 27.3133 49.3 27.94C49.1 28.5667 49 29.22 49 29.9C49 30.62 49.1133 31.2933 49.34 31.92C49.58 32.5467 49.9 33.0933 50.3 33.56C50.7133 34.0267 51.2 34.4 51.76 34.68C52.32 34.9467 52.9267 35.08 53.58 35.08C54.3 35.08 54.9867 34.9133 55.64 34.58C56.3067 34.2467 56.94 33.72 57.54 33V31.48H54.56V29.82H59.42V37H57.54V35.24ZM66.395 37.2C65.5683 37.2 64.8217 37.0533 64.155 36.76C63.5017 36.4667 62.9417 36.0733 62.475 35.58C62.0083 35.0867 61.6483 34.5133 61.395 33.86C61.1417 33.1933 61.015 32.5 61.015 31.78C61.015 31.06 61.1417 30.3733 61.395 29.72C61.6483 29.0533 62.0083 28.4733 62.475 27.98C62.955 27.4867 63.5217 27.0933 64.175 26.8C64.8417 26.5067 65.5817 26.36 66.395 26.36C67.2083 26.36 67.9417 26.5067 68.595 26.8C69.2617 27.0933 69.8283 27.4867 70.295 27.98C70.775 28.4733 71.1417 29.0533 71.395 29.72C71.6483 30.3733 71.775 31.06 71.775 31.78C71.775 32.5 71.6483 33.1933 71.395 33.86C71.1417 34.5133 70.775 35.0867 70.295 35.58C69.8283 36.0733 69.2617 36.4667 68.595 36.76C67.9417 37.0533 67.2083 37.2 66.395 37.2ZM63.275 31.8C63.275 32.3067 63.355 32.7733 63.515 33.2C63.675 33.6267 63.895 34 64.175 34.32C64.455 34.6267 64.7817 34.8733 65.155 35.06C65.5417 35.2333 65.955 35.32 66.395 35.32C66.835 35.32 67.2417 35.2333 67.615 35.06C68.0017 34.8733 68.335 34.62 68.615 34.3C68.895 33.98 69.115 33.6067 69.275 33.18C69.435 32.7533 69.515 32.2867 69.515 31.78C69.515 31.2867 69.435 30.8267 69.275 30.4C69.115 29.96 68.895 29.58 68.615 29.26C68.335 28.94 68.0017 28.6933 67.615 28.52C67.2417 28.3333 66.835 28.24 66.395 28.24C65.9683 28.24 65.5617 28.3333 65.175 28.52C64.8017 28.7067 64.475 28.96 64.195 29.28C63.915 29.6 63.6883 29.98 63.515 30.42C63.355 30.8467 63.275 31.3067 63.275 31.8ZM78.4263 37.2C77.5996 37.2 76.8529 37.0533 76.1863 36.76C75.5329 36.4667 74.9729 36.0733 74.5063 35.58C74.0396 35.0867 73.6796 34.5133 73.4263 33.86C73.1729 33.1933 73.0463 32.5 73.0463 31.78C73.0463 31.06 73.1729 30.3733 73.4263 29.72C73.6796 29.0533 74.0396 28.4733 74.5063 27.98C74.9863 27.4867 75.5529 27.0933 76.2063 26.8C76.8729 26.5067 77.6129 26.36 78.4263 26.36C79.2396 26.36 79.9729 26.5067 80.6263 26.8C81.2929 27.0933 81.8596 27.4867 82.3263 27.98C82.8063 28.4733 83.1729 29.0533 83.4262 29.72C83.6796 30.3733 83.8063 31.06 83.8063 31.78C83.8063 32.5 83.6796 33.1933 83.4262 33.86C83.1729 34.5133 82.8063 35.0867 82.3263 35.58C81.8596 36.0733 81.2929 36.4667 80.6263 36.76C79.9729 37.0533 79.2396 37.2 78.4263 37.2ZM75.3063 31.8C75.3063 32.3067 75.3863 32.7733 75.5463 33.2C75.7063 33.6267 75.9263 34 76.2063 34.32C76.4863 34.6267 76.8129 34.8733 77.1863 35.06C77.5729 35.2333 77.9863 35.32 78.4263 35.32C78.8663 35.32 79.2729 35.2333 79.6463 35.06C80.0329 34.8733 80.3663 34.62 80.6463 34.3C80.9263 33.98 81.1463 33.6067 81.3063 33.18C81.4663 32.7533 81.5463 32.2867 81.5463 31.78C81.5463 31.2867 81.4663 30.8267 81.3063 30.4C81.1463 29.96 80.9263 29.58 80.6463 29.26C80.3663 28.94 80.0329 28.6933 79.6463 28.52C79.2729 28.3333 78.8663 28.24 78.4263 28.24C77.9996 28.24 77.5929 28.3333 77.2063 28.52C76.8329 28.7067 76.5063 28.96 76.2263 29.28C75.9463 29.6 75.7196 29.98 75.5463 30.42C75.3863 30.8467 75.3063 31.3067 75.3063 31.8ZM89.8975 37.1C89.1908 37.1 88.5442 36.96 87.9575 36.68C87.3708 36.3867 86.8642 35.9933 86.4375 35.5C86.0242 35.0067 85.6975 34.44 85.4575 33.8C85.2308 33.16 85.1175 32.4867 85.1175 31.78C85.1175 31.0333 85.2375 30.3333 85.4775 29.68C85.7175 29.0133 86.0508 28.44 86.4775 27.96C86.9042 27.4667 87.4108 27.08 87.9975 26.8C88.5975 26.5067 89.2575 26.36 89.9775 26.36C90.8175 26.36 91.5508 26.56 92.1775 26.96C92.8175 27.36 93.3442 27.88 93.7575 28.52V26.54H95.6975V36.7C95.6975 37.46 95.5575 38.1333 95.2775 38.72C94.9975 39.3067 94.6042 39.8 94.0975 40.2C93.6042 40.6133 93.0175 40.9267 92.3375 41.14C91.6575 41.3533 90.9242 41.46 90.1375 41.46C88.9775 41.46 88.0108 41.26 87.2375 40.86C86.4775 40.4733 85.8375 39.9267 85.3175 39.22L86.5575 38.06C86.9575 38.62 87.4708 39.0467 88.0975 39.34C88.7375 39.6333 89.4175 39.78 90.1375 39.78C90.5908 39.78 91.0175 39.72 91.4175 39.6C91.8308 39.48 92.1908 39.2933 92.4975 39.04C92.8042 38.7867 93.0442 38.4667 93.2175 38.08C93.4042 37.6933 93.4975 37.2333 93.4975 36.7V35.1C93.1242 35.74 92.6108 36.2333 91.9575 36.58C91.3042 36.9267 90.6175 37.1 89.8975 37.1ZM90.6175 35.32C90.9508 35.32 91.2708 35.2667 91.5775 35.16C91.8842 35.04 92.1642 34.8867 92.4175 34.7C92.6842 34.5 92.9108 34.28 93.0975 34.04C93.2842 33.7867 93.4175 33.52 93.4975 33.24V30.5C93.3642 30.1667 93.1908 29.8667 92.9775 29.6C92.7642 29.32 92.5175 29.08 92.2375 28.88C91.9708 28.68 91.6842 28.5267 91.3775 28.42C91.0708 28.3 90.7642 28.24 90.4575 28.24C89.9775 28.24 89.5442 28.3467 89.1575 28.56C88.7842 28.76 88.4642 29.0333 88.1975 29.38C87.9308 29.7133 87.7242 30.0933 87.5775 30.52C87.4308 30.9467 87.3575 31.3867 87.3575 31.84C87.3575 32.32 87.4375 32.7733 87.5975 33.2C87.7708 33.6133 88.0042 33.98 88.2975 34.3C88.5908 34.6067 88.9308 34.8533 89.3175 35.04C89.7175 35.2267 90.1508 35.32 90.6175 35.32ZM98.3556 22.4H100.556V33.98C100.556 34.3667 100.656 34.6733 100.856 34.9C101.056 35.1133 101.336 35.22 101.696 35.22C101.842 35.22 102.009 35.1933 102.196 35.14C102.396 35.0867 102.582 35.0267 102.756 34.96L103.076 36.68C102.756 36.8267 102.376 36.94 101.936 37.02C101.496 37.1133 101.102 37.16 100.756 37.16C99.9956 37.16 99.4023 36.9533 98.9756 36.54C98.5623 36.1267 98.3556 35.54 98.3556 34.78V22.4ZM109.091 37.2C108.278 37.2 107.538 37.06 106.871 36.78C106.205 36.4867 105.631 36.0933 105.151 35.6C104.685 35.1067 104.318 34.5333 104.051 33.88C103.798 33.2267 103.671 32.5333 103.671 31.8C103.671 31.0667 103.798 30.3733 104.051 29.72C104.318 29.0533 104.685 28.4733 105.151 27.98C105.631 27.4733 106.205 27.08 106.871 26.8C107.538 26.5067 108.285 26.36 109.111 26.36C109.925 26.36 110.658 26.5067 111.311 26.8C111.978 27.0933 112.545 27.4867 113.011 27.98C113.478 28.46 113.831 29.0267 114.071 29.68C114.325 30.32 114.451 30.9933 114.451 31.7C114.451 31.86 114.445 32.0133 114.431 32.16C114.418 32.2933 114.405 32.4067 114.391 32.5H106.011C106.051 32.9667 106.158 33.3867 106.331 33.76C106.518 34.1333 106.751 34.46 107.031 34.74C107.325 35.0067 107.651 35.2133 108.011 35.36C108.385 35.5067 108.771 35.58 109.171 35.58C109.465 35.58 109.751 35.5467 110.031 35.48C110.325 35.4 110.591 35.2933 110.831 35.16C111.071 35.0133 111.285 34.84 111.471 34.64C111.658 34.44 111.805 34.22 111.911 33.98L113.791 34.52C113.431 35.3067 112.831 35.9533 111.991 36.46C111.165 36.9533 110.198 37.2 109.091 37.2ZM112.271 30.98C112.231 30.54 112.118 30.1333 111.931 29.76C111.758 29.3867 111.531 29.0733 111.251 28.82C110.971 28.5533 110.645 28.3467 110.271 28.2C109.898 28.0533 109.505 27.98 109.091 27.98C108.678 27.98 108.285 28.0533 107.911 28.2C107.551 28.3467 107.231 28.5533 106.951 28.82C106.671 29.0733 106.445 29.3867 106.271 29.76C106.098 30.1333 105.991 30.54 105.951 30.98H112.271ZM121.467 37V22.8H127.427C128.067 22.8 128.654 22.9333 129.187 23.2C129.734 23.4667 130.201 23.82 130.587 24.26C130.974 24.6867 131.274 25.18 131.487 25.74C131.714 26.2867 131.827 26.8467 131.827 27.42C131.827 28.02 131.721 28.6 131.507 29.16C131.307 29.7067 131.021 30.2 130.647 30.64C130.274 31.0667 129.821 31.4133 129.287 31.68C128.767 31.9333 128.187 32.06 127.547 32.06H123.707V37H121.467ZM123.707 30.08H127.407C127.727 30.08 128.014 30.0133 128.267 29.88C128.534 29.7467 128.761 29.56 128.947 29.32C129.134 29.08 129.281 28.8 129.387 28.48C129.494 28.16 129.547 27.8067 129.547 27.42C129.547 27.02 129.487 26.66 129.367 26.34C129.247 26.02 129.081 25.7467 128.867 25.52C128.654 25.28 128.407 25.1 128.127 24.98C127.861 24.8467 127.581 24.78 127.287 24.78H123.707V30.08ZM133.668 22.4H135.868V33.98C135.868 34.3667 135.968 34.6733 136.168 34.9C136.368 35.1133 136.648 35.22 137.008 35.22C137.155 35.22 137.321 35.1933 137.508 35.14C137.708 35.0867 137.895 35.0267 138.068 34.96L138.388 36.68C138.068 36.8267 137.688 36.94 137.248 37.02C136.808 37.1133 136.415 37.16 136.068 37.16C135.308 37.16 134.715 36.9533 134.288 36.54C133.875 36.1267 133.668 35.54 133.668 34.78V22.4ZM142.444 37.2C141.937 37.2 141.464 37.12 141.024 36.96C140.597 36.7867 140.224 36.5533 139.904 36.26C139.597 35.9667 139.35 35.62 139.164 35.22C138.99 34.82 138.904 34.3867 138.904 33.92C138.904 33.4267 139.01 32.98 139.224 32.58C139.437 32.18 139.737 31.8333 140.124 31.54C140.524 31.2467 140.99 31.02 141.524 30.86C142.07 30.7 142.67 30.62 143.324 30.62C143.817 30.62 144.304 30.6667 144.784 30.76C145.264 30.84 145.697 30.9533 146.084 31.1V30.38C146.084 29.6067 145.864 29.0067 145.424 28.58C144.984 28.14 144.35 27.92 143.524 27.92C142.964 27.92 142.41 28.0267 141.864 28.24C141.33 28.44 140.777 28.7333 140.204 29.12L139.524 27.72C140.87 26.8133 142.27 26.36 143.724 26.36C145.164 26.36 146.284 26.7267 147.084 27.46C147.884 28.1933 148.284 29.2467 148.284 30.62V34.4C148.284 34.8667 148.477 35.1067 148.864 35.12V37C148.65 37.04 148.464 37.0667 148.304 37.08C148.157 37.0933 148.01 37.1 147.864 37.1C147.437 37.1 147.104 36.9933 146.864 36.78C146.637 36.5667 146.497 36.2933 146.444 35.96L146.384 35.3C145.917 35.9133 145.337 36.3867 144.644 36.72C143.964 37.04 143.23 37.2 142.444 37.2ZM143.044 35.58C143.577 35.58 144.077 35.4867 144.544 35.3C145.024 35.1 145.397 34.8267 145.664 34.48C145.944 34.24 146.084 33.9867 146.084 33.72V32.34C145.71 32.1933 145.31 32.08 144.884 32C144.47 31.92 144.064 31.88 143.664 31.88C142.877 31.88 142.23 32.0533 141.724 32.4C141.23 32.7333 140.984 33.18 140.984 33.74C140.984 34.26 141.177 34.7 141.564 35.06C141.95 35.4067 142.444 35.58 143.044 35.58ZM151.059 39.46C151.259 39.5 151.452 39.5333 151.639 39.56C151.839 39.5867 151.999 39.6 152.119 39.6C152.292 39.6 152.439 39.56 152.559 39.48C152.692 39.4133 152.826 39.2867 152.959 39.1C153.092 38.9133 153.226 38.6467 153.359 38.3C153.506 37.9667 153.672 37.5333 153.859 37L149.559 26.54H151.819L155.059 35.06L157.939 26.54H160.019L155.279 39.42C155.066 40.02 154.692 40.52 154.159 40.92C153.639 41.3333 152.966 41.54 152.139 41.54C151.979 41.54 151.812 41.5267 151.639 41.5C151.466 41.4867 151.272 41.4467 151.059 41.38V39.46Z" fill="white"/>
<defs>
<linearGradient id="paint0_linear_205_5" x1="12.0142" y1="12.9025" x2="0.0983888" y2="24.9162" gradientUnits="userSpaceOnUse">
<stop stop-color="#00C3FF"/>
<stop offset="1" stop-color="#1BE2FA"/>
</linearGradient>
<linearGradient id="paint1_linear_205_5" x1="18.4043" y1="19.7474" x2="34.2527" y2="19.7474" gradientUnits="userSpaceOnUse">
<stop stop-color="#FFCE00"/>
<stop offset="1" stop-color="#FFEA00"/>
</linearGradient>
<linearGradient id="paint2_linear_205_5" x1="0.511361" y1="39.5236" x2="21.5931" y2="22.622" gradientUnits="userSpaceOnUse">
<stop stop-color="#DE2453"/>
<stop offset="1" stop-color="#FE3944"/>
</linearGradient>
<linearGradient id="paint3_linear_205_5" x1="1.5331" y1="0.47882" x2="21.596" y2="16.8659" gradientUnits="userSpaceOnUse">
<stop stop-color="#11D574"/>
<stop offset="1" stop-color="#01F176"/>
</linearGradient>
</defs>
</svg>
