<svg width="32" height="33" viewBox="0 0 32 33" fill="none" xmlns="http://www.w3.org/2000/svg">
<g clip-path="url(#clip0_0_121)">
<path d="M5.10521 28.9976L5.10642 28.9982C8.34379 30.6591 12.1613 31.5001 15.9998 31.5001L5.10521 28.9976ZM5.10521 28.9976C4.85506 28.8696 4.6478 28.6713 4.50898 28.4271C4.37017 28.1828 4.30587 27.9032 4.324 27.6228L4.32415 27.6206C4.33591 27.4321 4.38476 27.2477 4.4679 27.0781C4.55103 26.9085 4.66682 26.757 4.80862 26.6322C5.09227 26.3827 5.21104 25.9945 5.11564 25.629C4.29725 22.4929 5.22327 18.6233 8.10529 14.573L8.10529 14.573C9.26588 12.942 10.7324 11.3241 12.1379 9.9947C13.3065 10.5341 14.606 10.8624 16.0001 10.8624H20.7338C21.8884 12.0198 23.0358 13.3279 23.9809 14.6562L23.9809 14.6563C26.8129 18.6355 27.7148 22.4766 26.886 25.6271C26.7899 25.9922 26.9077 26.3804 27.1906 26.6305C27.4771 26.884 27.6517 27.2405 27.6761 27.6222L27.6762 27.6228C27.6943 27.9032 27.63 28.1828 27.4912 28.427C27.3523 28.6713 27.1451 28.8696 26.8949 28.9976L26.8938 28.9981M5.10521 28.9976L26.8938 28.9981M26.8938 28.9981C23.6574 30.6582 19.8379 31.4992 16.0001 31.5001L26.8938 28.9981Z" stroke="#17AB49" stroke-width="2" stroke-linejoin="round"/>
<path d="M21.6174 0.5H19.7449C18.3973 0.5 17.0935 0.912321 16 1.67486C14.9065 0.912321 13.6027 0.5 12.255 0.5H10.3825C9.86504 0.5 9.44629 0.91875 9.44629 1.43624C9.44629 5.04958 12.3866 7.98994 16 7.98994H21.6174C23.1662 7.98994 24.4262 9.24987 24.4262 10.7987C24.4262 11.3162 24.8449 11.7349 25.3624 11.7349C25.8799 11.7349 26.2986 11.3162 26.2986 10.7987C26.2986 8.21757 24.1985 6.11745 21.6174 6.11745H20.572C21.7911 4.92655 22.5537 3.27078 22.5537 1.43624C22.5537 0.91875 22.1349 0.5 21.6174 0.5Z" fill="#1F2723"/>
</g>
<defs>
<clipPath id="clip0_0_121">
<rect width="32" height="32" fill="white" transform="translate(0 0.5)"/>
</clipPath>
</defs>
</svg>
