<svg width="28" height="28" viewBox="0 0 28 28" fill="none" xmlns="http://www.w3.org/2000/svg">
<g clip-path="url(#clip0_0_74)">
<path d="M9.67298 16.3745L14.6476 11.3999C15.2408 10.8067 15.2308 9.83883 14.6176 9.2582C14.0265 8.69853 13.0887 8.73369 12.5131 9.30929L5.0958 16.7266L5.09615 13.1554C5.0958 12.3304 4.42719 11.6618 3.60223 11.6614C3.1896 11.6614 2.8164 11.829 2.54598 12.0994C2.27561 12.3698 2.10835 12.7427 2.10835 13.1553V13.4132C2.10835 15.0785 1.7369 16.7166 1.07346 18.244C0.291572 20.0442 0.636535 22.2165 2.10835 23.6883L2.97803 24.558C4.90037 26.4803 8.01713 26.4803 9.93947 24.558L13.876 20.6215C14.4516 20.0459 14.4868 19.1081 13.9272 18.517C13.3465 17.9037 12.3787 17.8938 11.7855 18.487M9.67298 16.3745C10.2564 15.7911 11.2021 15.7911 11.7855 16.3745C12.3689 16.9579 12.3689 17.9036 11.7855 18.487M9.67298 16.3745L7.89833 18.1491M11.7855 18.487L10.0109 20.2616" stroke="#17AB49" stroke-width="1.44642" stroke-miterlimit="22.9256" stroke-linecap="round" stroke-linejoin="round"/>
<path d="M10.2267 11.5958V3.66536C10.2267 2.74569 10.9726 1.9998 11.8923 1.9998H23.001C23.9207 1.9998 24.6665 2.74569 24.6665 3.66536V24.3342C24.6665 25.2539 23.9207 25.9998 23.001 25.9998H11.8923C10.9726 25.9998 10.2267 25.2539 10.2267 24.3342V24.2705M16.2172 23.0123H18.6983M10.3402 4.98735H24.5531" stroke="#17AB49" stroke-width="1.44642" stroke-miterlimit="22.9256" stroke-linecap="round" stroke-linejoin="round"/>
</g>
<defs>
<clipPath id="clip0_0_74">
<rect width="28" height="28" fill="white"/>
</clipPath>
</defs>
</svg>
